<?xml version="1.0" standalone="no"?>
<!DOCTYPE svg PUBLIC "-//W3C//DTD SVG 1.1//EN" "http://www.w3.org/Graphics/SVG/1.1/DTD/svg11.dtd" >
<svg xmlns="http://www.w3.org/2000/svg">
<metadata>
This is a custom SVG webfont generated by Font Squirrel.
Copyright   : HTF Gotham Copr 2003 The Hoefler Type Foundry Inc Info wwwtypographycom
</metadata>
<defs>
<font id="GothamHTFXLight" horiz-adv-x="1886" >
<font-face units-per-em="2048" ascent="1638" descent="-410" />
<missing-glyph horiz-adv-x="641" />
<glyph unicode=" "  horiz-adv-x="641" />
<glyph unicode="&#x09;" horiz-adv-x="641" />
<glyph unicode="&#xa0;" horiz-adv-x="641" />
<glyph unicode="!" horiz-adv-x="483" d="M190 0v145h107v-145h-107zM201 1356v207h82v-207l-21 -948h-39z" />
<glyph unicode="&#x22;" horiz-adv-x="772" d="M141 995l78 568h92v-7l-129 -561h-41zM473 995l78 568h92v-7l-127 -561h-43z" />
<glyph unicode="#" horiz-adv-x="1507" d="M109 436v68h272l98 567h-280v68h293l73 424h70l-72 -424h504l74 424h69l-73 -424h260v-68h-273l-96 -567h281v-68h-293l-74 -436h-70l74 436h-504l-75 -436h-70l74 436h-262zM453 502h505l99 569h-506z" />
<glyph unicode="$" horiz-adv-x="1396" d="M143 242l50 55q213 -207 479 -229v696q-246 55 -358.5 146t-112.5 255v4q0 166 132 278t337 114v131h69v-131q246 -16 445 -183l-47 -59q-186 162 -400 176v-676q256 -55 376 -150.5t120 -256.5v-6q0 -178 -136 -292t-358 -114v-219h-69v221q-298 23 -527 240zM276 1169 q0 -131 89.5 -205.5t306.5 -125.5v659q-176 -2 -286 -94t-110 -229v-5zM737 66q190 0 305 94t115 241v5q0 139 -95 212.5t-325 129.5v-682z" />
<glyph unicode="%" horiz-adv-x="1798" d="M121 1176v6q0 162 97 280.5t248.5 118.5t249 -119t97.5 -278v-4q0 -164 -97.5 -283t-249 -119t-248.5 118t-97 280zM197 1180q0 -141 77.5 -239.5t194.5 -98.5q119 0 193.5 97t74.5 235v6q0 137 -77.5 236.5t-195.5 99.5t-192.5 -98.5t-74.5 -233.5v-4zM289 0l1147 1563 h75l-1146 -1563h-76zM987 379v4q0 164 97.5 282.5t249 118.5t248.5 -118.5t97 -278.5v-6q0 -162 -97 -280.5t-248.5 -118.5t-249 117.5t-97.5 279.5zM1063 383q0 -139 78 -237.5t194 -98.5q119 0 194 97.5t75 234.5v4q0 139 -78 238.5t-196 99.5t-192.5 -98.5t-74.5 -233.5 v-6z" />
<glyph unicode="&#x26;" horiz-adv-x="1513" d="M115 393v4q0 168 110.5 277.5t309.5 193.5q-197 213 -197 379v4q0 137 102.5 237.5t268.5 100.5q152 0 251 -96t99 -227v-4q0 -131 -95.5 -228.5t-308.5 -185.5l455 -479q113 160 211 413l68 -24q-106 -270 -232 -441l279 -294l-56 -50l-268 285q-233 -281 -530 -281 q-203 0 -335 120t-132 296zM190 395q0 -145 111 -247.5t281 -102.5q266 0 483 262l-485 512q-186 -76 -288 -174t-102 -246v-4zM414 1251q0 -80 43 -160.5t153 -195.5q203 80 289 165t86 200v4q0 104 -79 182t-201 78q-129 0 -210 -80t-81 -187v-6z" />
<glyph unicode="'" horiz-adv-x="440" d="M141 995l78 568h92v-7l-129 -561h-41z" />
<glyph unicode="(" horiz-adv-x="905" d="M154 641q0 299 153.5 544t444.5 408l32 -49q-270 -158 -412.5 -389t-142.5 -515t142.5 -514t412.5 -390l-32 -49q-291 166 -444.5 410.5t-153.5 543.5z" />
<glyph unicode=")" horiz-adv-x="905" d="M123 -264q270 160 411.5 390t141.5 514t-141.5 515t-411.5 389l31 49q293 -164 445.5 -408.5t152.5 -543.5t-153 -543.5t-445 -410.5z" />
<glyph unicode="*" horiz-adv-x="958" d="M174 1100l275 137l-275 135l35 62l254 -168l-17 301h68l-16 -301l252 168l36 -62l-274 -135l274 -137l-36 -60l-252 168l16 -301h-68l17 301l-254 -168z" />
<glyph unicode="+" horiz-adv-x="1308" d="M158 752v67h463v473h71v-473h459v-67h-459v-473h-71v473h-463z" />
<glyph unicode="," horiz-adv-x="423" d="M123 -166q92 45 84 166h-49v145h108v-127q0 -98 -28.5 -147t-94.5 -74z" />
<glyph unicode="-" horiz-adv-x="882" d="M156 625v77h571v-77h-571z" />
<glyph unicode="." horiz-adv-x="423" d="M158 0v145h108v-145h-108z" />
<glyph unicode="/" horiz-adv-x="1077" d="M-41 -287l1053 2069h73l-1052 -2069h-74z" />
<glyph unicode="0" horiz-adv-x="1583" d="M150 778v6q0 334 176 569.5t467 235.5q293 0 468 -234.5t175 -570.5v-6q0 -334 -176.5 -569.5t-466.5 -235.5q-293 0 -468 234.5t-175 570.5zM227 782q0 -303 156 -521t412 -218t409.5 216t153.5 517v6q0 301 -155.5 519.5t-411.5 218.5t-410 -215t-154 -519v-4z" />
<glyph unicode="1" horiz-adv-x="720" d="M72 1434l334 139h59v-1573h-74v1491l-295 -119z" />
<glyph unicode="2" horiz-adv-x="1284" d="M96 0v51l658 623q178 166 242.5 277.5t64.5 219.5q0 145 -111.5 246t-277.5 101q-293 0 -475 -306l-62 37q197 336 541 336q201 0 332 -117.5t131 -287.5v-6q0 -129 -71 -247t-265 -302l-584 -553h940v-72h-1063z" />
<glyph unicode="3" horiz-adv-x="1261" d="M63 252l58 49q197 -258 508 -258q180 0 305 104.5t125 264.5v4q0 182 -147.5 275t-397.5 93h-65l-23 43l582 664h-863v72h965v-54l-573 -657q274 -4 436 -113.5t162 -320.5v-4q0 -190 -148.5 -315.5t-359.5 -125.5q-355 0 -564 279z" />
<glyph unicode="4" horiz-adv-x="1423" d="M90 451l922 1122h63v-1108h258v-68h-258v-397h-71v397h-889zM188 465h816v997z" />
<glyph unicode="5" horiz-adv-x="1331" d="M125 223l55 53q213 -233 488 -233q201 0 329.5 119t128.5 303v4q0 176 -130 287.5t-328.5 111.5t-388.5 -102l-54 31l45 766h850v-72h-780l-41 -641q176 86 377 86q227 0 377.5 -130t150.5 -335v-4q0 -217 -152.5 -355.5t-387.5 -138.5q-152 0 -297.5 72t-241.5 178z" />
<glyph unicode="6" horiz-adv-x="1409" d="M152 735v4q0 371 168.5 610.5t453.5 239.5q238 0 443 -180l-50 -59q-182 170 -399 170q-246 0 -392.5 -218.5t-148.5 -562.5v-4q0 -96 2 -143q39 154 176.5 261.5t327.5 107.5q227 0 384 -135.5t157 -344.5v-4q0 -209 -155.5 -356.5t-383.5 -147.5q-240 0 -393 158 q-190 186 -190 604zM268 473q0 -178 137.5 -304t334 -126t326.5 128t130 304v4q0 180 -132 297t-335 117q-190 0 -325.5 -125t-135.5 -291v-4z" />
<glyph unicode="7" horiz-adv-x="1236" d="M129 1491v72h1026v-52l-749 -1511h-82l745 1491h-940z" />
<glyph unicode="8" horiz-adv-x="1400" d="M125 406v6q0 139 108.5 246.5t276.5 146.5q-147 47 -236.5 142t-89.5 229v6q0 174 151.5 288.5t365.5 114.5t365 -114.5t151 -288.5v-6q0 -133 -88.5 -228.5t-235.5 -142.5q168 -41 274.5 -147.5t106.5 -245.5v-6q0 -182 -159 -305.5t-415 -123.5t-415.5 123.5 t-159.5 305.5zM203 403q0 -150 137 -253t360 -103q225 0 361.5 102.5t136.5 251.5v5q0 158 -144.5 261t-354.5 103t-353 -102.5t-143 -259.5v-5zM262 1180q0 -152 128 -247t310 -95q186 0 312.5 93t126.5 245v6q0 141 -127 237.5t-312.5 96.5t-311.5 -95.5t-126 -236.5v-4z " />
<glyph unicode="9" horiz-adv-x="1409" d="M135 1071v4q0 215 157 364.5t387 149.5t392 -157q190 -190 191 -607v-4q0 -371 -172 -609.5t-451 -238.5q-250 0 -461 195l49 57q195 -182 414 -182q246 0 394.5 219t150.5 559v4q0 20 -1 70.5t-1 71.5q-39 -162 -177.5 -270.5t-328.5 -108.5q-233 0 -388 137t-155 346z M215 1073q0 -182 132 -300t337 -118q190 0 324.5 127t134.5 295v6q0 182 -136.5 309.5t-334.5 127.5q-195 0 -326 -130t-131 -313v-4z" />
<glyph unicode=":" horiz-adv-x="438" d="M166 0v145h106v-145h-106zM166 981v143h106v-143h-106z" />
<glyph unicode=";" horiz-adv-x="438" d="M129 -166q92 45 86 166h-49v145h106v-127q0 -98 -27.5 -147t-94.5 -74zM166 981v143h106v-143h-106z" />
<glyph unicode="&#x3c;" horiz-adv-x="1374" d="M141 762v49l1030 528v-77l-931 -476l931 -475v-80z" />
<glyph unicode="=" horiz-adv-x="1374" d="M207 494v71h960v-71h-960zM207 1010v71h960v-71h-960z" />
<glyph unicode="&#x3e;" horiz-adv-x="1374" d="M203 231v80l934 475l-934 476v77l1032 -528v-49z" />
<glyph unicode="?" horiz-adv-x="1144" d="M63 1309q186 274 490 274q213 0 344 -122t131 -302v-4q0 -193 -138 -307.5t-341 -136.5l-19 -303h-41l-22 356l8 8q217 12 347 111.5t130 265.5v6q0 154 -111.5 257.5t-289.5 103.5q-260 0 -432 -250zM457 0v145h108v-145h-108z" />
<glyph unicode="@" horiz-adv-x="2144" d="M133 596q0 403 275.5 698t674.5 295q389 0 659.5 -259t270.5 -613q0 -266 -117.5 -404.5t-265.5 -138.5q-119 0 -185.5 69.5t-78.5 176.5q-145 -246 -385 -246q-164 0 -272.5 103.5t-108.5 275.5q0 223 148.5 380t338.5 157q127 0 217.5 -69t118.5 -175l39 201l70 -11 l-82 -444q-14 -80 -14 -141q0 -102 50 -162t148 -60q125 0 223.5 124t98.5 364q0 328 -254 573.5t-621 245.5q-381 0 -636 -277.5t-255 -662.5q0 -393 260.5 -650t651.5 -257q293 0 534 151l27 -43q-246 -162 -563 -162q-412 0 -689.5 272.5t-277.5 688.5zM676 557 q0 -145 86 -229t225 -84q162 0 285 139t123 313q0 139 -88 231.5t-220 92.5q-166 0 -288.5 -134t-122.5 -329z" />
<glyph unicode="A" horiz-adv-x="1730" d="M90 0l739 1573h72l741 -1573h-81l-213 455h-967l-213 -455h-78zM416 524h899l-451 961z" />
<glyph unicode="B" horiz-adv-x="1615" d="M231 0v1563h643q272 0 410 -136q100 -102 100 -253v-5q0 -143 -80.5 -238t-207.5 -132q164 -29 268 -129.5t104 -251.5v-4q0 -195 -149.5 -304.5t-409.5 -109.5h-678zM307 70h604q225 0 352.5 91t127.5 251v4q0 160 -129 249t-342 89h-613v-684zM307 823h584 q182 0 300 88t118 252v4q0 150 -117 238t-320 88h-565v-670z" />
<glyph unicode="C" horiz-adv-x="1630" d="M164 776v6q0 334 220 570.5t552 236.5q201 0 335 -62.5t265 -185.5l-53 -55q-115 109 -243 171.5t-306 62.5q-295 0 -493.5 -215t-198.5 -521v-6q0 -305 199.5 -520t494.5 -215q313 0 555 250l53 -51q-262 -268 -612 -269q-330 0 -549 233.5t-219 569.5z" />
<glyph unicode="D" horiz-adv-x="1732" d="M231 0v1563h510q365 0 597.5 -223.5t232.5 -555.5v-6q0 -332 -232.5 -555t-597.5 -223h-510zM307 70h436q330 0 540 202.5t210 503.5v6q0 301 -210 506t-542 205h-434v-1423z" />
<glyph unicode="E" horiz-adv-x="1482" d="M231 0v1563h1102v-70h-1026v-672h928v-69h-928v-682h1036v-70h-1112z" />
<glyph unicode="F" horiz-adv-x="1421" d="M231 0v1563h1090v-70h-1014v-692h916v-68h-916v-733h-76z" />
<glyph unicode="G" horiz-adv-x="1742" d="M164 776v6q0 328 215 567.5t557 239.5q174 0 301 -50t252 -153l-49 -57q-115 92 -231.5 141.5t-276.5 49.5q-303 0 -496.5 -218.5t-193.5 -517.5v-6q0 -313 190.5 -525t509.5 -212q295 0 533 201v479h-555v74h628v-582q-262 -240 -608 -240q-358 0 -567 231.5t-209 571.5 z" />
<glyph unicode="H" horiz-adv-x="1683" d="M231 0v1563h76v-742h1071v742h76v-1563h-76v752h-1071v-752h-76z" />
<glyph unicode="I" horiz-adv-x="571" d="M248 0v1563h76v-1563h-76z" />
<glyph unicode="J" horiz-adv-x="1204" d="M74 281l65 36q125 -272 398 -272q168 0 275.5 122t107.5 351v1045h75v-1037q0 -276 -145 -426q-129 -125 -320 -125q-156 0 -273 82.5t-183 223.5z" />
<glyph unicode="K" horiz-adv-x="1581" d="M231 0v1563h76v-1045l1049 1045h104l-682 -672l709 -891h-98l-664 840l-418 -414v-426h-76z" />
<glyph unicode="L" horiz-adv-x="1333" d="M231 0v1563h76v-1493h942v-70h-1018z" />
<glyph unicode="M" horiz-adv-x="1925" d="M231 0v1563h72l662 -951l657 951h72v-1563h-76v1432l-653 -938h-4l-656 938v-1432h-74z" />
<glyph unicode="N" horiz-adv-x="1748" d="M231 0v1563h70l1143 -1434v1434h74v-1563h-60l-1153 1444v-1444h-74z" />
<glyph unicode="O" d="M164 778v6q0 330 218 567.5t562 237.5t561 -237.5t217 -567.5q3 0 3 -1.5t-3 -4.5q0 -330 -218 -567.5t-562 -237.5t-561 237.5t-217 567.5zM242 782q0 -305 199.5 -522t504.5 -217q303 0 501 215t198 518v6q0 303 -199 520.5t-504 217.5t-502.5 -215t-197.5 -519v-4z " />
<glyph unicode="P" horiz-adv-x="1490" d="M229 0v1563h559q274 0 433 -126t159 -347v-5q0 -231 -168 -358t-442 -127h-465v-600h-76zM305 672h467q246 0 389.5 109.5t143.5 301.5v4q0 193 -140.5 299.5t-382.5 106.5h-477v-821z" />
<glyph unicode="Q" d="M164 778v6q0 330 218 567.5t562 237.5t561 -237.5t217 -567.5q6 0 0 -6q0 -326 -209 -559l224 -192l-51 -58l-224 199q-219 -195 -520 -195q-344 0 -561 237.5t-217 567.5zM242 782q0 -305 199.5 -522t504.5 -217q268 0 461 174l-330 283l53 57l328 -289q186 207 187 508 v6q0 303 -199 520.5t-504 217.5t-502.5 -215t-197.5 -519v-4z" />
<glyph unicode="R" horiz-adv-x="1615" d="M231 0v1563h646q293 0 446 -150q115 -119 115 -291v-4q0 -193 -134.5 -307.5t-357.5 -134.5l520 -676h-96l-508 668h-8h-547v-668h-76zM307 737h551q236 0 370 103.5t134 273.5v4q0 176 -130 275.5t-360 99.5h-565v-756z" />
<glyph unicode="S" horiz-adv-x="1429" d="M131 227l51 56q250 -236 578 -236q201 0 323.5 97.5t122.5 246.5v4q0 141 -103.5 221t-379.5 138q-285 57 -407.5 155.5t-122.5 266.5v6q0 168 143 285.5t362 117.5q299 0 533 -182l-47 -62q-219 174 -490 175q-188 0 -307 -97.5t-119 -230.5v-4q0 -141 103.5 -221 t380.5 -140q289 -57 409.5 -155.5t120.5 -266.5v-4q0 -182 -145.5 -301t-382.5 -119q-353 0 -623 250z" />
<glyph unicode="T" horiz-adv-x="1355" d="M84 1493v70h1190v-70h-557v-1493h-76v1493h-557z" />
<glyph unicode="U" horiz-adv-x="1683" d="M207 674v889h76v-885q0 -305 152.5 -469t411.5 -164t407.5 161t148.5 468v889h76v-883q0 -340 -172 -522.5t-463 -182.5t-464 181.5t-173 517.5z" />
<glyph unicode="V" horiz-adv-x="1642" d="M90 1563h82l651 -1479l652 1479h79l-702 -1573h-61z" />
<glyph unicode="W" horiz-adv-x="2344" d="M102 1563h82l492 -1454l469 1458h59l471 -1461l490 1457h78l-539 -1573h-64l-469 1433l-466 -1433h-62z" />
<glyph unicode="X" horiz-adv-x="1544" d="M96 0l631 795l-608 768h88l565 -717l565 717h90l-608 -766l629 -797h-88l-588 745l-588 -745h-88z" />
<glyph unicode="Y" horiz-adv-x="1519" d="M57 1563h95l612 -854l606 854h92l-663 -922v-641h-76v641z" />
<glyph unicode="Z" horiz-adv-x="1521" d="M150 0v43l1107 1450h-1069v70h1176v-43l-1108 -1450h1104v-70h-1210z" />
<glyph unicode="[" horiz-adv-x="931" d="M219 -291v1854h596v-56h-524v-1740h524v-58h-596z" />
<glyph unicode="\" horiz-adv-x="1077" d="M-8 1782h76l1050 -2069h-76z" />
<glyph unicode="]" horiz-adv-x="931" d="M119 -233h524v1740h-524v56h596v-1854h-596v58z" />
<glyph unicode="^" horiz-adv-x="1116" d="M180 1102l350 467h56l350 -467h-70l-309 393l-309 -393h-68z" />
<glyph unicode="_" horiz-adv-x="1271" d="M-4 -276h1280v-66h-1280v66z" />
<glyph unicode="`" horiz-adv-x="1116" d="M371 1569l86 45l209 -285h-56z" />
<glyph unicode="a" horiz-adv-x="1269" d="M115 317v5q0 172 138 267t359 95q209 0 402 -63v75q0 188 -105.5 283.5t-296.5 95.5q-180 0 -366 -92l-27 61q203 98 397 99q233 0 357 -123q113 -117 112 -320v-700h-71v233q-49 -106 -172 -183t-301 -77q-174 0 -300 90t-126 254zM190 322q0 -131 102.5 -206t252.5 -75 q201 0 336 110.5t135 264.5v137q-193 63 -406 63q-190 0 -305 -76.5t-115 -213.5v-4z" />
<glyph unicode="b" horiz-adv-x="1466" d="M207 0v1630h72v-815q63 150 192 243t305 93q233 0 395 -166t162 -420v-4q0 -254 -161.5 -421t-395.5 -167q-178 0 -307 92.5t-190 239.5v-305h-72zM274 561q0 -217 145.5 -367.5t350.5 -150.5q213 0 350 144.5t137 369.5v6q0 223 -138 371.5t-349 148.5 q-207 0 -351.5 -150.5t-144.5 -367.5v-4z" />
<glyph unicode="c" horiz-adv-x="1259" d="M129 561v4q0 240 168 413t408 173q252 0 450 -207l-53 -51q-180 193 -400 192q-209 0 -353 -151.5t-144 -366.5v-4q0 -215 146.5 -368.5t357.5 -153.5q223 0 403 201l51 -45q-193 -223 -461 -224q-240 0 -406.5 173t-166.5 415z" />
<glyph unicode="d" horiz-adv-x="1466" d="M133 561v4q0 252 162 419t395 167q178 0 307 -92t191 -240v811h72v-1630h-72v311q-63 -152 -192.5 -245t-305.5 -93q-233 0 -395 166t-162 422zM209 563q0 -223 139 -371.5t348 -148.5q207 0 351.5 150.5t144.5 367.5v4q0 217 -145.5 367.5t-350.5 150.5 q-211 0 -349 -145t-138 -371v-4z" />
<glyph unicode="e" horiz-adv-x="1300" d="M129 563v4q0 250 153.5 417t385.5 167q242 0 379 -174t137 -416v-24h-977q10 -223 149.5 -359.5t333.5 -136.5q244 0 404 207l53 -43q-178 -231 -459 -232q-236 0 -397.5 163t-161.5 427zM207 600h899q-10 199 -127 342t-315 143q-190 0 -317.5 -137t-139.5 -348z" />
<glyph unicode="f" horiz-adv-x="757" d="M109 1061v63h172v142q0 197 96 288q84 82 221 82q88 0 164 -28v-70q-74 29 -164 29q-246 0 -246 -307v-136h406v-63h-406v-1061h-71v1061h-172z" />
<glyph unicode="g" horiz-adv-x="1454" d="M133 614v4q0 225 164 379t387 154q164 0 293 -82t197 -215v270h73v-952q0 -244 -145 -389q-145 -147 -404 -148q-283 0 -514 175l43 59q215 -164 471 -164q219 0 347.5 123t128.5 352v203q-68 -133 -197 -217t-293 -84q-223 0 -387 154.5t-164 377.5zM213 616 q0 -195 140.5 -329.5t336.5 -134.5q199 0 345.5 134t146.5 328v4q0 195 -146.5 330t-345 135t-338 -133t-139.5 -329v-5z" />
<glyph unicode="h" horiz-adv-x="1359" d="M207 0v1630h72v-772q45 117 156.5 205t277.5 88q219 0 341 -134t122 -358v-659h-70v647q0 201 -105.5 319.5t-298.5 118.5q-178 0 -300.5 -130t-122.5 -320v-635h-72z" />
<glyph unicode="i" horiz-adv-x="514" d="M209 1436v135h96v-135h-96zM221 0v1124h74v-1124h-74z" />
<glyph unicode="j" horiz-adv-x="516" d="M-18 -295q35 -8 84 -8q70 0 114.5 50t44.5 144v1233h72v-1228q0 -129 -61.5 -197t-167.5 -68q-47 0 -86 11v63zM213 1436v135h94v-135h-94z" />
<glyph unicode="k" horiz-adv-x="1226" d="M207 0v1630h72v-1233l747 727h96l-518 -497l545 -627h-88l-506 578l-276 -265v-313h-72z" />
<glyph unicode="l" horiz-adv-x="514" d="M221 0v1630h74v-1630h-74z" />
<glyph unicode="m" horiz-adv-x="2084" d="M207 0v1124h72v-252q43 113 144 196t241 83q158 0 257 -82t140 -215q47 123 153.5 210t249.5 87q195 0 310.5 -127t115.5 -352v-672h-71v666q0 201 -96.5 310t-262.5 109q-150 0 -262.5 -121.5t-112.5 -308.5v-655h-71v668q0 197 -97.5 307t-261.5 110 q-150 0 -263 -125.5t-113 -306.5v-653h-72z" />
<glyph unicode="n" horiz-adv-x="1359" d="M207 0v1124h72v-266q45 117 156.5 205t277.5 88q219 0 341 -134t122 -358v-659h-70v647q0 201 -105.5 319.5t-298.5 118.5q-178 0 -300.5 -130t-122.5 -320v-635h-72z" />
<glyph unicode="o" horiz-adv-x="1419" d="M127 557v6q0 240 165 414t421 174q252 0 415.5 -171t163.5 -413v-4q0 -244 -163.5 -417t-417.5 -173t-419 172t-165 412zM205 561q0 -217 145.5 -368.5t362.5 -151.5q219 0 361.5 151.5t142.5 368.5v4q0 213 -146.5 366.5t-361.5 153.5q-219 0 -361.5 -151.5 t-142.5 -368.5v-4z" />
<glyph unicode="p" horiz-adv-x="1466" d="M207 -356v1480h72v-309q63 150 192 243t305 93q233 0 395 -166t162 -420v-4q0 -254 -161.5 -421t-395.5 -167q-178 0 -307 92.5t-190 239.5v-661h-72zM274 561q0 -217 145.5 -367.5t350.5 -150.5q213 0 350 144.5t137 369.5v6q0 223 -138 371.5t-349 148.5 q-207 0 -351.5 -150.5t-144.5 -367.5v-4z" />
<glyph unicode="q" horiz-adv-x="1466" d="M133 561v4q0 252 162 419t395 167q178 0 307 -92t191 -240v305h72v-1480h-72v667q-63 -152 -192.5 -245t-305.5 -93q-233 0 -395 166t-162 422zM209 563q0 -223 139 -371.5t348 -148.5q207 0 351.5 150.5t144.5 367.5v4q0 217 -145.5 367.5t-350.5 150.5 q-211 0 -349 -145t-138 -371v-4z" />
<glyph unicode="r" horiz-adv-x="804" d="M207 0v1124h72v-342q53 156 181 262q123 103 285 103h13v-74h-13q-199 0 -332.5 -162.5t-133.5 -375.5v-535h-72z" />
<glyph unicode="s" horiz-adv-x="1099" d="M102 145l43 56q197 -154 420 -154q135 0 228.5 65.5t93.5 168.5v6q0 45 -21.5 82t-48 60.5t-79 47t-89.5 34.5t-104 30q-78 23 -123 37t-102.5 41.5t-89 55t-54 73t-22.5 98.5v4q0 127 107.5 211t277.5 84q211 0 395 -125l-41 -59q-168 117 -356 116q-137 0 -223.5 -62.5 t-86.5 -156.5v-6q0 -39 19.5 -74t47.5 -57.5t78 -45t90 -35.5t107 -30q193 -53 292.5 -119.5t99.5 -197.5v-4q0 -137 -114 -223t-286 -86q-121 0 -244 44.5t-215 120.5z" />
<glyph unicode="t" horiz-adv-x="856" d="M96 1061v63h172v379h72v-379h408v-63h-408v-766q0 -123 61.5 -185.5t171.5 -62.5q82 0 170 41v-70q-78 -39 -176 -38q-139 0 -219 79.5t-80 229.5v772h-172z" />
<glyph unicode="u" horiz-adv-x="1359" d="M184 467v657h72v-647q0 -201 105.5 -318.5t297.5 -117.5q178 0 301 129t123 322v632h72v-1124h-72v268q-45 -119 -156.5 -207t-277.5 -88q-219 0 -342 135.5t-123 358.5z" />
<glyph unicode="v" horiz-adv-x="1269" d="M92 1124h82l463 -1046l463 1046h80l-514 -1132h-60z" />
<glyph unicode="w" horiz-adv-x="1845" d="M106 1124h82l353 -1030l354 1039h57l357 -1039l354 1030h74l-400 -1132h-61l-352 1026l-355 -1026h-59z" />
<glyph unicode="x" horiz-adv-x="1218" d="M84 0l481 571l-463 553h91l417 -503l422 503h84l-463 -551l482 -573h-91l-434 524l-440 -524h-86z" />
<glyph unicode="y" horiz-adv-x="1286" d="M92 1124h80l496 -1046l452 1046h76l-506 -1153q-86 -195 -167 -265.5t-199 -70.5q-109 0 -218 58l29 59q92 -49 191 -49q96 0 161.5 62.5t143.5 236.5z" />
<glyph unicode="z" horiz-adv-x="1146" d="M100 0v41l840 1020h-811v63h915v-39l-837 -1019h842v-66h-949z" />
<glyph unicode="{" horiz-adv-x="1017" d="M111 610v62h49q276 0 276 291v176q0 100 12.5 161.5t54.5 124t131 103.5t234 67l11 -53q-127 -29 -203 -63.5t-112 -90t-45 -107.5t-9 -146v-174q0 -281 -242 -320q242 -47 242 -319v-175q0 -94 9 -146t45 -108.5t112 -90t203 -64.5l-11 -53q-145 27 -234 68.5t-131 104 t-54.5 124t-12.5 161.5v176q0 291 -276 291h-49z" />
<glyph unicode="|" horiz-adv-x="600" d="M268 -287v2069h64v-2069h-64z" />
<glyph unicode="}" horiz-adv-x="1017" d="M139 -262q127 31 203 64.5t111.5 90t46 108.5t10.5 146v175q0 279 240 319q-240 47 -240 320v174q0 94 -10.5 146t-46 107.5t-111.5 90t-203 63.5l11 53q145 -27 234 -67.5t131 -103t54.5 -124t12.5 -161.5v-176q0 -291 276 -291h49v-62h-49q-276 0 -276 -291v-176 q0 -100 -12.5 -161.5t-54.5 -124t-131 -104.5t-234 -68z" />
<glyph unicode="~" horiz-adv-x="999" d="M184 567q45 190 172 191q47 0 150.5 -57.5t138.5 -57.5q43 0 69.5 27.5t51.5 101.5l49 -12q-45 -190 -172 -191q-47 0 -149.5 57.5t-139.5 57.5q-41 0 -68.5 -28.5t-52.5 -100.5z" />
<glyph unicode="&#xa1;" horiz-adv-x="483" d="M190 1417v146h107v-146h-107zM201 0v207l22 948h39l21 -948v-207h-82z" />
<glyph unicode="&#xa2;" horiz-adv-x="1269" d="M147 791v4q0 240 167 413.5t407 173.5q33 0 53 -2l39 197h72l-41 -207q174 -37 327 -196l-51 -52q-145 150 -293 183l-200 -1029q43 -6 92 -6q233 0 411 199l50 -43q-193 -223 -465 -223q-31 0 -99 10l-45 -227h-69l47 241q-178 55 -290 212t-112 352zM221 793 q0 -170 96.5 -308.5t247.5 -189.5l199 1020h-45q-207 0 -352.5 -152.5t-145.5 -365.5v-4z" />
<glyph unicode="&#xa3;" horiz-adv-x="1376" d="M150 0v41l198 29v628h-198v72h198v262q0 276 148 424q129 129 329 129q272 0 443 -244l-58 -45q-158 219 -387 220q-168 0 -274 -107q-125 -121 -125 -373v-266h670v-72h-670v-628h836v-70h-1110z" />
<glyph unicode="&#xa4;" horiz-adv-x="1605" d="M119 567v70h194q-8 68 -8 139v6q0 88 14 164h-200v72h211q59 252 223 411.5t383 159.5q334 0 532 -315l-59 -39q-92 143 -202.5 215t-272.5 72q-190 0 -331.5 -140.5t-199.5 -363.5h672v-72h-684q-14 -98 -14 -162v-6q0 -49 10 -141h688v-70h-676q49 -238 197.5 -382 t355.5 -144q276 0 463 303l58 -37q-209 -334 -523 -334q-236 0 -405.5 162t-220.5 432h-205z" />
<glyph unicode="&#xa5;" horiz-adv-x="1439" d="M57 1563h95l571 -852l569 852h90l-594 -869h433v-67h-463v-287h463v-68h-463v-272h-74v272h-467v68h467v287h-467v67h434z" />
<glyph unicode="&#xa7;" horiz-adv-x="1409" d="M156 809v4q0 104 105.5 176t285.5 72q-252 82 -252 250v4q0 119 109.5 194.5t291.5 75.5q137 0 264 -50t209 -126l-53 -53q-74 66 -188.5 111.5t-235.5 45.5q-150 0 -233.5 -55t-83.5 -143v-4q0 -94 105.5 -153.5t338.5 -108.5q227 -47 332.5 -117t105.5 -178v-4 q0 -104 -105 -176t-286 -72q250 -80 250 -250v-4q0 -119 -108.5 -195t-290.5 -76q-137 0 -265 50.5t-208 126.5l51 53q74 -66 189.5 -112t236.5 -46q150 0 233.5 55.5t83.5 143.5v4q0 94 -105.5 153.5t-338.5 108.5q-227 47 -332.5 116.5t-105.5 178.5zM231 815 q0 -78 86 -134t287 -99q133 -31 258 -31q135 0 227.5 56.5t92.5 135.5v5q0 78 -86 134t-287 99q-135 31 -258 31q-135 0 -227.5 -56.5t-92.5 -136.5v-4z" />
<glyph unicode="&#xa8;" horiz-adv-x="1116" d="M338 1354v141h111v-141h-111zM668 1354v141h110v-141h-110z" />
<glyph unicode="&#xa9;" horiz-adv-x="1851" d="M119 778v6q0 332 236.5 568.5t570.5 236.5q338 0 573.5 -235.5t235.5 -569.5v-6q0 -332 -236.5 -568.5t-572.5 -236.5t-571.5 235.5t-235.5 569.5zM170 778q0 -313 220 -535.5t536.5 -222.5t536.5 223.5t220 534.5v6q0 313 -220 535.5t-536.5 222.5t-536.5 -223 t-220 -535v-6zM535 788v5q0 174 116.5 299t290.5 125q176 0 315 -134l-47 -47q-121 121 -270 121q-145 0 -242.5 -106.5t-97.5 -255.5q-4 0 0 -4q0 -147 99.5 -255t242.5 -108q154 0 275 125l45 -41q-139 -143 -322 -143q-172 0 -288.5 123.5t-116.5 295.5z" />
<glyph unicode="&#xaa;" horiz-adv-x="909" d="M166 688v55h555v-55h-555zM170 1114v4q0 96 76 148.5t200 52.5q111 0 205 -29v29q0 96 -54 145t-153 49q-90 0 -196 -53l-23 53q115 53 224 54q129 0 200 -70q61 -59 62 -176v-385h-60v111q-78 -125 -243 -125q-94 0 -166 51t-72 141zM231 1118q0 -66 53.5 -104.5 t127.5 -38.5q102 0 170.5 56t68.5 136v72q-102 29 -209 29q-94 0 -152.5 -39t-58.5 -107v-4z" />
<glyph unicode="&#xab;" horiz-adv-x="1077" d="M104 563v12l377 463l49 -37l-340 -432l340 -434l-49 -35zM514 563v12l379 463l49 -37l-342 -432l342 -434l-49 -35z" />
<glyph unicode="&#xad;" horiz-adv-x="882" d="M156 625v77h571v-77h-571z" />
<glyph unicode="&#xae;" horiz-adv-x="1851" d="M119 778v6q0 332 236.5 568.5t570.5 236.5q338 0 573.5 -235.5t235.5 -569.5v-6q0 -332 -236.5 -568.5t-572.5 -236.5t-571.5 235.5t-235.5 569.5zM170 778q0 -313 220 -535.5t536.5 -222.5t536.5 223.5t220 534.5v6q0 313 -220 535.5t-536.5 222.5t-536.5 -223 t-220 -535v-6zM627 395v817h350q160 0 235 -79q61 -59 62 -150v-6q0 -98 -63.5 -157.5t-174.5 -76.5l271 -348h-84l-262 340h-9h-258v-340h-67zM694 795h275q109 0 174 48t65 130v4q0 82 -62.5 128t-172.5 46h-279v-356z" />
<glyph unicode="&#xaf;" horiz-adv-x="1116" d="M244 1368v72h628v-72h-628z" />
<glyph unicode="&#xb0;" horiz-adv-x="976" d="M164 1255v5q0 129 96 223t228.5 94t229.5 -94t97 -223v-5q0 -131 -97 -224t-229.5 -93t-228.5 93t-96 224zM233 1255q0 -104 75 -179t180.5 -75t180 75t74.5 179v5q0 102 -74.5 177.5t-180 75.5t-180.5 -75.5t-75 -177.5v-5z" />
<glyph unicode="&#xb1;" horiz-adv-x="1284" d="M78 258l63 47q188 -262 508 -262q188 0 314.5 101.5t126.5 263.5v6q0 168 -131.5 254t-358.5 86h-168v69h170q197 0 322 95.5t125 255.5v6q0 143 -118 241.5t-300 98.5q-281 0 -461 -258l-59 34q195 293 524 293q213 0 352 -117.5t139 -289.5v-6q0 -154 -95 -252.5 t-238 -126.5q168 -33 271 -127.5t103 -253.5v-4q0 -188 -150.5 -313.5t-369.5 -125.5q-178 0 -324.5 77t-244.5 208z" />
<glyph unicode="&#xb2;" horiz-adv-x="1284" d="M96 0v51l658 623q178 166 242.5 277.5t64.5 219.5q0 145 -111.5 246t-277.5 101q-293 0 -475 -306l-62 37q197 336 541 336q201 0 332 -117.5t131 -287.5v-6q0 -129 -71 -247t-265 -302l-584 -553h940v-72h-1063z" />
<glyph unicode="&#xb3;" horiz-adv-x="1261" d="M63 252l58 49q197 -258 508 -258q180 0 305 104.5t125 264.5v4q0 182 -147.5 275t-397.5 93h-65l-23 43l582 664h-863v72h965v-54l-573 -657q274 -4 436 -113.5t162 -320.5v-4q0 -190 -148.5 -315.5t-359.5 -125.5q-355 0 -564 279z" />
<glyph unicode="&#xb4;" horiz-adv-x="1116" d="M451 1329l208 285l86 -45l-239 -240h-55z" />
<glyph unicode="&#xb5;" d="M164 778v6q0 330 218 567.5t562 237.5t561 -237.5t217 -567.5q6 0 0 -6q0 -193 -80.5 -364.5t-228.5 -286.5l369 -346v-6h-96l-338 309q-178 -111 -406 -111q-344 0 -561 237.5t-217 567.5zM242 782q0 -305 199.5 -522t504.5 -217q303 0 501 215t198 518v6 q0 303 -199 520.5t-504 217.5t-502.5 -215t-197.5 -519v-4z" />
<glyph unicode="&#xb6;" horiz-adv-x="1042" d="M117 1090v4q0 217 159.5 343t411.5 126h131v-1563h-78v618h-20q-260 0 -432 126.5t-172 345.5z" />
<glyph unicode="&#xb7;" horiz-adv-x="423" d="M158 586v143h108v-143h-108z" />
<glyph unicode="&#xb8;" horiz-adv-x="1116" d="M379 -283l196 299h60l-178 -338z" />
<glyph unicode="&#xb9;" horiz-adv-x="720" d="M72 1434l334 139h59v-1573h-74v1491l-295 -119z" />
<glyph unicode="&#xba;" horiz-adv-x="911" d="M135 1243v4q0 137 91 231.5t231 94.5q139 0 229 -93.5t90 -228.5v-4q0 -133 -91 -229t-229.5 -96t-229.5 95t-91 226zM143 688v55h627v-55h-627zM201 1247q0 -111 73.5 -188.5t186.5 -77.5q109 0 180.5 77t71.5 185v4q0 113 -75 191t-183 78q-109 0 -181.5 -77 t-72.5 -188v-4z" />
<glyph unicode="&#xbb;" horiz-adv-x="1077" d="M135 135l342 434l-342 432l49 37l381 -463v-12l-381 -463zM547 135l342 434l-342 432l49 37l377 -463v-12l-377 -463z" />
<glyph unicode="&#xbc;" horiz-adv-x="3051" d="M1718 451l922 1122h63v-1108h258v-68h-258v-397h-71v397h-889zM1816 465h816v997zM600 -219l1047 1913h82l-1049 -1913h-80zM72 1434l334 139h59v-1573h-74v1491l-295 -119z" />
<glyph unicode="&#xbd;" horiz-adv-x="2912" d="M1724 0v51l658 623q178 166 242.5 277.5t64.5 219.5q0 145 -111.5 246t-277.5 101q-293 0 -475 -306l-62 37q197 336 541 336q201 0 332 -117.5t131 -287.5v-6q0 -129 -71 -247t-265 -302l-584 -553h940v-72h-1063zM600 -219l1047 1913h82l-1049 -1913h-80zM72 1434 l334 139h59v-1573h-74v1491l-295 -119z" />
<glyph unicode="&#xbe;" horiz-adv-x="3592" d="M2259 451l922 1122h63v-1108h258v-68h-258v-397h-71v397h-889zM2357 465h816v997zM1143 -219l1047 1913h82l-1049 -1913h-80zM63 252l58 49q197 -258 508 -258q180 0 305 104.5t125 264.5v4q0 182 -147.5 275t-397.5 93h-65l-23 43l582 664h-863v72h965v-54l-573 -657 q274 -4 436 -113.5t162 -320.5v-4q0 -190 -148.5 -315.5t-359.5 -125.5q-355 0 -564 279z" />
<glyph unicode="&#xbf;" horiz-adv-x="1144" d="M117 403v5q0 193 138 307t341 137l18 303h41l23 -356l-8 -8q-217 -12 -347 -111.5t-130 -265.5v-6q0 -154 111.5 -257.5t289.5 -103.5q260 0 432 250l57 -43q-188 -274 -491 -274q-213 0 -344 121.5t-131 301.5zM580 1417v146h108v-146h-108z" />
<glyph unicode="&#xc0;" horiz-adv-x="1730" d="M90 0l739 1573h72l741 -1573h-81l-213 455h-967l-213 -455h-78zM416 524h899l-451 961zM604 1950l88 43l207 -285h-55z" />
<glyph unicode="&#xc1;" horiz-adv-x="1730" d="M90 0l739 1573h72l741 -1573h-81l-213 455h-967l-213 -455h-78zM416 524h899l-451 961zM838 1708l206 285l89 -43l-240 -242h-55z" />
<glyph unicode="&#xc2;" horiz-adv-x="1730" d="M90 0l739 1573h72l741 -1573h-81l-213 455h-967l-213 -455h-78zM416 524h899l-451 961zM610 1704l230 272h53l229 -272h-63l-193 188l-194 -188h-62z" />
<glyph unicode="&#xc3;" horiz-adv-x="1730" d="M90 0l739 1573h72l741 -1573h-81l-213 455h-967l-213 -455h-78zM416 524h899l-451 961zM551 1718q45 193 172 193q47 0 149.5 -58.5t139.5 -58.5q39 0 67.5 29.5t53.5 101.5l49 -12q-45 -190 -172 -191q-47 0 -149.5 57.5t-139.5 57.5q-43 0 -69.5 -27.5t-51.5 -101.5z " />
<glyph unicode="&#xc4;" horiz-adv-x="1730" d="M90 0l739 1573h72l741 -1573h-81l-213 455h-967l-213 -455h-78zM416 524h899l-451 961zM645 1733v143h113v-143h-113zM975 1733v143h112v-143h-112z" />
<glyph unicode="&#xc5;" horiz-adv-x="1730" d="M90 0l709 1507q-63 23 -107.5 76t-44.5 121v4q0 82 65.5 143.5t152.5 61.5t152.5 -61.5t65.5 -143.5v-4q0 -68 -43 -121t-106 -74l708 -1509h-81l-213 455h-967l-213 -455h-78zM416 524h899l-451 961zM705 1704q0 -63 48 -110.5t113.5 -47.5t112.5 47t47 111v4 q0 61 -47 108.5t-113 47.5q-68 0 -114.5 -46t-46.5 -110v-4z" />
<glyph unicode="&#xc6;" horiz-adv-x="2289" d="M18 0l979 1563h1141v-70h-989v-672h893v-69h-893v-682h1001v-70h-1077v455h-690l-283 -455h-82zM426 524h647v969h-39z" />
<glyph unicode="&#xc7;" horiz-adv-x="1630" d="M164 776v6q0 334 220 570.5t552 236.5q201 0 335 -62.5t265 -185.5l-53 -55q-115 109 -243 171.5t-306 62.5q-295 0 -493.5 -215t-198.5 -521v-6q0 -305 199.5 -520t494.5 -215q313 0 555 250l53 -51q-254 -260 -594 -269l-153 -295l-78 39l170 256q-313 16 -519 246.5 t-206 556.5z" />
<glyph unicode="&#xc8;" horiz-adv-x="1482" d="M231 0v1563h1102v-70h-1026v-672h928v-69h-928v-682h1036v-70h-1112zM565 1950l86 43l209 -285h-57z" />
<glyph unicode="&#xc9;" horiz-adv-x="1482" d="M231 0v1563h1102v-70h-1026v-672h928v-69h-928v-682h1036v-70h-1112zM700 1708l209 285l86 -43l-237 -242h-58z" />
<glyph unicode="&#xca;" horiz-adv-x="1482" d="M231 0v1563h1102v-70h-1026v-672h928v-69h-928v-682h1036v-70h-1112zM522 1708l230 272h53l231 -272h-65l-193 188l-192 -188h-64z" />
<glyph unicode="&#xcb;" horiz-adv-x="1482" d="M231 0v1563h1102v-70h-1026v-672h928v-69h-928v-682h1036v-70h-1112zM557 1733v143h113v-143h-113zM889 1733v143h110v-143h-110z" />
<glyph unicode="&#xcc;" horiz-adv-x="571" d="M29 1950l88 43l207 -285h-56zM248 0v1563h76v-1563h-76z" />
<glyph unicode="&#xcd;" horiz-adv-x="571" d="M248 0v1563h76v-1563h-76zM250 1708l207 285l88 -43l-240 -242h-55z" />
<glyph unicode="&#xce;" horiz-adv-x="571" d="M29 1708l229 272h55l230 -272h-66l-190 188l-195 -188h-63zM248 0v1563h76v-1563h-76z" />
<glyph unicode="&#xcf;" horiz-adv-x="571" d="M66 1733v143h110v-143h-110zM248 0v1563h76v-1563h-76zM395 1733v143h111v-143h-111z" />
<glyph unicode="&#xd0;" horiz-adv-x="1800" d="M131 750v71h168v742h510q362 0 595.5 -223.5t233.5 -555.5v-6q0 -332 -233.5 -555t-595.5 -223h-510v750h-168zM375 70h436q330 0 540 202.5t210 503.5v6q0 301 -210 506t-542 205h-434v-672h545v-71h-545v-680z" />
<glyph unicode="&#xd1;" horiz-adv-x="1748" d="M231 0v1563h70l1143 -1434v1434h74v-1563h-60l-1153 1444v-1444h-74zM561 1718q43 193 172 193q45 0 148.5 -58.5t138.5 -58.5q41 0 68.5 29.5t52.5 101.5l49 -12q-45 -190 -172 -191q-47 0 -149.5 57.5t-139.5 57.5q-41 0 -67.5 -27.5t-51.5 -101.5z" />
<glyph unicode="&#xd2;" d="M164 778v6q0 330 218 567.5t562 237.5t561 -237.5t217 -567.5q6 0 0 -6q0 -330 -218 -567.5t-562 -237.5t-561 237.5t-217 567.5zM242 782q0 -305 199.5 -522t504.5 -217q303 0 501 215t198 518v6q0 303 -199 520.5t-504 217.5t-502.5 -215t-197.5 -519v-4zM674 1950 l88 43l207 -285h-56z" />
<glyph unicode="&#xd3;" d="M164 778v6q0 330 218 567.5t562 237.5t561 -237.5t217 -567.5q6 0 0 -6q0 -330 -218 -567.5t-562 -237.5t-561 237.5t-217 567.5zM242 782q0 -305 199.5 -522t504.5 -217q303 0 501 215t198 518v6q0 303 -199 520.5t-504 217.5t-502.5 -215t-197.5 -519v-4zM920 1708 l206 285l88 -43l-239 -242h-55z" />
<glyph unicode="&#xd4;" d="M164 778v6q0 330 218 567.5t562 237.5t561 -237.5t217 -567.5q6 0 0 -6q0 -330 -218 -567.5t-562 -237.5t-561 237.5t-217 567.5zM242 782q0 -305 199.5 -522t504.5 -217q303 0 501 215t198 518v6q0 303 -199 520.5t-504 217.5t-502.5 -215t-197.5 -519v-4zM688 1708 l230 272h53l229 -272h-63l-193 188l-194 -188h-62z" />
<glyph unicode="&#xd5;" d="M164 778v6q0 330 218 567.5t562 237.5t561 -237.5t217 -567.5q6 0 0 -6q0 -330 -218 -567.5t-562 -237.5t-561 237.5t-217 567.5zM242 782q0 -305 199.5 -522t504.5 -217q303 0 501 215t198 518v6q0 303 -199 520.5t-504 217.5t-502.5 -215t-197.5 -519v-4zM629 1718 q45 193 172 193q47 0 149.5 -58.5t139.5 -58.5q41 0 68.5 29.5t51.5 101.5l50 -12q-45 -190 -173 -191q-47 0 -149 57.5t-139 57.5q-41 0 -69 -27.5t-52 -101.5z" />
<glyph unicode="&#xd6;" d="M164 778v6q0 330 218 567.5t562 237.5t561 -237.5t217 -567.5q6 0 0 -6q0 -330 -218 -567.5t-562 -237.5t-561 237.5t-217 567.5zM242 782q0 -305 199.5 -522t504.5 -217q303 0 501 215t198 518v6q0 303 -199 520.5t-504 217.5t-502.5 -215t-197.5 -519v-4zM723 1733v143 h113v-143h-113zM1053 1733v143h112v-143h-112z" />
<glyph unicode="&#xd8;" d="M160 -10l215 227q-211 231 -211 561v6q0 330 218 567.5t562 237.5q305 0 522 -198l170 182h90l-215 -227q211 -231 211 -562q6 0 0 -6q0 -330 -218 -567.5t-562 -237.5q-305 0 -522 199l-170 -182h-90zM242 782q0 -301 184 -510l991 1063q-193 184 -475 185 q-305 0 -502.5 -215t-197.5 -519v-4zM469 227q193 -184 477 -184q303 0 501 215t198 518v6q0 299 -185 508z" />
<glyph unicode="&#xd9;" horiz-adv-x="1683" d="M207 674v889h76v-885q0 -305 152.5 -469t411.5 -164t407.5 161t148.5 468v889h76v-883q0 -340 -172 -522.5t-463 -182.5t-464 181.5t-173 517.5zM600 1944l88 45l207 -285h-55z" />
<glyph unicode="&#xda;" horiz-adv-x="1683" d="M207 674v889h76v-885q0 -305 152.5 -469t411.5 -164t407.5 161t148.5 468v889h76v-883q0 -340 -172 -522.5t-463 -182.5t-464 181.5t-173 517.5zM791 1704l206 285l88 -45l-239 -240h-55z" />
<glyph unicode="&#xdb;" horiz-adv-x="1683" d="M207 674v889h76v-885q0 -305 152.5 -469t411.5 -164t407.5 161t148.5 468v889h76v-883q0 -340 -172 -522.5t-463 -182.5t-464 181.5t-173 517.5zM588 1704l229 272h53l230 -272h-64l-192 188l-195 -188h-61z" />
<glyph unicode="&#xdc;" horiz-adv-x="1683" d="M207 674v889h76v-885q0 -305 152.5 -469t411.5 -164t407.5 161t148.5 468v889h76v-883q0 -340 -172 -522.5t-463 -182.5t-464 181.5t-173 517.5zM623 1714v144h112v-144h-112zM952 1714v144h113v-144h-113z" />
<glyph unicode="&#xdd;" horiz-adv-x="1519" d="M57 1563h95l612 -854l606 854h92l-663 -922v-641h-76v641zM739 1704l207 285l88 -45l-239 -240h-56z" />
<glyph unicode="&#xde;" horiz-adv-x="1495" d="M229 0v1563h76v-295h483q274 0 433 -125t159 -346v-4q0 -229 -168 -358.5t-442 -129.5h-465v-305h-76zM305 375h467q246 0 389.5 110.5t143.5 302.5v5q0 193 -140.5 299t-382.5 106h-477v-823z" />
<glyph unicode="&#xdf;" horiz-adv-x="1318" d="M207 0v1124q0 236 121 377t336 141q184 0 303.5 -111.5t119.5 -270.5v-5q0 -154 -100 -261t-262 -165q207 -29 334 -130t127 -269v-4q0 -201 -159 -316.5t-417 -115.5v65q227 6 363.5 100.5t136.5 264.5v4q0 160 -133 250t-367 108v62q180 51 290 150.5t110 250.5v6 q0 133 -99.5 227.5t-248.5 94.5q-180 0 -281.5 -124t-101.5 -331v-1122h-72z" />
<glyph unicode="&#xe0;" horiz-adv-x="1269" d="M115 317v5q0 172 138 267t359 95q209 0 402 -63v75q0 188 -105.5 283.5t-296.5 95.5q-180 0 -366 -92l-27 61q203 98 397 99q233 0 357 -123q113 -117 112 -320v-700h-71v233q-49 -106 -172 -183t-301 -77q-174 0 -300 90t-126 254zM190 322q0 -131 102.5 -206t252.5 -75 q201 0 336 110.5t135 264.5v137q-193 63 -406 63q-190 0 -305 -76.5t-115 -213.5v-4zM371 1569l86 45l209 -285h-56z" />
<glyph unicode="&#xe1;" horiz-adv-x="1269" d="M115 317v5q0 172 138 267t359 95q209 0 402 -63v75q0 188 -105.5 283.5t-296.5 95.5q-180 0 -366 -92l-27 61q203 98 397 99q233 0 357 -123q113 -117 112 -320v-700h-71v233q-49 -106 -172 -183t-301 -77q-174 0 -300 90t-126 254zM190 322q0 -131 102.5 -206t252.5 -75 q201 0 336 110.5t135 264.5v137q-193 63 -406 63q-190 0 -305 -76.5t-115 -213.5v-4zM578 1329l208 285l86 -45l-237 -240h-57z" />
<glyph unicode="&#xe2;" horiz-adv-x="1269" d="M115 317v5q0 172 138 267t359 95q209 0 402 -63v75q0 188 -105.5 283.5t-296.5 95.5q-180 0 -366 -92l-27 61q203 98 397 99q233 0 357 -123q113 -117 112 -320v-700h-71v233q-49 -106 -172 -183t-301 -77q-174 0 -300 90t-126 254zM190 322q0 -131 102.5 -206t252.5 -75 q201 0 336 110.5t135 264.5v137q-193 63 -406 63q-190 0 -305 -76.5t-115 -213.5v-4zM389 1329l229 273h54l229 -273h-63l-193 189l-194 -189h-62z" />
<glyph unicode="&#xe3;" horiz-adv-x="1269" d="M115 317v5q0 172 138 267t359 95q209 0 402 -63v75q0 188 -105.5 283.5t-296.5 95.5q-180 0 -366 -92l-27 61q203 98 397 99q233 0 357 -123q113 -117 112 -320v-700h-71v233q-49 -106 -172 -183t-301 -77q-174 0 -300 90t-126 254zM190 322q0 -131 102.5 -206t252.5 -75 q201 0 336 110.5t135 264.5v137q-193 63 -406 63q-190 0 -305 -76.5t-115 -213.5v-4zM330 1339q45 193 172 193q47 0 149.5 -58.5t139.5 -58.5q39 0 67.5 29t52.5 100l50 -10q-45 -190 -173 -191q-47 0 -149 57.5t-139 57.5q-43 0 -70 -27.5t-51 -101.5z" />
<glyph unicode="&#xe4;" horiz-adv-x="1269" d="M115 317v5q0 172 138 267t359 95q209 0 402 -63v75q0 188 -105.5 283.5t-296.5 95.5q-180 0 -366 -92l-27 61q203 98 397 99q233 0 357 -123q113 -117 112 -320v-700h-71v233q-49 -106 -172 -183t-301 -77q-174 0 -300 90t-126 254zM190 322q0 -131 102.5 -206t252.5 -75 q201 0 336 110.5t135 264.5v137q-193 63 -406 63q-190 0 -305 -76.5t-115 -213.5v-4zM424 1354v141h113v-141h-113zM754 1354v141h112v-141h-112z" />
<glyph unicode="&#xe5;" horiz-adv-x="1269" d="M115 317v5q0 172 138 267t359 95q209 0 402 -63v75q0 188 -105.5 283.5t-296.5 95.5q-180 0 -366 -92l-27 61q203 98 397 99q233 0 357 -123q113 -117 112 -320v-700h-71v233q-49 -106 -172 -183t-301 -77q-174 0 -300 90t-126 254zM190 322q0 -131 102.5 -206t252.5 -75 q201 0 336 110.5t135 264.5v137q-193 63 -406 63q-190 0 -305 -76.5t-115 -213.5v-4zM424 1532v4q0 82 64.5 143.5t151.5 61.5t152.5 -61.5t65.5 -143.5v-4q0 -84 -65.5 -145.5t-152.5 -61.5t-151.5 61.5t-64.5 145.5zM479 1532q0 -63 48 -110.5t113 -47.5t113 47t48 111v4 q0 61 -48 108.5t-113 47.5t-113 -47.5t-48 -108.5v-4z" />
<glyph unicode="&#xe6;" horiz-adv-x="2164" d="M115 317v5q0 172 137 267t354 95q205 0 389 -61q0 12 2 40.5t4 36.5q-2 186 -105 280.5t-292 94.5q-172 0 -358 -92l-27 61q203 98 391 99q379 0 441 -316q63 147 190 235.5t289 88.5q240 0 379 -175t139 -415q0 -16 -4 -24h-975q8 -221 148.5 -358.5t330.5 -137.5 q254 0 410 197l51 -45q-174 -219 -463 -220q-147 0 -272 72t-199 197q-80 -113 -217 -191t-307 -78q-184 0 -310 90t-126 254zM190 322q0 -133 101.5 -207t263.5 -74q156 0 286 76t203 188q-49 115 -51 250q-180 61 -389 61q-186 0 -300 -76.5t-114 -213.5v-4zM1069 600h899 q-10 199 -126 342t-314 143q-193 0 -320 -137t-139 -348z" />
<glyph unicode="&#xe7;" horiz-adv-x="1259" d="M129 561v4q0 240 168 413t408 173q252 0 450 -207l-53 -51q-180 193 -400 192q-209 0 -353 -151.5t-144 -366.5v-4q0 -215 146.5 -368.5t357.5 -153.5q223 0 403 201l51 -45q-193 -215 -438 -224l-154 -295l-77 39l170 258q-225 16 -380 185.5t-155 400.5z" />
<glyph unicode="&#xe8;" horiz-adv-x="1300" d="M129 563v4q0 250 153.5 417t385.5 167q242 0 379 -174t137 -416v-24h-977q10 -223 149.5 -359.5t333.5 -136.5q244 0 404 207l53 -43q-178 -231 -459 -232q-236 0 -397.5 163t-161.5 427zM207 600h899q-10 199 -127 342t-315 143q-190 0 -317.5 -137t-139.5 -348z M418 1569l86 45l209 -285h-58z" />
<glyph unicode="&#xe9;" horiz-adv-x="1300" d="M129 563v4q0 250 153.5 417t385.5 167q242 0 379 -174t137 -416v-24h-977q10 -223 149.5 -359.5t333.5 -136.5q244 0 404 207l53 -43q-178 -231 -459 -232q-236 0 -397.5 163t-161.5 427zM207 600h899q-10 199 -127 342t-315 143q-190 0 -317.5 -137t-139.5 -348z M586 1329l207 285l86 -45l-238 -240h-55z" />
<glyph unicode="&#xea;" horiz-adv-x="1300" d="M129 563v4q0 250 153.5 417t385.5 167q242 0 379 -174t137 -416v-24h-977q10 -223 149.5 -359.5t333.5 -136.5q244 0 404 207l53 -43q-178 -231 -459 -232q-236 0 -397.5 163t-161.5 427zM207 600h899q-10 199 -127 342t-315 143q-190 0 -317.5 -137t-139.5 -348z M403 1329l232 273h53l230 -273h-66l-190 189l-195 -189h-64z" />
<glyph unicode="&#xeb;" horiz-adv-x="1300" d="M129 563v4q0 250 153.5 417t385.5 167q242 0 379 -174t137 -416v-24h-977q10 -223 149.5 -359.5t333.5 -136.5q244 0 404 207l53 -43q-178 -231 -459 -232q-236 0 -397.5 163t-161.5 427zM207 600h899q-10 199 -127 342t-315 143q-190 0 -317.5 -137t-139.5 -348z M440 1354v141h111v-141h-111zM770 1354v141h113v-141h-113z" />
<glyph unicode="&#xec;" horiz-adv-x="514" d="M-2 1569l86 45l209 -285h-55zM221 0v1124h74v-1124h-74z" />
<glyph unicode="&#xed;" horiz-adv-x="514" d="M221 0v1124h74v-1124h-74zM223 1329l207 285l88 -45l-239 -240h-56z" />
<glyph unicode="&#xee;" horiz-adv-x="514" d="M0 1329l229 273h54l231 -273h-65l-193 189l-193 -189h-63zM221 0v1124h74v-1124h-74z" />
<glyph unicode="&#xef;" horiz-adv-x="514" d="M35 1354v141h112v-141h-112zM221 0v1124h74v-1124h-74zM367 1354v141h110v-141h-110z" />
<glyph unicode="&#xf0;" horiz-adv-x="1372" d="M127 526v4q0 231 159.5 388t383.5 157q213 0 368 -131l-338 490l-313 -166l-41 53l318 166l-99 143h90l72 -110l234 122l38 -55l-233 -121l324 -475q152 -229 151 -436v-4q0 -246 -154.5 -412t-398.5 -166q-238 0 -399.5 163t-161.5 390zM203 524q0 -197 142 -340 t347 -143q203 0 338 144.5t135 355.5v4q0 197 -141 331t-348 134q-203 0 -338 -140.5t-135 -341.5v-4z" />
<glyph unicode="&#xf1;" horiz-adv-x="1359" d="M207 0v1124h72v-266q45 117 156.5 205t277.5 88q219 0 341 -134t122 -358v-659h-70v647q0 201 -105.5 319.5t-298.5 118.5q-178 0 -300.5 -130t-122.5 -320v-635h-72zM377 1339q45 193 172 193q47 0 149.5 -58.5t139.5 -58.5q39 0 67.5 29t52.5 100l50 -10 q-45 -190 -172 -191q-47 0 -150.5 57.5t-138.5 57.5q-43 0 -69.5 -27.5t-51.5 -101.5z" />
<glyph unicode="&#xf2;" horiz-adv-x="1419" d="M127 557v6q0 240 165 414t421 174q252 0 415.5 -171t163.5 -413v-4q0 -244 -163.5 -417t-417.5 -173t-419 172t-165 412zM205 561q0 -217 145.5 -368.5t362.5 -151.5q219 0 361.5 151.5t142.5 368.5v4q0 213 -146.5 366.5t-361.5 153.5q-219 0 -361.5 -151.5 t-142.5 -368.5v-4zM451 1569l88 45l206 -285h-55z" />
<glyph unicode="&#xf3;" horiz-adv-x="1419" d="M127 557v6q0 240 165 414t421 174q252 0 415.5 -171t163.5 -413v-4q0 -244 -163.5 -417t-417.5 -173t-419 172t-165 412zM205 561q0 -217 145.5 -368.5t362.5 -151.5q219 0 361.5 151.5t142.5 368.5v4q0 213 -146.5 366.5t-361.5 153.5q-219 0 -361.5 -151.5 t-142.5 -368.5v-4zM676 1329l209 285l86 -45l-238 -240h-57z" />
<glyph unicode="&#xf4;" horiz-adv-x="1419" d="M127 557v6q0 240 165 414t421 174q252 0 415.5 -171t163.5 -413v-4q0 -244 -163.5 -417t-417.5 -173t-419 172t-165 412zM205 561q0 -217 145.5 -368.5t362.5 -151.5q219 0 361.5 151.5t142.5 368.5v4q0 213 -146.5 366.5t-361.5 153.5q-219 0 -361.5 -151.5 t-142.5 -368.5v-4zM453 1329l231 273h53l230 -273h-66l-190 189l-195 -189h-63z" />
<glyph unicode="&#xf5;" horiz-adv-x="1419" d="M127 557v6q0 240 165 414t421 174q252 0 415.5 -171t163.5 -413v-4q0 -244 -163.5 -417t-417.5 -173t-419 172t-165 412zM205 561q0 -217 145.5 -368.5t362.5 -151.5q219 0 361.5 151.5t142.5 368.5v4q0 213 -146.5 366.5t-361.5 153.5q-219 0 -361.5 -151.5 t-142.5 -368.5v-4zM395 1339q45 193 172 193q47 0 149.5 -58.5t137.5 -58.5q41 0 68.5 29t52.5 100l49 -10q-43 -190 -172 -191q-47 0 -149.5 57.5t-137.5 57.5q-43 0 -69.5 -27.5t-51.5 -101.5z" />
<glyph unicode="&#xf6;" horiz-adv-x="1419" d="M127 557v6q0 240 165 414t421 174q252 0 415.5 -171t163.5 -413v-4q0 -244 -163.5 -417t-417.5 -173t-419 172t-165 412zM205 561q0 -217 145.5 -368.5t362.5 -151.5q219 0 361.5 151.5t142.5 368.5v4q0 213 -146.5 366.5t-361.5 153.5q-219 0 -361.5 -151.5 t-142.5 -368.5v-4zM489 1354v141h111v-141h-111zM819 1354v141h113v-141h-113z" />
<glyph unicode="&#xf8;" horiz-adv-x="1419" d="M121 -10l160 166q-154 168 -154 401v6q0 240 165 414t421 174q223 0 383 -141l137 145h84l-178 -186q154 -168 153 -402v-4q0 -244 -163.5 -417t-417.5 -173q-225 0 -385 142l-121 -125h-84zM205 561q0 -205 127 -352l715 747q-139 129 -338 129q-219 0 -361.5 -151.5 t-142.5 -368.5v-4zM373 168q145 -127 340 -127q219 0 361.5 151.5t142.5 368.5v4q0 201 -130 348z" />
<glyph unicode="&#xf9;" horiz-adv-x="1359" d="M184 467v657h72v-647q0 -201 105.5 -318.5t297.5 -117.5q178 0 301 129t123 322v632h72v-1124h-72v268q-45 -119 -156.5 -207t-277.5 -88q-219 0 -342 135.5t-123 358.5zM457 1565l88 45l207 -287h-56z" />
<glyph unicode="&#xfa;" horiz-adv-x="1359" d="M184 467v657h72v-647q0 -201 105.5 -318.5t297.5 -117.5q178 0 301 129t123 322v632h72v-1124h-72v268q-45 -119 -156.5 -207t-277.5 -88q-219 0 -342 135.5t-123 358.5zM598 1323l207 287l88 -45l-240 -242h-55z" />
<glyph unicode="&#xfb;" horiz-adv-x="1359" d="M184 467v657h72v-647q0 -201 105.5 -318.5t297.5 -117.5q178 0 301 129t123 322v632h72v-1124h-72v268q-45 -119 -156.5 -207t-277.5 -88q-219 0 -342 135.5t-123 358.5zM420 1329l229 273h53l232 -273h-66l-192 189l-195 -189h-61z" />
<glyph unicode="&#xfc;" horiz-adv-x="1359" d="M184 467v657h72v-647q0 -201 105.5 -318.5t297.5 -117.5q178 0 301 129t123 322v632h72v-1124h-72v268q-45 -119 -156.5 -207t-277.5 -88q-219 0 -342 135.5t-123 358.5zM455 1346v143h112v-143h-112zM786 1346v143h111v-143h-111z" />
<glyph unicode="&#xfd;" horiz-adv-x="1286" d="M92 1124h80l496 -1046l452 1046h76l-506 -1153q-86 -195 -167 -265.5t-199 -70.5q-109 0 -218 58l29 59q92 -49 191 -49q96 0 161.5 62.5t143.5 236.5zM645 1323l207 287l88 -45l-240 -242h-55z" />
<glyph unicode="&#xfe;" horiz-adv-x="1466" d="M207 -356v1986h72v-815q63 150 192 243t305 93q233 0 395 -166t162 -420v-4q0 -254 -161.5 -421t-395.5 -167q-178 0 -307 92.5t-190 239.5v-661h-72zM274 561q0 -217 145.5 -367.5t350.5 -150.5q213 0 350 144.5t137 369.5v6q0 223 -138 371.5t-349 148.5 q-207 0 -351.5 -150.5t-144.5 -367.5v-4z" />
<glyph unicode="&#xff;" horiz-adv-x="1286" d="M92 1124h80l496 -1046l452 1046h76l-506 -1153q-86 -195 -167 -265.5t-199 -70.5q-109 0 -218 58l29 59q92 -49 191 -49q96 0 161.5 62.5t143.5 236.5zM430 1346v143h113v-143h-113zM762 1346v143h110v-143h-110z" />
<glyph unicode="&#x152;" horiz-adv-x="2588" d="M164 778v6q0 332 232.5 555.5t596.5 223.5h1444v-70h-991v-672h893v-69h-893v-682h1003v-70h-1456q-365 0 -597 223t-232 555zM242 782q0 -303 210 -507.5t543 -204.5h375v1423h-379q-330 0 -539.5 -203t-209.5 -504v-4z" />
<glyph unicode="&#x153;" horiz-adv-x="2383" d="M127 557v6q0 240 165 414t419 174q193 0 339 -107.5t199 -283.5q49 178 184.5 284.5t317.5 106.5q240 0 377 -174t137 -416v-24h-977q8 -223 148.5 -359.5t332.5 -136.5q254 0 410 197l51 -45q-178 -219 -463 -220q-180 0 -323.5 105.5t-194.5 292.5 q-53 -178 -199.5 -288t-340.5 -110q-254 0 -418 172t-164 412zM205 561q0 -217 145.5 -368.5t362.5 -151.5q219 0 361.5 151.5t142.5 368.5v4q0 213 -146.5 366.5t-361.5 153.5q-219 0 -361.5 -151.5t-142.5 -368.5v-4zM1288 600h899q-8 199 -125.5 342t-316.5 143 q-188 0 -317.5 -137t-139.5 -348z" />
<glyph unicode="&#x178;" horiz-adv-x="1519" d="M57 1563h95l612 -854l606 854h92l-663 -922v-641h-76v641zM539 1714v144h110v-144h-110zM868 1714v144h113v-144h-113z" />
<glyph unicode="&#x2c6;" horiz-adv-x="1116" d="M301 1329l229 273h56l229 -273h-65l-193 189l-192 -189h-64z" />
<glyph unicode="&#x2dc;" horiz-adv-x="1116" d="M244 1339q45 193 172 193q47 0 149.5 -58.5t136.5 -58.5q41 0 69 29t52 100l49 -10q-45 -190 -172 -191q-47 0 -149 57.5t-137 57.5q-43 0 -70 -27.5t-51 -101.5z" />
<glyph unicode="&#x2000;" horiz-adv-x="995" />
<glyph unicode="&#x2001;" horiz-adv-x="1992" />
<glyph unicode="&#x2002;" horiz-adv-x="995" />
<glyph unicode="&#x2003;" horiz-adv-x="1992" />
<glyph unicode="&#x2004;" horiz-adv-x="663" />
<glyph unicode="&#x2005;" horiz-adv-x="497" />
<glyph unicode="&#x2006;" horiz-adv-x="331" />
<glyph unicode="&#x2007;" horiz-adv-x="331" />
<glyph unicode="&#x2008;" horiz-adv-x="247" />
<glyph unicode="&#x2009;" horiz-adv-x="397" />
<glyph unicode="&#x200a;" horiz-adv-x="110" />
<glyph unicode="&#x2010;" horiz-adv-x="882" d="M156 625v77h571v-77h-571z" />
<glyph unicode="&#x2011;" horiz-adv-x="882" d="M156 625v77h571v-77h-571z" />
<glyph unicode="&#x2012;" horiz-adv-x="882" d="M156 625v77h571v-77h-571z" />
<glyph unicode="&#x2013;" horiz-adv-x="1191" d="M156 627v71h880v-71h-880z" />
<glyph unicode="&#x2014;" horiz-adv-x="1998" d="M156 627v71h1687v-71h-1687z" />
<glyph unicode="&#x2018;" horiz-adv-x="423" d="M154 1221v127q0 98 27.5 147t97.5 76l20 -39q-92 -45 -84 -166h47v-145h-108z" />
<glyph unicode="&#x2019;" horiz-adv-x="423" d="M127 1251q92 45 86 166h-49v146h106v-127q0 -96 -27.5 -146.5t-95.5 -77.5z" />
<glyph unicode="&#x201a;" horiz-adv-x="423" d="M123 -166q92 45 84 166h-49v145h108v-127q0 -98 -28.5 -147t-94.5 -74z" />
<glyph unicode="&#x201c;" horiz-adv-x="704" d="M154 1221v127q0 98 27.5 147t97.5 76l20 -39q-92 -45 -84 -166h47v-145h-108zM436 1221v127q0 98 28 147t97 76l19 -39q-90 -45 -84 -166h47v-145h-107z" />
<glyph unicode="&#x201d;" horiz-adv-x="704" d="M127 1251q92 45 86 166h-49v146h106v-127q0 -96 -27.5 -146.5t-95.5 -77.5zM408 1251q92 45 86 166h-50v146h107v-127q0 -96 -27.5 -146.5t-95.5 -77.5z" />
<glyph unicode="&#x201e;" horiz-adv-x="704" d="M123 -166q92 45 84 166h-49v145h108v-127q0 -98 -28.5 -147t-94.5 -74zM403 -166q92 45 86 166h-49v145h107v-127q0 -98 -27.5 -147t-95.5 -74z" />
<glyph unicode="&#x2022;" horiz-adv-x="995" d="M246 786v5q0 100 75.5 173.5t178.5 73.5q100 0 176 -73.5t76 -173.5v-5q0 -102 -74 -175.5t-178.5 -73.5t-179 73.5t-74.5 175.5z" />
<glyph unicode="&#x2026;" horiz-adv-x="1253" d="M158 0v143h106v-143h-106zM575 0v143h105v-143h-105zM991 0v143h105v-143h-105z" />
<glyph unicode="&#x202f;" horiz-adv-x="397" />
<glyph unicode="&#x2039;" horiz-adv-x="669" d="M104 563v12l377 463l49 -37l-340 -432l340 -434l-49 -35z" />
<glyph unicode="&#x203a;" horiz-adv-x="669" d="M135 135l342 434l-342 432l49 37l381 -463v-12l-381 -463z" />
<glyph unicode="&#x2044;" horiz-adv-x="905" d="M-121 -219l1047 1913h82l-1049 -1913h-80z" />
<glyph unicode="&#x205f;" horiz-adv-x="497" />
<glyph unicode="&#x2122;" horiz-adv-x="1495" d="M47 1511v52h524v-52h-235v-637h-53v637h-236zM725 874v689h51l283 -414l280 414h52v-689h-52v594l-278 -403h-8l-277 403v-594h-51z" />
<glyph unicode="&#xe000;" horiz-adv-x="1125" d="M0 1125h1125v-1125h-1125v1125z" />
<glyph unicode="&#xfb01;" horiz-adv-x="1273" d="M109 1061v63h172v142q0 197 96 288q84 82 221 82q88 0 164 -28v-70q-74 29 -164 29q-246 0 -246 -307v-136h406v-63h-406v-1061h-71v1061h-172zM969 1436v135h96v-135h-96zM981 0v1124h70v-1124h-70z" />
<glyph unicode="&#xfb02;" horiz-adv-x="1273" d="M109 1061v63h172v142q0 197 96 288q84 82 221 82q88 0 164 -28v-70q-74 29 -164 29q-246 0 -246 -307v-136h406v-63h-406v-1061h-71v1061h-172zM981 0v1630h70v-1630h-70z" />
<glyph unicode="&#xfb03;" horiz-adv-x="2031" d="M1727 1436v135h96v-135h-96zM1739 0v1124h74v-1124h-74zM869 1061v63h172v142q0 197 96 288q84 82 221 82q88 0 164 -28v-70q-74 29 -164 29q-246 0 -246 -307v-136h406v-63h-406v-1061h-71v1061h-172zM109 1061v63h172v142q0 197 96 288q84 82 221 82q88 0 164 -28v-70 q-74 29 -164 29q-246 0 -246 -307v-136h406v-63h-406v-1061h-71v1061h-172z" />
<glyph unicode="&#xfb04;" horiz-adv-x="2031" d="M1739 0v1630h74v-1630h-74zM869 1061v63h172v142q0 197 96 288q84 82 221 82q88 0 164 -28v-70q-74 29 -164 29q-246 0 -246 -307v-136h406v-63h-406v-1061h-71v1061h-172zM109 1061v63h172v142q0 197 96 288q84 82 221 82q88 0 164 -28v-70q-74 29 -164 29 q-246 0 -246 -307v-136h406v-63h-406v-1061h-71v1061h-172z" />
</font>
</defs>
</svg>
