<?xml version="1.0" standalone="no"?>
<!DOCTYPE svg PUBLIC "-//W3C//DTD SVG 1.1//EN" "http://www.w3.org/Graphics/SVG/1.1/DTD/svg11.dtd" >
<svg xmlns="http://www.w3.org/2000/svg">
<metadata>
This is a custom SVG webfont generated by Font Squirrel.
Copyright   : HTF Gotham Copr 2002 The Hoefler Type Foundry Inc Info wwwtypographycom
</metadata>
<defs>
<font id="GothamHTFBoldItalic" horiz-adv-x="1034" >
<font-face units-per-em="2048" ascent="1638" descent="-410" />
<missing-glyph horiz-adv-x="620" />
<glyph unicode=" "  horiz-adv-x="620" />
<glyph unicode="&#x09;" horiz-adv-x="620" />
<glyph unicode="&#xa0;" horiz-adv-x="620" />
<glyph unicode="!" horiz-adv-x="671" d="M18 0l91 332h333l-88 -332h-336zM231 492l148 915l12 41h369l-12 -41l-342 -915h-175z" />
<glyph unicode="&#x22;" horiz-adv-x="1091" d="M205 788l174 660h352l-4 -10l-358 -650h-164zM705 788l174 660h352l-4 -10l-359 -650h-163z" />
<glyph unicode="#" horiz-adv-x="1427" d="M23 311l69 264h191l106 306h-192l69 266h215l107 301h272l-104 -301h299l106 301h273l-107 -301h170l-70 -266h-192l-107 -306h195l-70 -264h-217l-108 -311h-273l109 311h-301l-107 -311h-274l108 311h-167zM557 575h299l107 306h-301z" />
<glyph unicode="$" horiz-adv-x="1314" d="M-10 266l231 195q117 -131 268 -172l99 321q-170 63 -257 146.5t-87 236.5q0 195 164.5 325t406.5 130h16l37 121h215l-43 -148q182 -49 320 -188l-215 -211q-98 90 -191 127l-94 -309q166 -61 250 -148.5t84 -236.5q0 -201 -167 -328t-415 -127h-2l-61 -203h-215l67 223 q-264 53 -411 246zM571 1026q0 -37 23.5 -63.5t85.5 -55.5l82 269q-96 -6 -143.5 -48.5t-47.5 -101.5zM682 272q184 16 184 150q0 72 -100 121z" />
<glyph unicode="%" horiz-adv-x="1818" d="M125 0l1391 1448h270l-1393 -1448h-268zM174 1034q0 168 113.5 299t287.5 131q141 0 229.5 -88t88.5 -229q0 -168 -113.5 -300t-287.5 -132q-141 0 -229.5 88t-88.5 231zM377 1042q0 -68 33.5 -107.5t93.5 -39.5q82 0 134 77t52 167q0 68 -33.5 106.5t-93.5 38.5 q-82 0 -134 -77t-52 -165zM1016 301q0 168 113.5 300t287.5 132q143 0 230.5 -88t87.5 -231q0 -168 -114 -299t-288 -131q-141 0 -229 88t-88 229zM1219 311q0 -70 33.5 -108.5t95.5 -38.5q80 0 132 76.5t52 165.5q0 68 -34 107.5t-93 39.5q-82 0 -134 -77t-52 -165z" />
<glyph unicode="&#x26;" horiz-adv-x="1437" d="M47 369q0 139 100.5 261t309.5 189q-76 133 -76 250q0 166 128 285t333 119q178 0 288.5 -98.5t110.5 -250.5q0 -268 -391 -399l164 -221q88 94 176 235l192 -135q-109 -164 -225 -291l141 -192l-233 -150l-115 160q-217 -152 -444 -151q-205 0 -332 104.5t-127 284.5z M348 387q0 -63 50.5 -105t144.5 -42q121 0 264 90l-223 307q-119 -45 -177.5 -111.5t-58.5 -138.5zM659 1065q0 -74 60 -164q137 51 188 96t51 109q0 47 -34.5 83t-96.5 36q-74 0 -121 -48.5t-47 -111.5z" />
<glyph unicode="'" horiz-adv-x="589" d="M205 788l174 660h352l-4 -10l-358 -650h-164z" />
<glyph unicode="(" horiz-adv-x="919" d="M121 432q0 340 214 613.5t603 429.5l115 -234q-295 -137 -455 -350t-160 -449q0 -270 256 -536l-196 -201q-377 303 -377 727z" />
<glyph unicode=")" horiz-adv-x="919" d="M-113 -53q297 135 456 348t159 450q0 270 -256 537l196 201q379 -303 379 -727q0 -340 -214 -614.5t-603 -428.5z" />
<glyph unicode="*" horiz-adv-x="888" d="M227 1104l250 35l-198 153l122 123l154 -201l33 248l164 -43l-97 -231l234 94l47 -166l-252 -33l199 -155l-121 -121l-154 201l-33 -248l-163 43l94 231l-234 -94z" />
<glyph unicode="+" horiz-adv-x="1341" d="M160 586l76 284h374l99 373h295l-101 -373h375l-76 -284h-375l-98 -373h-295l101 373h-375z" />
<glyph unicode="," horiz-adv-x="659" d="M-127 -205q238 20 270 205h-129l88 332h336l-73 -281q-53 -201 -168 -292t-303 -95z" />
<glyph unicode="-" horiz-adv-x="851" d="M90 489l82 304h637l-80 -304h-639z" />
<glyph unicode="." horiz-adv-x="659" d="M14 0l88 332h336l-88 -332h-336z" />
<glyph unicode="/" horiz-adv-x="1095" d="M-279 -264l1407 1915h297l-1409 -1915h-295z" />
<glyph unicode="0" horiz-adv-x="1509" d="M129 578q0 162 53.5 318.5t148.5 285.5t246.5 210t325.5 81q256 0 410.5 -164t154.5 -439q0 -162 -53 -318.5t-148.5 -285.5t-247 -210t-327.5 -81q-254 0 -408.5 164.5t-154.5 438.5zM455 575q0 -152 70.5 -232.5t191.5 -80.5q182 0 304 195.5t122 414.5q0 152 -71 233 t-193 81q-182 0 -303 -196t-121 -415z" />
<glyph unicode="1" horiz-adv-x="897" d="M197 0l299 1120l-263 -59l-4 270l455 127h217l-391 -1458h-313z" />
<glyph unicode="2" horiz-adv-x="1269" d="M-61 0l69 260l733 506q211 143 211 268q0 70 -49 110t-133 40q-160 0 -346 -180l-195 202q231 262 555 262q223 0 358.5 -111.5t135.5 -287.5q0 -135 -76 -245.5t-264 -241.5l-449 -308h609l-74 -274h-1085z" />
<glyph unicode="3" horiz-adv-x="1249" d="M-35 250l236 174q121 -164 313 -164q115 0 194.5 61.5t79.5 141.5q0 84 -74.5 128t-209.5 44h-88l-13 199l426 342h-548l75 272h977l-65 -240l-467 -356q307 -74 307 -360q0 -219 -174 -368t-434 -149q-375 1 -535 275z" />
<glyph unicode="4" horiz-adv-x="1361" d="M33 549l999 909h309l-237 -887h194l-69 -258h-195l-82 -313h-301l84 313h-672zM436 571h369l123 463z" />
<glyph unicode="5" horiz-adv-x="1261" d="M-18 236l223 188q147 -160 340 -160q125 0 209 66.5t84 158.5q0 84 -69 135.5t-200 51.5q-88 0 -194 -45l-162 131l225 686h877l-76 -279h-590l-82 -247q76 18 146 18q201 0 326.5 -113.5t125.5 -300.5q0 -225 -180 -387t-469 -162q-154 0 -307 75t-227 184z" />
<glyph unicode="6" horiz-adv-x="1329" d="M123 514q0 213 72.5 408.5t210.5 332.5q217 217 524 218q266 0 448 -168l-184 -230q-127 113 -291 113q-166 0 -280 -115q-100 -100 -150 -254q51 49 143.5 86t190.5 37q188 0 314 -107.5t126 -295.5q0 -223 -176 -393.5t-424 -170.5q-244 0 -377 134q-147 147 -147 405z M424 436q0 -76 53 -131q63 -61 170 -61q121 0 200 76.5t79 173.5q0 88 -59.5 139t-157.5 51q-125 0 -205 -72t-80 -176z" />
<glyph unicode="7" horiz-adv-x="1259" d="M18 0l900 1174h-666l76 274h1042l-67 -240l-910 -1208h-375z" />
<glyph unicode="8" horiz-adv-x="1368" d="M66 389q0 158 100 256t270 139q-84 43 -130 118t-46 161q0 158 145.5 281.5t399.5 123.5q225 0 368.5 -109.5t143.5 -279.5q0 -135 -83 -230t-233 -132q100 -39 161 -117t61 -190q0 -174 -166 -302t-436 -128q-229 0 -392 113.5t-163 295.5zM377 416q-2 -78 70.5 -129 t190.5 -51t194.5 53t78.5 137q2 78 -70.5 128t-190.5 50t-194.5 -54t-78.5 -134zM555 1030q-2 -72 60.5 -121t166.5 -49q100 0 168 52.5t70 127.5q2 72 -59.5 120t-169.5 48q-98 0 -166 -51t-70 -127z" />
<glyph unicode="9" horiz-adv-x="1329" d="M27 160l186 229q152 -129 307 -129q164 0 283 119q94 94 141 233q-51 -49 -142 -84.5t-188 -35.5q-190 0 -315 107.5t-125 301.5q0 240 175 406t425 166q109 0 212.5 -34t166.5 -98q147 -147 147 -438q0 -199 -74.5 -386t-213.5 -327q-215 -215 -510 -215 q-268 1 -475 185zM494 944q0 -94 61 -144t160 -50q125 0 203.5 73.5t78.5 182.5q0 84 -51 137q-63 61 -170 61q-125 0 -203.5 -77t-78.5 -183z" />
<glyph unicode=":" horiz-adv-x="659" d="M14 0l88 332h336l-88 -332h-336zM223 778l90 330h334l-88 -330h-336z" />
<glyph unicode=";" horiz-adv-x="659" d="M-127 -205q238 20 270 205h-129l88 332h336l-73 -281q-53 -201 -168 -292t-303 -95zM223 778l90 330h334l-88 -330h-336z" />
<glyph unicode="&#x3c;" horiz-adv-x="1323" d="M150 586l75 284l1118 439l-83 -305l-777 -289l623 -287l-74 -281z" />
<glyph unicode="=" horiz-adv-x="1323" d="M113 317l75 285h981l-77 -285h-979zM256 854l78 287h979l-76 -287h-981z" />
<glyph unicode="&#x3e;" horiz-adv-x="1323" d="M66 147l86 306l774 288l-623 287l76 281l883 -439l-76 -284z" />
<glyph unicode="?" horiz-adv-x="1124" d="M178 0l88 332h336l-90 -332h-334zM201 1264q96 100 230 151t274 51q211 0 336.5 -110.5t125.5 -265.5q0 -182 -135 -298t-395 -155l-59 -145h-211l41 335l12 11q414 29 414 211q0 129 -172 129q-154 0 -295 -123z" />
<glyph unicode="@" horiz-adv-x="2025" d="M115 481q0 264 132 493.5t365.5 367t507.5 137.5q377 0 607.5 -209t230.5 -502q0 -309 -143.5 -471t-346.5 -162q-102 0 -178 42t-108 116q-158 -160 -332 -160q-143 0 -238.5 93t-95.5 255q0 244 160 408t360 164q182 0 271 -146l41 129l229 -63l-164 -516 q-35 -109 0 -167.5t119 -58.5q125 0 232.5 146.5t107.5 390.5q0 260 -207 444.5t-545 184.5q-254 0 -467 -127t-333.5 -338t-120.5 -451q0 -317 216 -519t560 -202q217 0 424 93l33 -72q-217 -102 -457 -103q-379 0 -619.5 225.5t-240.5 577.5zM780 520q0 -84 46 -131 t128 -47q106 0 195.5 98.5t89.5 229.5q0 78 -49 125t-131 47q-106 0 -192.5 -95.5t-86.5 -226.5z" />
<glyph unicode="A" horiz-adv-x="1581" d="M-119 0l1012 1458h307l230 -1458h-328l-45 326h-613l-219 -326h-344zM635 606h385l-66 477z" />
<glyph unicode="B" horiz-adv-x="1482" d="M25 0l389 1448h563q244 0 366.5 -100.5t122.5 -255.5q0 -139 -84 -232.5t-225 -124.5q203 -96 203 -294.5t-165 -319.5t-458 -121h-712zM410 279h374q119 0 188.5 49t69.5 133q0 66 -50 101.5t-148 35.5h-350zM567 862h320q262 0 262 176q0 59 -50 95t-151 36h-301z" />
<glyph unicode="C" horiz-adv-x="1501" d="M139 606q0 350 259 608.5t622 258.5q391 0 579 -308l-264 -184q-70 98 -151.5 148.5t-202.5 50.5q-201 0 -356.5 -167t-155.5 -395q0 -156 99.5 -253t254.5 -97q96 0 172 36t168 108l207 -215q-242 -221 -549 -222q-299 0 -490.5 173t-191.5 458z" />
<glyph unicode="D" horiz-adv-x="1605" d="M25 0l389 1448h422q381 0 567 -186q158 -158 158 -424q0 -334 -240 -572q-266 -266 -758 -266h-538zM420 287h180q307 0 483 176q145 145 146 362q0 145 -84 230q-106 106 -334 106h-156z" />
<glyph unicode="E" horiz-adv-x="1374" d="M25 0l389 1448h1081l-76 -283h-766l-78 -297h672l-76 -278h-673l-82 -307h778l-78 -283h-1091z" />
<glyph unicode="F" horiz-adv-x="1370" d="M25 0l389 1448h1102l-78 -289h-785l-82 -309h691l-76 -289h-692l-150 -561h-319z" />
<glyph unicode="G" horiz-adv-x="1611" d="M137 604q0 225 116 424t325.5 322t461.5 123q399 0 592 -250l-235 -209q-154 168 -381 168q-229 0 -389 -169t-160 -399q0 -164 105.5 -256t265.5 -92q135 0 258 58l69 235h-321l74 275h628l-205 -721q-242 -137 -524 -138q-129 0 -247.5 38t-217 113t-157 198.5 t-58.5 279.5z" />
<glyph unicode="H" horiz-adv-x="1562" d="M25 0l389 1448h319l-153 -574h579l152 574h319l-389 -1448h-319l157 582h-579l-156 -582h-319z" />
<glyph unicode="I" horiz-adv-x="694" d="M39 0l389 1448h320l-390 -1448h-319z" />
<glyph unicode="J" horiz-adv-x="1187" d="M-80 221l225 197q113 -143 261 -144q115 0 194 82q35 35 61.5 94.5t65.5 200.5l213 797h326l-234 -873q-45 -176 -90 -270t-121 -170q-156 -156 -432 -155q-143 0 -268 61t-201 180z" />
<glyph unicode="K" horiz-adv-x="1503" d="M25 0l389 1448h319l-172 -641l715 641h430l-705 -606l340 -842h-348l-243 651l-301 -256l-105 -395h-319z" />
<glyph unicode="L" horiz-adv-x="1294" d="M25 0l389 1448h319l-311 -1159h723l-80 -289h-1040z" />
<glyph unicode="M" horiz-adv-x="1794" d="M25 0l389 1448h331l209 -612l539 612h369l-389 -1448h-322l252 946l-567 -618h-9l-231 612l-252 -940h-319z" />
<glyph unicode="N" horiz-adv-x="1624" d="M25 0l389 1448h293l421 -920l250 920h314l-389 -1448h-271l-438 950l-254 -950h-315z" />
<glyph unicode="O" horiz-adv-x="1720" d="M139 616q0 217 107.5 413t310.5 320t453 124q295 0 478 -182.5t183 -459.5q0 -217 -107.5 -412.5t-310 -319.5t-452.5 -124q-297 0 -479.5 182.5t-182.5 458.5zM469 637q0 -166 97.5 -267.5t271.5 -101.5q217 0 359 171t142 372q0 166 -96 267.5t-270 101.5 q-217 0 -360.5 -171t-143.5 -372z" />
<glyph unicode="P" horiz-adv-x="1402" d="M25 0l389 1448h458q309 0 455 -148q113 -111 113 -296q0 -262 -199 -414t-504 -152h-276l-117 -438h-319zM537 717h217q160 0 256 69.5t96 190.5q0 72 -47 119q-63 66 -199 65h-207z" />
<glyph unicode="Q" horiz-adv-x="1720" d="M139 616q0 217 107.5 413t310.5 320t453 124q295 0 478 -182.5t183 -459.5q0 -344 -246 -595l115 -154l-262 -172l-94 151q-174 -86 -383 -86q-297 0 -479.5 182.5t-182.5 458.5zM469 637q0 -166 97.5 -267.5t271.5 -101.5q92 0 182 37l-186 254l262 176l147 -237 q96 150 96 313q0 166 -96 267.5t-270 101.5q-217 0 -360.5 -171t-143.5 -372z" />
<glyph unicode="R" horiz-adv-x="1503" d="M25 0l389 1448h528q313 0 459 -145q111 -111 110 -291q0 -197 -118.5 -330t-348.5 -188l246 -494h-362l-223 463h-238l-123 -463h-319zM545 745h282q156 0 254.5 61.5t98.5 178.5q0 70 -47 115q-59 61 -211 61h-267z" />
<glyph unicode="S" horiz-adv-x="1314" d="M-20 246l239 203q174 -190 406 -191q96 0 158.5 42t62.5 110q0 53 -50.5 93t-195.5 97q-168 68 -262 157t-94 234q0 215 168 346t407 131q342 0 543 -215l-219 -219q-88 80 -168 118t-180 38q-96 0 -153.5 -45t-57.5 -103q0 -55 49 -91t205 -99q170 -68 259 -156t89 -235 q0 -219 -169 -350t-407 -131q-423 0 -630 266z" />
<glyph unicode="T" horiz-adv-x="1282" d="M199 1155l77 293h1201l-78 -293h-441l-311 -1155h-317l309 1155h-440z" />
<glyph unicode="U" horiz-adv-x="1579" d="M168 465q0 109 35 231l200 752h318l-209 -780q-23 -78 -23 -158q0 -109 67 -174.5t187 -65.5q139 0 236 92q94 94 139 269l219 817h320l-232 -862q-74 -283 -223 -430q-178 -178 -493 -179q-252 0 -396.5 129.5t-144.5 358.5z" />
<glyph unicode="V" horiz-adv-x="1497" d="M258 1448h342l98 -1010l641 1010h359l-969 -1458h-283z" />
<glyph unicode="W" horiz-adv-x="2291" d="M268 1448h332l37 -981l584 985h272l68 -985l561 981h360l-885 -1458h-297l-69 928l-567 -928h-291z" />
<glyph unicode="X" horiz-adv-x="1447" d="M-106 0l700 752l-311 696h358l182 -465l406 465h407l-680 -733l320 -715h-358l-193 485l-424 -485h-407z" />
<glyph unicode="Y" horiz-adv-x="1343" d="M203 1448h354l170 -600l496 600h385l-793 -905l-147 -543h-318l152 571z" />
<glyph unicode="Z" horiz-adv-x="1423" d="M-39 0l64 242l1017 927h-745l78 279h1173l-65 -242l-1018 -927h776l-74 -279h-1206z" />
<glyph unicode="[" horiz-adv-x="960" d="M-20 -268l460 1716h668l-66 -246h-366l-328 -1225h365l-66 -245h-667z" />
<glyph unicode="\" horiz-adv-x="1095" d="M244 1651h260l432 -1915h-262z" />
<glyph unicode="]" horiz-adv-x="960" d="M-129 -268l68 245h364l330 1225h-367l68 246h667l-460 -1716h-670z" />
<glyph unicode="^" d="M174 1020l422 428h215l190 -428h-204l-125 242l-252 -242h-246z" />
<glyph unicode="_" horiz-adv-x="1241" d="M-238 -332l64 242h1249l-63 -242h-1250z" />
<glyph unicode="`" d="M520 1479l277 118l133 -366h-215z" />
<glyph unicode="a" horiz-adv-x="1214" d="M14 276q0 186 134.5 293t343.5 107q154 0 313 -49l4 14q12 49 12 84q0 129 -209 129q-150 0 -295 -59l-51 247q188 78 412 78q221 0 334.5 -87t113.5 -253q0 -74 -24 -168l-162 -612h-305l33 129q-137 -150 -330 -149q-143 0 -233.5 83.5t-90.5 212.5zM328 313 q0 -53 39 -85.5t104 -32.5q96 0 175 65.5t106 157.5l8 28q-102 39 -207 39q-100 0 -162.5 -47t-62.5 -125z" />
<glyph unicode="b" horiz-adv-x="1392" d="M-6 0l401 1509h314l-138 -520q150 139 312 139q186 0 306 -128t120 -347q0 -287 -184.5 -480t-428.5 -193q-227 0 -346 182l-45 -162h-311zM418 479q0 -104 66.5 -169.5t170.5 -65.5q131 0 230.5 112.5t99.5 276.5q0 109 -63.5 170t-167.5 61q-133 0 -234.5 -113.5 t-101.5 -271.5z" />
<glyph unicode="c" horiz-adv-x="1157" d="M86 475q0 272 193.5 462.5t461.5 190.5q313 0 455 -243l-240 -170q-49 74 -101 109.5t-140 35.5q-123 0 -220.5 -115.5t-97.5 -269.5q0 -104 62.5 -168.5t154.5 -64.5q123 0 250 110l162 -205q-96 -86 -192.5 -129t-229.5 -43q-227 0 -372.5 137.5t-145.5 362.5z" />
<glyph unicode="d" horiz-adv-x="1392" d="M82 455q0 289 185.5 481t426.5 192q227 0 348 -180l150 561h313l-403 -1509h-314l33 121q-152 -141 -313 -141q-184 0 -305 128t-121 347zM408 475q0 -106 63.5 -168.5t167.5 -62.5q133 0 234.5 113.5t101.5 271.5q0 106 -66.5 170.5t-171.5 64.5q-131 0 -230 -112.5 t-99 -276.5z" />
<glyph unicode="e" horiz-adv-x="1255" d="M84 467q0 164 80 313.5t234.5 248.5t344.5 99q211 0 332 -120.5t121 -311.5q0 -117 -55 -252h-760q16 -217 252 -217q121 0 246 90l145 -194q-176 -147 -426 -148q-240 0 -377 131.5t-137 360.5zM408 641h481q10 35 10 72q0 74 -45 119t-137 45q-104 0 -187 -63.5 t-122 -172.5z" />
<glyph unicode="f" horiz-adv-x="849" d="M47 0l227 840h-131l72 268h131l14 61q92 354 449 355q129 0 215 -31l-68 -260q-68 27 -137 27q-123 0 -155 -119l-9 -33h267l-72 -268h-260l-228 -840h-315z" />
<glyph unicode="g" horiz-adv-x="1386" d="M-68 -180l164 215q184 -121 400 -121q152 0 241 88q61 61 101 199l10 37q-88 -78 -167 -113t-181 -35q-168 0 -290 103.5t-122 283.5q0 272 185.5 461.5t420.5 189.5q227 0 338 -190l45 170h316l-238 -891q-45 -166 -86 -249t-108 -150q-154 -154 -445 -154 q-355 0 -584 156zM414 539q0 -96 58 -146.5t153 -50.5q131 0 229 96.5t98 225.5q0 94 -60.5 148t-158.5 54q-131 0 -225 -99t-94 -228z" />
<glyph unicode="h" horiz-adv-x="1286" d="M-6 0l401 1509h314l-136 -516q154 135 302.5 135t237.5 -86t89 -235q0 -70 -37 -211l-159 -596h-316l164 608q14 53 14 99q0 137 -153 137q-90 0 -151.5 -58.5t-88.5 -162.5l-168 -623h-313z" />
<glyph unicode="i" horiz-adv-x="624" d="M6 0l297 1108h315l-296 -1108h-316zM330 1231l76 278h331l-78 -278h-329z" />
<glyph unicode="j" horiz-adv-x="622" d="M-266 -322l65 248q41 -10 76 -10q53 0 92 40t58 110l278 1042h315l-288 -1081q-100 -365 -424 -365q-96 0 -172 16zM330 1231l73 278h332l-76 -278h-329z" />
<glyph unicode="k" horiz-adv-x="1220" d="M-6 0l405 1509h314l-211 -780l450 379h410l-537 -432l242 -676h-352l-156 469l-160 -127l-92 -342h-313z" />
<glyph unicode="l" horiz-adv-x="624" d="M6 0l406 1509h315l-405 -1509h-316z" />
<glyph unicode="m" horiz-adv-x="1961" d="M-6 0l295 1108h315l-31 -115q154 135 293 135q221 0 295 -200q164 201 398 200q147 0 233 -85t86 -236q0 -70 -37 -211l-160 -596h-313l162 608q14 53 14 99q0 137 -145 137q-178 0 -236 -221l-168 -623h-315l164 608q14 53 14 99q0 137 -147 137q-176 0 -236 -221 l-168 -623h-313z" />
<glyph unicode="n" horiz-adv-x="1280" d="M-6 0l295 1108h315l-31 -115q154 135 302.5 135t237.5 -86t89 -235q0 -70 -37 -211l-159 -596h-316l164 608q14 53 14 99q0 137 -153 137q-90 0 -151.5 -58.5t-88.5 -162.5l-168 -623h-313z" />
<glyph unicode="o" horiz-adv-x="1347" d="M86 487q0 254 189.5 447.5t453.5 193.5q242 0 387.5 -143t145.5 -369q0 -252 -189.5 -446.5t-451.5 -194.5q-242 0 -388.5 143.5t-146.5 368.5zM395 496q0 -119 65.5 -185.5t174.5 -66.5q137 0 228 117.5t91 246.5q0 121 -65.5 186.5t-175.5 65.5q-135 0 -226.5 -117.5 t-91.5 -246.5z" />
<glyph unicode="p" horiz-adv-x="1392" d="M-94 -332l383 1440h315l-33 -119q150 139 312 139q186 0 306 -128t120 -347q0 -287 -184.5 -480t-428.5 -193q-227 0 -346 182l-131 -494h-313zM418 479q0 -104 66.5 -169.5t170.5 -65.5q131 0 230.5 112.5t99.5 276.5q0 109 -63.5 170t-167.5 61q-133 0 -234.5 -113.5 t-101.5 -271.5z" />
<glyph unicode="q" horiz-adv-x="1392" d="M82 455q0 289 185.5 481t426.5 192q227 0 348 -180l41 160h316l-406 -1522h-315l143 535q-152 -141 -313 -141q-184 0 -305 128t-121 347zM408 475q0 -106 63.5 -168.5t167.5 -62.5q133 0 234.5 113.5t101.5 271.5q0 106 -66.5 170.5t-171.5 64.5q-131 0 -230 -112.5 t-99 -276.5z" />
<glyph unicode="r" horiz-adv-x="866" d="M-6 0l295 1108h315l-59 -223q167 245 387 245q17 0 35 -2l-90 -327h-17q-338 0 -446 -408l-107 -393h-313z" />
<glyph unicode="s" d="M-49 176l182 189q147 -150 338 -150q133 0 133 98q0 47 -129 103q-78 33 -125 57.5t-98 64.5t-74.5 89t-23.5 114q0 168 120.5 277.5t323.5 109.5q127 0 245 -46t191 -111l-170 -199q-150 117 -289 117q-59 0 -90.5 -24.5t-31.5 -67.5q0 -31 35.5 -56.5t111.5 -60.5 q68 -31 111 -53.5t93 -60.5t74.5 -88t24.5 -111q0 -180 -127 -286t-327 -106q-133 0 -269.5 51.5t-228.5 149.5z" />
<glyph unicode="t" horiz-adv-x="858" d="M115 199q0 55 20 139l133 502h-131l72 268h133l76 285h315l-78 -285h260l-71 -268h-260l-125 -465q-8 -33 -8 -49q0 -68 86 -68q80 0 159 35l-71 -266q-96 -45 -228 -45q-137 0 -209.5 60.5t-72.5 156.5z" />
<glyph unicode="u" horiz-adv-x="1286" d="M84 301q0 72 39 211l158 596h315l-164 -608q-14 -53 -14 -99q0 -137 153 -137q90 0 151.5 59.5t88.5 161.5l168 623h313l-295 -1108h-315l31 117q-152 -137 -301.5 -137t-238.5 87t-89 234z" />
<glyph unicode="v" horiz-adv-x="1222" d="M176 1108h322l51 -737l440 737h336l-729 -1116h-285z" />
<glyph unicode="w" horiz-adv-x="1771" d="M184 1108h318l-2 -672l389 676h272l29 -678l364 674h312l-645 -1116h-283l-33 680l-399 -680h-281z" />
<glyph unicode="x" horiz-adv-x="1193" d="M-102 0l540 580l-241 528h335l123 -309l260 309h375l-518 -559l244 -549h-336l-127 330l-283 -330h-372z" />
<glyph unicode="y" horiz-adv-x="1222" d="M-82 -260l166 227q59 -43 123 -43q68 0 123 68l-137 1116h319l53 -752l416 752h338l-686 -1135q-109 -170 -212.5 -240.5t-244.5 -70.5q-149 0 -258 78z" />
<glyph unicode="z" horiz-adv-x="1150" d="M-55 0l59 221l727 633h-538l67 254h940l-59 -221l-729 -633h565l-70 -254h-962z" />
<glyph unicode="{" horiz-adv-x="1011" d="M90 473l66 240h65q150 0 209 61.5t84 255.5q31 233 167 340t417 109l20 -211q-188 -18 -251.5 -85t-80.5 -227q-23 -207 -99.5 -288.5t-237.5 -98.5q86 -12 131 -62t45 -122q0 -63 -37 -160q-35 -96 -35 -145q0 -63 37 -100t151 -78l-104 -193q-205 39 -295 116t-90 200 q0 68 41 178q35 86 35 147q0 63 -32 93t-138 30h-68z" />
<glyph unicode="|" horiz-adv-x="722" d="M272 -264v1915h250v-1915h-250z" />
<glyph unicode="}" horiz-adv-x="1011" d="M-84 -80q184 18 248.5 83t83.5 228q23 207 99.5 289t238.5 98q-86 12 -131 62.5t-45 122.5q0 63 36 160q35 92 35 143q0 66 -36.5 102.5t-151.5 77.5l104 193q205 -39 295 -116t90 -200q0 -70 -41 -178q-35 -88 -34 -147q0 -63 31.5 -94t138.5 -31h67l-65 -240h-66 q-150 0 -209 -60.5t-84 -254.5q-31 -233 -167 -340t-416 -109z" />
<glyph unicode="~" horiz-adv-x="1054" d="M115 539q55 125 138 199.5t177 74.5q82 0 164 -59q74 -55 108 -56q78 0 146 123l166 -82q-55 -127 -138 -201.5t-180 -74.5q-78 0 -161 61q-76 53 -111 54q-76 0 -145 -123z" />
<glyph unicode="&#xa1;" horiz-adv-x="671" d="M2 0l12 41l342 915h174l-147 -915l-12 -41h-369zM319 1116l89 332h335l-90 -332h-334z" />
<glyph unicode="&#xa2;" horiz-adv-x="1210" d="M137 674q0 272 188.5 454.5t467.5 182.5q35 0 53 -2l57 151h215l-76 -194q154 -66 234 -205l-238 -166q-45 74 -108 109l-225 -578q135 2 260 102l163 -213q-174 -158 -421 -157q-49 0 -95 6l-67 -176h-215l88 227q-135 61 -208 180t-73 279zM444 678q0 -123 88 -197 l220 559q-133 -14 -220.5 -121.5t-87.5 -240.5z" />
<glyph unicode="&#xa3;" horiz-adv-x="1331" d="M-27 0l56 209l172 51l78 293h-156l70 262h157l51 195q53 201 166 311q145 147 387 147q305 0 443 -247l-254 -174q-80 129 -213 129q-82 0 -139 -60q-55 -55 -86 -160l-39 -141h479l-72 -262h-475l-74 -279h633l-76 -274h-1108z" />
<glyph unicode="&#xa4;" horiz-adv-x="1488" d="M49 449l57 208h154q10 80 27 142h-144l56 209h151q92 211 268.5 338t407.5 127q403 0 522 -338l-270 -134q-45 96 -104.5 140.5t-163.5 44.5q-195 0 -305 -178h399l-55 -209h-422q-20 -55 -35 -142h420l-56 -208h-366q18 -90 82.5 -138.5t152.5 -48.5q86 0 152.5 35 t138.5 111l215 -187q-205 -246 -512 -246q-233 0 -383.5 127t-179.5 347h-207z" />
<glyph unicode="&#xa5;" horiz-adv-x="1470" d="M102 190l62 224h381l33 129h-381l59 223h297l-260 682h344l174 -537l465 537h379l-631 -682h299l-59 -223h-381l-33 -129h381l-60 -224h-380l-52 -190h-307l51 190h-381z" />
<glyph unicode="&#xa7;" horiz-adv-x="1306" d="M98 174l197 174q131 -131 307 -131q66 0 106 21.5t40 56.5t-44.5 57.5t-166.5 55.5q-94 25 -152.5 46t-119 56t-89.5 82t-29 110q0 104 71 175t210 100q-74 70 -74 172q0 139 131 231.5t330 92.5q158 0 285 -50.5t200 -142.5l-196 -174q-129 131 -305 131 q-66 0 -106 -21.5t-40 -56.5t44 -57.5t167 -54.5q94 -25 152.5 -46.5t119 -56.5t89 -82t28.5 -110q0 -104 -71.5 -175t-208.5 -100q74 -70 74 -172q0 -139 -131.5 -231t-329.5 -92q-158 0 -285 50t-203 142zM440 758q0 -41 42 -65.5t136 -53.5q143 -43 207 -43 q53 0 94.5 28.5t41.5 71.5q0 41 -42 65.5t-137 53.5q-143 43 -207 43q-53 0 -94 -28.5t-41 -71.5z" />
<glyph unicode="&#xa8;" d="M326 1231l75 278h301l-75 -278h-301zM768 1231l76 278h303l-78 -278h-301z" />
<glyph unicode="&#xa9;" horiz-adv-x="1716" d="M154 722q0 308 219 529.5t531.5 221.5t529.5 -219.5t217 -527.5t-219.5 -529.5t-531.5 -221.5t-529 219.5t-217 527.5zM240 721q0 -276 189 -470t471 -194t473.5 194.5t191.5 475.5q0 276 -189.5 470t-471 194t-473 -194.5t-191.5 -475.5zM502 732q0 173 117.5 294 t295.5 121q188 0 316 -123l-115 -133q-98 90 -201 90q-96 0 -161.5 -71.5t-65.5 -175t64.5 -175.5t162.5 -72q102 0 205 95l117 -117q-133 -141 -328 -141q-172 0 -289.5 117.5t-117.5 290.5z" />
<glyph unicode="&#xaa;" horiz-adv-x="804" d="M106 573l37 136h549l-37 -136h-549zM211 991q0 102 74.5 161.5t187.5 59.5q88 0 174 -28l4 14q6 18 6 35q0 76 -116 76q-86 0 -162 -33l-29 137q102 43 228 43q246 0 245 -188q0 -47 -12 -90l-92 -338h-166l18 69q-80 -82 -182 -82q-78 0 -128 45t-50 119zM383 1012 q0 -29 21.5 -47.5t58.5 -18.5q51 0 96 36t57 87l5 16q-57 20 -113.5 20.5t-90.5 -25t-34 -68.5z" />
<glyph unicode="&#xab;" horiz-adv-x="1329" d="M94 528l4 17l492 481l180 -166l-364 -354l165 -330l-252 -113zM653 528l4 17l492 481l178 -166l-362 -354l163 -330l-251 -113z" />
<glyph unicode="&#xad;" horiz-adv-x="851" d="M90 489l82 304h637l-80 -304h-639z" />
<glyph unicode="&#xae;" horiz-adv-x="1716" d="M154 722q0 308 219 529.5t531.5 221.5t529.5 -219.5t217 -527.5t-219.5 -529.5t-531.5 -221.5t-529 219.5t-217 527.5zM240 721q0 -276 189 -470t471 -194t473.5 194.5t191.5 475.5q0 276 -189.5 470t-471 194t-473 -194.5t-191.5 -475.5zM594 348v797h354 q143 0 227.5 -69.5t84.5 -194.5q0 -186 -173 -248l195 -285h-205l-170 256h-137v-256h-176zM770 756h176q66 0 100.5 31.5t34.5 82.5q0 119 -139 119h-172v-233z" />
<glyph unicode="&#xaf;" d="M330 1241l57 217h743l-57 -217h-743z" />
<glyph unicode="&#xb0;" horiz-adv-x="919" d="M182 1069q0 158 116 277.5t280 119.5q152 0 241.5 -89t89.5 -228q0 -158 -115.5 -277.5t-279.5 -119.5q-150 0 -241 88t-91 229zM367 1075q0 -72 42 -118t113 -46q86 0 145.5 72t59.5 160q0 72 -43 117t-113 45q-88 0 -146 -71t-58 -159z" />
<glyph unicode="&#xb1;" horiz-adv-x="1284" d="M-27 252l236 178q139 -170 344 -170q121 0 191.5 57.5t70.5 131.5q0 152 -233 151h-158l70 262h168q117 0 195.5 49.5t78.5 135.5q0 61 -54.5 101t-136.5 40q-92 0 -162.5 -36t-156.5 -114l-176 201q227 233 532 234q221 0 350.5 -109t129.5 -268q0 -133 -82 -228.5 t-240 -140.5q82 -35 138.5 -109.5t56.5 -177.5q0 -201 -167 -333t-438 -132q-387 1 -557 277z" />
<glyph unicode="&#xb2;" horiz-adv-x="1269" d="M-61 0l69 260l733 506q211 143 211 268q0 70 -49 110t-133 40q-160 0 -346 -180l-195 202q231 262 555 262q223 0 358.5 -111.5t135.5 -287.5q0 -135 -76 -245.5t-264 -241.5l-449 -308h609l-74 -274h-1085z" />
<glyph unicode="&#xb3;" horiz-adv-x="1249" d="M-35 250l236 174q121 -164 313 -164q115 0 194.5 61.5t79.5 141.5q0 84 -74.5 128t-209.5 44h-88l-13 199l426 342h-548l75 272h977l-65 -240l-467 -356q307 -74 307 -360q0 -219 -174 -368t-434 -149q-375 1 -535 275z" />
<glyph unicode="&#xb4;" d="M430 1231l334 366l264 -118l-334 -248h-264z" />
<glyph unicode="&#xb5;" horiz-adv-x="1720" d="M139 616q0 217 107.5 413t310.5 320t453 124q295 0 478 -182.5t183 -459.5q0 -344 -246 -595l115 -154l-262 -172l-94 151q-174 -86 -383 -86q-297 0 -479.5 182.5t-182.5 458.5zM469 637q0 -166 97.5 -267.5t271.5 -101.5q92 0 182 37l-186 254l262 176l147 -237 q96 150 96 313q0 166 -96 267.5t-270 101.5q-217 0 -360.5 -171t-143.5 -372z" />
<glyph unicode="&#xb6;" horiz-adv-x="1236" d="M180 877q0 252 186.5 411.5t542.5 159.5h396l-390 -1448h-315l115 438q-256 4 -395.5 114t-139.5 325z" />
<glyph unicode="&#xb7;" horiz-adv-x="659" d="M133 475l88 332h336l-90 -332h-334z" />
<glyph unicode="&#xb8;" d="M90 -248l258 268h232l-254 -378z" />
<glyph unicode="&#xb9;" horiz-adv-x="897" d="M197 0l299 1120l-263 -59l-4 270l455 127h217l-391 -1458h-313z" />
<glyph unicode="&#xba;" horiz-adv-x="831" d="M106 573l37 136h574l-37 -136h-574zM215 1106q0 141 102.5 246.5t249.5 105.5q131 0 212 -79t81 -201q0 -141 -102.5 -247t-249.5 -106q-131 0 -212 79t-81 202zM385 1112q0 -61 36 -100t93 -39q78 0 127 61.5t49 136.5q0 61 -36 100.5t-93 39.5q-78 0 -127 -61.5 t-49 -137.5z" />
<glyph unicode="&#xbb;" horiz-adv-x="1329" d="M-2 229l364 355l-165 329l252 113l223 -463l-4 -16l-490 -484zM557 229l363 355l-164 329l252 113l223 -463l-4 -16l-490 -484z" />
<glyph unicode="&#xbc;" horiz-adv-x="3336" d="M2007 549l999 909h309l-237 -887h194l-69 -258h-195l-82 -313h-301l84 313h-672zM2410 571h369l123 463zM612 -203l1438 1772h277l-1438 -1772h-277zM197 0l299 1120l-263 -59l-4 270l455 127h217l-391 -1458h-313z" />
<glyph unicode="&#xbd;" horiz-adv-x="3241" d="M1913 0l69 260l733 506q211 143 211 268q0 70 -49 110t-133 40q-160 0 -346 -180l-195 202q231 262 555 262q223 0 358.5 -111.5t135.5 -287.5q0 -135 -76 -245.5t-264 -241.5l-449 -308h609l-74 -274h-1085zM612 -203l1438 1772h277l-1438 -1772h-277zM197 0l299 1120 l-263 -59l-4 270l455 127h217l-391 -1458h-313z" />
<glyph unicode="&#xbe;" horiz-adv-x="3686" d="M2357 549l999 909h309l-237 -887h194l-69 -258h-195l-82 -313h-301l84 313h-672zM2760 571h369l123 463zM964 -203l1438 1772h277l-1438 -1772h-277zM-35 250l236 174q121 -164 313 -164q115 0 194.5 61.5t79.5 141.5q0 84 -74.5 128t-209.5 44h-88l-13 199l426 342h-548 l75 272h977l-65 -240l-467 -356q307 -74 307 -360q0 -219 -174 -368t-434 -149q-375 1 -535 275z" />
<glyph unicode="&#xbf;" horiz-adv-x="1124" d="M49 358q0 182 135 298t396 155l59 145h211l-41 -335l-12 -11q-414 -29 -414 -211q0 -129 172 -129q152 0 295 123l166 -209q-98 -100 -231.5 -151t-274.5 -51q-211 0 -336 110t-125 266zM614 1116l88 332h336l-88 -332h-336z" />
<glyph unicode="&#xc0;" horiz-adv-x="1581" d="M-119 0l1012 1458h307l230 -1458h-328l-45 326h-613l-219 -326h-344zM635 606h385l-66 477zM760 1810l276 117l135 -364h-215z" />
<glyph unicode="&#xc1;" horiz-adv-x="1581" d="M-119 0l1012 1458h307l230 -1458h-328l-45 326h-613l-219 -326h-344zM635 606h385l-66 477zM881 1563l333 364l265 -117l-332 -247h-266z" />
<glyph unicode="&#xc2;" horiz-adv-x="1581" d="M-119 0l1012 1458h307l230 -1458h-328l-45 326h-613l-219 -326h-344zM616 1563l342 323h297l168 -323h-227l-127 135l-201 -135h-252zM635 606h385l-66 477z" />
<glyph unicode="&#xc3;" horiz-adv-x="1581" d="M-119 0l1012 1458h307l230 -1458h-328l-45 326h-613l-219 -326h-344zM608 1630q55 125 138 200t178 75q84 0 163 -60q76 -53 111 -53q76 0 143 121l166 -82q-55 -127 -138 -201t-177 -74q-80 0 -164 60q-74 53 -110 53q-76 0 -144 -123zM635 606h385l-66 477z" />
<glyph unicode="&#xc4;" horiz-adv-x="1581" d="M-119 0l1012 1458h307l230 -1458h-328l-45 326h-613l-219 -326h-344zM635 606h385l-66 477zM680 1563l78 278h301l-76 -278h-303zM1122 1563l78 278h301l-76 -278h-303z" />
<glyph unicode="&#xc5;" horiz-adv-x="1581" d="M-119 0l993 1432q-53 59 -53 147q0 113 81 194.5t196 81.5q104 0 165.5 -61t61.5 -154q0 -143 -119 -227l224 -1413h-328l-45 326h-613l-219 -326h-344zM635 606h385l-66 477zM954 1581q0 -47 27 -75.5t72 -28.5q61 0 101 49t40 112q0 45 -26.5 74t-73.5 29 q-61 0 -100.5 -48.5t-39.5 -111.5z" />
<glyph unicode="&#xc6;" horiz-adv-x="2187" d="M-127 0l1169 1448h1266l-76 -283h-725l-77 -297h630l-75 -278h-631l-84 -307h737l-78 -283h-1050l88 326h-490l-258 -326h-346zM702 606h340l152 568h-39z" />
<glyph unicode="&#xc7;" horiz-adv-x="1501" d="M139 606q0 350 259 608.5t622 258.5q391 0 579 -308l-264 -184q-70 98 -151.5 148.5t-202.5 50.5q-201 0 -356.5 -167t-155.5 -395q0 -156 99.5 -253t254.5 -97q96 0 172 36t168 108l207 -215q-242 -221 -549 -222h-18l-223 -333l-234 110l242 254q-207 59 -328 217 t-121 383z" />
<glyph unicode="&#xc8;" horiz-adv-x="1374" d="M25 0l389 1448h1081l-76 -283h-766l-78 -297h672l-76 -278h-673l-82 -307h778l-78 -283h-1091zM688 1810l279 117l133 -364h-215z" />
<glyph unicode="&#xc9;" horiz-adv-x="1374" d="M25 0l389 1448h1081l-76 -283h-766l-78 -297h672l-76 -278h-673l-82 -307h778l-78 -283h-1091zM797 1563l331 364l267 -117l-334 -247h-264z" />
<glyph unicode="&#xca;" horiz-adv-x="1374" d="M25 0l389 1448h1081l-76 -283h-766l-78 -297h672l-76 -278h-673l-82 -307h778l-78 -283h-1091zM578 1563l340 323h299l167 -323h-227l-127 135l-201 -135h-251z" />
<glyph unicode="&#xcb;" horiz-adv-x="1374" d="M25 0l389 1448h1081l-76 -283h-766l-78 -297h672l-76 -278h-673l-82 -307h778l-78 -283h-1091zM606 1563l76 278h303l-78 -278h-301zM1049 1563l75 278h303l-75 -278h-303z" />
<glyph unicode="&#xcc;" horiz-adv-x="694" d="M39 0l389 1448h320l-390 -1448h-319zM334 1810l276 117l135 -364h-215z" />
<glyph unicode="&#xcd;" horiz-adv-x="694" d="M39 0l389 1448h320l-390 -1448h-319zM434 1563l334 364l264 -117l-334 -247h-264z" />
<glyph unicode="&#xce;" horiz-adv-x="694" d="M39 0l389 1448h320l-390 -1448h-319zM190 1563l342 323h297l168 -323h-227l-127 135l-201 -135h-252z" />
<glyph unicode="&#xcf;" horiz-adv-x="694" d="M39 0l389 1448h320l-390 -1448h-319zM242 1563l77 278h302l-76 -278h-303zM684 1563l78 278h301l-76 -278h-303z" />
<glyph unicode="&#xd0;" horiz-adv-x="1646" d="M51 588l78 280h170l156 580h422q381 0 567 -186q158 -158 158 -424q0 -334 -238 -572q-268 -266 -760 -266h-538l157 588h-172zM461 287h180q309 0 483 176q145 145 146 362q0 145 -84 230q-106 106 -334 106h-156l-78 -293h293l-75 -280h-293z" />
<glyph unicode="&#xd1;" horiz-adv-x="1624" d="M25 0l389 1448h293l421 -920l250 920h314l-389 -1448h-271l-438 950l-254 -950h-315zM635 1630q55 125 138 200t179 75q82 0 162 -60q76 -53 111 -53q76 0 145 121l164 -82q-55 -127 -138 -201t-177 -74q-78 0 -164 60q-74 53 -109 53q-78 0 -145 -123z" />
<glyph unicode="&#xd2;" horiz-adv-x="1720" d="M139 616q0 217 107.5 413t310.5 320t453 124q295 0 478 -182.5t183 -459.5q0 -217 -107.5 -412.5t-310 -319.5t-452.5 -124q-297 0 -479.5 182.5t-182.5 458.5zM469 637q0 -166 97.5 -267.5t271.5 -101.5q217 0 359 171t142 372q0 166 -96 267.5t-270 101.5 q-217 0 -360.5 -171t-143.5 -372zM780 1810l277 117l135 -364h-215z" />
<glyph unicode="&#xd3;" horiz-adv-x="1720" d="M139 616q0 217 107.5 413t310.5 320t453 124q295 0 478 -182.5t183 -459.5q0 -217 -107.5 -412.5t-310 -319.5t-452.5 -124q-297 0 -479.5 182.5t-182.5 458.5zM469 637q0 -166 97.5 -267.5t271.5 -101.5q217 0 359 171t142 372q0 166 -96 267.5t-270 101.5 q-217 0 -360.5 -171t-143.5 -372zM856 1563l334 364l264 -117l-334 -247h-264z" />
<glyph unicode="&#xd4;" horiz-adv-x="1720" d="M139 616q0 217 107.5 413t310.5 320t453 124q295 0 478 -182.5t183 -459.5q0 -217 -107.5 -412.5t-310 -319.5t-452.5 -124q-297 0 -479.5 182.5t-182.5 458.5zM469 637q0 -166 97.5 -267.5t271.5 -101.5q217 0 359 171t142 372q0 166 -96 267.5t-270 101.5 q-217 0 -360.5 -171t-143.5 -372zM659 1563l342 323h297l168 -323h-227l-127 135l-201 -135h-252z" />
<glyph unicode="&#xd5;" horiz-adv-x="1720" d="M139 616q0 217 107.5 413t310.5 320t453 124q295 0 478 -182.5t183 -459.5q0 -217 -107.5 -412.5t-310 -319.5t-452.5 -124q-297 0 -479.5 182.5t-182.5 458.5zM469 637q0 -166 97.5 -267.5t271.5 -101.5q217 0 359 171t142 372q0 166 -96 267.5t-270 101.5 q-217 0 -360.5 -171t-143.5 -372zM657 1630q55 125 138.5 200t179.5 75q82 0 164 -60q74 -53 108 -53q76 0 146 121l166 -82q-57 -127 -140.5 -201t-177.5 -74q-78 0 -164 60q-74 53 -108 53q-78 0 -146 -123z" />
<glyph unicode="&#xd6;" horiz-adv-x="1720" d="M139 616q0 217 107.5 413t310.5 320t453 124q295 0 478 -182.5t183 -459.5q0 -217 -107.5 -412.5t-310 -319.5t-452.5 -124q-297 0 -479.5 182.5t-182.5 458.5zM469 637q0 -166 97.5 -267.5t271.5 -101.5q217 0 359 171t142 372q0 166 -96 267.5t-270 101.5 q-217 0 -360.5 -171t-143.5 -372zM707 1563l77 278h301l-75 -278h-303zM1151 1563l76 278h301l-76 -278h-301z" />
<glyph unicode="&#xd8;" horiz-adv-x="1720" d="M-53 -10l293 268q-100 156 -101 358q0 217 107.5 413t310.5 320t453 124q258 0 436 -146l141 131h303l-309 -284q90 -147 90 -343q0 -217 -107.5 -412.5t-310 -319.5t-452.5 -124q-246 0 -422 134l-129 -119h-303zM457 635q0 -92 30 -168l719 659q-92 68 -231 68 q-221 0 -369.5 -176t-148.5 -383zM621 307q88 -53 215 -53q221 0 369.5 176t148.5 383q0 76 -25 150z" />
<glyph unicode="&#xd9;" horiz-adv-x="1579" d="M168 465q0 109 35 231l200 752h318l-209 -780q-23 -78 -23 -158q0 -109 67 -174.5t187 -65.5q139 0 236 92q94 94 139 269l219 817h320l-232 -862q-74 -283 -223 -430q-178 -178 -493 -179q-252 0 -396.5 129.5t-144.5 358.5zM762 1810l276 117l136 -364h-216z" />
<glyph unicode="&#xda;" horiz-adv-x="1579" d="M168 465q0 109 35 231l200 752h318l-209 -780q-23 -78 -23 -158q0 -109 67 -174.5t187 -65.5q139 0 236 92q94 94 139 269l219 817h320l-232 -862q-74 -283 -223 -430q-178 -178 -493 -179q-252 0 -396.5 129.5t-144.5 358.5zM864 1563l334 364l264 -117l-334 -247h-264z " />
<glyph unicode="&#xdb;" horiz-adv-x="1579" d="M168 465q0 109 35 231l200 752h318l-209 -780q-23 -78 -23 -158q0 -109 67 -174.5t187 -65.5q139 0 236 92q94 94 139 269l219 817h320l-232 -862q-74 -283 -223 -430q-178 -178 -493 -179q-252 0 -396.5 129.5t-144.5 358.5zM627 1563l342 323h297l168 -323h-228 l-127 135l-200 -135h-252z" />
<glyph unicode="&#xdc;" horiz-adv-x="1579" d="M168 465q0 109 35 231l200 752h318l-209 -780q-23 -78 -23 -158q0 -109 67 -174.5t187 -65.5q139 0 236 92q94 94 139 269l219 817h320l-232 -862q-74 -283 -223 -430q-178 -178 -493 -179q-252 0 -396.5 129.5t-144.5 358.5zM684 1563l78 278h301l-76 -278h-303z M1126 1563l78 278h301l-75 -278h-304z" />
<glyph unicode="&#xdd;" horiz-adv-x="1343" d="M203 1448h354l170 -600l496 600h385l-793 -905l-147 -543h-318l152 571zM743 1563l332 364l264 -117l-331 -247h-265z" />
<glyph unicode="&#xde;" horiz-adv-x="1423" d="M25 0l389 1448h319l-57 -211h141q307 0 455 -147q113 -111 112 -297q0 -262 -198.5 -414t-505.5 -152h-274l-62 -227h-319zM479 506h217q162 0 258.5 69.5t96.5 190.5q0 72 -47 119q-63 66 -199 65h-207z" />
<glyph unicode="&#xdf;" horiz-adv-x="1306" d="M-6 0l278 1040q61 221 181 342q143 141 374 142q209 0 329 -109.5t120 -281.5q0 -145 -84 -246t-234 -148q215 -94 216 -288q0 -213 -176.5 -339t-528.5 -116l68 244q178 -6 259 56t81 163q0 150 -238 174l55 207q287 63 287 262q0 76 -47 117t-117 41q-174 0 -237 -236 l-275 -1024h-311z" />
<glyph unicode="&#xe0;" horiz-adv-x="1214" d="M14 276q0 186 134.5 293t343.5 107q154 0 313 -49l4 14q12 49 12 84q0 129 -209 129q-150 0 -295 -59l-51 247q188 78 412 78q221 0 334.5 -87t113.5 -253q0 -74 -24 -168l-162 -612h-305l33 129q-137 -150 -330 -149q-143 0 -233.5 83.5t-90.5 212.5zM328 313 q0 -53 39 -85.5t104 -32.5q96 0 175 65.5t106 157.5l8 28q-102 39 -207 39q-100 0 -162.5 -47t-62.5 -125zM489 1479l279 118l133 -366h-215z" />
<glyph unicode="&#xe1;" horiz-adv-x="1214" d="M14 276q0 186 134.5 293t343.5 107q154 0 313 -49l4 14q12 49 12 84q0 129 -209 129q-150 0 -295 -59l-51 247q188 78 412 78q221 0 334.5 -87t113.5 -253q0 -74 -24 -168l-162 -612h-305l33 129q-137 -150 -330 -149q-143 0 -233.5 83.5t-90.5 212.5zM328 313 q0 -53 39 -85.5t104 -32.5q96 0 175 65.5t106 157.5l8 28q-102 39 -207 39q-100 0 -162.5 -47t-62.5 -125zM588 1231l332 366l266 -118l-334 -248h-264z" />
<glyph unicode="&#xe2;" horiz-adv-x="1214" d="M14 276q0 186 134.5 293t343.5 107q154 0 313 -49l4 14q12 49 12 84q0 129 -209 129q-150 0 -295 -59l-51 247q188 78 412 78q221 0 334.5 -87t113.5 -253q0 -74 -24 -168l-162 -612h-305l33 129q-137 -150 -330 -149q-143 0 -233.5 83.5t-90.5 212.5zM328 313 q0 -53 39 -85.5t104 -32.5q96 0 175 65.5t106 157.5l8 28q-102 39 -207 39q-100 0 -162.5 -47t-62.5 -125zM371 1231l340 325h299l168 -325h-228l-127 137l-200 -137h-252z" />
<glyph unicode="&#xe3;" horiz-adv-x="1214" d="M14 276q0 186 134.5 293t343.5 107q154 0 313 -49l4 14q12 49 12 84q0 129 -209 129q-150 0 -295 -59l-51 247q188 78 412 78q221 0 334.5 -87t113.5 -253q0 -74 -24 -168l-162 -612h-305l33 129q-137 -150 -330 -149q-143 0 -233.5 83.5t-90.5 212.5zM328 313 q0 -53 39 -85.5t104 -32.5q96 0 175 65.5t106 157.5l8 28q-102 39 -207 39q-100 0 -162.5 -47t-62.5 -125zM344 1298q55 127 138 202t177 75q84 0 164 -62q74 -53 111 -53q76 0 143 123l166 -84q-55 -125 -138 -199.5t-179 -74.5q-78 0 -162 59q-76 53 -111 53 q-76 0 -145 -120z" />
<glyph unicode="&#xe4;" horiz-adv-x="1214" d="M14 276q0 186 134.5 293t343.5 107q154 0 313 -49l4 14q12 49 12 84q0 129 -209 129q-150 0 -295 -59l-51 247q188 78 412 78q221 0 334.5 -87t113.5 -253q0 -74 -24 -168l-162 -612h-305l33 129q-137 -150 -330 -149q-143 0 -233.5 83.5t-90.5 212.5zM328 313 q0 -53 39 -85.5t104 -32.5q96 0 175 65.5t106 157.5l8 28q-102 39 -207 39q-100 0 -162.5 -47t-62.5 -125zM403 1231l76 278h303l-77 -278h-302zM846 1231l76 278h303l-76 -278h-303z" />
<glyph unicode="&#xe5;" horiz-adv-x="1214" d="M14 276q0 186 134.5 293t343.5 107q154 0 313 -49l4 14q12 49 12 84q0 129 -209 129q-150 0 -295 -59l-51 247q188 78 412 78q221 0 334.5 -87t113.5 -253q0 -74 -24 -168l-162 -612h-305l33 129q-137 -150 -330 -149q-143 0 -233.5 83.5t-90.5 212.5zM328 313 q0 -53 39 -85.5t104 -32.5q96 0 175 65.5t106 157.5l8 28q-102 39 -207 39q-100 0 -162.5 -47t-62.5 -125zM582 1442q0 115 80.5 195.5t195.5 80.5q104 0 165.5 -60.5t61.5 -154.5q0 -113 -80.5 -194.5t-195.5 -81.5q-104 0 -165.5 61.5t-61.5 153.5zM713 1444 q0 -45 27.5 -75t72.5 -30q61 0 101 49.5t40 112.5q0 45 -27.5 75t-72.5 30q-61 0 -101 -49.5t-40 -112.5z" />
<glyph unicode="&#xe6;" horiz-adv-x="1943" d="M14 276q0 186 134.5 293t343.5 107q154 0 313 -49l4 14q12 49 12 84q0 129 -209 129q-150 0 -295 -59l-51 247q188 78 412 78q272 0 364 -162q172 170 400 170q203 0 322.5 -121.5t119.5 -310.5q0 -117 -55 -252h-760q16 -217 252 -217q121 0 248 90l143 -194 q-160 -147 -426 -148q-297 0 -422 213q-203 -209 -495 -208q-168 0 -261.5 80.5t-93.5 215.5zM328 313q0 -55 42 -86.5t122 -31.5q78 0 165.5 36.5t153.5 104.5q-8 43 -12 94q-127 55 -246 55q-100 0 -162.5 -47t-62.5 -125zM1096 641h483q10 35 10 72q0 74 -46 119t-136 45 q-106 0 -189 -63.5t-122 -172.5z" />
<glyph unicode="&#xe7;" horiz-adv-x="1157" d="M86 475q0 272 193.5 462.5t461.5 190.5q313 0 455 -243l-240 -170q-49 74 -101 109.5t-140 35.5q-123 0 -220.5 -115.5t-97.5 -269.5q0 -104 62.5 -168.5t154.5 -64.5q123 0 250 110l162 -205q-96 -86 -190.5 -128t-223.5 -44l-223 -333l-233 110l245 256 q-147 53 -231 176t-84 291z" />
<glyph unicode="&#xe8;" horiz-adv-x="1255" d="M84 467q0 164 80 313.5t234.5 248.5t344.5 99q211 0 332 -120.5t121 -311.5q0 -117 -55 -252h-760q16 -217 252 -217q121 0 246 90l145 -194q-176 -147 -426 -148q-240 0 -377 131.5t-137 360.5zM408 641h481q10 35 10 72q0 74 -45 119t-137 45q-104 0 -187 -63.5 t-122 -172.5zM504 1479l278 118l133 -366h-215z" />
<glyph unicode="&#xe9;" horiz-adv-x="1255" d="M84 467q0 164 80 313.5t234.5 248.5t344.5 99q211 0 332 -120.5t121 -311.5q0 -117 -55 -252h-760q16 -217 252 -217q121 0 246 90l145 -194q-176 -147 -426 -148q-240 0 -377 131.5t-137 360.5zM408 641h481q10 35 10 72q0 74 -45 119t-137 45q-104 0 -187 -63.5 t-122 -172.5zM592 1231l332 366l266 -118l-334 -248h-264z" />
<glyph unicode="&#xea;" horiz-adv-x="1255" d="M84 467q0 164 80 313.5t234.5 248.5t344.5 99q211 0 332 -120.5t121 -311.5q0 -117 -55 -252h-760q16 -217 252 -217q121 0 246 90l145 -194q-176 -147 -426 -148q-240 0 -377 131.5t-137 360.5zM379 1231l340 325h299l168 -325h-228l-127 137l-200 -137h-252zM408 641 h481q10 35 10 72q0 74 -45 119t-137 45q-104 0 -187 -63.5t-122 -172.5z" />
<glyph unicode="&#xeb;" horiz-adv-x="1255" d="M84 467q0 164 80 313.5t234.5 248.5t344.5 99q211 0 332 -120.5t121 -311.5q0 -117 -55 -252h-760q16 -217 252 -217q121 0 246 90l145 -194q-176 -147 -426 -148q-240 0 -377 131.5t-137 360.5zM408 641h481q10 35 10 72q0 74 -45 119t-137 45q-104 0 -187 -63.5 t-122 -172.5zM418 1231l76 278h303l-78 -278h-301zM860 1231l78 278h301l-76 -278h-303z" />
<glyph unicode="&#xec;" horiz-adv-x="624" d="M6 0l297 1108h315l-296 -1108h-316zM229 1479l277 118l135 -366h-215z" />
<glyph unicode="&#xed;" horiz-adv-x="624" d="M6 0l297 1108h315l-296 -1108h-316zM305 1231l334 366l264 -118l-332 -248h-266z" />
<glyph unicode="&#xee;" horiz-adv-x="624" d="M6 0l297 1108h315l-296 -1108h-316zM76 1231l342 325h297l168 -325h-228l-125 137l-200 -137h-254z" />
<glyph unicode="&#xef;" horiz-adv-x="624" d="M6 0l297 1108h315l-296 -1108h-316zM117 1231l76 278h301l-76 -278h-301zM559 1231l76 278h303l-78 -278h-301z" />
<glyph unicode="&#xf0;" horiz-adv-x="1318" d="M78 461q0 225 159.5 385t383.5 160q180 0 313 -123l-139 301l-281 -103l-74 156l285 102l-80 170h311l33 -71l244 88l72 -154l-248 -92l78 -178q92 -207 92 -424q0 -301 -172 -502t-463 -201q-229 0 -371.5 134.5t-142.5 351.5zM379 479q0 -111 64.5 -175t166.5 -64 q129 0 213 93t84 214q0 104 -63.5 169.5t-169.5 65.5q-125 0 -210 -89t-85 -214z" />
<glyph unicode="&#xf1;" horiz-adv-x="1280" d="M-6 0l295 1108h315l-31 -115q154 135 302.5 135t237.5 -86t89 -235q0 -70 -37 -211l-159 -596h-316l164 608q14 53 14 99q0 137 -153 137q-90 0 -151.5 -58.5t-88.5 -162.5l-168 -623h-313zM377 1298q55 127 138 202t177 75q84 0 164 -62q74 -53 111 -53q76 0 143 123 l166 -84q-55 -125 -138 -199.5t-177 -74.5q-80 0 -164 59q-76 53 -111 53q-76 0 -143 -120z" />
<glyph unicode="&#xf2;" horiz-adv-x="1347" d="M86 487q0 254 189.5 447.5t453.5 193.5q242 0 387.5 -143t145.5 -369q0 -252 -189.5 -446.5t-451.5 -194.5q-242 0 -388.5 143.5t-146.5 368.5zM395 496q0 -119 65.5 -185.5t174.5 -66.5q137 0 228 117.5t91 246.5q0 121 -65.5 186.5t-175.5 65.5q-135 0 -226.5 -117.5 t-91.5 -246.5zM528 1479l277 118l135 -366h-215z" />
<glyph unicode="&#xf3;" horiz-adv-x="1347" d="M86 487q0 254 189.5 447.5t453.5 193.5q242 0 387.5 -143t145.5 -369q0 -252 -189.5 -446.5t-451.5 -194.5q-242 0 -388.5 143.5t-146.5 368.5zM395 496q0 -119 65.5 -185.5t174.5 -66.5q137 0 228 117.5t91 246.5q0 121 -65.5 186.5t-175.5 65.5q-135 0 -226.5 -117.5 t-91.5 -246.5zM594 1231l332 366l266 -118l-334 -248h-264z" />
<glyph unicode="&#xf4;" horiz-adv-x="1347" d="M86 487q0 254 189.5 447.5t453.5 193.5q242 0 387.5 -143t145.5 -369q0 -252 -189.5 -446.5t-451.5 -194.5q-242 0 -388.5 143.5t-146.5 368.5zM389 1231l342 325h297l168 -325h-227l-127 137l-201 -137h-252zM395 496q0 -119 65.5 -185.5t174.5 -66.5q137 0 228 117.5 t91 246.5q0 121 -65.5 186.5t-175.5 65.5q-135 0 -226.5 -117.5t-91.5 -246.5z" />
<glyph unicode="&#xf5;" horiz-adv-x="1347" d="M86 487q0 254 189.5 447.5t453.5 193.5q242 0 387.5 -143t145.5 -369q0 -252 -189.5 -446.5t-451.5 -194.5q-242 0 -388.5 143.5t-146.5 368.5zM362 1298q55 127 138.5 202t177.5 75q84 0 164 -62q74 -53 110 -53q76 0 144 123l166 -84q-55 -125 -138.5 -199.5 t-177.5 -74.5q-80 0 -164 59q-76 53 -110 53q-76 0 -144 -120zM395 496q0 -119 65.5 -185.5t174.5 -66.5q137 0 228 117.5t91 246.5q0 121 -65.5 186.5t-175.5 65.5q-135 0 -226.5 -117.5t-91.5 -246.5z" />
<glyph unicode="&#xf6;" horiz-adv-x="1347" d="M86 487q0 254 189.5 447.5t453.5 193.5q242 0 387.5 -143t145.5 -369q0 -252 -189.5 -446.5t-451.5 -194.5q-242 0 -388.5 143.5t-146.5 368.5zM395 496q0 -119 65.5 -185.5t174.5 -66.5q137 0 228 117.5t91 246.5q0 121 -65.5 186.5t-175.5 65.5q-135 0 -226.5 -117.5 t-91.5 -246.5zM426 1231l76 278h303l-76 -278h-303zM868 1231l78 278h301l-76 -278h-303z" />
<glyph unicode="&#xf8;" horiz-adv-x="1347" d="M-111 -10l263 235q-66 119 -66 262q0 254 189.5 447.5t453.5 193.5q201 0 338 -102l102 92h275l-252 -229q70 -117 70 -273q0 -252 -189.5 -446.5t-451.5 -194.5q-207 0 -351 109l-104 -94h-277zM385 496q0 -37 6 -72l459 418q-51 29 -129 28q-145 0 -240.5 -119.5 t-95.5 -254.5zM487 268q59 -35 140 -35q147 0 242.5 120t95.5 255q0 53 -9 86z" />
<glyph unicode="&#xf9;" horiz-adv-x="1286" d="M84 301q0 72 39 211l158 596h315l-164 -608q-14 -53 -14 -99q0 -137 153 -137q90 0 151.5 59.5t88.5 161.5l168 623h313l-295 -1108h-315l31 117q-152 -137 -301.5 -137t-238.5 87t-89 234zM565 1479l277 118l135 -366h-215z" />
<glyph unicode="&#xfa;" horiz-adv-x="1286" d="M84 301q0 72 39 211l158 596h315l-164 -608q-14 -53 -14 -99q0 -137 153 -137q90 0 151.5 59.5t88.5 161.5l168 623h313l-295 -1108h-315l31 117q-152 -137 -301.5 -137t-238.5 87t-89 234zM618 1231l334 366l265 -118l-334 -248h-265z" />
<glyph unicode="&#xfb;" horiz-adv-x="1286" d="M84 301q0 72 39 211l158 596h315l-164 -608q-14 -53 -14 -99q0 -137 153 -137q90 0 151.5 59.5t88.5 161.5l168 623h313l-295 -1108h-315l31 117q-152 -137 -301.5 -137t-238.5 87t-89 234zM403 1231l342 325h297l168 -325h-227l-127 137l-201 -137h-252z" />
<glyph unicode="&#xfc;" horiz-adv-x="1286" d="M84 301q0 72 39 211l158 596h315l-164 -608q-14 -53 -14 -99q0 -137 153 -137q90 0 151.5 59.5t88.5 161.5l168 623h313l-295 -1108h-315l31 117q-152 -137 -301.5 -137t-238.5 87t-89 234zM442 1231l78 278h301l-76 -278h-303zM885 1231l78 278h301l-76 -278h-303z" />
<glyph unicode="&#xfd;" horiz-adv-x="1222" d="M-82 -260l166 227q59 -43 123 -43q68 0 123 68l-137 1116h319l53 -752l416 752h338l-686 -1135q-109 -170 -212.5 -240.5t-244.5 -70.5q-149 0 -258 78zM610 1231l334 366l264 -118l-334 -248h-264z" />
<glyph unicode="&#xfe;" horiz-adv-x="1392" d="M-94 -332l491 1841h314l-140 -520q150 139 312 139q186 0 306 -128t120 -347q0 -287 -184.5 -480t-428.5 -193q-227 0 -346 182l-131 -494h-313zM418 479q0 -104 66.5 -169.5t170.5 -65.5q131 0 230.5 112.5t99.5 276.5q0 109 -63.5 170t-167.5 61q-133 0 -234.5 -113.5 t-101.5 -271.5z" />
<glyph unicode="&#xff;" horiz-adv-x="1222" d="M-82 -260l166 227q59 -43 123 -43q68 0 123 68l-137 1116h319l53 -752l416 752h338l-686 -1135q-109 -170 -212.5 -240.5t-244.5 -70.5q-149 0 -258 78zM391 1231l76 278h303l-78 -278h-301zM834 1231l75 278h303l-77 -278h-301z" />
<glyph unicode="&#x152;" horiz-adv-x="2213" d="M139 610q0 334 238 572q266 266 758 266h1200l-76 -283h-725l-78 -297h631l-76 -278h-631l-84 -307h738l-78 -283h-1094q-381 0 -577 197q-146 147 -146 413zM469 623q0 -145 86 -230q104 -106 332 -106h94l236 874h-119q-307 0 -484 -176q-145 -145 -145 -362z" />
<glyph unicode="&#x153;" horiz-adv-x="2125" d="M86 487q0 258 187.5 449.5t453.5 191.5q305 0 428 -219q176 219 459 219q211 0 331.5 -120.5t120.5 -311.5q0 -117 -55 -252h-760q16 -217 252 -217q121 0 246 90l145 -194q-162 -147 -426 -148q-295 0 -411 203q-172 -203 -434 -203q-244 0 -390.5 143.5t-146.5 368.5z M395 498q0 -113 65.5 -183.5t172.5 -70.5q141 0 231 111.5t90 250.5q0 113 -65.5 183.5t-173.5 70.5q-139 0 -229.5 -111.5t-90.5 -250.5zM1278 641h483q10 35 11 72q0 74 -46.5 119t-136.5 45q-106 0 -189 -63.5t-122 -172.5z" />
<glyph unicode="&#x178;" horiz-adv-x="1343" d="M203 1448h354l170 -600l496 600h385l-793 -905l-147 -543h-318l152 571zM532 1563l76 278h301l-75 -278h-302zM975 1563l76 278h303l-78 -278h-301z" />
<glyph unicode="&#x2c6;" d="M295 1231l342 325h299l166 -325h-228l-124 137l-201 -137h-254z" />
<glyph unicode="&#x2dc;" d="M289 1298q57 127 139 202t178 75q82 0 164 -62q74 -53 109 -53q78 0 145 123l166 -84q-57 -125 -139 -199.5t-179 -74.5q-78 0 -163 59q-74 53 -109 53q-76 0 -145 -120z" />
<glyph unicode="&#x2000;" horiz-adv-x="962" />
<glyph unicode="&#x2001;" horiz-adv-x="1927" />
<glyph unicode="&#x2002;" horiz-adv-x="962" />
<glyph unicode="&#x2003;" horiz-adv-x="1927" />
<glyph unicode="&#x2004;" horiz-adv-x="641" />
<glyph unicode="&#x2005;" horiz-adv-x="481" />
<glyph unicode="&#x2006;" horiz-adv-x="319" />
<glyph unicode="&#x2007;" horiz-adv-x="319" />
<glyph unicode="&#x2008;" horiz-adv-x="239" />
<glyph unicode="&#x2009;" horiz-adv-x="385" />
<glyph unicode="&#x200a;" horiz-adv-x="106" />
<glyph unicode="&#x2010;" horiz-adv-x="851" d="M90 489l82 304h637l-80 -304h-639z" />
<glyph unicode="&#x2011;" horiz-adv-x="851" d="M90 489l82 304h637l-80 -304h-639z" />
<glyph unicode="&#x2012;" horiz-adv-x="851" d="M90 489l82 304h637l-80 -304h-639z" />
<glyph unicode="&#x2013;" horiz-adv-x="1097" d="M90 494l80 294h885l-78 -294h-887z" />
<glyph unicode="&#x2014;" horiz-adv-x="1863" d="M90 494l80 294h1651l-80 -294h-1651z" />
<glyph unicode="&#x2018;" horiz-adv-x="659" d="M193 795l73 278q55 201 169 292t302 95l21 -131q-236 -20 -271 -205h129l-88 -329h-335z" />
<glyph unicode="&#x2019;" horiz-adv-x="659" d="M160 911q236 23 268 205h-129l90 332h336l-76 -279q-53 -201 -166.5 -292t-302.5 -95z" />
<glyph unicode="&#x201a;" horiz-adv-x="659" d="M-127 -205q238 20 270 205h-129l88 332h336l-73 -281q-53 -201 -168 -292t-303 -95z" />
<glyph unicode="&#x201c;" horiz-adv-x="1183" d="M195 793l73 278q55 201 169 292t302 95l21 -131q-236 -20 -271 -205h129l-88 -329h-335zM719 793l76 278q53 201 166.5 292t302.5 95l20 -131q-236 -20 -268 -205h129l-90 -329h-336z" />
<glyph unicode="&#x201d;" horiz-adv-x="1183" d="M162 911q236 23 268 205h-129l90 332h336l-76 -279q-53 -201 -166.5 -292t-302.5 -95zM686 911q236 23 270 205h-129l88 332h336l-73 -279q-55 -201 -169 -292t-302 -95z" />
<glyph unicode="&#x201e;" horiz-adv-x="1183" d="M-127 -205q238 20 270 205h-129l88 332h336l-73 -281q-53 -201 -168 -292t-303 -95zM399 -205q236 20 269 205h-127l88 332h336l-76 -281q-53 -201 -167 -292t-302 -95z" />
<glyph unicode="&#x2022;" d="M268 653q0 150 99.5 272t248.5 122q113 0 176.5 -66t63.5 -174q0 -150 -99.5 -271.5t-248.5 -121.5q-111 0 -175.5 65t-64.5 174z" />
<glyph unicode="&#x2026;" horiz-adv-x="1802" d="M14 0l86 324h328l-86 -324h-328zM592 0l86 324h328l-88 -324h-326zM1169 0l86 324h328l-88 -324h-326z" />
<glyph unicode="&#x202f;" horiz-adv-x="385" />
<glyph unicode="&#x2039;" horiz-adv-x="770" d="M94 528l4 17l492 481l180 -166l-364 -354l165 -330l-252 -113z" />
<glyph unicode="&#x203a;" horiz-adv-x="770" d="M-2 229l364 355l-165 329l252 113l223 -463l-4 -16l-490 -484z" />
<glyph unicode="&#x2044;" horiz-adv-x="1075" d="M-285 -203l1438 1772h277l-1438 -1772h-277z" />
<glyph unicode="&#x205f;" horiz-adv-x="481" />
<glyph unicode="&#x2122;" horiz-adv-x="1447" d="M231 1319l35 129h527l-35 -129h-191l-137 -508h-145l137 508h-191zM756 811l170 637h145l96 -268l240 268h158l-172 -637h-138l117 430l-252 -278h-12l-100 278l-117 -430h-135z" />
<glyph unicode="&#xe000;" horiz-adv-x="1110" d="M0 1110h1110v-1110h-1110v1110z" />
<glyph unicode="&#xfb01;" horiz-adv-x="1474" d="M47 0l227 840h-131l72 268h131l14 61q92 354 449 355q129 0 215 -31l-68 -260q-68 27 -137 27q-123 0 -155 -119l-9 -33h267l-72 -268h-260l-228 -840h-315zM856 0l299 1108h313l-297 -1108h-315zM1180 1231l75 278h332l-78 -278h-329z" />
<glyph unicode="&#xfb02;" horiz-adv-x="1474" d="M47 0l227 840h-131l72 268h131l14 61q92 354 449 355q129 0 215 -31l-68 -260q-68 27 -137 27q-123 0 -155 -119l-9 -33h267l-72 -268h-260l-228 -840h-315zM856 0l406 1509h315l-406 -1509h-315z" />
<glyph unicode="&#xfb03;" horiz-adv-x="2324" d="M1706 0l297 1108h315l-296 -1108h-316zM2030 1231l76 278h331l-78 -278h-329zM897 0l227 840h-131l72 268h131l14 61q92 354 449 355q129 0 215 -31l-68 -260q-68 27 -137 27q-123 0 -155 -119l-9 -33h267l-72 -268h-260l-228 -840h-315zM47 0l227 840h-131l72 268h131 l14 61q92 354 449 355q129 0 215 -31l-68 -260q-68 27 -137 27q-123 0 -155 -119l-9 -33h267l-72 -268h-260l-228 -840h-315z" />
<glyph unicode="&#xfb04;" horiz-adv-x="2324" d="M1706 0l406 1509h315l-405 -1509h-316zM897 0l227 840h-131l72 268h131l14 61q92 354 449 355q129 0 215 -31l-68 -260q-68 27 -137 27q-123 0 -155 -119l-9 -33h267l-72 -268h-260l-228 -840h-315zM47 0l227 840h-131l72 268h131l14 61q92 354 449 355q129 0 215 -31 l-68 -260q-68 27 -137 27q-123 0 -155 -119l-9 -33h267l-72 -268h-260l-228 -840h-315z" />
</font>
</defs>
</svg>
