<?xml version="1.0" standalone="no"?>
<!DOCTYPE svg PUBLIC "-//W3C//DTD SVG 1.1//EN" "http://www.w3.org/Graphics/SVG/1.1/DTD/svg11.dtd" >
<svg xmlns="http://www.w3.org/2000/svg">
<metadata>
This is a custom SVG webfont generated by Font Squirrel.
Copyright   : HTF Gotham Copr 2003 The Hoefler Type Foundry Inc Info wwwtypographycom
</metadata>
<defs>
<font id="GothamHTFUltra" horiz-adv-x="1013" >
<font-face units-per-em="2048" ascent="1638" descent="-410" />
<missing-glyph horiz-adv-x="514" />
<glyph unicode=" "  horiz-adv-x="514" />
<glyph unicode="&#x09;" horiz-adv-x="514" />
<glyph unicode="&#xa0;" horiz-adv-x="514" />
<glyph unicode="!" horiz-adv-x="655" d="M72 1114v305h514v-305l-142 -672h-231zM94 0v365h469v-365h-469z" />
<glyph unicode="&#x22;" horiz-adv-x="1122" d="M23 610l55 809h483v-10l-291 -799h-247zM584 610l55 809h483v-10l-291 -799h-247z" />
<glyph unicode="#" horiz-adv-x="1439" d="M49 244v391h230l24 158h-192v391h260l41 235h317l-39 -235h221l39 235h320l-41 -235h164v-391h-232l-26 -158h194v-391h-260l-43 -244h-317l41 244h-222l-41 -244h-319l43 244h-162zM578 621h249l33 188h-250z" />
<glyph unicode="$" horiz-adv-x="1390" d="M12 211l207 305q215 -139 422 -168v168q-285 57 -416 156.5t-131 290.5v4q0 195 138.5 317.5t404.5 136.5v115h211v-121q264 -27 475 -164l-195 -309q-123 90 -292 125v-166q272 -55 401 -153.5t129 -294.5v-4q0 -197 -141.5 -314t-384.5 -135v-199h-211v201 q-353 29 -617 209zM508 1006q0 -33 29.5 -52.5t107.5 -33.5v165q-137 -2 -137 -75v-4zM831 334q129 8 130 78v4q0 33 -27 51t-103 33v-166z" />
<glyph unicode="%" horiz-adv-x="1898" d="M51 1040v4q0 168 106.5 283t280.5 115t280.5 -115t106.5 -283v-4q0 -166 -108.5 -281.5t-278.5 -115.5t-278.5 115.5t-108.5 281.5zM221 0l1151 1419h307l-1153 -1419h-305zM332 1040q0 -61 31.5 -100t74.5 -39t74 38t31 101v4q0 63 -30 101.5t-75 38.5t-75.5 -38 t-30.5 -102v-4zM1075 375v4q0 168 106.5 282.5t280.5 114.5t280.5 -114.5t106.5 -282.5v-4q0 -166 -108.5 -282t-278.5 -116t-278.5 116t-108.5 282zM1356 375q0 -61 31.5 -100t74.5 -39t74 37.5t31 101.5v4q0 63 -30 101t-75 38t-75.5 -38t-30.5 -101v-4z" />
<glyph unicode="&#x26;" horiz-adv-x="1419" d="M18 383v4q0 270 299 401q-86 125 -86 265v4q0 166 127 279.5t332 113.5q203 0 323 -104.5t120 -264.5v-4q0 -236 -254 -368l127 -123q43 57 129 209l290 -136q-102 -184 -188 -299l174 -167l-301 -222l-129 131q-188 -129 -428 -129q-238 0 -386.5 108.5t-148.5 301.5z M489 410q0 -51 36 -82t98 -31q59 0 133 39l-197 201q-70 -49 -70 -123v-4zM608 1044q0 -63 64 -147q111 55 110 160v4q0 45 -23.5 69.5t-60.5 24.5q-41 0 -65.5 -28.5t-24.5 -77.5v-5z" />
<glyph unicode="'" horiz-adv-x="571" d="M23 610l55 809h493v-10l-290 -799h-258z" />
<glyph unicode="(" horiz-adv-x="901" d="M61 582.5q0 308.5 155 509t466 358.5l182 -272q-186 -127 -271 -269.5t-85 -327t85 -326.5t271 -269l-182 -273q-311 160 -466 360.5t-155 509z" />
<glyph unicode=")" horiz-adv-x="901" d="M39 -14q186 127 271 269t85 326.5t-85 327t-271 269.5l182 272q309 -158 465 -358.5t156 -509t-156 -509t-465 -360.5z" />
<glyph unicode="*" horiz-adv-x="849" d="M10 934l291 88l-291 88l135 227l220 -207l-68 293h258l-68 -293l220 207l135 -227l-291 -88l291 -88l-135 -227l-220 206l68 -292h-258l68 292l-220 -206z" />
<glyph unicode="+" horiz-adv-x="1296" d="M123 512v401h317v334h418v-334h316v-401h-316v-332h-418v332h-317z" />
<glyph unicode="," horiz-adv-x="571" d="M29 -172q207 27 207 180h-185v467h469v-373q0 -231 -118.5 -331.5t-335.5 -110.5z" />
<glyph unicode="-" horiz-adv-x="825" d="M61 451v376h705v-376h-705z" />
<glyph unicode="." horiz-adv-x="571" d="M51 0v467h469v-467h-469z" />
<glyph unicode="/" horiz-adv-x="1093" d="M-98 -260l899 1878h362l-897 -1878h-364z" />
<glyph unicode="0" horiz-adv-x="1478" d="M57 707v2q0 307 187.5 524t498 217t495.5 -215t185 -522v-4q0 -305 -187 -522.5t-497.5 -217.5t-496 215.5t-185.5 522.5zM526 709q0 -145 60.5 -236.5t156 -91.5t152.5 89t57 237v2q0 147 -59 238t-154.5 91t-154 -89t-58.5 -236v-4z" />
<glyph unicode="1" horiz-adv-x="854" d="M-16 1315l424 115h358v-1430h-465v1014l-231 -51z" />
<glyph unicode="2" horiz-adv-x="1265" d="M33 1133q129 164 271 238.5t355 74.5q244 0 401 -131t157 -334v-4q0 -152 -72 -252t-215 -193l-252 -161h553v-371h-1196v344l588 422q123 88 122 172q0 47 -33.5 76.5t-93.5 29.5q-61 0 -122.5 -40.5t-151.5 -135.5z" />
<glyph unicode="3" horiz-adv-x="1257" d="M-4 225l283 289q164 -154 333 -154q78 0 120 32t42 83v4q0 113 -186 113h-201l-63 211l313 248h-528v368h1091v-325l-317 -240q350 -94 350 -403v-5q0 -221 -167 -349t-415 -128q-405 0 -655 256z" />
<glyph unicode="4" horiz-adv-x="1396" d="M-8 578l694 852h526v-850h170v-334h-170v-246h-460v246h-682zM451 573h301v377z" />
<glyph unicode="5" horiz-adv-x="1275" d="M-8 203l262 305q193 -156 350 -156q84 0 131 39t47 98v5q0 61 -45 98t-121 37q-104 0 -217 -90l-286 143l41 737h1024v-375h-670l-10 -184q123 76 268 76q190 0 332.5 -118t142.5 -329v-4q0 -242 -176 -379t-455 -137q-358 1 -618 234z" />
<glyph unicode="6" horiz-adv-x="1341" d="M57 666v4q0 346 179.5 563t515.5 217q285 0 501 -154l-204 -313q-143 102 -277 102q-219 0 -250 -278q150 125 322 125q174 0 306 -118t132 -312v-4q0 -248 -171 -388.5t-417 -140.5q-287 0 -456 170q-181 181 -181 527zM518 471q0 -68 44 -115t112.5 -47t110.5 46 t42 114v4q0 63 -44 110.5t-112.5 47.5t-110.5 -46t-42 -110v-4z" />
<glyph unicode="7" horiz-adv-x="1232" d="M49 1028v391h1163v-356l-616 -1063h-514l614 1028h-647z" />
<glyph unicode="8" horiz-adv-x="1275" d="M20 391v4q0 238 256 340q-207 106 -206 309v5q0 174 158.5 285.5t410.5 111.5t410.5 -111.5t158.5 -285.5v-5q0 -203 -207 -309q256 -102 256 -340v-4q0 -186 -172 -302t-446 -116t-446.5 117t-172.5 301zM475 444q0 -57 43 -99t120 -42t121 42t44 99v5q0 59 -46 98 t-119 39t-118 -39t-45 -98v-5zM492 985q0 -59 40.5 -98t106.5 -39t106.5 39t40.5 98v4q0 55 -40.5 94t-106.5 39t-106.5 -39t-40.5 -94v-4z" />
<glyph unicode="9" horiz-adv-x="1341" d="M61 913v2q0 248 167 391.5t423 143.5q287 0 463 -174q172 -172 172 -518v-4q0 -356 -183 -570.5t-509 -214.5q-295 0 -524 166l204 307q141 -109 297 -108q225 0 250 270q-131 -131 -313 -131q-188 0 -317.5 121.5t-129.5 318.5zM512 936q0 -68 45 -114t113.5 -46 t111.5 46t43 112v4q0 72 -45 122t-113.5 50t-111.5 -49t-43 -121v-4z" />
<glyph unicode=":" horiz-adv-x="591" d="M61 0v467h469v-467h-469zM61 641v467h469v-467h-469z" />
<glyph unicode=";" horiz-adv-x="591" d="M39 -180q207 27 207 180h-185v467h469v-371q0 -233 -118.5 -333.5t-335.5 -110.5zM61 641v467h469v-467h-469z" />
<glyph unicode="&#x3c;" horiz-adv-x="1312" d="M125 496v432l1034 375v-429l-641 -163l641 -162v-428z" />
<glyph unicode="=" horiz-adv-x="1292" d="M131 233v398h1030v-398h-1030zM131 797v397h1030v-397h-1030z" />
<glyph unicode="&#x3e;" horiz-adv-x="1312" d="M154 121v428l641 162l-641 163v429l1034 -375v-432z" />
<glyph unicode="?" horiz-adv-x="1087" d="M0 1239q229 205 553 205q229 0 375.5 -119t146.5 -311v-4q0 -178 -100.5 -277.5t-290.5 -154.5l-25 -136h-282l-58 351l25 24q283 37 283 139v2q0 37 -32 58.5t-87 21.5q-125 0 -289 -127zM276 0v365h469v-365h-469z" />
<glyph unicode="@" horiz-adv-x="1925" d="M78 557q0 375 258 634t649 259q373 0 618.5 -228.5t245.5 -545.5q0 -276 -139 -426t-321 -150q-236 0 -316 185q-131 -176 -297 -176q-162 0 -266 116.5t-104 304.5q0 221 131 383t313 162q170 0 264 -162l25 140l387 -60l-90 -499q-10 -66 -10.5 -115t30.5 -80t82 -31 q98 0 161.5 107.5t63.5 300.5q0 287 -218 489.5t-560 202.5q-360 0 -591.5 -232.5t-231.5 -578.5t228 -575.5t591 -229.5q266 0 498 137l41 -65q-250 -152 -539 -152q-393 0 -648 255t-255 630zM801 563q0 -55 30.5 -87t77.5 -32q63 0 106.5 51.5t43.5 125.5q0 57 -31 87.5 t-78 30.5q-63 0 -106 -51t-43 -125z" />
<glyph unicode="A" horiz-adv-x="1622" d="M-23 0l598 1430h472l598 -1430h-517l-73 190h-498l-72 -190h-508zM678 526h258l-129 346z" />
<glyph unicode="B" horiz-adv-x="1433" d="M82 0v1419h795q274 0 403 -127q86 -88 86 -221v-4q0 -238 -252 -326q145 -41 222 -122.5t77 -221.5v-4q0 -176 -142.5 -284.5t-402.5 -108.5h-786zM543 358h237q76 0 116 29t40 76v4q0 45 -39 73.5t-115 28.5h-239v-211zM543 862h207q152 0 151 96v5q0 98 -153 98h-205 v-199z" />
<glyph unicode="C" horiz-adv-x="1464" d="M49 707v2q0 317 218 529t536 212q225 0 386 -98.5t257 -270.5l-391 -229q-90 172 -258 172q-117 0 -192 -90t-75 -221v-4q0 -137 75 -225.5t192 -88.5q168 0 268 178l391 -221q-217 -383 -672 -383q-303 0 -519 207t-216 531z" />
<glyph unicode="D" horiz-adv-x="1517" d="M82 0v1419h543q414 0 629.5 -187.5t215.5 -510.5v-4q0 -326 -222 -521.5t-640 -195.5h-526zM555 414h80q168 0 262 72.5t94 222.5v2q0 150 -94 222.5t-262 72.5h-80v-592z" />
<glyph unicode="E" horiz-adv-x="1347" d="M82 0v1419h1210v-389h-745v-143h694v-344h-694v-154h756v-389h-1221z" />
<glyph unicode="F" horiz-adv-x="1298" d="M82 0v1419h1188v-405h-715v-180h664v-369h-664v-465h-473z" />
<glyph unicode="G" horiz-adv-x="1527" d="M49 707v2q0 319 223.5 530t558.5 211q346 0 594 -215l-266 -322q-145 125 -313 125q-137 0 -228.5 -95t-91.5 -238v-5q0 -152 94.5 -246t245.5 -94q102 0 162 33v142h-244v305h689v-658q-262 -213 -627 -213q-338 0 -567.5 206t-229.5 532z" />
<glyph unicode="H" horiz-adv-x="1544" d="M82 0v1419h473v-501h434v501h475v-1419h-475v508h-434v-508h-473z" />
<glyph unicode="I" horiz-adv-x="643" d="M86 0v1419h473v-1419h-473z" />
<glyph unicode="J" horiz-adv-x="1142" d="M-12 236l311 262q86 -125 184 -125q57 0 94 45t37 119v882h463v-874q0 -270 -149 -420q-154 -154 -410 -154q-354 1 -530 265z" />
<glyph unicode="K" horiz-adv-x="1478" d="M82 0v1419h473v-530l403 530h553l-495 -616l504 -803h-566l-276 451l-123 -148v-303h-473z" />
<glyph unicode="L" horiz-adv-x="1243" d="M82 0v1419h473v-1013h668v-406h-1141z" />
<glyph unicode="M" horiz-adv-x="1759" d="M82 0v1419h493l306 -499l303 499h495v-1419h-473v705l-325 -506h-9l-327 506v-705h-463z" />
<glyph unicode="N" horiz-adv-x="1581" d="M82 0v1419h442l506 -626v626h471v-1419h-422l-528 655v-655h-469z" />
<glyph unicode="O" horiz-adv-x="1644" d="M49 707v2q0 311 225.5 526t551 215t548.5 -213t223 -524v-4q0 -309 -225 -524.5t-550.5 -215.5t-549 213.5t-223.5 524.5zM526 709q0 -131 84 -225.5t215 -94.5t212 93t81 225v2q0 133 -83 227t-214 94t-213 -93t-82 -224v-4z" />
<glyph unicode="P" horiz-adv-x="1374" d="M82 0v1419h637q293 0 464 -130t171 -376v-2q0 -252 -175 -389t-470 -137h-154v-385h-473zM555 723h129q92 0 147.5 41t55.5 117v4q0 156 -201 155h-131v-317z" />
<glyph unicode="Q" horiz-adv-x="1644" d="M49 707v2q0 311 225.5 526t551 215t548.5 -213t223 -524v-4q0 -221 -124 -406l145 -125l-199 -221l-155 141q-195 -129 -443 -129q-326 0 -549 213.5t-223 524.5zM526 702q0 -133 83 -230t216 -97q51 0 99 16l-162 137l199 224l153 -136q8 45 8 84v5q0 131 -84 228 t-217 97q-129 0 -212 -97t-83 -226v-5z" />
<glyph unicode="R" horiz-adv-x="1447" d="M82 0v1419h692q348 0 512 -162q129 -131 129 -337v-5q0 -297 -280 -432l331 -483h-542l-267 406h-4h-98v-406h-473zM555 743h205q86 0 134 37t48 103v4q0 66 -47 100.5t-133 34.5h-207v-279z" />
<glyph unicode="S" horiz-adv-x="1345" d="M-37 213l254 301q217 -166 496 -166q123 0 123 62v4q0 31 -42 51t-155 43q-109 20 -186.5 41.5t-160.5 59.5t-134.5 83t-84 115t-32.5 156v4q0 211 158.5 345t443.5 134q395 0 641 -195l-231 -321q-193 141 -426 141q-104 0 -105 -59v-4q0 -31 40 -51.5t149 -41.5 q147 -25 250.5 -58.5t188.5 -86.5t127 -131t42 -180v-4q0 -223 -170 -352.5t-457 -129.5q-455 0 -729 240z" />
<glyph unicode="T" horiz-adv-x="1361" d="M27 1018v401h1308v-401h-417v-1018h-474v1018h-417z" />
<glyph unicode="U" horiz-adv-x="1540" d="M70 637v782h481v-776q0 -129 59.5 -190.5t160.5 -61.5t159.5 58.5t58.5 183.5v786h484v-772q0 -348 -185.5 -512t-521.5 -164q-330 0 -513 163t-183 503z" />
<glyph unicode="V" horiz-adv-x="1560" d="M-23 1419h531l276 -796l277 796h522l-575 -1429h-455z" />
<glyph unicode="W" horiz-adv-x="2252" d="M0 1419h498l200 -682l228 686h409l230 -686l200 682h490l-465 -1429h-414l-250 706l-247 -706h-414z" />
<glyph unicode="X" horiz-adv-x="1482" d="M-18 0l481 721l-461 698h539l204 -338l207 338h531l-461 -694l481 -725h-540l-226 369l-227 -369h-528z" />
<glyph unicode="Y" horiz-adv-x="1478" d="M-33 1419h533l241 -467l246 467h526l-536 -911v-508h-473v504z" />
<glyph unicode="Z" horiz-adv-x="1394" d="M37 0v332l643 698h-619v389h1299v-332l-643 -698h643v-389h-1323z" />
<glyph unicode="[" horiz-adv-x="911" d="M102 -264v1683h746v-282h-354v-1119h354v-282h-746z" />
<glyph unicode="\" horiz-adv-x="1093" d="M-70 1618h365l897 -1878h-363z" />
<glyph unicode="]" horiz-adv-x="911" d="M66 18h354v1119h-354v282h745v-1683h-745v282z" />
<glyph unicode="^" d="M70 999l282 416h310l282 -416h-315l-123 156l-125 -156h-311z" />
<glyph unicode="_" horiz-adv-x="1216" d="M-4 -90h1225v-234h-1225v234z" />
<glyph unicode="`" d="M135 1450l449 115l194 -389h-307z" />
<glyph unicode="a" horiz-adv-x="1226" d="M27 313v4q0 166 113.5 256.5t308.5 90.5q164 0 260 -41v18q0 160 -203 160q-150 0 -307 -64l-82 307q213 80 467 80q326 0 469 -143q115 -115 114 -350v-631h-458v111q-129 -137 -320 -138q-164 0 -263 90t-99 250zM467 346q0 -47 29.5 -76.5t74.5 -29.5q63 0 102.5 46 t39.5 124v47q-45 18 -105 18q-68 0 -104.5 -36t-36.5 -89v-4z" />
<glyph unicode="b" horiz-adv-x="1370" d="M70 0v1481h458v-510q47 51 83 80.5t101.5 55.5t145.5 26q203 0 339 -160t136 -412v-4q0 -256 -135 -420t-336 -164q-197 0 -334 152v-125h-458zM518 551q0 -82 53.5 -140.5t132 -58.5t132 58.5t53.5 140.5v4q0 84 -53.5 141.5t-132 57.5t-132 -57.5t-53.5 -141.5v-4z" />
<glyph unicode="c" horiz-adv-x="1148" d="M35 547v4q0 240 170 409.5t434 169.5q176 0 305 -82.5t195 -222.5l-330 -186q-61 111 -162 111q-74 0 -122 -55.5t-48 -139.5v-4q0 -84 47 -141.5t117 -57.5q100 0 172 113l334 -191q-162 -303 -531 -303q-250 0 -415.5 169t-165.5 407z" />
<glyph unicode="d" horiz-adv-x="1370" d="M37 545v4q0 258 135 421t336 163q199 0 334 -152v500h461v-1481h-461v135q-47 -49 -83 -78.5t-101.5 -56.5t-145.5 -27q-203 0 -339 161t-136 411zM483 551q0 -82 52.5 -140.5t131 -58.5t132 58.5t53.5 140.5v4q0 84 -53.5 141.5t-132 57.5t-131 -57.5t-52.5 -141.5v-4z " />
<glyph unicode="e" horiz-adv-x="1212" d="M35 547v4q0 250 160.5 416t408.5 166q283 0 429.5 -171t146.5 -440q0 -51 -2 -76h-711q47 -147 209 -147q115 0 225 113l246 -197q-186 -242 -504 -242q-272 0 -440 159t-168 415zM461 649h299q-8 76 -49 121t-105 45q-57 0 -96 -45t-49 -121z" />
<glyph unicode="f" horiz-adv-x="862" d="M25 752v356h129q6 188 100 281q104 106 324 106q176 0 282 -31v-288q-72 16 -149 16q-106 0 -107 -88v-8h256v-344h-246v-752h-460v752h-129z" />
<glyph unicode="g" horiz-adv-x="1370" d="M37 614v4q0 227 134 371t333 144t338 -144v119h461v-827q0 -303 -146 -447q-162 -162 -498 -162q-340 0 -614 138l141 278q201 -106 400 -106q127 0 195.5 63.5t68.5 179.5v33q-135 -154 -322 -154q-217 0 -354 141.5t-137 368.5zM483 612q0 -74 50.5 -122t133.5 -48 t134 49.5t51 124.5v5q0 74 -52 123t-132 49q-84 0 -134.5 -50.5t-50.5 -126.5v-4z" />
<glyph unicode="h" horiz-adv-x="1306" d="M70 0v1481h458v-523q137 174 340 175q174 0 276.5 -109t102.5 -295v-729h-461v582q0 70 -36.5 109.5t-87.5 39.5q-55 0 -94.5 -40t-39.5 -109v-582h-458z" />
<glyph unicode="i" horiz-adv-x="606" d="M66 1186v295h475v-295h-475zM74 0v1108h458v-1108h-458z" />
<glyph unicode="j" horiz-adv-x="610" d="M-82 -45h35q66 0 93.5 29.5t27.5 103.5v1020h458v-1028q0 -227 -108.5 -318.5t-321.5 -91.5q-53 0 -184 17v268zM66 1186v295h475v-295h-475z" />
<glyph unicode="k" horiz-adv-x="1243" d="M70 0v1481h458v-715l238 342h502l-348 -451l354 -657h-494l-159 303l-93 -117v-186h-458z" />
<glyph unicode="l" horiz-adv-x="606" d="M74 0v1481h458v-1481h-458z" />
<glyph unicode="m" horiz-adv-x="2009" d="M70 0v1108h458v-150q137 174 336 175q231 0 326 -183q162 182 375 183q178 0 280.5 -109t102.5 -295v-729h-459v586q0 68 -35 106.5t-87 38.5t-90 -39t-38 -106v-586h-461v586q0 68 -34.5 106.5t-87 38.5t-90.5 -39t-38 -106v-586h-458z" />
<glyph unicode="n" horiz-adv-x="1306" d="M70 0v1108h458v-156q141 180 340 181q174 0 276.5 -109t102.5 -295v-729h-461v582q0 70 -36.5 109.5t-87.5 39.5q-55 0 -94.5 -40t-39.5 -109v-582h-458z" />
<glyph unicode="o" horiz-adv-x="1312" d="M35 549v4q0 240 177 410t447 170q266 0 443.5 -168t177.5 -408v-4q0 -240 -178 -410t-447 -170q-268 0 -444 168t-176 408zM477 553q0 -80 52.5 -138.5t129 -58.5t128 56.5t51.5 136.5v4q0 82 -53.5 139.5t-130 57.5t-127 -55.5t-50.5 -137.5v-4z" />
<glyph unicode="p" horiz-adv-x="1370" d="M70 -324v1432h458v-137q47 51 83 80.5t101.5 55.5t145.5 26q203 0 339 -160t136 -412v-4q0 -256 -135 -420t-336 -164q-197 0 -334 152v-449h-458zM518 551q0 -82 53.5 -140.5t132 -58.5t132 58.5t53.5 140.5v4q0 84 -53.5 141.5t-132 57.5t-132 -57.5t-53.5 -141.5v-4z " />
<glyph unicode="q" horiz-adv-x="1370" d="M37 545v4q0 258 135 421t336 163q199 0 334 -152v127h461v-1432h-461v459q-47 -49 -83 -78.5t-101.5 -56.5t-145.5 -27q-203 0 -339 161t-136 411zM483 551q0 -82 52.5 -140.5t131 -58.5t132 58.5t53.5 140.5v4q0 84 -53.5 141.5t-132 57.5t-131 -57.5t-52.5 -141.5v-4z " />
<glyph unicode="r" horiz-adv-x="884" d="M70 0v1108h458v-223q102 238 330 238q9 0 19 -1v-487h-50q-299 0 -299 -352v-283h-458z" />
<glyph unicode="s" horiz-adv-x="1062" d="M-10 133l155 262q199 -123 410 -123q68 0 68 35v4q0 18 -26 31.5t-105 34.5q-236 59 -344.5 136t-108.5 237v4q0 178 132 278.5t349 100.5q287 0 498 -127l-146 -275q-186 104 -354 105q-63 0 -63 -35v-4q0 -18 26.5 -31.5t108.5 -34.5q233 -55 340.5 -135t107.5 -238v-4 q0 -180 -128 -280.5t-353 -100.5q-325 0 -567 160z" />
<glyph unicode="t" horiz-adv-x="903" d="M25 752v356h129v276h460v-276h256v-356h-256v-279q0 -115 111 -115q66 0 141 35v-354q-121 -63 -295 -64q-418 0 -417 396v381h-129z" />
<glyph unicode="u" horiz-adv-x="1306" d="M61 377v731h459v-584q0 -68 37 -108.5t90 -40.5q55 0 93 41t38 108v584h461v-1108h-461v147q-135 -174 -338 -174q-174 0 -276.5 109t-102.5 295z" />
<glyph unicode="v" horiz-adv-x="1316" d="M0 1108h483l179 -557l180 557h477l-449 -1116h-421z" />
<glyph unicode="w" horiz-adv-x="1744" d="M2 1108h440l113 -446l135 450h367l135 -455l119 451h432l-338 -1116h-385l-148 475l-153 -475h-383z" />
<glyph unicode="x" horiz-adv-x="1204" d="M-14 0l356 553l-356 555h497l121 -223l123 223h490l-355 -555l357 -553h-498l-123 225l-123 -225h-489z" />
<glyph unicode="y" horiz-adv-x="1320" d="M6 1108h477l193 -586l176 586h467l-383 -1030q-82 -223 -187.5 -315.5t-291.5 -92.5q-221 0 -428 115l133 315q131 -74 203 -73q43 0 75 16z" />
<glyph unicode="z" horiz-adv-x="1140" d="M31 0v289l450 456h-432v363h1067v-289l-450 -459h450v-360h-1085z" />
<glyph unicode="{" horiz-adv-x="993" d="M39 444v275h12q127 0 191.5 42t64.5 148q0 16 -2 81t-2 79q0 180 133 267t459 114l63 -246q-158 -27 -207 -70.5t-49 -144.5q0 -12 3.5 -62t3.5 -73q0 -213 -242 -272q242 -59 242 -273q0 -20 -3.5 -71.5t-3.5 -63.5q0 -98 49.5 -143t206.5 -72l-63 -246 q-326 27 -459 114t-133 269q0 12 2 77t2 83q0 104 -64.5 146t-191.5 42h-12z" />
<glyph unicode="|" horiz-adv-x="729" d="M193 -260v1878h344v-1878h-344z" />
<glyph unicode="}" horiz-adv-x="993" d="M35 -41q158 27 208 72t50 143q0 12 -3 63.5t-3 71.5q0 213 239 273q-240 59 -239 272q0 23 3 73t3 62q0 100 -50 144.5t-208 70.5l65 246q324 -27 458 -114t134 -267q0 -14 -3 -78.5t-3 -81.5q0 -106 64.5 -148t191.5 -42h12v-275h-12q-127 0 -191.5 -42t-64.5 -146 q0 -18 3 -82.5t3 -77.5q0 -182 -134 -269t-458 -114z" />
<glyph unicode="~" d="M70 489q31 172 89 247t160 75q68 0 188 -40t142 -40q37 0 53.5 19.5t36.5 70.5l205 -51q-31 -172 -89 -246.5t-161 -74.5q-68 0 -187.5 38.5t-141.5 38.5q-37 0 -53.5 -18.5t-37.5 -69.5z" />
<glyph unicode="&#xa1;" horiz-adv-x="655" d="M72 0v303l141 674h231l142 -674v-303h-514zM94 1055v364h469v-364h-469z" />
<glyph unicode="&#xa2;" horiz-adv-x="1153" d="M35 717v4q0 240 154.5 399.5t412.5 173.5l23 138h258l-29 -172q102 -37 181 -103.5t114 -144.5l-289 -162q-41 59 -92 86l-72 -461q102 23 164 119l293 -166q-145 -266 -473 -281l-27 -159h-258l31 194q-178 61 -284.5 206t-106.5 329zM408 721q0 -152 94 -213l73 459 q-76 -18 -121.5 -86t-45.5 -156v-4z" />
<glyph unicode="&#xa3;" horiz-adv-x="1282" d="M57 0v264l150 64v196h-150v297h150v41q0 279 155 436q150 150 420 150q297 0 488 -176l-240 -334q-92 96 -199 96q-76 0 -116.5 -45t-40.5 -121v-47h413v-297h-413v-172h571v-352h-1188z" />
<glyph unicode="&#xa4;" horiz-adv-x="1304" d="M53 465v215h123q-2 8 -2 27v2q0 27 2 39h-123v215h150q47 211 213 349t418 138q141 0 267 -52t208 -145l-267 -288q-76 92 -200 92q-131 0 -185 -105h261v-207h-302q-2 -10 -2 -32v-4q0 -16 2 -27h302v-207h-265q55 -113 195 -113q121 0 205 101l262 -291 q-174 -203 -494 -203q-254 0 -417.5 136.5t-208.5 359.5h-142z" />
<glyph unicode="&#xa5;" horiz-adv-x="1478" d="M-12 1419h530l223 -409l226 409h526l-412 -618h269v-266h-373v-78h373v-267h-373v-190h-473v190h-375v267h375v78h-375v266h268z" />
<glyph unicode="&#xa7;" horiz-adv-x="1255" d="M61 682v4q0 143 187 207q-106 80 -107 217v4q0 139 133.5 237.5t389.5 98.5q133 0 271 -39t216 -88l-145 -272q-82 45 -185.5 73.5t-181.5 28.5q-88 0 -88 -45v-4q0 -37 170 -76q252 -57 342 -106q133 -70 133 -185v-4q0 -143 -186 -207q104 -80 104 -215v-4 q0 -139 -132 -238.5t-388 -99.5q-133 0 -271.5 39t-218.5 88l148 273q80 -45 183.5 -74t182.5 -29q88 0 89 47v4q0 35 -172 74q-250 57 -340 107q-134 69 -134 184zM379 743q0 -43 205 -90q147 -35 198 -35q96 0 97 54v4q0 43 -205 90q-150 35 -199 35q-96 0 -96 -53v-5z " />
<glyph unicode="&#xa8;" d="M94 1176v305h373v-305h-373zM547 1176v305h373v-305h-373z" />
<glyph unicode="&#xa9;" horiz-adv-x="1681" d="M106 707v2q0 303 215.5 522t521.5 219t519 -217t213 -520v-4q0 -301 -215 -520.5t-521.5 -219.5t-519.5 217.5t-213 520.5zM193 707q0 -272 186 -464t461 -192q274 0 462.5 193.5t188.5 464.5v4q0 272 -187.5 463.5t-459.5 191.5q-276 0 -463.5 -193.5t-187.5 -465.5v-2z M438 715v4q0 170 119 286.5t301 116.5q240 0 348 -200l-215 -127q-47 96 -141 96q-66 0 -105.5 -49t-39.5 -121v-4q0 -74 39.5 -121t105.5 -47q92 0 147 98l215 -123q-121 -209 -358 -209q-180 0 -298 114t-118 286z" />
<glyph unicode="&#xaa;" horiz-adv-x="790" d="M70 535v176h643v-176h-643zM74 989v4q0 90 62.5 138.5t168.5 48.5q86 0 146 -23v6q0 90 -115 90q-74 0 -168 -34l-45 167q121 45 258 46q174 0 258 -80q63 -59 63 -195v-342h-253v66q-72 -78 -175 -78q-92 0 -146 49t-54 137zM315 1006q0 -25 16.5 -40.5t41.5 -15.5 q35 0 57.5 24.5t22.5 67.5v25q-35 10 -60 10q-35 0 -56.5 -19.5t-21.5 -47.5v-4z" />
<glyph unicode="&#xab;" horiz-adv-x="1251" d="M39 455v178l309 414l318 -158l-265 -346l265 -344l-318 -158zM539 535v16l372 496l316 -158l-264 -346l264 -344l-316 -158z" />
<glyph unicode="&#xad;" horiz-adv-x="825" d="M61 451v376h705v-376h-705z" />
<glyph unicode="&#xae;" horiz-adv-x="1681" d="M106 707v2q0 303 215.5 522t521.5 219t519 -217t213 -520v-4q0 -301 -215 -520.5t-521.5 -219.5t-519.5 217.5t-213 520.5zM193 707q0 -272 186 -464t461 -192q274 0 462.5 193.5t188.5 464.5v4q0 272 -187.5 463.5t-459.5 191.5q-276 0 -463.5 -193.5t-187.5 -465.5v-2z M500 340v780h381q193 0 280 -88q72 -72 72 -186v-4q0 -162 -154 -236l183 -266h-297l-150 223h-4h-51v-223h-260zM760 750h112q100 0 101 75v4q0 74 -99 74h-114v-153z" />
<glyph unicode="&#xaf;" d="M111 1186v254h792v-254h-792z" />
<glyph unicode="&#xb0;" horiz-adv-x="940" d="M84 1057v4q0 156 113.5 266.5t273.5 110.5q156 0 271.5 -112t115.5 -265v-4q0 -156 -113.5 -265.5t-274.5 -109.5t-273.5 109.5t-112.5 265.5zM315 1057q0 -66 45.5 -110t110 -44t109.5 44t45 110v4q0 63 -47.5 109.5t-106.5 46.5q-63 0 -109.5 -46.5t-46.5 -109.5v-4z " />
<glyph unicode="&#xb1;" horiz-adv-x="1257" d="M-8 227l280 281q158 -156 332 -156q78 0 125 32t47 73v4q0 88 -188 88h-137v334h124q178 0 179 84v4q0 43 -41 69.5t-109 26.5q-141 0 -282 -145l-267 270q227 258 611 258q240 0 390 -107.5t150 -269.5v-4q0 -231 -239 -328q127 -33 199.5 -114.5t72.5 -212.5v-4 q0 -195 -162 -318t-430 -123q-403 0 -655 258z" />
<glyph unicode="&#xb2;" horiz-adv-x="1265" d="M33 1133q129 164 271 238.5t355 74.5q244 0 401 -131t157 -334v-4q0 -152 -72 -252t-215 -193l-252 -161h553v-371h-1196v344l588 422q123 88 122 172q0 47 -33.5 76.5t-93.5 29.5q-61 0 -122.5 -40.5t-151.5 -135.5z" />
<glyph unicode="&#xb3;" horiz-adv-x="1257" d="M-4 225l283 289q164 -154 333 -154q78 0 120 32t42 83v4q0 113 -186 113h-201l-63 211l313 248h-528v368h1091v-325l-317 -240q350 -94 350 -403v-5q0 -221 -167 -349t-415 -128q-405 0 -655 256z" />
<glyph unicode="&#xb4;" d="M236 1176l194 389l449 -115l-336 -274h-307z" />
<glyph unicode="&#xb5;" horiz-adv-x="1644" d="M49 707v2q0 311 225.5 526t551 215t548.5 -213t223 -524v-4q0 -268 -178 -473l350 -369v-21h-591l-152 152q-98 -25 -205 -25q-328 0 -550 211.5t-222 522.5zM526 709q0 -131 84 -225.5t215 -94.5t212 93t81 225v2q0 133 -83 227t-214 94t-213 -93t-82 -224v-4z" />
<glyph unicode="&#xb6;" horiz-adv-x="1216" d="M20 915v5q0 242 166 370.5t459 128.5h492v-1419h-473v426h-37q-274 0 -440.5 131t-166.5 358z" />
<glyph unicode="&#xb7;" horiz-adv-x="571" d="M51 406v466h469v-466h-469z" />
<glyph unicode="&#xb8;" d="M205 -199l192 240h279l-119 -391z" />
<glyph unicode="&#xb9;" horiz-adv-x="854" d="M-16 1315l424 115h358v-1430h-465v1014l-231 -51z" />
<glyph unicode="&#xba;" horiz-adv-x="790" d="M53 1110v4q0 131 98.5 223.5t246 92.5t243.5 -90.5t96 -223.5v-2q0 -133 -98 -225t-245.5 -92t-244 90t-96.5 223zM102 535v176h586v-176h-586zM297 1114q0 -47 28.5 -76.5t71.5 -29.5q45 0 72 27.5t27 74.5v4q0 45 -30 75t-73 30q-45 0 -70.5 -28t-25.5 -75v-2z" />
<glyph unicode="&#xbb;" horiz-adv-x="1251" d="M27 199l264 344l-264 346l315 158l371 -496v-16l-371 -494zM588 199l264 344l-264 346l317 158l309 -414v-178l-309 -414z" />
<glyph unicode="&#xbc;" horiz-adv-x="3307" d="M1905 578l694 852h526v-850h170v-334h-170v-246h-460v246h-682zM2364 573h301v377zM706 -199l943 1735h368l-942 -1735h-369zM-16 1315l424 115h358v-1430h-465v1014l-231 -51z" />
<glyph unicode="&#xbd;" horiz-adv-x="3178" d="M1946 1133q129 164 271 238.5t355 74.5q244 0 401 -131t157 -334v-4q0 -152 -72 -252t-215 -193l-252 -161h553v-371h-1196v344l588 422q123 88 122 172q0 47 -33.5 76.5t-93.5 29.5q-61 0 -122.5 -40.5t-151.5 -135.5zM706 -199l943 1735h368l-942 -1735h-369zM-16 1315 l424 115h358v-1430h-465v1014l-231 -51z" />
<glyph unicode="&#xbe;" horiz-adv-x="3710" d="M2308 578l694 852h526v-850h170v-334h-170v-246h-460v246h-682zM2767 573h301v377zM1110 -199l943 1735h368l-942 -1735h-369zM-4 225l283 289q164 -154 333 -154q78 0 120 32t42 83v4q0 113 -186 113h-201l-63 211l313 248h-528v368h1091v-325l-317 -240 q350 -94 350 -403v-5q0 -221 -167 -349t-415 -128q-405 0 -655 256z" />
<glyph unicode="&#xbf;" horiz-adv-x="1087" d="M14 406v4q0 178 100.5 277t291.5 155l24 135h281l57 -350l-25 -25q-281 -37 -280 -139v-2q0 -37 30.5 -58.5t88.5 -21.5q125 0 288 127l220 -328q-229 -205 -555 -205q-229 0 -375 119t-146 312zM342 1055v364h471v-364h-471z" />
<glyph unicode="&#xc0;" horiz-adv-x="1622" d="M-23 0l598 1430h472l598 -1430h-517l-73 190h-498l-72 -190h-508zM358 1774l449 116l194 -389h-307zM678 526h258l-129 346z" />
<glyph unicode="&#xc1;" horiz-adv-x="1622" d="M-23 0l598 1430h472l598 -1430h-517l-73 190h-498l-72 -190h-508zM621 1501l194 389l449 -116l-336 -273h-307zM678 526h258l-129 346z" />
<glyph unicode="&#xc2;" horiz-adv-x="1622" d="M-23 0l598 1430h472l598 -1430h-517l-73 190h-498l-72 -190h-508zM375 1501l270 348h332l270 -348h-258l-180 113l-180 -113h-254zM678 526h258l-129 346z" />
<glyph unicode="&#xc3;" horiz-adv-x="1622" d="M-23 0l598 1430h472l598 -1430h-517l-73 190h-498l-72 -190h-508zM373 1540q31 174 89 249t163 75q68 0 186.5 -40t140.5 -40q37 0 54.5 19.5t37.5 70.5l205 -51q-31 -172 -89 -247t-163 -75q-68 0 -186.5 39t-140.5 39q-37 0 -54.5 -19.5t-37.5 -68.5zM678 526h258 l-129 346z" />
<glyph unicode="&#xc4;" horiz-adv-x="1622" d="M-23 0l598 1430h472l598 -1430h-517l-73 190h-498l-72 -190h-508zM397 1501v303h373v-303h-373zM678 526h258l-129 346zM852 1501v303h373v-303h-373z" />
<glyph unicode="&#xc5;" horiz-adv-x="1622" d="M-23 0l582 1393q-41 68 -41 137v4q0 113 88 193.5t205 80.5t205 -80.5t88 -193.5v-4q0 -70 -41 -137l582 -1393h-517l-73 190h-498l-72 -190h-508zM668 1528q0 -57 42 -99.5t101 -42.5t101 42t42 100v4q0 59 -42 101t-101 42t-101 -42t-42 -101v-4zM678 526h258l-129 346 z" />
<glyph unicode="&#xc6;" horiz-adv-x="2189" d="M-39 0l737 1419h1434v-389h-702v-143h653v-344h-653v-154h712v-389h-1169v190h-441l-94 -190h-477zM702 526h271v518h-12z" />
<glyph unicode="&#xc7;" horiz-adv-x="1464" d="M49 707v2q0 317 218 529t536 212q225 0 386 -98.5t257 -270.5l-391 -229q-90 172 -258 172q-117 0 -192 -90t-75 -221v-4q0 -137 75 -225.5t192 -88.5q168 0 268 178l391 -221q-190 -338 -571 -379l-99 -323l-352 151l156 193q-238 63 -389.5 255t-151.5 458z" />
<glyph unicode="&#xc8;" horiz-adv-x="1347" d="M82 0v1419h1210v-389h-745v-143h694v-344h-694v-154h756v-389h-1221zM293 1774l446 116l195 -389h-307z" />
<glyph unicode="&#xc9;" horiz-adv-x="1347" d="M82 0v1419h1210v-389h-745v-143h694v-344h-694v-154h756v-389h-1221zM485 1501l195 389l446 -116l-333 -273h-308z" />
<glyph unicode="&#xca;" horiz-adv-x="1347" d="M82 0v1419h1210v-389h-745v-143h694v-344h-694v-154h756v-389h-1221zM262 1501l268 348h334l269 -348h-256l-181 113l-182 -113h-252z" />
<glyph unicode="&#xcb;" horiz-adv-x="1347" d="M82 0v1419h1210v-389h-745v-143h694v-344h-694v-154h756v-389h-1221zM285 1501v303h372v-303h-372zM737 1501v303h375v-303h-375z" />
<glyph unicode="&#xcc;" horiz-adv-x="643" d="M-139 1774l446 116l197 -389h-309zM86 0v1419h473v-1419h-473z" />
<glyph unicode="&#xcd;" horiz-adv-x="643" d="M86 0v1419h473v-1419h-473zM141 1501l195 389l448 -116l-333 -273h-310z" />
<glyph unicode="&#xce;" horiz-adv-x="643" d="M-113 1501l269 348h333l269 -348h-256l-183 113l-180 -113h-252zM86 0v1419h473v-1419h-473z" />
<glyph unicode="&#xcf;" horiz-adv-x="643" d="M-92 1501v303h375v-303h-375zM86 0v1419h473v-1419h-473zM362 1501v303h373v-303h-373z" />
<glyph unicode="&#xd0;" horiz-adv-x="1654" d="M47 543v344h172v532h543q414 0 630 -187.5t216 -510.5v-4q0 -326 -222.5 -521.5t-640.5 -195.5h-526v543h-172zM674 393h98q356 0 356 316v2q0 315 -356 315h-98v-139h174v-344h-174v-150z" />
<glyph unicode="&#xd1;" horiz-adv-x="1581" d="M82 0v1419h442l506 -626v626h471v-1419h-422l-528 655v-655h-469zM352 1540q31 174 90.5 249t161.5 75q68 0 187.5 -40t140.5 -40q37 0 54.5 19.5t37.5 70.5l205 -51q-31 -172 -89.5 -247t-162.5 -75q-66 0 -185.5 39t-142.5 39q-37 0 -54 -19.5t-38 -68.5z" />
<glyph unicode="&#xd2;" horiz-adv-x="1644" d="M49 707v2q0 311 225.5 526t551 215t548.5 -213t223 -524v-4q0 -309 -225 -524.5t-550.5 -215.5t-549 213.5t-223.5 524.5zM350 1774l449 116l194 -389h-307zM526 709q0 -131 84 -225.5t215 -94.5t212 93t81 225v2q0 133 -83 227t-214 94t-213 -93t-82 -224v-4z" />
<glyph unicode="&#xd3;" horiz-adv-x="1644" d="M49 707v2q0 311 225.5 526t551 215t548.5 -213t223 -524v-4q0 -309 -225 -524.5t-550.5 -215.5t-549 213.5t-223.5 524.5zM526 709q0 -131 84 -225.5t215 -94.5t212 93t81 225v2q0 133 -83 227t-214 94t-213 -93t-82 -224v-4zM653 1501l195 389l448 -116l-335 -273h-308z " />
<glyph unicode="&#xd4;" horiz-adv-x="1644" d="M49 707v2q0 311 225.5 526t551 215t548.5 -213t223 -524v-4q0 -309 -225 -524.5t-550.5 -215.5t-549 213.5t-223.5 524.5zM387 1491l270 348h332l271 -348h-259l-180 113l-180 -113h-254zM526 709q0 -131 84 -225.5t215 -94.5t212 93t81 225v2q0 133 -83 227t-214 94 t-213 -93t-82 -224v-4z" />
<glyph unicode="&#xd5;" horiz-adv-x="1644" d="M49 707v2q0 311 225.5 526t551 215t548.5 -213t223 -524v-4q0 -309 -225 -524.5t-550.5 -215.5t-549 213.5t-223.5 524.5zM385 1540q31 174 89 249t163 75q68 0 186.5 -40t141.5 -40q37 0 54 19.5t38 70.5l205 -51q-31 -172 -89.5 -247t-162.5 -75q-68 0 -186.5 39 t-141.5 39q-37 0 -54.5 -19.5t-37.5 -68.5zM526 709q0 -131 84 -225.5t215 -94.5t212 93t81 225v2q0 133 -83 227t-214 94t-213 -93t-82 -224v-4z" />
<glyph unicode="&#xd6;" horiz-adv-x="1644" d="M49 707v2q0 311 225.5 526t551 215t548.5 -213t223 -524v-4q0 -309 -225 -524.5t-550.5 -215.5t-549 213.5t-223.5 524.5zM410 1501v303h372v-303h-372zM526 709q0 -131 84 -225.5t215 -94.5t212 93t81 225v2q0 133 -83 227t-214 94t-213 -93t-82 -224v-4zM864 1501v303 h373v-303h-373z" />
<glyph unicode="&#xd8;" horiz-adv-x="1644" d="M33 -10l205 227q-188 209 -189 490v2q0 311 225.5 526t550.5 215q225 0 412 -111l80 91h297l-205 -230q188 -205 188 -487v-4q0 -309 -225 -524.5t-551 -215.5q-225 0 -411 111l-80 -90h-297zM518 709q0 -72 29 -146l401 449q-55 29 -127 28q-135 0 -219 -96t-84 -231v-4 zM696 408q59 -29 129 -29q135 0 218 96t83 232v2q0 76 -26 145z" />
<glyph unicode="&#xd9;" horiz-adv-x="1540" d="M70 637v782h481v-776q0 -129 59.5 -190.5t160.5 -61.5t159.5 58.5t58.5 183.5v786h484v-772q0 -348 -185.5 -512t-521.5 -164q-330 0 -513 163t-183 503zM303 1763l449 117l194 -389h-307z" />
<glyph unicode="&#xda;" horiz-adv-x="1540" d="M70 637v782h481v-776q0 -129 59.5 -190.5t160.5 -61.5t159.5 58.5t58.5 183.5v786h484v-772q0 -348 -185.5 -512t-521.5 -164q-330 0 -513 163t-183 503zM594 1491l194 389l449 -117l-334 -272h-309z" />
<glyph unicode="&#xdb;" horiz-adv-x="1540" d="M70 637v782h481v-776q0 -129 59.5 -190.5t160.5 -61.5t159.5 58.5t58.5 183.5v786h484v-772q0 -348 -185.5 -512t-521.5 -164q-330 0 -513 163t-183 503zM334 1501l270 348h332l270 -348h-258l-180 113l-180 -113h-254z" />
<glyph unicode="&#xdc;" horiz-adv-x="1540" d="M70 637v782h481v-776q0 -129 59.5 -190.5t160.5 -61.5t159.5 58.5t58.5 183.5v786h484v-772q0 -348 -185.5 -512t-521.5 -164q-330 0 -513 163t-183 503zM356 1501v303h373v-303h-373zM811 1501v303h373v-303h-373z" />
<glyph unicode="&#xdd;" horiz-adv-x="1478" d="M-33 1419h533l241 -467l246 467h526l-536 -911v-508h-473v504zM530 1501l195 389l449 -116l-334 -273h-310z" />
<glyph unicode="&#xde;" horiz-adv-x="1398" d="M82 0v1419h473v-198h164q295 0 465 -125t170 -371v-4q0 -250 -174 -382t-471 -132h-154v-207h-473zM555 555h129q92 0 147.5 41t55.5 115v4q0 158 -201 157h-131v-317z" />
<glyph unicode="&#xdf;" horiz-adv-x="1316" d="M70 0v922q0 262 152.5 420.5t451.5 158.5q248 0 404.5 -130t156.5 -320v-4q0 -117 -67.5 -207t-172.5 -129q119 -25 209 -110t90 -220v-4q0 -197 -187 -300.5t-470 -82.5v315q92 8 146.5 46t54.5 100v4q0 59 -53.5 93t-147.5 38v207q66 25 111 71.5t45 112.5v4 q0 59 -36 96t-83 37q-66 0 -106 -48t-40 -142v-928h-458z" />
<glyph unicode="&#xe0;" horiz-adv-x="1226" d="M27 313v4q0 166 113.5 256.5t308.5 90.5q164 0 260 -41v18q0 160 -203 160q-150 0 -307 -64l-82 307q213 80 467 80q326 0 469 -143q115 -115 114 -350v-631h-458v111q-129 -137 -320 -138q-164 0 -263 90t-99 250zM172 1458l449 115l194 -389h-307zM467 346 q0 -47 29.5 -76.5t74.5 -29.5q63 0 102.5 46t39.5 124v47q-45 18 -105 18q-68 0 -104.5 -36t-36.5 -89v-4z" />
<glyph unicode="&#xe1;" horiz-adv-x="1226" d="M27 313v4q0 166 113.5 256.5t308.5 90.5q164 0 260 -41v18q0 160 -203 160q-150 0 -307 -64l-82 307q213 80 467 80q326 0 469 -143q115 -115 114 -350v-631h-458v111q-129 -137 -320 -138q-164 0 -263 90t-99 250zM414 1184l194 389l449 -115l-336 -274h-307zM467 346 q0 -47 29.5 -76.5t74.5 -29.5q63 0 102.5 46t39.5 124v47q-45 18 -105 18q-68 0 -104.5 -36t-36.5 -89v-4z" />
<glyph unicode="&#xe2;" horiz-adv-x="1226" d="M27 313v4q0 166 113.5 256.5t308.5 90.5q164 0 260 -41v18q0 160 -203 160q-150 0 -307 -64l-82 307q213 80 467 80q326 0 469 -143q115 -115 114 -350v-631h-458v111q-129 -137 -320 -138q-164 0 -263 90t-99 250zM170 1176l270 348h332l270 -348h-258l-180 114 l-180 -114h-254zM467 346q0 -47 29.5 -76.5t74.5 -29.5q63 0 102.5 46t39.5 124v47q-45 18 -105 18q-68 0 -104.5 -36t-36.5 -89v-4z" />
<glyph unicode="&#xe3;" horiz-adv-x="1226" d="M27 313v4q0 166 113.5 256.5t308.5 90.5q164 0 260 -41v18q0 160 -203 160q-150 0 -307 -64l-82 307q213 80 467 80q326 0 469 -143q115 -115 114 -350v-631h-458v111q-129 -137 -320 -138q-164 0 -263 90t-99 250zM172 1217q31 172 89 246.5t163 74.5q68 0 186.5 -39 t141.5 -39q37 0 54 19.5t38 68.5l205 -49q-31 -174 -89.5 -248.5t-162.5 -74.5q-68 0 -186.5 39.5t-141.5 39.5q-37 0 -54.5 -19t-37.5 -71zM467 346q0 -47 29.5 -76.5t74.5 -29.5q63 0 102.5 46t39.5 124v47q-45 18 -105 18q-68 0 -104.5 -36t-36.5 -89v-4z" />
<glyph unicode="&#xe4;" horiz-adv-x="1226" d="M27 313v4q0 166 113.5 256.5t308.5 90.5q164 0 260 -41v18q0 160 -203 160q-150 0 -307 -64l-82 307q213 80 467 80q326 0 469 -143q115 -115 114 -350v-631h-458v111q-129 -137 -320 -138q-164 0 -263 90t-99 250zM193 1184v305h372v-305h-372zM467 346 q0 -47 29.5 -76.5t74.5 -29.5q63 0 102.5 46t39.5 124v47q-45 18 -105 18q-68 0 -104.5 -36t-36.5 -89v-4zM647 1184v305h373v-305h-373z" />
<glyph unicode="&#xe5;" horiz-adv-x="1226" d="M27 313v4q0 166 113.5 256.5t308.5 90.5q164 0 260 -41v18q0 160 -203 160q-150 0 -307 -64l-82 307q213 80 467 80q326 0 469 -143q115 -115 114 -350v-631h-458v111q-129 -137 -320 -138q-164 0 -263 90t-99 250zM313 1475v4q0 111 88 191.5t205 80.5t205 -81t88 -191 v-4q0 -113 -89 -196t-203.5 -83t-204 83t-89.5 196zM463 1473q0 -59 42 -101.5t101.5 -42.5t101.5 42t42 102v4q0 57 -42 99t-101.5 42t-101.5 -42t-42 -99v-4zM467 346q0 -47 29.5 -76.5t74.5 -29.5q63 0 102.5 46t39.5 124v47q-45 18 -105 18q-68 0 -104.5 -36t-36.5 -89 v-4z" />
<glyph unicode="&#xe6;" horiz-adv-x="1882" d="M27 313v4q0 166 113.5 256.5t308.5 90.5q164 0 260 -41v18q0 160 -203 160q-150 0 -307 -64l-82 307q213 80 467 80q244 0 372 -106q139 115 330 115q272 0 418.5 -172.5t146.5 -438.5q0 -51 -2 -76h-712q49 -147 209 -147q117 0 225 113l248 -197q-186 -242 -504 -242 q-283 0 -447 164q-209 -164 -438 -164q-172 0 -287.5 87t-115.5 253zM467 346q0 -47 31.5 -74.5t83.5 -27.5q80 0 166 73q-27 63 -37 140q-45 18 -103 18q-68 0 -104.5 -36t-36.5 -89v-4zM1130 649h302q-8 76 -50.5 121t-103.5 45q-57 0 -97.5 -45t-50.5 -121z" />
<glyph unicode="&#xe7;" horiz-adv-x="1148" d="M35 547v4q0 240 170 409.5t434 169.5q176 0 305 -82.5t195 -222.5l-330 -186q-61 111 -162 111q-74 0 -122 -55.5t-48 -139.5v-4q0 -84 47 -141.5t117 -57.5q100 0 172 113l334 -191q-141 -262 -434 -297l-99 -327l-352 151l162 201q-174 59 -281.5 209t-107.5 336z" />
<glyph unicode="&#xe8;" horiz-adv-x="1212" d="M35 547v4q0 250 160.5 416t408.5 166q283 0 429.5 -171t146.5 -440q0 -51 -2 -76h-711q47 -147 209 -147q115 0 225 113l246 -197q-186 -242 -504 -242q-272 0 -440 159t-168 415zM147 1458l449 115l195 -389h-308zM461 649h299q-8 76 -49 121t-105 45q-57 0 -96 -45 t-49 -121z" />
<glyph unicode="&#xe9;" horiz-adv-x="1212" d="M35 547v4q0 250 160.5 416t408.5 166q283 0 429.5 -171t146.5 -440q0 -51 -2 -76h-711q47 -147 209 -147q115 0 225 113l246 -197q-186 -242 -504 -242q-272 0 -440 159t-168 415zM426 1184l195 389l448 -115l-336 -274h-307zM461 649h299q-8 76 -49 121t-105 45 q-57 0 -96 -45t-49 -121z" />
<glyph unicode="&#xea;" horiz-adv-x="1212" d="M35 547v4q0 250 160.5 416t408.5 166q283 0 429.5 -171t146.5 -440q0 -51 -2 -76h-711q47 -147 209 -147q115 0 225 113l246 -197q-186 -242 -504 -242q-272 0 -440 159t-168 415zM172 1167l270 351h332l270 -351h-258l-180 115l-180 -115h-254zM461 649h299 q-8 76 -49 121t-105 45q-57 0 -96 -45t-49 -121z" />
<glyph unicode="&#xeb;" horiz-adv-x="1212" d="M35 547v4q0 250 160.5 416t408.5 166q283 0 429.5 -171t146.5 -440q0 -51 -2 -76h-711q47 -147 209 -147q115 0 225 113l246 -197q-186 -242 -504 -242q-272 0 -440 159t-168 415zM195 1176v305h372v-305h-372zM461 649h299q-8 76 -49 121t-105 45q-57 0 -96 -45 t-49 -121zM649 1176v305h373v-305h-373z" />
<glyph unicode="&#xec;" horiz-adv-x="606" d="M-152 1450l449 115l195 -389h-310zM74 0v1108h458v-1108h-458z" />
<glyph unicode="&#xed;" horiz-adv-x="606" d="M74 0v1108h458v-1108h-458zM121 1176l194 389l449 -115l-334 -274h-309z" />
<glyph unicode="&#xee;" horiz-adv-x="606" d="M-129 1176l268 348h334l268 -348h-256l-182 114l-180 -114h-252zM74 0v1108h458v-1108h-458z" />
<glyph unicode="&#xef;" horiz-adv-x="606" d="M-106 1176v305h372v-305h-372zM74 0v1108h458v-1108h-458zM346 1176v305h373v-305h-373z" />
<glyph unicode="&#xf0;" horiz-adv-x="1345" d="M45 506v2q0 180 137 310t365 130q141 0 188 -43l-147 201l-238 -84l-149 207l243 71l-133 181h471l39 -58l199 70l149 -207l-211 -61l95 -133q123 -180 170 -296t47 -274v-4q0 -233 -172 -389t-443 -156q-270 0 -440 153t-170 380zM487 508q0 -61 48.5 -106.5 t123.5 -45.5q76 0 122 43t46 107v2q0 63 -49 109.5t-123 46.5q-78 0 -123 -44.5t-45 -107.5v-4z" />
<glyph unicode="&#xf1;" horiz-adv-x="1306" d="M70 0v1108h458v-156q141 180 340 181q174 0 276.5 -109t102.5 -295v-729h-461v582q0 70 -36.5 109.5t-87.5 39.5q-55 0 -94.5 -40t-39.5 -109v-582h-458zM225 1217q31 172 89.5 246.5t162.5 74.5q66 0 185.5 -39t142.5 -39q37 0 54.5 19.5t37.5 68.5l205 -49 q-31 -174 -90.5 -248.5t-161.5 -74.5q-68 0 -187.5 39.5t-142.5 39.5q-35 0 -52 -19t-38 -71z" />
<glyph unicode="&#xf2;" horiz-adv-x="1312" d="M35 549v4q0 240 177 410t447 170q266 0 443.5 -168t177.5 -408v-4q0 -240 -178 -410t-447 -170q-268 0 -444 168t-176 408zM193 1458l448 115l195 -389h-310zM477 553q0 -80 52.5 -138.5t129 -58.5t128 56.5t51.5 136.5v4q0 82 -53.5 139.5t-130 57.5t-127 -55.5 t-50.5 -137.5v-4z" />
<glyph unicode="&#xf3;" horiz-adv-x="1312" d="M35 549v4q0 240 177 410t447 170q266 0 443.5 -168t177.5 -408v-4q0 -240 -178 -410t-447 -170q-268 0 -444 168t-176 408zM477 553q0 -80 52.5 -138.5t129 -58.5t128 56.5t51.5 136.5v4q0 82 -53.5 139.5t-130 57.5t-127 -55.5t-50.5 -137.5v-4zM479 1184l195 389 l446 -115l-334 -274h-307z" />
<glyph unicode="&#xf4;" horiz-adv-x="1312" d="M35 549v4q0 240 177 410t447 170q266 0 443.5 -168t177.5 -408v-4q0 -240 -178 -410t-447 -170q-268 0 -444 168t-176 408zM221 1167l271 351h331l271 -351h-258l-181 115l-180 -115h-254zM477 553q0 -80 52.5 -138.5t129 -58.5t128 56.5t51.5 136.5v4q0 82 -53.5 139.5 t-130 57.5t-127 -55.5t-50.5 -137.5v-4z" />
<glyph unicode="&#xf5;" horiz-adv-x="1312" d="M35 549v4q0 240 177 410t447 170q266 0 443.5 -168t177.5 -408v-4q0 -240 -178 -410t-447 -170q-268 0 -444 168t-176 408zM219 1217q31 172 89.5 246.5t162.5 74.5q66 0 185.5 -39t142.5 -39q37 0 54 19.5t38 68.5l205 -49q-31 -174 -90.5 -248.5t-161.5 -74.5 q-68 0 -187.5 39.5t-142.5 39.5q-35 0 -52.5 -19t-37.5 -71zM477 553q0 -80 52.5 -138.5t129 -58.5t128 56.5t51.5 136.5v4q0 82 -53.5 139.5t-130 57.5t-127 -55.5t-50.5 -137.5v-4z" />
<glyph unicode="&#xf6;" horiz-adv-x="1312" d="M35 549v4q0 240 177 410t447 170q266 0 443.5 -168t177.5 -408v-4q0 -240 -178 -410t-447 -170q-268 0 -444 168t-176 408zM244 1176v305h372v-305h-372zM477 553q0 -80 52.5 -138.5t129 -58.5t128 56.5t51.5 136.5v4q0 82 -53.5 139.5t-130 57.5t-127 -55.5 t-50.5 -137.5v-4zM698 1176v305h373v-305h-373z" />
<glyph unicode="&#xf8;" horiz-adv-x="1312" d="M4 -10l174 186q-143 160 -143 373v4q0 240 177 410t447 170q182 0 322 -80l59 63h271l-174 -186q143 -162 143 -373v-4q0 -240 -178 -410t-447 -170q-176 0 -323 80l-58 -63h-270zM455 553q0 -41 8 -70l260 279q-33 10 -68 10q-86 0 -143 -62.5t-57 -152.5v-4zM594 342 q41 -8 65 -8q84 0 142.5 63.5t58.5 151.5v4q0 39 -8 70z" />
<glyph unicode="&#xf9;" horiz-adv-x="1306" d="M61 377v731h459v-584q0 -68 37 -108.5t90 -40.5q55 0 93 41t38 108v584h461v-1108h-461v147q-135 -174 -338 -174q-174 0 -276.5 109t-102.5 295zM221 1450l449 115l194 -389h-309z" />
<glyph unicode="&#xfa;" horiz-adv-x="1306" d="M61 377v731h459v-584q0 -68 37 -108.5t90 -40.5q55 0 93 41t38 108v584h461v-1108h-461v147q-135 -174 -338 -174q-174 0 -276.5 109t-102.5 295zM442 1176l195 389l448 -115l-335 -274h-308z" />
<glyph unicode="&#xfb;" horiz-adv-x="1306" d="M61 377v731h459v-584q0 -68 37 -108.5t90 -40.5q55 0 93 41t38 108v584h461v-1108h-461v147q-135 -174 -338 -174q-174 0 -276.5 109t-102.5 295zM217 1176l270 348h332l271 -348h-259l-180 114l-180 -114h-254z" />
<glyph unicode="&#xfc;" horiz-adv-x="1306" d="M61 377v731h459v-584q0 -68 37 -108.5t90 -40.5q55 0 93 41t38 108v584h461v-1108h-461v147q-135 -174 -338 -174q-174 0 -276.5 109t-102.5 295zM240 1176v305h372v-305h-372zM694 1176v305h373v-305h-373z" />
<glyph unicode="&#xfd;" horiz-adv-x="1320" d="M6 1108h477l193 -586l176 586h467l-383 -1030q-82 -223 -187.5 -315.5t-291.5 -92.5q-221 0 -428 115l133 315q131 -74 203 -73q43 0 75 16zM451 1176l194 389l449 -115l-336 -274h-307z" />
<glyph unicode="&#xfe;" horiz-adv-x="1370" d="M70 -324v1805h458v-510q47 51 83 80.5t101.5 55.5t145.5 26q203 0 339 -160t136 -412v-4q0 -256 -135 -420t-336 -164q-197 0 -334 152v-449h-458zM518 551q0 -82 53.5 -140.5t132 -58.5t132 58.5t53.5 140.5v4q0 84 -53.5 141.5t-132 57.5t-132 -57.5t-53.5 -141.5v-4z " />
<glyph unicode="&#xff;" horiz-adv-x="1320" d="M6 1108h477l193 -586l176 586h467l-383 -1030q-82 -223 -187.5 -315.5t-291.5 -92.5q-221 0 -428 115l133 315q131 -74 203 -73q43 0 75 16zM242 1176v305h372v-305h-372zM696 1176v305h373v-305h-373z" />
<glyph unicode="&#x152;" horiz-adv-x="2189" d="M49 698v4q0 326 222.5 521.5t639.5 195.5h1221v-389h-702v-143h653v-344h-653v-154h712v-389h-1247q-414 0 -630 187t-216 511zM526 709q0 -150 94.5 -229t253.5 -79h89v617h-89q-162 0 -255 -78t-93 -229v-2z" />
<glyph unicode="&#x153;" horiz-adv-x="2015" d="M35 549v4q0 238 176 409t438 171q246 0 404 -148q141 147 364 148q274 0 419.5 -172.5t145.5 -438.5q0 -51 -2 -76h-710q49 -147 209 -147q115 0 225 113l246 -197q-186 -242 -494 -242q-260 0 -409 144q-160 -143 -402 -144q-262 0 -436 169t-174 407zM477 553 q0 -80 52.5 -138.5t129 -58.5t128 56.5t51.5 136.5v4q0 82 -53.5 139.5t-130 57.5t-127 -55.5t-50.5 -137.5v-4zM1264 649h299q-8 76 -49 121t-105 45q-57 0 -96 -45t-49 -121z" />
<glyph unicode="&#x178;" horiz-adv-x="1478" d="M-33 1419h533l241 -467l246 467h526l-536 -911v-508h-473v504zM326 1501v303h374v-303h-374zM780 1501v303h373v-303h-373z" />
<glyph unicode="&#x2c6;" d="M72 1176l268 348h334l268 -348h-256l-180 114l-182 -114h-252z" />
<glyph unicode="&#x2dc;" d="M70 1217q31 172 89 246.5t160 74.5q68 0 188 -39t142 -39q37 0 53.5 19.5t36.5 68.5l205 -49q-31 -174 -89 -248.5t-161 -74.5q-68 0 -187.5 39.5t-141.5 39.5q-37 0 -53.5 -19t-37.5 -71z" />
<glyph unicode="&#x2000;" horiz-adv-x="944" />
<glyph unicode="&#x2001;" horiz-adv-x="1890" />
<glyph unicode="&#x2002;" horiz-adv-x="944" />
<glyph unicode="&#x2003;" horiz-adv-x="1890" />
<glyph unicode="&#x2004;" horiz-adv-x="628" />
<glyph unicode="&#x2005;" horiz-adv-x="471" />
<glyph unicode="&#x2006;" horiz-adv-x="313" />
<glyph unicode="&#x2007;" horiz-adv-x="313" />
<glyph unicode="&#x2008;" horiz-adv-x="235" />
<glyph unicode="&#x2009;" horiz-adv-x="376" />
<glyph unicode="&#x200a;" horiz-adv-x="104" />
<glyph unicode="&#x2010;" horiz-adv-x="825" d="M61 451v376h705v-376h-705z" />
<glyph unicode="&#x2011;" horiz-adv-x="825" d="M61 451v376h705v-376h-705z" />
<glyph unicode="&#x2012;" horiz-adv-x="825" d="M61 451v376h705v-376h-705z" />
<glyph unicode="&#x2013;" horiz-adv-x="1069" d="M61 455v368h949v-368h-949z" />
<glyph unicode="&#x2014;" horiz-adv-x="1820" d="M61 455v368h1698v-368h-1698z" />
<glyph unicode="&#x2018;" horiz-adv-x="571" d="M47 614v371q0 233 120 333.5t337 111.5l35 -168q-207 -27 -207 -181h184v-467h-469z" />
<glyph unicode="&#x2019;" horiz-adv-x="571" d="M33 772q207 27 207 180h-185v467h469v-370q0 -233 -118.5 -334t-335.5 -111z" />
<glyph unicode="&#x201a;" horiz-adv-x="571" d="M29 -180q207 27 207 180h-185v467h469v-371q0 -233 -118.5 -333.5t-335.5 -110.5z" />
<glyph unicode="&#x201c;" horiz-adv-x="1122" d="M47 614v371q0 229 117 331.5t330 113.5l34 -168q-197 -25 -196 -181h176v-467h-461zM608 614v371q0 229 117 331.5t330 113.5l37 -168q-197 -25 -197 -181h174v-467h-461z" />
<glyph unicode="&#x201d;" horiz-adv-x="1122" d="M33 772q197 25 196 180h-174v467h459v-370q0 -229 -115.5 -332t-328.5 -113zM594 772q197 25 197 180h-175v467h461v-370q0 -229 -116.5 -332t-329.5 -113z" />
<glyph unicode="&#x201e;" horiz-adv-x="1118" d="M29 -180q197 25 196 180h-174v467h459v-371q0 -229 -115.5 -331.5t-328.5 -112.5zM590 -180q197 25 196 180h-174v467h461v-371q0 -229 -116.5 -331.5t-329.5 -112.5z" />
<glyph unicode="&#x2022;" d="M123 711v4q0 158 112.5 270.5t271.5 112.5t271.5 -113t112.5 -270v-4q0 -156 -112.5 -268.5t-271.5 -112.5t-271.5 112.5t-112.5 268.5z" />
<glyph unicode="&#x2026;" horiz-adv-x="1701" d="M51 0v463h461v-463h-461zM621 0v463h462v-463h-462zM1190 0v463h463v-463h-463z" />
<glyph unicode="&#x202f;" horiz-adv-x="376" />
<glyph unicode="&#x2039;" horiz-adv-x="690" d="M39 455v178l309 414l318 -158l-265 -346l265 -344l-318 -158z" />
<glyph unicode="&#x203a;" horiz-adv-x="690" d="M27 199l264 344l-264 346l315 158l311 -414v-178l-311 -414z" />
<glyph unicode="&#x2044;" horiz-adv-x="1054" d="M-150 -199l943 1735h368l-942 -1735h-369z" />
<glyph unicode="&#x205f;" horiz-adv-x="471" />
<glyph unicode="&#x2122;" horiz-adv-x="1419" d="M14 1241v178h576v-178h-184v-446h-207v446h-185zM657 795v624h217l134 -219l133 219h219v-624h-209v311l-143 -223h-2l-144 223v-311h-205z" />
<glyph unicode="&#xe000;" horiz-adv-x="1110" d="M0 1110h1110v-1110h-1110v1110z" />
<glyph unicode="&#xfb01;" horiz-adv-x="1468" d="M25 752v356h129q6 188 100 281q104 106 324 106q176 0 282 -31v-288q-72 16 -149 16q-106 0 -107 -88v-8h256v-344h-246v-752h-460v752h-129zM928 1186v295h477v-295h-477zM936 0v1108h461v-1108h-461z" />
<glyph unicode="&#xfb02;" horiz-adv-x="1468" d="M25 752v356h129q6 188 100 281q104 106 324 106q176 0 282 -31v-288q-72 16 -149 16q-106 0 -107 -88v-8h256v-344h-246v-752h-460v752h-129zM936 0v1481h461v-1481h-461z" />
<glyph unicode="&#xfb03;" horiz-adv-x="2332" d="M1792 1186v295h475v-295h-475zM1800 0v1108h458v-1108h-458zM889 752v356h129q6 188 100 281q104 106 324 106q176 0 282 -31v-288q-72 16 -149 16q-106 0 -107 -88v-8h256v-344h-246v-752h-460v752h-129zM25 752v356h129q6 188 100 281q104 106 324 106q176 0 282 -31 v-288q-72 16 -149 16q-106 0 -107 -88v-8h256v-344h-246v-752h-460v752h-129z" />
<glyph unicode="&#xfb04;" horiz-adv-x="2332" d="M1800 0v1481h458v-1481h-458zM889 752v356h129q6 188 100 281q104 106 324 106q176 0 282 -31v-288q-72 16 -149 16q-106 0 -107 -88v-8h256v-344h-246v-752h-460v752h-129zM25 752v356h129q6 188 100 281q104 106 324 106q176 0 282 -31v-288q-72 16 -149 16 q-106 0 -107 -88v-8h256v-344h-246v-752h-460v752h-129z" />
</font>
</defs>
</svg>
