<?xml version="1.0" standalone="no"?>
<!DOCTYPE svg PUBLIC "-//W3C//DTD SVG 1.1//EN" "http://www.w3.org/Graphics/SVG/1.1/DTD/svg11.dtd" >
<svg xmlns="http://www.w3.org/2000/svg">
<metadata>
This is a custom SVG webfont generated by Font Squirrel.
Copyright   : HTF Gotham Copr 2003 The Hoefler Type Foundry Inc Info wwwtypographycom
</metadata>
<defs>
<font id="GothamHTFBlackItalic" horiz-adv-x="1681" >
<font-face units-per-em="2048" ascent="1638" descent="-410" />
<missing-glyph horiz-adv-x="571" />
<glyph unicode=" "  horiz-adv-x="571" />
<glyph unicode="&#x09;" horiz-adv-x="571" />
<glyph unicode="&#xa0;" horiz-adv-x="571" />
<glyph unicode="!" horiz-adv-x="665" d="M-20 0l92 352h409l-94 -352h-407zM207 471l92 801l49 176h449l-49 -176l-336 -801h-205z" />
<glyph unicode="&#x22;" horiz-adv-x="1116" d="M139 705l197 743h422l-2 -10l-410 -733h-207zM674 705l198 743h422l-2 -10l-409 -733h-209z" />
<glyph unicode="#" horiz-adv-x="1439" d="M6 279l74 333h213l82 232h-195l74 334h238l96 270h299l-94 -270h260l96 270h299l-94 -270h168l-74 -334h-211l-82 -232h197l-76 -333h-238l-98 -279h-301l100 279h-264l-96 -279h-301l98 279h-170zM582 604h278l88 248h-280z" />
<glyph unicode="$" horiz-adv-x="1355" d="M-39 252l240 250q162 -133 331 -168l76 252q-201 61 -299 149t-98 244q0 201 173 335t452 134h18l35 121h215l-41 -144q217 -49 369 -182l-222 -268q-109 88 -245 131l-74 -238q195 -63 291 -151t96 -242q0 -211 -175 -343t-454 -132h-10l-57 -203h-215l63 221 q-293 54 -469 234zM604 1022q0 -35 23.5 -56.5t85.5 -43.5l63 213q-86 0 -129 -32t-43 -81zM719 315q168 6 168 117q0 33 -21.5 55.5t-79.5 47.5z" />
<glyph unicode="%" horiz-adv-x="1908" d="M141 0l1426 1448h291l-1428 -1448h-289zM164 1020q0 176 118.5 312t301.5 136q162 0 253 -94t91 -244q0 -174 -119 -311t-299 -137q-160 0 -253 94t-93 244zM406 1030q0 -57 30.5 -94t85.5 -37q72 0 119 68.5t47 152.5q0 59 -30.5 95t-84.5 36q-74 0 -120.5 -68.5 t-46.5 -152.5zM1067 317q0 174 119 311.5t301 137.5q162 0 254 -94t92 -244q0 -176 -119 -312t-301 -136q-162 0 -254 93.5t-92 243.5zM1307 328q0 -59 32.5 -95t83.5 -36q74 0 122 68.5t48 152.5q0 57 -32.5 94t-83.5 37q-74 0 -122 -68.5t-48 -152.5z" />
<glyph unicode="&#x26;" horiz-adv-x="1447" d="M27 377q0 162 109.5 278.5t305.5 180.5q-66 129 -65 239q0 170 127 285t332 115q190 0 310 -103.5t120 -263.5q0 -268 -359 -397l127 -170q74 80 150 190l233 -164q-90 -137 -203 -256l117 -159l-262 -181l-100 144q-215 -137 -443 -138q-233 0 -366 108t-133 292z M406 408q0 -57 45 -95.5t124 -38.5q98 0 213 70l-196 279q-186 -76 -186 -215zM702 1061q0 -70 50 -148q104 41 149 82t45 99q0 47 -30.5 77.5t-77.5 30.5q-59 0 -97.5 -42t-38.5 -99z" />
<glyph unicode="'" horiz-adv-x="581" d="M139 705l197 743h428l-2 -10l-410 -733h-213z" />
<glyph unicode="(" horiz-adv-x="940" d="M92 449q0 360 233.5 629.5t620.5 396.5l115 -267q-287 -127 -437.5 -328.5t-150.5 -420.5q0 -258 252 -527l-225 -227q-408 310 -408 744z" />
<glyph unicode=")" horiz-adv-x="940" d="M-102 -23q289 125 437 327t148 423q0 258 -250 526l226 228q406 -309 405 -744q0 -358 -232.5 -628.5t-617.5 -397.5z" />
<glyph unicode="*" horiz-adv-x="901" d="M188 1079l279 21l-231 160l159 157l158 -231l20 276l211 -55l-120 -252l251 121l60 -215l-281 -21l232 -159l-158 -154l-158 231l-20 -278l-211 57l119 250l-252 -121z" />
<glyph unicode="+" horiz-adv-x="1343" d="M143 555l93 346h348l94 356h362l-94 -356h346l-92 -346h-348l-94 -356h-363l94 356h-346z" />
<glyph unicode="," horiz-adv-x="624" d="M-154 -190q233 23 273 194h-160l109 404h407l-92 -349q-53 -203 -173 -298t-347 -103z" />
<glyph unicode="-" horiz-adv-x="862" d="M68 473l94 346h678l-90 -346h-682z" />
<glyph unicode="." horiz-adv-x="624" d="M-41 0l107 403h409l-108 -403h-408z" />
<glyph unicode="/" horiz-adv-x="1105" d="M-299 -264l1409 1915h344l-1411 -1915h-342z" />
<glyph unicode="0" horiz-adv-x="1501" d="M102 559q0 231 97.5 440t284 343.5t419.5 134.5q268 0 425 -165t157 -423q0 -233 -97.5 -441t-285 -342.5t-420.5 -134.5q-264 0 -422 165t-158 423zM510 580q0 -125 56.5 -189.5t150.5 -64.5q156 0 258 173t102 367q0 125 -56 189.5t-153 64.5q-156 0 -257 -172.5 t-101 -367.5z" />
<glyph unicode="1" horiz-adv-x="888" d="M174 0l285 1069l-242 -57l-8 323l459 123h293l-392 -1458h-395z" />
<glyph unicode="2" horiz-adv-x="1296" d="M-68 0l84 311l738 480q166 111 166 215q0 55 -36 85.5t-104 30.5q-145 0 -329 -178l-234 246q256 281 600 280q233 0 370.5 -114.5t137.5 -298.5q0 -141 -83 -258t-296 -246l-354 -225h577l-90 -328h-1147z" />
<glyph unicode="3" horiz-adv-x="1263" d="M-49 250l272 225q123 -160 307 -160q104 0 173 51.5t69 118.5q0 133 -225 133h-139l-9 207l406 297h-543l88 326h1047l-80 -287l-443 -309q295 -80 295 -352q0 -236 -178 -382.5t-461 -146.5q-391 0 -579 279z" />
<glyph unicode="4" horiz-adv-x="1402" d="M14 575l985 883h424l-233 -876h184l-84 -301h-182l-76 -281h-385l74 281h-664zM461 580h342l108 411z" />
<glyph unicode="5" horiz-adv-x="1265" d="M-45 229l252 236q158 -152 346 -152q111 0 181.5 56.5t70.5 138.5q0 70 -55.5 113t-161 43t-203.5 -60l-205 144l230 700h956l-90 -332h-633l-65 -201q84 31 184 31q201 0 323.5 -108.5t122.5 -292.5q0 -246 -185 -409t-482 -163q-174 0 -337 75t-249 181z" />
<glyph unicode="6" horiz-adv-x="1351" d="M100 516q0 203 74 396.5t211 330.5q231 231 569 232q283 0 467 -158l-200 -283q-127 113 -283 113q-168 0 -283 -115q-80 -80 -120 -198q131 115 329 114q176 0 296 -105.5t120 -287.5q0 -240 -183.5 -411t-441.5 -171q-260 0 -405 146q-150 147 -150 397zM475 440 q0 -70 47 -110q51 -53 133 -54q100 0 165 70t65 160q0 74 -48.5 118t-125.5 44q-102 0 -169 -67t-67 -161z" />
<glyph unicode="7" horiz-adv-x="1269" d="M-8 0l872 1110h-653l90 338h1118l-84 -301l-884 -1147h-459z" />
<glyph unicode="8" horiz-adv-x="1372" d="M49 385q0 150 93.5 249t260.5 144q-158 92 -157 273q0 166 155.5 291.5t421.5 125.5q238 0 387.5 -112.5t149.5 -282.5q0 -129 -82 -221t-229 -137q213 -88 213 -297q0 -186 -175.5 -312t-455.5 -126q-244 0 -413 111.5t-169 293.5zM446 432q-2 -70 58.5 -114t148.5 -44 q94 0 159 48.5t65 123.5q2 70 -57.5 113t-149.5 43q-94 0 -159 -48t-65 -122zM600 1010q-2 -66 51.5 -107t134.5 -41q82 0 141.5 47t59.5 117q2 66 -51 107t-136 41t-141.5 -47t-58.5 -117z" />
<glyph unicode="9" horiz-adv-x="1351" d="M10 141l201 281q145 -121 291 -121q166 0 284 119q78 76 117 188q-129 -113 -328 -112q-178 0 -296.5 104.5t-118.5 288.5q0 246 182 417t442 171t406 -146q150 -150 149 -413q0 -193 -73.5 -383.5t-212.5 -329.5q-231 -231 -561 -232q-285 0 -482 168zM555 938 q0 -76 49 -120t129 -44q98 0 165 68.5t67 165.5q0 66 -45 112q-49 51 -134 51q-102 0 -166.5 -69.5t-64.5 -163.5z" />
<glyph unicode=":" horiz-adv-x="634" d="M-37 0l109 403h407l-106 -403h-410zM156 715l106 403h410l-109 -403h-407z" />
<glyph unicode=";" horiz-adv-x="634" d="M-150 -195q233 23 273 195h-160l109 403h407l-92 -348q-53 -203 -173 -298t-347 -103zM156 715l106 403h410l-109 -403h-407z" />
<glyph unicode="&#x3c;" horiz-adv-x="1331" d="M141 545l99 364l1138 410l-104 -381l-735 -229l616 -226l-94 -348z" />
<glyph unicode="=" horiz-adv-x="1320" d="M78 276l94 347h1016l-92 -347h-1018zM227 834l95 346h1015l-92 -346h-1018z" />
<glyph unicode="&#x3e;" horiz-adv-x="1331" d="M41 135l104 381l736 229l-617 226l94 348l920 -410l-98 -364z" />
<glyph unicode="?" horiz-adv-x="1116" d="M139 0l94 352h408l-94 -352h-408zM201 1286q211 182 510 182q211 0 340 -107.5t129 -268.5q0 -182 -130 -304t-391 -163l-61 -154h-250l37 348l18 17q377 31 377 180q0 102 -139 102q-135 0 -279 -110z" />
<glyph unicode="@" horiz-adv-x="1994" d="M96 483q0 266 133 494.5t366.5 365t514.5 136.5q381 0 606.5 -204t225.5 -505q0 -319 -148.5 -485t-353.5 -166q-111 0 -193 46t-123 122q-147 -164 -327 -164q-139 0 -230.5 96t-91.5 258q0 252 151.5 424t354.5 172q178 0 266 -149l43 139l305 -82l-165 -526 q-31 -96 0.5 -151.5t117.5 -55.5q113 0 211.5 144.5t98.5 383.5q0 262 -203 441.5t-545 179.5q-391 0 -659.5 -270.5t-268.5 -643.5q0 -322 215 -521.5t561 -199.5q213 0 424 93l33 -76q-215 -98 -459 -98q-383 0 -621.5 223t-238.5 579zM809 541q0 -68 38 -107t105 -39 q88 0 157 78t69 184q0 63 -41 103.5t-105 40.5q-90 0 -156.5 -77t-66.5 -183z" />
<glyph unicode="A" horiz-adv-x="1601" d="M-154 0l1008 1458h393l226 -1458h-422l-35 258h-559l-174 -258h-437zM659 571h324l-53 416z" />
<glyph unicode="B" horiz-adv-x="1476" d="M-25 0l390 1448h602q276 0 399 -97.5t123 -250.5q0 -137 -86 -234.5t-238 -134.5q219 -80 219 -291q0 -197 -167.5 -318.5t-489.5 -121.5h-752zM453 324h305q102 0 162.5 42t60.5 109q0 115 -178 115h-277zM602 870h270q106 0 163 40t57 108q0 106 -174 106h-250z" />
<glyph unicode="C" horiz-adv-x="1503" d="M106 604q0 217 108 415t318.5 328t477.5 130q217 0 368.5 -97.5t218.5 -269.5l-348 -186q-90 186 -291 186q-178 0 -305 -142.5t-127 -334.5q0 -137 80 -217t209 -80q164 0 309 145l273 -239q-240 -270 -606 -271q-305 0 -495 173t-190 460z" />
<glyph unicode="D" horiz-adv-x="1572" d="M-25 0l390 1448h466q381 0 568 -186q158 -158 157 -424q0 -334 -239 -572q-266 -266 -758 -266h-584zM473 356h133q266 0 414 146q125 125 125 303q0 125 -74 199q-84 88 -283 88h-116z" />
<glyph unicode="E" horiz-adv-x="1382" d="M-25 0l390 1448h1159l-92 -342h-762l-60 -219h690l-83 -316h-691l-63 -229h774l-90 -342h-1172z" />
<glyph unicode="F" horiz-adv-x="1347" d="M-25 0l390 1448h1157l-95 -352h-755l-66 -246h682l-88 -334h-684l-137 -516h-404z" />
<glyph unicode="G" horiz-adv-x="1574" d="M102 610q0 356 263.5 611.5t666.5 255.5q205 0 362.5 -71t237.5 -175l-268 -260q-150 147 -358 147q-215 0 -354.5 -143.5t-139.5 -347.5q0 -147 92 -227.5t234 -80.5q109 0 192 39l57 195h-278l76 293h663l-207 -729q-250 -145 -540 -146q-135 0 -256 38t-221.5 114 t-161 200.5t-60.5 286.5z" />
<glyph unicode="H" horiz-adv-x="1564" d="M-25 0l390 1448h403l-147 -543h509l146 543h403l-389 -1448h-403l149 551h-510l-147 -551h-404z" />
<glyph unicode="I" horiz-adv-x="671" d="M-14 0l389 1448h401l-389 -1448h-401z" />
<glyph unicode="J" horiz-adv-x="1173" d="M-84 229l272 238q102 -139 232 -139q88 0 155 65q57 57 109 246l217 809h399l-235 -885q-78 -295 -215 -430q-162 -158 -442 -158q-154 0 -285 66.5t-207 187.5z" />
<glyph unicode="K" horiz-adv-x="1492" d="M-25 0l390 1448h403l-158 -580l598 580h510l-682 -635l324 -813h-436l-209 559l-250 -229l-86 -330h-404z" />
<glyph unicode="L" horiz-adv-x="1275" d="M-25 0l390 1448h403l-295 -1096h692l-96 -352h-1094z" />
<glyph unicode="M" horiz-adv-x="1789" d="M-25 0l390 1448h405l193 -561l491 561h451l-389 -1448h-404l221 831l-518 -567h-8l-213 563l-221 -827h-398z" />
<glyph unicode="N" horiz-adv-x="1613" d="M-25 0l390 1448h374l373 -805l217 805h400l-390 -1448h-350l-391 834l-223 -834h-400z" />
<glyph unicode="O" d="M109 623q0 164 64.5 318.5t176 272t274 189.5t347.5 72q305 0 497.5 -185.5t192.5 -464.5q0 -164 -65.5 -318.5t-177 -272t-273.5 -189.5t-346 -72q-307 0 -498.5 185.5t-191.5 464.5zM516 653q0 -143 84 -231t234 -88q182 0 299.5 143.5t117.5 317.5q0 143 -84 231 t-231 88q-180 0 -300 -144.5t-120 -316.5z" />
<glyph unicode="P" horiz-adv-x="1388" d="M-25 0l390 1448h473q344 0 495 -154q115 -113 115 -295q0 -266 -197.5 -424.5t-521.5 -158.5h-240l-110 -416h-404zM573 729h152q145 0 228 60.5t83 164.5q0 59 -41 101q-55 55 -172 55h-149z" />
<glyph unicode="Q" d="M109 623q0 164 64.5 318.5t176 272t274 189.5t347.5 72q305 0 497.5 -185.5t192.5 -464.5q0 -332 -238 -581l109 -150l-285 -186l-92 141q-166 -76 -356 -76q-307 0 -498.5 185.5t-191.5 464.5zM514 649q0 -145 84 -234t233 -89q47 0 105 18l-160 215l287 191l125 -195 q63 111 63 236q0 145 -84 234t-231 89q-182 0 -302 -144.5t-120 -320.5z" />
<glyph unicode="R" horiz-adv-x="1488" d="M-25 0l390 1448h544q348 0 500 -152q111 -111 111 -295q0 -186 -108.5 -319t-326.5 -195l224 -487h-443l-192 438h-178l-117 -438h-404zM580 754h229q137 0 217 53t80 147q0 55 -37 97q-49 49 -178 49h-217z" />
<glyph unicode="S" horiz-adv-x="1333" d="M-47 240l258 266q213 -195 446 -195q74 0 119 29t45 78q0 43 -45 74.5t-196 89.5q-190 72 -283.5 160.5t-93.5 238.5q0 215 174 353.5t440 138.5q369 0 594 -216l-248 -276q-184 160 -383 160q-72 0 -114.5 -30t-42.5 -75q0 -41 43 -67.5t198 -89.5q186 -70 281.5 -161 t95.5 -243q0 -223 -173 -361.5t-443 -138.5q-426 1 -672 265z" />
<glyph unicode="T" horiz-adv-x="1333" d="M174 1096l94 352h1268l-92 -352h-434l-295 -1096h-402l295 1096h-434z" />
<glyph unicode="U" horiz-adv-x="1570" d="M123 479q0 106 33 232l198 737h406l-205 -766q-20 -76 -20 -135q0 -100 58 -155.5t167 -55.5q117 0 194 76q78 74 121 239l215 797h406l-230 -856q-76 -285 -225 -432q-186 -186 -534 -187q-279 0 -431.5 133t-152.5 373z" />
<glyph unicode="V" horiz-adv-x="1527" d="M225 1448h439l81 -909l568 909h454l-974 -1458h-375z" />
<glyph unicode="W" horiz-adv-x="2279" d="M242 1448h415l27 -838l502 842h346l57 -842l475 838h437l-875 -1458h-360l-66 823l-508 -823h-356z" />
<glyph unicode="X" horiz-adv-x="1474" d="M-156 0l707 758l-301 690h440l160 -408l358 408h484l-670 -719l317 -729h-442l-172 446l-393 -446h-488z" />
<glyph unicode="Y" horiz-adv-x="1398" d="M188 1448h433l143 -543l436 543h479l-809 -932l-137 -516h-403l149 561z" />
<glyph unicode="Z" horiz-adv-x="1406" d="M-74 0l76 291l922 817h-678l94 340h1231l-80 -291l-922 -817h705l-90 -340h-1258z" />
<glyph unicode="[" horiz-adv-x="966" d="M-53 -268l461 1716h714l-71 -266h-365l-317 -1184h364l-71 -266h-715z" />
<glyph unicode="\" horiz-adv-x="1105" d="M225 1651h318l428 -1915h-318z" />
<glyph unicode="]" horiz-adv-x="966" d="M-139 -268l73 266h363l317 1184h-364l74 266h714l-460 -1716h-717z" />
<glyph unicode="^" horiz-adv-x="1034" d="M184 1020l412 426h264l184 -426h-253l-105 201l-211 -201h-291z" />
<glyph unicode="_" horiz-adv-x="1241" d="M-242 -332l64 242h1249l-63 -242h-1250z" />
<glyph unicode="`" horiz-adv-x="1034" d="M459 1479l370 118l115 -383h-256z" />
<glyph unicode="a" horiz-adv-x="1232" d="M2 281q0 182 134 288.5t358 106.5q141 0 284 -43l4 14q10 47 11 68q0 121 -193 121q-162 0 -303 -56l-55 285q195 68 440 68q248 0 374 -92.5t126 -262.5q0 -76 -23 -162l-166 -616h-387l31 121q-154 -143 -322 -144q-139 0 -226 83.5t-87 220.5zM385 324q0 -49 30.5 -77 t80.5 -28q76 0 141 58.5t90 144.5l10 37q-76 25 -147 24q-94 0 -149.5 -42.5t-55.5 -116.5z" />
<glyph unicode="b" horiz-adv-x="1388" d="M-43 0l403 1509h394l-138 -508q147 143 318.5 143.5t284 -124.5t112.5 -336q0 -297 -178 -503t-422 -206q-225 0 -340 179l-41 -154h-393zM467 500q0 -88 54 -143.5t141 -55.5q113 0 193.5 94t80.5 228q0 88 -53.5 142t-137.5 54q-113 0 -195.5 -95t-82.5 -224z" />
<glyph unicode="c" horiz-adv-x="1163" d="M57 463q0 283 197 481.5t477 198.5q184 0 306 -85t169 -222l-309 -160q-59 141 -192 141q-109 0 -189 -101.5t-80 -232.5q0 -84 49.5 -135t122.5 -51q106 0 211 104l240 -208q-188 -219 -477 -220q-229 0 -377 133.5t-148 356.5z" />
<glyph unicode="d" horiz-adv-x="1388" d="M57 434q0 299 179.5 505t422.5 206q223 0 340 -178l146 542h391l-403 -1509h-392l33 119q-150 -143 -319 -144q-172 0 -285 124t-113 335zM455 496q0 -88 53 -142.5t137 -54.5q113 0 195 95t82 224q0 88 -53.5 143.5t-139.5 55.5q-113 0 -193.5 -94t-80.5 -227z" />
<glyph unicode="e" horiz-adv-x="1243" d="M57 469q0 264 188.5 470t485.5 206q233 0 354 -134t121 -331q0 -111 -43 -229h-743q14 -184 209 -185q117 0 237 90l183 -215q-193 -168 -457 -168q-246 0 -390.5 134.5t-144.5 361.5zM446 651h400q10 31 10 60q0 63 -39 103t-115 40q-82 0 -151.5 -52.5t-104.5 -150.5z " />
<glyph unicode="f" horiz-adv-x="864" d="M27 0l217 803h-131l84 315h131l6 25q51 201 167.5 291t311.5 90q139 0 250 -37l-72 -275q-72 25 -133 25q-113 0 -141 -107l-6 -18h254l-84 -309h-244l-217 -803h-393z" />
<glyph unicode="g" horiz-adv-x="1380" d="M-96 -182l174 245q190 -115 397 -114q150 0 232 82q59 59 94 180l6 25q-154 -137 -340 -138q-162 0 -280.5 104.5t-118.5 282.5q0 266 171 462t416 196q225 0 340 -182l41 157h394l-238 -889q-74 -272 -199 -401q-166 -164 -501 -164q-158 0 -318.5 43t-269.5 111z M459 555q0 -80 50 -126t132 -46q113 0 188.5 82t75.5 188q0 80 -50 129t-136 49q-109 0 -184.5 -83.5t-75.5 -192.5z" />
<glyph unicode="h" horiz-adv-x="1306" d="M-43 0l403 1509h394l-140 -518q145 154 322 154q150 0 237 -90t87 -246q0 -76 -33 -201l-162 -608h-393l157 586q12 43 13 90q0 119 -125 119q-152 0 -209 -203l-158 -592h-393z" />
<glyph unicode="i" horiz-adv-x="622" d="M-35 0l299 1118h393l-299 -1118h-393zM285 1221l80 288h409l-80 -288h-409z" />
<glyph unicode="j" horiz-adv-x="626" d="M-276 -324l67 263q25 -6 49 -7q61 0 96 36t58 124l274 1026h394l-289 -1075q-57 -213 -172 -297t-312 -84q-87 0 -165 14zM287 1221l80 288h409l-80 -288h-409z" />
<glyph unicode="k" horiz-adv-x="1236" d="M-43 0l405 1509h394l-199 -737l373 346h475l-516 -459l219 -659h-420l-119 397l-147 -131l-72 -266h-393z" />
<glyph unicode="l" horiz-adv-x="622" d="M-35 0l406 1509h393l-406 -1509h-393z" />
<glyph unicode="m" horiz-adv-x="2000" d="M-43 0l299 1118h393l-33 -123q145 150 312 150q223 0 293 -195q172 195 405 195q158 0 244 -89t86 -245q0 -78 -33 -203l-162 -608h-391l154 586q14 51 14 90q0 119 -119 119q-150 0 -205 -203l-159 -592h-393l157 586q14 51 15 90q0 119 -121 119q-147 0 -205 -203 l-158 -592h-393z" />
<glyph unicode="n" horiz-adv-x="1302" d="M-43 0l299 1118h393l-35 -127q145 154 322 154q150 0 237 -90t87 -246q0 -76 -33 -201l-162 -608h-393l157 586q12 43 13 90q0 119 -125 119q-152 0 -209 -203l-158 -592h-393z" />
<glyph unicode="o" horiz-adv-x="1331" d="M61 494q0 260 191.5 455.5t466.5 195.5q254 0 402.5 -147.5t148.5 -372.5q0 -260 -191.5 -456t-468.5 -196q-250 0 -399.5 147t-149.5 374zM438 508q0 -94 54.5 -151.5t140.5 -57.5q113 0 186.5 96.5t73.5 214.5q0 92 -53.5 149.5t-141.5 57.5q-111 0 -185.5 -96 t-74.5 -213z" />
<glyph unicode="p" horiz-adv-x="1388" d="M-133 -332l389 1450h393l-33 -117q147 143 318.5 143.5t284 -124.5t112.5 -336q0 -297 -178 -503t-422 -206q-225 0 -340 179l-131 -486h-393zM467 500q0 -88 54 -143.5t141 -55.5q113 0 193.5 94t80.5 228q0 88 -53.5 142t-137.5 54q-113 0 -195.5 -95t-82.5 -224z" />
<glyph unicode="q" horiz-adv-x="1388" d="M57 434q0 299 179.5 505t422.5 206q223 0 340 -178l41 151h394l-400 -1491h-393l133 492q-150 -143 -319 -144q-172 0 -285 124t-113 335zM455 496q0 -88 53 -142.5t137 -54.5q113 0 195 95t82 224q0 88 -53.5 143.5t-139.5 55.5q-113 0 -193.5 -94t-80.5 -227z" />
<glyph unicode="r" horiz-adv-x="888" d="M-43 0l299 1118h393l-59 -225q166 247 391 247q14 0 29 -1l-113 -414h-33q-322 0 -424 -387l-90 -338h-393z" />
<glyph unicode="s" horiz-adv-x="1056" d="M-76 168l195 229q78 -70 180 -110.5t190 -40.5q100 0 101 69q0 29 -33 49.5t-121 55.5q-156 61 -234.5 133t-78.5 195q0 170 131 283.5t356 113.5q143 0 272.5 -46t211.5 -112l-189 -235q-160 119 -315 118q-98 0 -98 -63q0 -27 33.5 -48.5t121.5 -58.5 q152 -59 233 -129.5t81 -195.5q0 -172 -127 -287t-359 -115q-158 0 -304.5 51.5t-246.5 143.5z" />
<glyph unicode="t" horiz-adv-x="888" d="M102 242q0 57 23 147l111 414h-134l86 315h134l75 285h394l-78 -285h262l-86 -315h-260l-94 -352q-10 -45 -11 -68q0 -70 88 -70q61 0 150 31l-88 -328q-111 -39 -232 -39q-168 0 -254 70t-86 195z" />
<glyph unicode="u" horiz-adv-x="1306" d="M53 311q0 82 31 199l164 608h393l-158 -583q-14 -51 -14 -93q0 -117 127 -116q156 0 207 202l160 590h393l-299 -1118h-393l32 129q-143 -154 -317 -154q-152 0 -239 90t-87 246z" />
<glyph unicode="v" horiz-adv-x="1284" d="M168 1118h403l41 -651l387 651h418l-747 -1126h-357z" />
<glyph unicode="w" horiz-adv-x="1775" d="M174 1118h379l-4 -561l323 565h324l23 -569l301 565h383l-648 -1126h-335l-27 581l-340 -581h-340z" />
<glyph unicode="x" horiz-adv-x="1216" d="M-129 0l537 582l-232 536h408l96 -270l225 270h445l-523 -565l236 -553h-408l-100 283l-240 -283h-444z" />
<glyph unicode="y" horiz-adv-x="1286" d="M-102 -256l174 287q78 -55 155 -56q55 0 99 41l-146 1102h400l45 -672l376 672h414l-694 -1112q-119 -188 -240 -266t-286 -78q-174 0 -297 82z" />
<glyph unicode="z" horiz-adv-x="1153" d="M-82 0l70 258l657 549h-491l82 311h1005l-67 -258l-662 -547h516l-82 -313h-1028z" />
<glyph unicode="{" horiz-adv-x="1026" d="M55 463l70 262h55q162 0 221.5 65.5t85.5 249.5q16 113 51 189t106 135t190.5 87t293.5 28l27 -232q-190 -14 -257 -87t-83 -224q-23 -180 -94.5 -263t-251.5 -104q178 -35 178 -196q0 -55 -29 -148q-31 -88 -30 -141q0 -63 39 -99t149 -63l-110 -213 q-242 27 -341.5 101.5t-99.5 199.5q0 66 33 170q33 106 33 158q0 63 -37 94t-143 31h-56z" />
<glyph unicode="|" horiz-adv-x="735" d="M252 -264v1915h301v-1915h-301z" />
<glyph unicode="}" horiz-adv-x="1026" d="M-109 -59q188 14 254 84.5t86 226.5q23 180 94.5 263t252.5 103q-178 35 -179 197q0 55 29 148q31 88 31 139q0 66 -39 101.5t-150 62.5l111 213q242 -27 341 -103t99 -198q0 -68 -33 -170q-33 -109 -32 -158q0 -63 36.5 -94t145.5 -31h53l-69 -262h-56 q-162 0 -222 -65.5t-85 -250.5q-16 -113 -51 -189.5t-105.5 -135t-190.5 -86t-294 -27.5z" />
<glyph unicode="~" horiz-adv-x="1044" d="M84 532q59 141 146 219t186 78q86 0 174 -63q72 -51 106 -51q72 0 138 119l184 -84q-59 -143 -146.5 -221t-187.5 -78q-86 0 -174 63q-72 51 -107 51q-70 0 -137 -119z" />
<glyph unicode="&#xa1;" horiz-adv-x="665" d="M-41 0l49 176l336 801h205l-94 -801l-47 -176h-449zM272 1096l97 352h407l-94 -352h-410z" />
<glyph unicode="&#xa2;" horiz-adv-x="1208" d="M113 659q0 281 192.5 472.5t480.5 191.5h43l54 137h227l-72 -184q178 -80 242 -262l-283 -148q-29 78 -88 117l-202 -526q113 8 213 110l225 -198q-182 -213 -473 -213q-47 0 -72 4l-65 -172h-230l88 221q-135 61 -207.5 176.5t-72.5 273.5zM455 676q0 -111 69 -166 l201 512q-119 -10 -194.5 -114.5t-75.5 -231.5z" />
<glyph unicode="&#xa3;" horiz-adv-x="1304" d="M-45 0l63 240l170 57l68 252h-156l76 278h156l30 119q61 240 191 367q158 160 426 160q145 0 263 -59.5t181 -156.5l-270 -243q-80 104 -190 104q-78 0 -134 -55q-47 -43 -73 -143l-27 -93h432l-76 -278h-430l-61 -230h590l-86 -319h-1143z" />
<glyph unicode="&#xa4;" horiz-adv-x="1398" d="M39 461l57 215h140q12 72 22 104h-133l57 215h135q92 219 270.5 350.5t424.5 131.5q369 0 508 -303l-293 -197q-43 80 -100.5 116.5t-145.5 36.5q-160 0 -254 -139h348l-55 -209h-373q-16 -53 -24 -108h368l-55 -209h-320q33 -147 197 -148q139 0 260 121l230 -245 q-209 -221 -506 -222q-236 0 -392.5 133.5t-179.5 356.5h-186z" />
<glyph unicode="&#xa5;" horiz-adv-x="1484" d="M63 193l68 247h379l29 105h-381l65 248h289l-252 655h424l152 -475l389 475h473l-602 -655h286l-67 -248h-379l-29 -105h379l-65 -247h-381l-52 -193h-395l51 193h-381z" />
<glyph unicode="&#xa7;" horiz-adv-x="1292" d="M47 170l205 217q68 -59 160 -101t176 -42q109 0 108 61q0 31 -40 50.5t-162 56.5q-174 51 -269.5 116.5t-95.5 171.5q0 209 260 271q-68 72 -67 170q0 141 131 238.5t350 97.5q164 0 306 -52.5t224 -142.5l-203 -217q-63 59 -158 100t-177 41q-109 0 -109 -59 q0 -31 41 -51.5t160 -55.5q178 -53 272 -118.5t94 -171.5q0 -205 -258 -271q66 -72 66 -166q0 -145 -130 -241.5t-351 -96.5q-164 0 -305.5 52.5t-227.5 142.5zM440 772q0 -33 41 -57.5t140 -59.5q154 -51 215 -51q45 0 75.5 20.5t30.5 53.5q0 35 -41 59.5t-139 57.5 q-158 53 -213 53q-47 0 -78 -20.5t-31 -55.5z" />
<glyph unicode="&#xa8;" horiz-adv-x="1034" d="M293 1214l82 295h342l-80 -295h-344zM748 1214l79 295h344l-81 -295h-342z" />
<glyph unicode="&#xa9;" horiz-adv-x="1716" d="M158 719v6q0 307 219 529.5t531.5 222.5t529.5 -220.5t217 -527.5v-4q0 -309 -219 -531.5t-531.5 -222.5t-529.5 220.5t-217 527.5zM244 719q0 -276 190.5 -471t468.5 -195q283 0 474.5 196.5t191.5 475.5v4q0 276 -190.5 471t-471.5 195t-472 -197t-191 -473v-6z M498 731v4q0 170 119.5 291t302.5 121q219 0 335 -164l-168 -133q-72 94 -172 94q-80 0 -133 -60.5t-53 -146.5v-4q0 -88 53.5 -147.5t132.5 -59.5q98 0 179 95l168 -121q-129 -176 -347 -176q-178 0 -297.5 116.5t-119.5 290.5z" />
<glyph unicode="&#xaa;" horiz-adv-x="815" d="M92 559l45 158h596l-45 -158h-596zM205 989q0 100 74.5 159.5t195.5 59.5q78 0 156 -26l4 12q6 14 6 33q0 68 -104 67q-88 0 -164 -28l-31 155q104 39 238.5 39t204 -51t69.5 -145q0 -43 -12 -88l-90 -340h-215l18 65q-84 -78 -178 -78q-78 0 -125 45t-47 121zM416 1014 q0 -25 17.5 -41.5t43.5 -16.5q43 0 79 32t46 77l6 22q-47 14 -82 15q-49 0 -79.5 -24.5t-30.5 -63.5z" />
<glyph unicode="&#xab;" horiz-adv-x="1302" d="M61 522l27 101l447 438l217 -199l-344 -332l170 -342l-293 -131zM596 539l4 16l498 489l217 -198l-352 -344l157 -320l-291 -131z" />
<glyph unicode="&#xad;" horiz-adv-x="862" d="M68 473l94 346h678l-90 -346h-682z" />
<glyph unicode="&#xae;" horiz-adv-x="1716" d="M158 719v6q0 307 219 529.5t531.5 222.5t529.5 -220.5t217 -527.5v-4q0 -309 -219 -531.5t-531.5 -222.5t-529.5 220.5t-217 527.5zM244 719q0 -276 190.5 -471t468.5 -195q283 0 474.5 196.5t191.5 475.5v4q0 276 -190.5 471t-471.5 195t-472 -197t-191 -473v-6z M575 348v797h373q176 0 266 -90q70 -70 70 -183v-4q0 -176 -166 -243l191 -277h-254l-162 242h-4h-90v-242h-224zM799 762h143q119 0 119 92v4q0 96 -119 96h-143v-192z" />
<glyph unicode="&#xaf;" horiz-adv-x="1034" d="M307 1225l64 239h778l-66 -239h-776z" />
<glyph unicode="&#xb0;" horiz-adv-x="933" d="M186 1051q0 172 120 293.5t292 121.5q160 0 256 -96t96 -240q0 -170 -120.5 -292.5t-290.5 -122.5q-160 0 -256.5 95.5t-96.5 240.5zM406 1061q0 -66 38.5 -109t104.5 -43q80 0 132 65.5t52 145.5q0 68 -40 110t-103 42q-84 0 -134 -64.5t-50 -146.5z" />
<glyph unicode="&#xb1;" horiz-adv-x="1290" d="M-45 246l266 231q139 -166 332 -166q100 0 160.5 46t60.5 108q0 115 -180 115h-150l82 301h140q104 0 165.5 38.5t61.5 106.5q0 49 -42 81t-103 32q-150 0 -320 -142l-205 252q238 227 574 228q229 0 364 -110t135 -265q0 -287 -335 -381q215 -78 215 -291 q0 -201 -177.5 -330t-449.5 -129q-408 1 -594 275z" />
<glyph unicode="&#xb2;" horiz-adv-x="1296" d="M-68 0l84 311l738 480q166 111 166 215q0 55 -36 85.5t-104 30.5q-145 0 -329 -178l-234 246q256 281 600 280q233 0 370.5 -114.5t137.5 -298.5q0 -141 -83 -258t-296 -246l-354 -225h577l-90 -328h-1147z" />
<glyph unicode="&#xb3;" horiz-adv-x="1263" d="M-49 250l272 225q123 -160 307 -160q104 0 173 51.5t69 118.5q0 133 -225 133h-139l-9 207l406 297h-543l88 326h1047l-80 -287l-443 -309q295 -80 295 -352q0 -236 -178 -382.5t-461 -146.5q-391 0 -579 279z" />
<glyph unicode="&#xb4;" horiz-adv-x="1034" d="M414 1214l321 383l357 -118l-375 -265h-303z" />
<glyph unicode="&#xb5;" d="M109 623q0 164 64.5 318.5t176 272t274 189.5t347.5 72q305 0 497.5 -185.5t192.5 -464.5q0 -332 -238 -581l109 -150l-285 -186l-92 141q-166 -76 -356 -76q-307 0 -498.5 185.5t-191.5 464.5zM514 649q0 -145 84 -234t233 -89q47 0 105 18l-160 215l287 191l125 -195 q63 111 63 236q0 145 -84 234t-231 89q-182 0 -302 -144.5t-120 -320.5z" />
<glyph unicode="&#xb6;" horiz-adv-x="1232" d="M143 870q0 260 189.5 419t539.5 159h478l-389 -1448h-402l115 438q-531 26 -531 432z" />
<glyph unicode="&#xb7;" horiz-adv-x="624" d="M72 444l108 404h410l-111 -404h-407z" />
<glyph unicode="&#xb8;" horiz-adv-x="1034" d="M43 -225l258 256h268l-237 -389z" />
<glyph unicode="&#xb9;" horiz-adv-x="888" d="M174 0l285 1069l-242 -57l-8 323l459 123h293l-392 -1458h-395z" />
<glyph unicode="&#xba;" horiz-adv-x="831" d="M98 559l45 158h586l-43 -158h-588zM211 1106q0 141 105.5 247.5t258.5 106.5q135 0 218.5 -82t83.5 -207q0 -141 -105.5 -247.5t-257.5 -106.5q-137 0 -220 82t-83 207zM420 1110q0 -49 28.5 -81t77.5 -32q61 0 101.5 51.5t40.5 116.5q0 51 -29 83t-76 32q-63 0 -103 -51 t-40 -119z" />
<glyph unicode="&#xbb;" horiz-adv-x="1302" d="M-12 272l354 344l-160 322l293 129l232 -483l-5 -17l-497 -491zM553 256l342 334l-168 340l293 131l223 -463l-29 -102l-444 -439z" />
<glyph unicode="&#xbc;" horiz-adv-x="3422" d="M2033 575l985 883h424l-233 -876h184l-84 -301h-182l-76 -281h-385l74 281h-664zM2480 580h342l108 411zM600 -203l1436 1772h328l-1438 -1772h-326zM174 0l285 1069l-242 -57l-8 323l459 123h293l-392 -1458h-395z" />
<glyph unicode="&#xbd;" horiz-adv-x="3315" d="M1951 0l84 311l738 480q166 111 166 215q0 55 -36 85.5t-104 30.5q-145 0 -329 -178l-234 246q256 281 600 280q233 0 370.5 -114.5t137.5 -298.5q0 -141 -83 -258t-296 -246l-354 -225h577l-90 -328h-1147zM600 -203l1436 1772h328l-1438 -1772h-326zM174 0l285 1069 l-242 -57l-8 323l459 123h293l-392 -1458h-395z" />
<glyph unicode="&#xbe;" horiz-adv-x="3796" d="M2408 575l985 883h424l-233 -876h184l-84 -301h-182l-76 -281h-385l74 281h-664zM2855 580h342l108 411zM975 -203l1436 1772h328l-1438 -1772h-326zM-49 250l272 225q123 -160 307 -160q104 0 173 51.5t69 118.5q0 133 -225 133h-139l-9 207l406 297h-543l88 326h1047 l-80 -287l-443 -309q295 -80 295 -352q0 -236 -178 -382.5t-461 -146.5q-391 0 -579 279z" />
<glyph unicode="&#xbf;" horiz-adv-x="1116" d="M27 356q0 180 130 303t392 164l61 154h248l-35 -348l-20 -17q-375 -31 -375 -180q0 -102 136 -102t280 110l162 -278q-207 -182 -510 -182q-213 0 -341 107t-128 269zM565 1096l94 352h410l-94 -352h-410z" />
<glyph unicode="&#xc0;" horiz-adv-x="1601" d="M-154 0l1008 1458h393l226 -1458h-422l-35 258h-559l-174 -258h-437zM659 571h324l-53 416zM717 1810l370 117l115 -383h-254z" />
<glyph unicode="&#xc1;" horiz-adv-x="1601" d="M-154 0l1008 1458h393l226 -1458h-422l-35 258h-559l-174 -258h-437zM659 571h324l-53 416zM879 1544l321 383l359 -117l-375 -266h-305z" />
<glyph unicode="&#xc2;" horiz-adv-x="1601" d="M-154 0l1008 1458h393l226 -1458h-422l-35 258h-559l-174 -258h-437zM618 1544l357 342h317l174 -342h-233l-141 127l-209 -127h-265zM659 571h324l-53 416z" />
<glyph unicode="&#xc3;" horiz-adv-x="1601" d="M-154 0l1008 1458h393l226 -1458h-422l-35 258h-559l-174 -258h-437zM623 1622q57 143 145 220t188 77q84 0 172 -61q72 -51 107 -52q70 0 137 117l184 -82q-61 -145 -148 -222t-185 -77q-84 0 -174 64q-74 51 -107 51q-70 0 -135 -119zM659 571h324l-53 416z" />
<glyph unicode="&#xc4;" horiz-adv-x="1601" d="M-154 0l1008 1458h393l226 -1458h-422l-35 258h-559l-174 -258h-437zM659 571h324l-53 416zM659 1544l82 297h342l-79 -297h-345zM1112 1544l82 297h342l-80 -297h-344z" />
<glyph unicode="&#xc5;" horiz-adv-x="1601" d="M-154 0q63 90 166 237.5t318 460t356 519.5l145 206q-39 57 -38 125q0 125 89 213t214 88q113 0 182.5 -66.5t69.5 -164.5q0 -123 -93 -207l218 -1411h-422l-35 258h-559l-174 -258h-437zM659 571h324l-53 416zM942 1554q0 -49 28.5 -79.5t76.5 -30.5q66 0 108.5 51 t42.5 121q0 47 -28.5 77.5t-79.5 30.5q-63 0 -105.5 -52t-42.5 -118z" />
<glyph unicode="&#xc6;" horiz-adv-x="2232" d="M-158 0l1139 1448h1391l-91 -342h-720l-60 -219h647l-84 -316h-647l-63 -229h731l-90 -342h-1125l72 258h-463l-200 -258h-437zM719 571h307l148 553h-27z" />
<glyph unicode="&#xc7;" horiz-adv-x="1503" d="M106 604q0 162 63.5 316.5t176.5 277.5t285 200t368 77q221 0 377 -98.5t221 -268.5l-346 -186q-90 186 -293 186q-178 0 -305 -142.5t-127 -332.5q0 -135 80 -215t209 -80q164 0 309 145l273 -239q-238 -264 -590 -271l-205 -331l-287 133l234 231q-205 61 -324 218 t-119 380z" />
<glyph unicode="&#xc8;" horiz-adv-x="1382" d="M-25 0l390 1448h1159l-92 -342h-762l-60 -219h690l-83 -316h-691l-63 -229h774l-90 -342h-1172zM655 1810l371 117l115 -383h-256z" />
<glyph unicode="&#xc9;" horiz-adv-x="1382" d="M-25 0l390 1448h1159l-92 -342h-762l-60 -219h690l-83 -316h-691l-63 -229h774l-90 -342h-1172zM766 1544l319 383l359 -117l-375 -266h-303z" />
<glyph unicode="&#xca;" horiz-adv-x="1382" d="M-25 0l390 1448h1159l-92 -342h-762l-60 -219h690l-83 -316h-691l-63 -229h774l-90 -342h-1172zM539 1544l354 342h319l174 -342h-233l-141 127l-209 -127h-264z" />
<glyph unicode="&#xcb;" horiz-adv-x="1382" d="M-25 0l390 1448h1159l-92 -342h-762l-60 -219h690l-83 -316h-691l-63 -229h774l-90 -342h-1172zM565 1544l80 297h344l-82 -297h-342zM1018 1544l80 297h344l-80 -297h-344z" />
<glyph unicode="&#xcc;" horiz-adv-x="671" d="M-14 0l389 1448h401l-389 -1448h-401zM266 1810l371 117l115 -383h-256z" />
<glyph unicode="&#xcd;" horiz-adv-x="671" d="M-14 0l389 1448h401l-389 -1448h-401zM412 1544l321 383l357 -117l-375 -266h-303z" />
<glyph unicode="&#xce;" horiz-adv-x="671" d="M-14 0l389 1448h401l-389 -1448h-401zM158 1544l354 342h319l175 -342h-234l-141 127l-209 -127h-264z" />
<glyph unicode="&#xcf;" horiz-adv-x="671" d="M-14 0l389 1448h401l-389 -1448h-401zM201 1544l80 297h344l-80 -297h-344zM653 1544l82 297h342l-80 -297h-344z" />
<glyph unicode="&#xd0;" horiz-adv-x="1654" d="M47 571l88 316h172l152 561h456q381 0 568 -186q158 -158 157 -424q0 -334 -237 -572q-268 -266 -760 -266h-573l151 571h-174zM553 344h135q274 0 424 150q131 135 131 313q0 127 -74 205q-96 90 -292 90h-119l-60 -215h238l-86 -316h-236z" />
<glyph unicode="&#xd1;" horiz-adv-x="1613" d="M-25 0l390 1448h374l373 -805l217 805h400l-390 -1448h-350l-391 834l-223 -834h-400zM618 1622q57 143 145.5 220t188.5 77q84 0 172 -61q72 -51 107 -52q70 0 137 117l184 -82q-61 -145 -148 -222t-185 -77q-86 0 -175 64q-74 51 -106 51q-70 0 -135 -119z" />
<glyph unicode="&#xd2;" d="M109 623q0 164 64.5 318.5t176 272t274 189.5t347.5 72q305 0 497.5 -185.5t192.5 -464.5q0 -164 -65.5 -318.5t-177 -272t-273.5 -189.5t-346 -72q-307 0 -498.5 185.5t-191.5 464.5zM516 653q0 -143 84 -231t234 -88q182 0 299.5 143.5t117.5 317.5q0 143 -84 231 t-231 88q-180 0 -300 -144.5t-120 -316.5zM711 1810l370 117l115 -383h-254z" />
<glyph unicode="&#xd3;" d="M109 623q0 164 64.5 318.5t176 272t274 189.5t347.5 72q305 0 497.5 -185.5t192.5 -464.5q0 -164 -65.5 -318.5t-177 -272t-273.5 -189.5t-346 -72q-307 0 -498.5 185.5t-191.5 464.5zM516 653q0 -143 84 -231t234 -88q182 0 299.5 143.5t117.5 317.5q0 143 -84 231 t-231 88q-180 0 -300 -144.5t-120 -316.5zM815 1544l320 383l358 -117l-375 -266h-303z" />
<glyph unicode="&#xd4;" d="M109 623q0 164 64.5 318.5t176 272t274 189.5t347.5 72q305 0 497.5 -185.5t192.5 -464.5q0 -164 -65.5 -318.5t-177 -272t-273.5 -189.5t-346 -72q-307 0 -498.5 185.5t-191.5 464.5zM516 653q0 -143 84 -231t234 -88q182 0 299.5 143.5t117.5 317.5q0 143 -84 231 t-231 88q-180 0 -300 -144.5t-120 -316.5zM612 1544l357 342h317l174 -342h-233l-142 127l-208 -127h-265z" />
<glyph unicode="&#xd5;" d="M109 623q0 164 64.5 318.5t176 272t274 189.5t347.5 72q305 0 497.5 -185.5t192.5 -464.5q0 -164 -65.5 -318.5t-177 -272t-273.5 -189.5t-346 -72q-307 0 -498.5 185.5t-191.5 464.5zM516 653q0 -143 84 -231t234 -88q182 0 299.5 143.5t117.5 317.5q0 143 -84 231 t-231 88q-180 0 -300 -144.5t-120 -316.5zM623 1622q57 143 145 220t188 77q84 0 172 -61q72 -51 107 -52q70 0 137 117l184 -82q-61 -145 -148 -222t-185 -77q-84 0 -174 64q-74 51 -107 51q-70 0 -135 -119z" />
<glyph unicode="&#xd6;" d="M109 623q0 164 64.5 318.5t176 272t274 189.5t347.5 72q305 0 497.5 -185.5t192.5 -464.5q0 -164 -65.5 -318.5t-177 -272t-273.5 -189.5t-346 -72q-307 0 -498.5 185.5t-191.5 464.5zM516 653q0 -143 84 -231t234 -88q182 0 299.5 143.5t117.5 317.5q0 143 -84 231 t-231 88q-180 0 -300 -144.5t-120 -316.5zM657 1544l82 297h342l-80 -297h-344zM1110 1544l82 297h342l-80 -297h-344z" />
<glyph unicode="&#xd8;" d="M-74 -10l291 264q-109 162 -108 369q0 164 64.5 318.5t176 272t274 189.5t347.5 72q264 0 452 -146l142 129h303l-307 -278q100 -154 100 -355q0 -164 -65.5 -318.5t-177 -272t-273.5 -189.5t-346 -72q-260 0 -439 138l-131 -121h-303zM506 651q0 -72 22 -127l602 547 q-76 55 -194 55q-184 0 -307 -148.5t-123 -326.5zM653 365q82 -43 181 -43q184 0 307 148t123 327q0 55 -17 108z" />
<glyph unicode="&#xd9;" horiz-adv-x="1570" d="M123 479q0 106 33 232l198 737h406l-205 -766q-20 -76 -20 -135q0 -100 58 -155.5t167 -55.5q117 0 194 76q78 74 121 239l215 797h406l-230 -856q-76 -285 -225 -432q-186 -186 -534 -187q-279 0 -431.5 133t-152.5 373zM707 1806l370 117l115 -383h-254z" />
<glyph unicode="&#xda;" horiz-adv-x="1570" d="M123 479q0 106 33 232l198 737h406l-205 -766q-20 -76 -20 -135q0 -100 58 -155.5t167 -55.5q117 0 194 76q78 74 121 239l215 797h406l-230 -856q-76 -285 -225 -432q-186 -186 -534 -187q-279 0 -431.5 133t-152.5 373zM840 1540l321 383l357 -117l-373 -266h-305z" />
<glyph unicode="&#xdb;" horiz-adv-x="1570" d="M123 479q0 106 33 232l198 737h406l-205 -766q-20 -76 -20 -135q0 -100 58 -155.5t167 -55.5q117 0 194 76q78 74 121 239l215 797h406l-230 -856q-76 -285 -225 -432q-186 -186 -534 -187q-279 0 -431.5 133t-152.5 373zM608 1544l357 342h317l174 -342h-233l-142 127 l-209 -127h-264z" />
<glyph unicode="&#xdc;" horiz-adv-x="1570" d="M123 479q0 106 33 232l198 737h406l-205 -766q-20 -76 -20 -135q0 -100 58 -155.5t167 -55.5q117 0 194 76q78 74 121 239l215 797h406l-230 -856q-76 -285 -225 -432q-186 -186 -534 -187q-279 0 -431.5 133t-152.5 373zM649 1544l82 297h342l-80 -297h-344zM1102 1544 l82 297h342l-80 -297h-344z" />
<glyph unicode="&#xdd;" horiz-adv-x="1398" d="M188 1448h433l143 -543l436 543h479l-809 -932l-137 -516h-403l149 561zM739 1544l320 383l358 -117l-375 -266h-303z" />
<glyph unicode="&#xde;" horiz-adv-x="1409" d="M-25 0l390 1448h403l-55 -207h78q340 0 491 -151q113 -113 113 -291q0 -266 -195.5 -423t-517.5 -157h-246l-57 -219h-404zM524 539h150q145 0 228 60t83 163q0 61 -41 102q-55 53 -172 54h-147z" />
<glyph unicode="&#xdf;" horiz-adv-x="1320" d="M-39 0l266 991q66 248 195 381q156 154 418 154q219 0 351 -111.5t132 -294.5q0 -150 -82 -257t-242 -154q219 -80 220 -277q0 -205 -187.5 -332t-546.5 -106l76 285q145 0 215 54t70 136q0 131 -195 147l56 209q252 51 251 238q0 63 -38.5 101t-94.5 38 q-150 0 -211 -227l-260 -975h-393z" />
<glyph unicode="&#xe0;" horiz-adv-x="1232" d="M2 281q0 182 134 288.5t358 106.5q141 0 284 -43l4 14q10 47 11 68q0 121 -193 121q-162 0 -303 -56l-55 285q195 68 440 68q248 0 374 -92.5t126 -262.5q0 -76 -23 -162l-166 -616h-387l31 121q-154 -143 -322 -144q-139 0 -226 83.5t-87 220.5zM385 324q0 -49 30.5 -77 t80.5 -28q76 0 141 58.5t90 144.5l10 37q-76 25 -147 24q-94 0 -149.5 -42.5t-55.5 -116.5zM461 1479l370 118l115 -383h-256z" />
<glyph unicode="&#xe1;" horiz-adv-x="1232" d="M2 281q0 182 134 288.5t358 106.5q141 0 284 -43l4 14q10 47 11 68q0 121 -193 121q-162 0 -303 -56l-55 285q195 68 440 68q248 0 374 -92.5t126 -262.5q0 -76 -23 -162l-166 -616h-387l31 121q-154 -143 -322 -144q-139 0 -226 83.5t-87 220.5zM385 324q0 -49 30.5 -77 t80.5 -28q76 0 141 58.5t90 144.5l10 37q-76 25 -147 24q-94 0 -149.5 -42.5t-55.5 -116.5zM578 1214l319 383l358 -118l-374 -265h-303z" />
<glyph unicode="&#xe2;" horiz-adv-x="1232" d="M2 281q0 182 134 288.5t358 106.5q141 0 284 -43l4 14q10 47 11 68q0 121 -193 121q-162 0 -303 -56l-55 285q195 68 440 68q248 0 374 -92.5t126 -262.5q0 -76 -23 -162l-166 -616h-387l31 121q-154 -143 -322 -144q-139 0 -226 83.5t-87 220.5zM365 1214l354 342h319 l174 -342h-233l-141 125l-209 -125h-264zM385 324q0 -49 30.5 -77t80.5 -28q76 0 141 58.5t90 144.5l10 37q-76 25 -147 24q-94 0 -149.5 -42.5t-55.5 -116.5z" />
<glyph unicode="&#xe3;" horiz-adv-x="1232" d="M2 281q0 182 134 288.5t358 106.5q141 0 284 -43l4 14q10 47 11 68q0 121 -193 121q-162 0 -303 -56l-55 285q195 68 440 68q248 0 374 -92.5t126 -262.5q0 -76 -23 -162l-166 -616h-387l31 121q-154 -143 -322 -144q-139 0 -226 83.5t-87 220.5zM348 1290 q57 143 145.5 221t186.5 78q86 0 174 -63q70 -51 107 -51q70 0 135 118l184 -84q-59 -143 -146 -220t-186 -77q-86 0 -174 62q-76 51 -108 51q-68 0 -134 -117zM385 324q0 -49 30.5 -77t80.5 -28q76 0 141 58.5t90 144.5l10 37q-76 25 -147 24q-94 0 -149.5 -42.5 t-55.5 -116.5z" />
<glyph unicode="&#xe4;" horiz-adv-x="1232" d="M2 281q0 182 134 288.5t358 106.5q141 0 284 -43l4 14q10 47 11 68q0 121 -193 121q-162 0 -303 -56l-55 285q195 68 440 68q248 0 374 -92.5t126 -262.5q0 -76 -23 -162l-166 -616h-387l31 121q-154 -143 -322 -144q-139 0 -226 83.5t-87 220.5zM385 324q0 -49 30.5 -77 t80.5 -28q76 0 141 58.5t90 144.5l10 37q-76 25 -147 24q-94 0 -149.5 -42.5t-55.5 -116.5zM393 1217l80 294h344l-80 -294h-344zM846 1217l80 294h344l-80 -294h-344z" />
<glyph unicode="&#xe5;" horiz-adv-x="1232" d="M2 281q0 182 134 288.5t358 106.5q141 0 284 -43l4 14q10 47 11 68q0 121 -193 121q-162 0 -303 -56l-55 285q195 68 440 68q248 0 374 -92.5t126 -262.5q0 -76 -23 -162l-166 -616h-387l31 121q-154 -143 -322 -144q-139 0 -226 83.5t-87 220.5zM385 324q0 -49 30.5 -77 t80.5 -28q76 0 141 58.5t90 144.5l10 37q-76 25 -147 24q-94 0 -149.5 -42.5t-55.5 -116.5zM584 1456q0 125 89 212t214 87q113 0 180.5 -65.5t67.5 -165.5q0 -121 -88.5 -210t-215.5 -89q-113 0 -180 66.5t-67 164.5zM731 1460q0 -47 28.5 -77.5t78.5 -30.5q66 0 108.5 51 t42.5 119q0 47 -30.5 78.5t-77.5 31.5q-66 0 -108 -53t-42 -119z" />
<glyph unicode="&#xe6;" horiz-adv-x="1925" d="M2 281q0 182 134 288.5t358 106.5q141 0 284 -43l4 14q10 47 11 68q0 121 -193 121q-162 0 -303 -56l-55 285q195 68 440 68q258 0 365 -132q174 143 383 144q223 0 340.5 -134t117.5 -331q0 -111 -43 -229h-743q14 -184 209 -185q117 0 237 90l183 -215 q-188 -168 -463 -168q-285 0 -426 203q-201 -199 -482 -199q-166 0 -262 82.5t-96 221.5zM385 324q0 -49 35 -78t96 -29q137 0 256 113q-14 55 -18 121q-78 33 -164 32q-94 0 -149.5 -42.5t-55.5 -116.5zM1128 651h400q10 31 10 60q0 63 -39 103t-113 40q-84 0 -152.5 -52.5 t-105.5 -150.5z" />
<glyph unicode="&#xe7;" horiz-adv-x="1163" d="M57 463q0 283 197 481.5t477 198.5q184 0 306 -85t169 -222l-309 -160q-59 141 -192 141q-109 0 -189 -101.5t-80 -232.5q0 -82 48 -134t120 -52q113 0 215 104l240 -208q-182 -209 -451 -220l-205 -331l-286 133l239 237q-139 55 -219 172t-80 279z" />
<glyph unicode="&#xe8;" horiz-adv-x="1243" d="M57 469q0 264 188.5 470t485.5 206q233 0 354 -134t121 -331q0 -111 -43 -229h-743q14 -184 209 -185q117 0 237 90l183 -215q-193 -168 -457 -168q-246 0 -390.5 134.5t-144.5 361.5zM446 651h400q10 31 10 60q0 63 -39 103t-115 40q-82 0 -151.5 -52.5t-104.5 -150.5z M453 1479l370 118l115 -383h-256z" />
<glyph unicode="&#xe9;" horiz-adv-x="1243" d="M57 469q0 264 188.5 470t485.5 206q233 0 354 -134t121 -331q0 -111 -43 -229h-743q14 -184 209 -185q117 0 237 90l183 -215q-193 -168 -457 -168q-246 0 -390.5 134.5t-144.5 361.5zM446 651h400q10 31 10 60q0 63 -39 103t-115 40q-82 0 -151.5 -52.5t-104.5 -150.5z M567 1214l320 383l358 -118l-375 -265h-303z" />
<glyph unicode="&#xea;" horiz-adv-x="1243" d="M57 469q0 264 188.5 470t485.5 206q233 0 354 -134t121 -331q0 -111 -43 -229h-743q14 -184 209 -185q117 0 237 90l183 -215q-193 -168 -457 -168q-246 0 -390.5 134.5t-144.5 361.5zM348 1214l354 342h320l174 -342h-233l-142 125l-209 -125h-264zM446 651h400 q10 31 10 60q0 63 -39 103t-115 40q-82 0 -151.5 -52.5t-104.5 -150.5z" />
<glyph unicode="&#xeb;" horiz-adv-x="1243" d="M57 469q0 264 188.5 470t485.5 206q233 0 354 -134t121 -331q0 -111 -43 -229h-743q14 -184 209 -185q117 0 237 90l183 -215q-193 -168 -457 -168q-246 0 -390.5 134.5t-144.5 361.5zM383 1214l80 295h344l-80 -295h-344zM446 651h400q10 31 10 60q0 63 -39 103t-115 40 q-82 0 -151.5 -52.5t-104.5 -150.5zM836 1214l79 295h345l-80 -295h-344z" />
<glyph unicode="&#xec;" horiz-adv-x="622" d="M-35 0l299 1118h393l-299 -1118h-393zM180 1479l371 118l113 -383h-254z" />
<glyph unicode="&#xed;" horiz-adv-x="622" d="M-35 0l299 1118h393l-299 -1118h-393zM285 1214l321 383l359 -118l-375 -265h-305z" />
<glyph unicode="&#xee;" horiz-adv-x="622" d="M-35 0l299 1118h393l-299 -1118h-393zM49 1214l357 342h319l172 -342h-233l-140 125l-209 -125h-266z" />
<glyph unicode="&#xef;" horiz-adv-x="622" d="M-35 0l299 1118h393l-299 -1118h-393zM84 1214l82 295h342l-80 -295h-344zM539 1214l79 295h345l-82 -295h-342z" />
<glyph unicode="&#xf0;" horiz-adv-x="1327" d="M53 457q0 221 160 378.5t401 157.5q158 0 271 -86l-113 248l-272 -94l-84 184l274 86l-80 178h375l31 -69l250 84l86 -185l-258 -79l82 -185q90 -203 90 -411q0 -299 -182.5 -494t-487.5 -195q-242 0 -392.5 135.5t-150.5 346.5zM432 487q0 -82 55.5 -134t135.5 -52 q109 0 178 72.5t69 171.5q0 80 -53 132t-137 52q-104 0 -176 -71t-72 -171z" />
<glyph unicode="&#xf1;" horiz-adv-x="1302" d="M-43 0l299 1118h393l-35 -127q145 154 322 154q150 0 237 -90t87 -246q0 -76 -33 -201l-162 -608h-393l157 586q12 43 13 90q0 119 -125 119q-152 0 -209 -203l-158 -592h-393zM371 1290q57 143 145 221t186 78q86 0 175 -63q72 -51 106 -51q70 0 135 118l185 -84 q-59 -143 -146.5 -220t-185.5 -77q-86 0 -174 62q-76 51 -109 51q-68 0 -133 -117z" />
<glyph unicode="&#xf2;" horiz-adv-x="1331" d="M61 494q0 260 191.5 455.5t466.5 195.5q254 0 402.5 -147.5t148.5 -372.5q0 -260 -191.5 -456t-468.5 -196q-250 0 -399.5 147t-149.5 374zM438 508q0 -94 54.5 -151.5t140.5 -57.5q113 0 186.5 96.5t73.5 214.5q0 92 -53.5 149.5t-141.5 57.5q-111 0 -185.5 -96 t-74.5 -213zM471 1479l371 118l114 -383h-256z" />
<glyph unicode="&#xf3;" horiz-adv-x="1331" d="M61 494q0 260 191.5 455.5t466.5 195.5q254 0 402.5 -147.5t148.5 -372.5q0 -260 -191.5 -456t-468.5 -196q-250 0 -399.5 147t-149.5 374zM438 508q0 -94 54.5 -151.5t140.5 -57.5q113 0 186.5 96.5t73.5 214.5q0 92 -53.5 149.5t-141.5 57.5q-111 0 -185.5 -96 t-74.5 -213zM582 1214l319 383l359 -118l-375 -265h-303z" />
<glyph unicode="&#xf4;" horiz-adv-x="1331" d="M61 494q0 260 191.5 455.5t466.5 195.5q254 0 402.5 -147.5t148.5 -372.5q0 -260 -191.5 -456t-468.5 -196q-250 0 -399.5 147t-149.5 374zM356 1214l355 342h319l174 -342h-233l-142 125l-208 -125h-265zM438 508q0 -94 54.5 -151.5t140.5 -57.5q113 0 186.5 96.5 t73.5 214.5q0 92 -53.5 149.5t-141.5 57.5q-111 0 -185.5 -96t-74.5 -213z" />
<glyph unicode="&#xf5;" horiz-adv-x="1331" d="M61 494q0 260 191.5 455.5t466.5 195.5q254 0 402.5 -147.5t148.5 -372.5q0 -260 -191.5 -456t-468.5 -196q-250 0 -399.5 147t-149.5 374zM352 1290q57 143 145.5 221t186.5 78q86 0 174 -63q70 -51 107 -51q70 0 135 118l184 -84q-59 -143 -146 -220t-186 -77 q-86 0 -174 62q-76 51 -108 51q-68 0 -133 -117zM438 508q0 -94 54.5 -151.5t140.5 -57.5q113 0 186.5 96.5t73.5 214.5q0 92 -53.5 149.5t-141.5 57.5q-111 0 -185.5 -96t-74.5 -213z" />
<glyph unicode="&#xf6;" horiz-adv-x="1331" d="M61 494q0 260 191.5 455.5t466.5 195.5q254 0 402.5 -147.5t148.5 -372.5q0 -260 -191.5 -456t-468.5 -196q-250 0 -399.5 147t-149.5 374zM387 1214l80 295h344l-80 -295h-344zM438 508q0 -94 54.5 -151.5t140.5 -57.5q113 0 186.5 96.5t73.5 214.5q0 92 -53.5 149.5 t-141.5 57.5q-111 0 -185.5 -96t-74.5 -213zM840 1214l80 295h344l-80 -295h-344z" />
<glyph unicode="&#xf8;" horiz-adv-x="1331" d="M-117 -10l254 225q-76 121 -76 285q0 256 191.5 450.5t466.5 194.5q215 0 356 -109l105 92h274l-256 -229q72 -119 72 -281q0 -254 -192.5 -448.5t-467.5 -194.5q-207 0 -350 105l-100 -90h-277zM422 506q0 -16 4 -53l391 350q-45 29 -115 28q-119 0 -199.5 -100 t-80.5 -225zM520 313q49 -29 109 -28q121 0 200.5 101t79.5 226q0 18 -4 47z" />
<glyph unicode="&#xf9;" horiz-adv-x="1306" d="M53 311q0 82 31 199l164 608h393l-158 -583q-14 -51 -14 -93q0 -117 127 -116q156 0 207 202l160 590h393l-299 -1118h-393l32 129q-143 -154 -317 -154q-152 0 -239 90t-87 246zM528 1479l369 118l115 -383h-254z" />
<glyph unicode="&#xfa;" horiz-adv-x="1306" d="M53 311q0 82 31 199l164 608h393l-158 -583q-14 -51 -14 -93q0 -117 127 -116q156 0 207 202l160 590h393l-299 -1118h-393l32 129q-143 -154 -317 -154q-152 0 -239 90t-87 246zM614 1214l322 383l356 -118l-374 -265h-304z" />
<glyph unicode="&#xfb;" horiz-adv-x="1306" d="M53 311q0 82 31 199l164 608h393l-158 -583q-14 -51 -14 -93q0 -117 127 -116q156 0 207 202l160 590h393l-299 -1118h-393l32 129q-143 -154 -317 -154q-152 0 -239 90t-87 246zM393 1214l357 342h317l174 -342h-233l-142 125l-209 -125h-264z" />
<glyph unicode="&#xfc;" horiz-adv-x="1306" d="M53 311q0 82 31 199l164 608h393l-158 -583q-14 -51 -14 -93q0 -117 127 -116q156 0 207 202l160 590h393l-299 -1118h-393l32 129q-143 -154 -317 -154q-152 0 -239 90t-87 246zM430 1214l80 295h344l-80 -295h-344zM883 1214l82 295h342l-80 -295h-344z" />
<glyph unicode="&#xfd;" horiz-adv-x="1286" d="M-102 -256l174 287q78 -55 155 -56q55 0 99 41l-146 1102h400l45 -672l376 672h414l-694 -1112q-119 -188 -240 -266t-286 -78q-174 0 -297 82zM618 1214l322 383l356 -118l-374 -265h-304z" />
<glyph unicode="&#xfe;" horiz-adv-x="1388" d="M-133 -332l493 1841h394l-138 -508q147 143 318.5 143.5t284 -124.5t112.5 -336q0 -297 -178 -503t-422 -206q-225 0 -340 179l-131 -486h-393zM467 500q0 -88 54 -143.5t141 -55.5q113 0 193.5 94t80.5 228q0 88 -53.5 142t-137.5 54q-113 0 -195.5 -95t-82.5 -224z" />
<glyph unicode="&#xff;" horiz-adv-x="1286" d="M-102 -256l174 287q78 -55 155 -56q55 0 99 41l-146 1102h400l45 -672l376 672h414l-694 -1112q-119 -188 -240 -266t-286 -78q-174 0 -297 82zM403 1214l80 295h344l-79 -295h-345zM856 1214l82 295h342l-80 -295h-344z" />
<glyph unicode="&#x152;" horiz-adv-x="2232" d="M106 610q0 334 238 572q266 266 758 266h1270l-91 -342h-720l-60 -219h647l-84 -316h-647l-63 -229h731l-90 -342h-1166q-381 0 -571 190q-152 154 -152 420zM520 643q0 -127 72 -199q84 -88 280 -88h89l198 736h-102q-266 0 -414 -146q-123 -125 -123 -303z" />
<glyph unicode="&#x153;" horiz-adv-x="2072" d="M61 500q0 258 190.5 451.5t467.5 193.5q272 0 405 -187q180 186 441 187q229 0 349 -134t120 -331q0 -111 -43 -229h-744q14 -184 211 -185q115 0 236 90l182 -215q-188 -168 -463 -168q-254 0 -385 177q-174 -174 -416 -175q-252 0 -401.5 148t-149.5 377zM438 510 q0 -92 53.5 -150.5t139.5 -58.5q115 0 188.5 93t73.5 214q0 92 -53.5 150.5t-141.5 58.5q-111 0 -185.5 -94t-74.5 -213zM1274 651h401q8 25 8 60q0 63 -38.5 103t-112.5 40q-82 0 -152.5 -52.5t-105.5 -150.5z" />
<glyph unicode="&#x178;" horiz-adv-x="1398" d="M188 1448h433l143 -543l436 543h479l-809 -932l-137 -516h-403l149 561zM530 1544l80 297h344l-82 -297h-342zM983 1544l80 297h344l-82 -297h-342z" />
<glyph unicode="&#x2c6;" horiz-adv-x="1034" d="M268 1214l357 342h319l172 -342h-233l-140 125l-208 -125h-267z" />
<glyph unicode="&#x2dc;" horiz-adv-x="1034" d="M274 1290q59 143 146.5 221t187.5 78q84 0 174 -63q70 -51 105 -51q72 0 137 118l184 -84q-59 -143 -146 -220t-188 -77q-84 0 -174 62q-74 51 -106 51q-68 0 -135 -117z" />
<glyph unicode="&#x2000;" horiz-adv-x="962" />
<glyph unicode="&#x2001;" horiz-adv-x="1927" />
<glyph unicode="&#x2002;" horiz-adv-x="962" />
<glyph unicode="&#x2003;" horiz-adv-x="1927" />
<glyph unicode="&#x2004;" horiz-adv-x="641" />
<glyph unicode="&#x2005;" horiz-adv-x="481" />
<glyph unicode="&#x2006;" horiz-adv-x="319" />
<glyph unicode="&#x2007;" horiz-adv-x="319" />
<glyph unicode="&#x2008;" horiz-adv-x="239" />
<glyph unicode="&#x2009;" horiz-adv-x="385" />
<glyph unicode="&#x200a;" horiz-adv-x="106" />
<glyph unicode="&#x2010;" horiz-adv-x="862" d="M68 473l94 346h678l-90 -346h-682z" />
<glyph unicode="&#x2011;" horiz-adv-x="862" d="M68 473l94 346h678l-90 -346h-682z" />
<glyph unicode="&#x2012;" horiz-adv-x="862" d="M68 473l94 346h678l-90 -346h-682z" />
<glyph unicode="&#x2013;" horiz-adv-x="1087" d="M68 477l92 338h905l-90 -338h-907z" />
<glyph unicode="&#x2014;" horiz-adv-x="1851" d="M68 477l92 338h1671l-92 -338h-1671z" />
<glyph unicode="&#x2018;" horiz-adv-x="624" d="M131 711l92 350q53 203 172 297t348 104l17 -153q-233 -23 -273 -195h160l-108 -403h-408z" />
<glyph unicode="&#x2019;" horiz-adv-x="624" d="M121 850q233 23 270 194h-160l111 404h408l-95 -350q-53 -201 -171.5 -296t-346.5 -104z" />
<glyph unicode="&#x201a;" horiz-adv-x="624" d="M-154 -195q231 23 271 195h-158l107 403h409l-92 -348q-55 -203 -174 -298t-346 -103z" />
<glyph unicode="&#x201c;" horiz-adv-x="1167" d="M133 709l92 350q53 203 169 297t345 104l17 -153q-227 -23 -267 -195h154l-106 -403h-404zM682 709l94 350q53 203 169 297t343 104l17 -153q-227 -23 -265 -195h154l-109 -403h-403z" />
<glyph unicode="&#x201d;" horiz-adv-x="1167" d="M123 850q227 23 264 194h-154l109 404h403l-94 -350q-53 -203 -169.5 -297t-342.5 -103zM672 850q227 23 266 194h-154l107 404h403l-92 -350q-53 -203 -171 -297t-343 -103z" />
<glyph unicode="&#x201e;" horiz-adv-x="1167" d="M-154 -195q227 23 267 195h-154l107 403h403l-92 -348q-53 -203 -171 -298t-343 -103zM397 -195q227 23 265 195h-154l108 403h404l-94 -348q-53 -203 -170 -298t-342 -103z" />
<glyph unicode="&#x2022;" horiz-adv-x="1036" d="M231 649q0 168 110 302t277 134q129 0 203 -75.5t74 -200.5q0 -168 -110.5 -302t-276.5 -134q-129 0 -203 76.5t-74 199.5z" />
<glyph unicode="&#x2026;" horiz-adv-x="1773" d="M-41 0l104 397h404l-107 -397h-401zM539 0l104 397h404l-107 -397h-401zM1116 0l107 397h403l-108 -397h-402z" />
<glyph unicode="&#x202f;" horiz-adv-x="385" />
<glyph unicode="&#x2039;" horiz-adv-x="737" d="M57 504l27 102l453 443l215 -199l-349 -338l164 -330l-293 -131z" />
<glyph unicode="&#x203a;" horiz-adv-x="737" d="M-18 250l348 340l-164 330l291 129l219 -453l-29 -100l-448 -445z" />
<glyph unicode="&#x2044;" horiz-adv-x="1128" d="M-289 -203l1436 1772h328l-1438 -1772h-326z" />
<glyph unicode="&#x205f;" horiz-adv-x="481" />
<glyph unicode="&#x2122;" horiz-adv-x="1435" d="M209 1292l41 156h559l-41 -156h-190l-129 -481h-181l131 481h-190zM739 811l168 637h180l87 -246l217 246h196l-170 -637h-176l98 373l-229 -254h-6l-92 254l-101 -373h-172z" />
<glyph unicode="&#xe000;" horiz-adv-x="1120" d="M0 1120h1120v-1120h-1120v1120z" />
<glyph unicode="&#xfb01;" horiz-adv-x="1486" d="M27 0l217 803h-131l84 315h131l6 25q51 201 167.5 291t311.5 90q139 0 250 -37l-72 -275q-72 25 -133 25q-113 0 -141 -107l-6 -18h254l-84 -309h-244l-217 -803h-393zM829 0l299 1118h394l-299 -1118h-394zM1151 1221l78 288h409l-77 -288h-410z" />
<glyph unicode="&#xfb02;" horiz-adv-x="1486" d="M27 0l217 803h-131l84 315h131l6 25q51 201 167.5 291t311.5 90q139 0 250 -37l-72 -275q-72 25 -133 25q-113 0 -141 -107l-6 -18h254l-84 -309h-244l-217 -803h-393zM829 0l406 1509h393l-405 -1509h-394z" />
<glyph unicode="&#xfb03;" horiz-adv-x="2351" d="M1694 0l299 1118h393l-299 -1118h-393zM2014 1221l80 288h409l-80 -288h-409zM891 0l217 803h-131l84 315h131l6 25q51 201 167.5 291t311.5 90q139 0 250 -37l-72 -275q-72 25 -133 25q-113 0 -141 -107l-6 -18h254l-84 -309h-244l-217 -803h-393zM27 0l217 803h-131 l84 315h131l6 25q51 201 167.5 291t311.5 90q139 0 250 -37l-72 -275q-72 25 -133 25q-113 0 -141 -107l-6 -18h254l-84 -309h-244l-217 -803h-393z" />
<glyph unicode="&#xfb04;" horiz-adv-x="2351" d="M1694 0l406 1509h393l-406 -1509h-393zM891 0l217 803h-131l84 315h131l6 25q51 201 167.5 291t311.5 90q139 0 250 -37l-72 -275q-72 25 -133 25q-113 0 -141 -107l-6 -18h254l-84 -309h-244l-217 -803h-393zM27 0l217 803h-131l84 315h131l6 25q51 201 167.5 291 t311.5 90q139 0 250 -37l-72 -275q-72 25 -133 25q-113 0 -141 -107l-6 -18h254l-84 -309h-244l-217 -803h-393z" />
</font>
</defs>
</svg>
