<?xml version="1.0" standalone="no"?>
<!DOCTYPE svg PUBLIC "-//W3C//DTD SVG 1.1//EN" "http://www.w3.org/Graphics/SVG/1.1/DTD/svg11.dtd" >
<svg xmlns="http://www.w3.org/2000/svg">
<metadata>
This is a custom SVG webfont generated by Font Squirrel.
Copyright   : HTF Gotham Copr 2002 The Hoefler Type Foundry Inc Info wwwtypographycom
</metadata>
<defs>
<font id="GothamHTFBookItalic" horiz-adv-x="1810" >
<font-face units-per-em="2048" ascent="1638" descent="-410" />
<missing-glyph horiz-adv-x="645" />
<glyph unicode=" "  horiz-adv-x="645" />
<glyph unicode="&#x09;" horiz-adv-x="645" />
<glyph unicode="&#xa0;" horiz-adv-x="645" />
<glyph unicode="!" horiz-adv-x="581" d="M43 0l59 225h199l-59 -225h-199zM209 426l207 956l33 123h194l-33 -123l-307 -956h-94z" />
<glyph unicode="&#x22;" horiz-adv-x="950" d="M215 920l197 585h196l-2 -10l-299 -575h-92zM639 920l195 585h198l-2 -10l-299 -575h-92z" />
<glyph unicode="#" horiz-adv-x="1466" d="M61 381l37 147h252l160 457h-262l39 148h274l129 372h154l-131 -372h409l129 372h154l-131 -372h237l-38 -148h-250l-160 -457h264l-39 -147h-276l-133 -381h-152l133 381h-411l-132 -381h-151l133 381h-238zM504 528h405l162 457h-409z" />
<glyph unicode="$" horiz-adv-x="1339" d="M-4 266l125 107q147 -174 387 -211l145 540q-199 78 -288 161t-89 220q0 180 151 301t376 121q12 0 36.5 -1t34.5 -1l37 127h136l-39 -147q207 -45 360 -193l-119 -114q-123 123 -293 159l-141 -512q190 -68 277.5 -158t87.5 -227q0 -190 -158 -314t-406 -124h-28 l-60 -211h-137l66 223q-291 47 -461 254zM451 1102q0 -80 57 -133.5t192 -104.5l134 488q-162 16 -272.5 -58.5t-110.5 -191.5zM629 152q166 -6 271.5 69.5t105.5 200.5q0 78 -53.5 133t-182.5 107z" />
<glyph unicode="%" horiz-adv-x="1798" d="M137 0l1460 1505h170l-1460 -1505h-170zM197 1059q0 182 118.5 322.5t290.5 140.5q135 0 220 -90.5t85 -223.5q0 -182 -119.5 -323.5t-291.5 -141.5q-135 0 -219 91.5t-84 224.5zM330 1069q0 -94 47 -150.5t133 -56.5q109 0 188.5 105.5t79.5 230.5q0 94 -48 150.5 t-132 56.5q-111 0 -189.5 -105.5t-78.5 -230.5zM993 299q0 180 121 322.5t293 142.5q133 0 218 -90t85 -225q0 -182 -121 -322.5t-293 -140.5q-133 0 -218 89t-85 224zM1126 307q0 -92 48.5 -148.5t132.5 -56.5q111 0 190.5 105.5t79.5 230.5q0 94 -49 150.5t-133 56.5 q-109 0 -189 -105.5t-80 -232.5z" />
<glyph unicode="&#x26;" horiz-adv-x="1486" d="M61 362q0 172 126 301.5t374 198.5q-94 160 -94 281q0 162 120 275.5t298 113.5q166 0 267 -91t101 -235q0 -281 -465 -415l271 -375q119 135 231 325l115 -71q-133 -221 -262 -363l182 -256l-127 -82l-168 236q-123 -117 -248 -171t-276 -54q-195 0 -320 102t-125 280z M229 377q0 -117 80 -184.5t215 -67.5q217 0 424 188l-311 441q-205 -53 -306.5 -152.5t-101.5 -224.5zM627 1143q0 -111 88 -244q379 104 379 299q0 86 -58.5 139.5t-158.5 53.5q-104 0 -177 -73t-73 -175z" />
<glyph unicode="'" horiz-adv-x="526" d="M215 920l197 585h196l-2 -10l-299 -575h-92z" />
<glyph unicode="(" horiz-adv-x="931" d="M188 465q0 336 216.5 621.5t635.5 455.5l60 -123q-375 -164 -558.5 -416.5t-183.5 -533.5q0 -203 81 -360.5t229 -309.5l-101 -102q-379 330 -379 768z" />
<glyph unicode=")" horiz-adv-x="931" d="M-131 -174q375 164 556 415t181 535q0 203 -81 359.5t-226 310.5l100 100q379 -330 379 -766q0 -338 -216 -624.5t-636 -454.5z" />
<glyph unicode="*" horiz-adv-x="923" d="M279 1151l274 47l-213 176l84 82l174 -209l47 264l111 -28l-94 -252l256 92l32 -113l-272 -45l213 -176l-84 -82l-174 209l-47 -266l-111 27l92 256l-256 -93z" />
<glyph unicode="+" horiz-adv-x="1380" d="M199 680l41 154h444l119 444h160l-117 -444h444l-41 -154h-444l-121 -442h-160l119 442h-444z" />
<glyph unicode="," horiz-adv-x="546" d="M-96 -186q176 45 200 186h-77l61 225h197l-54 -192q-39 -137 -109.5 -204t-201.5 -89z" />
<glyph unicode="-" horiz-adv-x="880" d="M141 559l45 174h600l-45 -174h-600z" />
<glyph unicode="." horiz-adv-x="546" d="M27 0l61 225h197l-62 -225h-196z" />
<glyph unicode="/" horiz-adv-x="1091" d="M-268 -274l1519 1990h168l-1519 -1990h-168z" />
<glyph unicode="0" horiz-adv-x="1536" d="M166 555q0 178 58.5 353t158.5 313.5t248.5 224.5t316.5 86q248 0 387.5 -162t139.5 -420q0 -178 -57.5 -353t-159 -313.5t-250 -224.5t-316.5 -86q-248 0 -387 161t-139 421zM342 555q0 -190 94 -308t266 -118q160 0 300.5 123t218 312.5t77.5 385.5q0 188 -95 307 t-267 119q-160 0 -298 -123t-217 -311t-79 -387z" />
<glyph unicode="1" horiz-adv-x="776" d="M203 0l354 1327l-305 -88l-4 147l403 130h127l-405 -1516h-170z" />
<glyph unicode="2" horiz-adv-x="1277" d="M-47 0l35 133l862 653q131 100 191.5 181.5t60.5 175.5q0 102 -77 165.5t-210 63.5q-211 0 -414 -207l-110 109q238 254 530 254q203 0 330 -104.5t127 -270.5q0 -129 -78 -237.5t-246 -233.5l-694 -526h805l-41 -156h-1071z" />
<glyph unicode="3" horiz-adv-x="1300" d="M6 266l133 86q127 -223 404 -223q178 0 295.5 94t117.5 240q0 127 -103 191.5t-286 64.5h-67l-23 96l608 537h-741l43 153h981l-35 -125l-612 -534q180 -16 296 -111.5t116 -259.5q0 -215 -175.5 -358.5t-425.5 -143.5q-190 0 -323 78t-203 215z" />
<glyph unicode="4" horiz-adv-x="1394" d="M53 483l1116 1033h164l-272 -1016h233l-39 -144h-233l-94 -356h-166l96 356h-782zM276 500h621l207 766z" />
<glyph unicode="5" horiz-adv-x="1296" d="M18 244l134 96q154 -213 401 -213q190 0 313 109.5t123 261.5q0 133 -92 209.5t-246 76.5q-156 0 -307 -82l-96 78l235 725h842l-45 -157h-686l-160 -474q121 59 258 60q215 0 345 -116t130 -308q0 -221 -175 -379t-451 -158q-176 0 -309.5 75t-213.5 196z" />
<glyph unicode="6" horiz-adv-x="1378" d="M166 528q0 236 81 442t218 345q217 217 498 217q274 0 446 -195l-113 -116q-143 156 -346 155q-205 0 -362 -159q-90 -90 -153.5 -222.5t-80.5 -267.5q70 94 182.5 156.5t251.5 62.5q215 0 345.5 -124t130.5 -308q0 -219 -168 -380t-416 -161q-233 0 -367 140 q-147 147 -147 415zM342 438q0 -137 88 -221q92 -94 254 -94q174 0 290 111.5t116 267.5q0 121 -87.5 210t-244.5 89q-182 0 -299 -109t-117 -254z" />
<glyph unicode="7" horiz-adv-x="1259" d="M131 0l991 1350h-819l43 155h1022l-37 -127l-1001 -1378h-199z" />
<glyph unicode="8" horiz-adv-x="1390" d="M82 381q0 172 122 279.5t316 142.5q-96 39 -156.5 121t-60.5 190q0 172 153.5 293t391.5 121q223 0 365.5 -110.5t142.5 -280.5q0 -147 -104.5 -251t-268.5 -138q106 -39 181 -127.5t75 -204.5q0 -186 -170 -311t-432 -125q-242 0 -398.5 114.5t-156.5 286.5zM254 397 q-2 -121 106.5 -196.5t286.5 -75.5q186 0 302 83t118 216q0 113 -108.5 193.5t-282.5 80.5q-190 0 -306 -88t-116 -213zM471 1100q0 -113 94 -186.5t244 -73.5q174 0 276.5 83t102.5 197.5t-95.5 187t-248.5 72.5q-164 0 -268.5 -80.5t-104.5 -199.5z" />
<glyph unicode="9" horiz-adv-x="1378" d="M59 180l113 117q158 -170 359.5 -170t363.5 162q90 88 152.5 217t76.5 262q-66 -94 -178 -160.5t-258 -66.5q-215 0 -345 125t-130 315q2 225 171 387t419 162q225 0 364 -137q150 -152 150 -428q0 -229 -82 -433t-219 -344q-223 -217 -494 -217q-275 0 -463 209z M389 993q-2 -127 86 -216t252 -89q176 0 293 113.5t117 265.5q0 133 -86 219q-96 96 -252 96q-178 0 -294 -114.5t-116 -274.5z" />
<glyph unicode=":" horiz-adv-x="563" d="M35 0l59 225h199l-62 -225h-196zM270 887l64 225h196l-61 -225h-199z" />
<glyph unicode=";" horiz-adv-x="563" d="M-88 -186q174 45 201 186h-78l59 225h199l-51 -192q-39 -137 -111 -204t-203 -89zM270 887l64 225h196l-61 -225h-199z" />
<glyph unicode="&#x3c;" horiz-adv-x="1376" d="M164 686l39 141l1145 502l-48 -178l-938 -406l721 -405l-43 -156z" />
<glyph unicode="=" horiz-adv-x="1376" d="M160 426l43 160h987l-43 -160h-987zM295 930l43 157h987l-41 -157h-989z" />
<glyph unicode="&#x3e;" horiz-adv-x="1376" d="M98 184l47 178l936 406l-719 406l44 155l876 -502l-39 -141z" />
<glyph unicode="?" horiz-adv-x="1153" d="M215 1309q215 215 506 215q201 0 322.5 -108.5t121.5 -270.5q0 -201 -154.5 -324t-408.5 -159l-86 -236h-110l61 348l12 10q236 18 373 108.5t137 237.5q0 113 -80 176.5t-207 63.5q-215 0 -391 -172zM252 0l59 225h199l-61 -225h-197z" />
<glyph unicode="@" horiz-adv-x="2107" d="M135 500q0 272 141.5 509.5t384 381t529.5 143.5q389 0 618.5 -216t229.5 -540q0 -293 -142.5 -458.5t-318.5 -165.5q-113 0 -181.5 53t-88.5 147q-170 -207 -385 -207q-145 0 -242.5 97.5t-97.5 263.5q0 236 162.5 405.5t365.5 169.5q229 0 315 -211l58 191l141 -37 l-164 -524q-37 -115 2 -188.5t140 -73.5q127 0 242.5 143t115.5 395q0 291 -210 486.5t-560 195.5q-262 0 -488.5 -133t-356.5 -355t-130 -472q0 -344 226.5 -556t594.5 -212q236 0 443 96l32 -68q-225 -102 -475 -102q-406 0 -653.5 231.5t-247.5 610.5zM743 520 q0 -111 61.5 -174t160.5 -63q152 0 278.5 127t126.5 288q0 113 -68.5 182.5t-183.5 69.5q-154 0 -264.5 -127t-110.5 -303z" />
<glyph unicode="A" horiz-adv-x="1636" d="M-86 0l1092 1516h163l281 -1516h-174l-70 397h-821l-285 -397h-186zM492 551h686l-136 772z" />
<glyph unicode="B" horiz-adv-x="1540" d="M66 0l403 1505h563q219 0 343 -94t124 -256q0 -156 -104.5 -259t-272.5 -136q266 -82 267 -314q0 -197 -170 -321.5t-461 -124.5h-692zM272 154h504q205 0 323 79.5t118 221.5q0 111 -94.5 170t-252.5 59h-454zM457 834h428q201 0 320.5 81.5t119.5 217.5 q0 106 -80 162.5t-227 56.5h-424z" />
<glyph unicode="C" horiz-adv-x="1579" d="M182 596q0 240 121 455t331 348t451 133q201 0 345.5 -87t222.5 -237l-146 -90q-76 127 -177 191.5t-259 64.5q-289 0 -500 -234.5t-211 -537.5q0 -215 131.5 -343t339.5 -128q256 0 467 205l115 -113q-252 -252 -590 -252q-272 0 -456.5 170t-184.5 455z" />
<glyph unicode="D" horiz-adv-x="1660" d="M66 0l403 1505h362q383 0 588 -200q164 -162 164 -433q0 -346 -237 -585q-285 -287 -773 -287h-507zM276 158h320q385 0 621 235q190 190 190 469q0 211 -127 334q-154 152 -459 152h-223z" />
<glyph unicode="E" horiz-adv-x="1402" d="M66 0l403 1505h1077l-43 -155h-907l-137 -514h811l-45 -154h-807l-144 -526h920l-41 -156h-1087z" />
<glyph unicode="F" horiz-adv-x="1413" d="M66 0l403 1505h1081l-41 -157h-913l-145 -537h819l-45 -156h-813l-179 -655h-167z" />
<glyph unicode="G" horiz-adv-x="1685" d="M184 612q0 233 120 443.5t335 343.5t471 133q385 0 567 -277l-129 -100q-76 104 -180 162.5t-274 58.5q-201 0 -371 -109.5t-265.5 -283.5t-95.5 -365q0 -227 138.5 -358t361.5 -131q219 0 389 104l119 418h-455l41 154h623l-193 -676q-252 -158 -535.5 -158t-475 173 t-191.5 468z" />
<glyph unicode="H" horiz-adv-x="1624" d="M66 0l403 1505h170l-178 -669h858l178 669h172l-405 -1505h-172l184 678h-858l-185 -678h-167z" />
<glyph unicode="I" horiz-adv-x="624" d="M80 0l403 1505h170l-403 -1505h-170z" />
<glyph unicode="J" horiz-adv-x="1177" d="M-31 299l135 80q96 -244 316 -244q145 0 254 105q96 98 155 323l254 942h172l-262 -975q-72 -272 -205 -405q-145 -145 -370 -145q-170 0 -284 87t-165 232z" />
<glyph unicode="K" horiz-adv-x="1542" d="M66 0l403 1505h170l-240 -895l1080 895h241l-809 -661l428 -844h-190l-375 743l-436 -358l-105 -385h-167z" />
<glyph unicode="L" horiz-adv-x="1304" d="M66 0l403 1505h170l-363 -1347h848l-43 -158h-1015z" />
<glyph unicode="M" horiz-adv-x="1867" d="M66 0l403 1505h160l323 -821l768 821h189l-404 -1505h-172l328 1219l-764 -805h-8l-330 803l-328 -1217h-165z" />
<glyph unicode="N" horiz-adv-x="1689" d="M66 0l403 1505h158l612 -1220l328 1220h166l-404 -1505h-135l-629 1249l-336 -1249h-163z" />
<glyph unicode="O" d="M188 627q0 231 115 439t318.5 337t445.5 129q289 0 474 -187.5t185 -465.5q0 -231 -113.5 -440.5t-318 -338.5t-444.5 -129q-289 0 -475.5 187.5t-186.5 468.5zM369 631q0 -217 135 -359.5t356 -142.5q190 0 351 107.5t249 278.5t88 357q0 217 -135 359.5t-356 142.5 q-193 0 -352.5 -107.5t-247.5 -278.5t-88 -357z" />
<glyph unicode="P" horiz-adv-x="1433" d="M66 0l403 1505h471q289 0 430 -139q106 -113 107 -281q0 -258 -202 -404t-540 -146h-356l-146 -535h-167zM420 686h323q268 0 412.5 102.5t144.5 286.5q0 111 -67 178q-96 94 -299 95h-338z" />
<glyph unicode="Q" d="M188 627q0 231 115 439t318.5 337t445.5 129q289 0 474 -187.5t185 -465.5q0 -188 -79.5 -364.5t-219.5 -307.5l152 -170l-133 -98l-141 176q-211 -143 -455 -144q-289 0 -475.5 187.5t-186.5 468.5zM369 631q0 -217 135 -359.5t356 -142.5q190 0 348 111l-233 274 l133 100l219 -276q221 225 221 534q0 217 -135 359.5t-356 142.5q-193 0 -352.5 -107.5t-247.5 -278.5t-88 -357z" />
<glyph unicode="R" horiz-adv-x="1540" d="M66 0l403 1505h543q213 0 341 -83t150 -232q7 -39 7 -76q0 -125 -74 -237q-106 -221 -453 -275l309 -602h-194l-297 586h-410l-158 -586h-167zM432 737h410q160 0 276.5 47t167.5 131q62 82 62 175q0 18 -2 36q-8 106 -95.5 164t-249.5 58h-403z" />
<glyph unicode="S" horiz-adv-x="1368" d="M27 264l129 101q190 -233 495 -234q164 0 272.5 80t108.5 203q0 86 -67.5 145t-241.5 129q-221 88 -317.5 175t-96.5 227q0 188 156 313t399 125q338 0 533 -230l-123 -110q-170 186 -424 186q-164 0 -263.5 -78.5t-99.5 -185.5q0 -88 74 -146.5t260 -132.5 q203 -76 296 -167t93 -230q0 -197 -162.5 -325.5t-406.5 -128.5q-409 -1 -614 284z" />
<glyph unicode="T" horiz-adv-x="1323" d="M274 1348l43 157h1186l-43 -157h-508l-360 -1348h-170l360 1348h-508z" />
<glyph unicode="U" horiz-adv-x="1628" d="M199 459q0 117 30 233l215 813h172l-227 -858q-20 -76 -20 -170q0 -154 99 -249t294 -95t336 137q131 135 190 369l234 866h170l-240 -897q-78 -285 -238 -444q-186 -188 -469 -189q-262 0 -404 133.5t-142 350.5z" />
<glyph unicode="V" horiz-adv-x="1540" d="M295 1505h180l184 -1294l881 1294h193l-1049 -1515h-154z" />
<glyph unicode="W" horiz-adv-x="2328" d="M311 1505h176l97 -1253l745 1257h139l80 -1257l766 1253h191l-944 -1515h-148l-86 1214l-737 -1214h-148z" />
<glyph unicode="X" horiz-adv-x="1490" d="M-68 0l773 778l-377 727h186l313 -614l600 614h220l-744 -749l391 -756h-186l-328 643l-624 -643h-224z" />
<glyph unicode="Y" horiz-adv-x="1425" d="M256 1505h188l301 -760l711 760h217l-882 -927l-154 -578h-172l164 606z" />
<glyph unicode="Z" horiz-adv-x="1437" d="M-41 0l31 115l1284 1237h-920l43 153h1166l-29 -114l-1286 -1237h958l-41 -154h-1206z" />
<glyph unicode="[" horiz-adv-x="942" d="M18 -279l482 1784h614l-35 -129h-461l-407 -1528h459l-35 -127h-617z" />
<glyph unicode="\" horiz-adv-x="1091" d="M299 1716h141l469 -1990h-141z" />
<glyph unicode="]" horiz-adv-x="942" d="M-141 -279l37 127h458l410 1528h-461l35 129h616l-479 -1784h-616z" />
<glyph unicode="^" horiz-adv-x="1075" d="M252 1061l453 448h129l215 -448h-131l-164 330l-342 -330h-160z" />
<glyph unicode="_" horiz-adv-x="1290" d="M-246 -344l37 135h1301l-39 -135h-1299z" />
<glyph unicode="`" horiz-adv-x="1075" d="M600 1511l174 80l121 -311h-117z" />
<glyph unicode="a" horiz-adv-x="1236" d="M41 285q0 184 137 292.5t357 108.5q182 0 397 -59l6 24q14 55 14 105q0 225 -301 225q-145 0 -313 -59l-29 139q178 66 369 65q209 0 322.5 -91t113.5 -253q0 -70 -24 -151l-168 -631h-160l47 174q-172 -199 -416 -199q-147 0 -249.5 83.5t-102.5 226.5zM209 303 q0 -88 64.5 -143.5t170.5 -55.5q145 0 272.5 94.5t164.5 237.5l22 78q-172 49 -360 49q-150 0 -242 -72.5t-92 -187.5z" />
<glyph unicode="b" horiz-adv-x="1415" d="M37 0l422 1569h164l-177 -649q193 215 422 215q193 0 317 -130.5t124 -340.5q0 -289 -186.5 -490t-436.5 -201q-299 0 -418 277l-65 -250h-166zM328 467q0 -147 96 -246.5t248 -99.5q195 0 329 156.5t134 371.5q0 156 -86 248t-228 92q-186 0 -339.5 -159.5 t-153.5 -362.5z" />
<glyph unicode="c" horiz-adv-x="1208" d="M102 461q0 272 195 473t461 201q162 0 271.5 -73t170.5 -188l-133 -83q-119 199 -322 198q-188 0 -330.5 -157.5t-142.5 -366.5q0 -158 97.5 -251t234.5 -93q168 0 330 145l96 -106q-197 -186 -434 -187q-205 0 -349.5 133.5t-144.5 354.5z" />
<glyph unicode="d" horiz-adv-x="1415" d="M106 444q0 291 187.5 491t437.5 200q303 0 418 -275l188 709h166l-420 -1569h-165l49 188q-188 -215 -418 -215q-193 0 -318 132t-125 339zM283 461q0 -154 87 -247t226 -93q186 0 340 160.5t154 363.5q0 145 -96.5 244.5t-248.5 99.5q-195 0 -328.5 -156.5 t-133.5 -371.5z" />
<glyph unicode="e" horiz-adv-x="1265" d="M102 446q0 266 188.5 477.5t459.5 211.5q203 0 316.5 -121t113.5 -305q0 -104 -37 -209h-873q-2 -16 -2 -45q0 -154 90.5 -245t245.5 -91q180 0 342 131l86 -111q-197 -166 -436 -166q-221 0 -357.5 132t-136.5 341zM295 623h713q12 33 12 86q0 123 -71.5 204.5 t-207.5 81.5q-158 0 -278.5 -106t-167.5 -266z" />
<glyph unicode="f" horiz-adv-x="804" d="M98 0l260 965h-151l39 147h151l37 133q86 330 381 330q131 0 221 -47l-39 -144q-96 45 -182 46q-168 0 -223 -211l-29 -107h365l-41 -147h-363l-260 -965h-166z" />
<glyph unicode="g" horiz-adv-x="1415" d="M-29 -156l105 117q195 -168 438 -168q203 0 311 115q88 86 140 266l30 113q-195 -201 -426 -201q-184 0 -317 113.5t-133 306.5q0 268 190.5 448.5t431.5 180.5q285 0 410 -267l63 244h166l-254 -952q-63 -236 -180 -350q-158 -158 -430 -158q-154 0 -297.5 51 t-247.5 141zM293 526q0 -141 94 -220t229 -79q188 0 332 138.5t144 310.5q0 129 -93.5 221t-248.5 92q-182 0 -319.5 -133t-137.5 -330z" />
<glyph unicode="h" horiz-adv-x="1316" d="M37 0l422 1569h164l-172 -637q182 203 389 203q160 0 257 -93.5t97 -250.5q0 -63 -29 -173l-164 -618h-165l168 631q18 57 18 125q0 109 -66.5 170t-183.5 61q-129 0 -243.5 -101.5t-157.5 -256.5l-168 -629h-166z" />
<glyph unicode="i" horiz-adv-x="567" d="M51 0l299 1112h166l-299 -1112h-166zM403 1356l52 182h188l-49 -182h-191z" />
<glyph unicode="j" horiz-adv-x="565" d="M-256 -332l39 142q49 -16 94 -17q119 0 160 152l313 1167h166l-317 -1186q-78 -276 -305 -276q-82 0 -150 18zM403 1356l52 182h188l-49 -182h-191z" />
<glyph unicode="k" horiz-adv-x="1220" d="M37 0l422 1569h164l-285 -1067l747 610h226l-594 -479l305 -633h-188l-259 526l-296 -235l-76 -291h-166z" />
<glyph unicode="l" horiz-adv-x="567" d="M51 0l422 1569h166l-422 -1569h-166z" />
<glyph unicode="m" horiz-adv-x="2041" d="M37 0l297 1112h166l-49 -180q90 98 174 150.5t196 52.5q131 0 211 -72t105 -178q164 250 448 250q150 0 245 -94.5t95 -249.5q0 -35 -31 -173l-165 -618h-166l170 631q16 63 16 125q0 106 -61.5 168.5t-169.5 62.5q-123 0 -233.5 -102.5t-151.5 -255.5l-166 -629h-164 l168 631q16 57 16 125q0 106 -62.5 168.5t-168.5 62.5q-123 0 -233.5 -102.5t-151.5 -255.5l-168 -629h-166z" />
<glyph unicode="n" horiz-adv-x="1316" d="M37 0l297 1112h166l-49 -180q182 203 389 203q160 0 257 -93.5t97 -250.5q0 -63 -29 -173l-164 -618h-165l168 631q18 57 18 125q0 109 -66.5 170t-183.5 61q-129 0 -243.5 -101.5t-157.5 -256.5l-168 -629h-166z" />
<glyph unicode="o" horiz-adv-x="1370" d="M104 473q0 262 196 462t460 200q227 0 366.5 -139.5t139.5 -356.5q0 -266 -197 -466t-459 -200q-225 0 -365.5 140.5t-140.5 359.5zM272 477q0 -166 96.5 -260t252.5 -94q188 0 332.5 155.5t144.5 354.5q0 168 -96.5 262t-253.5 94q-188 0 -332 -157.5t-144 -354.5z" />
<glyph unicode="p" horiz-adv-x="1415" d="M-55 -344l389 1456h166l-54 -192q193 215 422 215q193 0 317 -130.5t124 -340.5q0 -289 -186.5 -490t-436.5 -201q-299 0 -418 277l-157 -594h-166zM328 467q0 -147 96 -246.5t248 -99.5q195 0 329 156.5t134 371.5q0 156 -86 248t-228 92q-186 0 -339.5 -159.5 t-153.5 -362.5z" />
<glyph unicode="q" horiz-adv-x="1415" d="M106 444q0 291 187.5 491t437.5 200q160 0 264.5 -76t153.5 -197l65 250h166l-409 -1542h-166l166 620q-195 -217 -422 -217q-193 0 -318 132t-125 339zM283 461q0 -154 87 -247t226 -93q186 0 340 160.5t154 363.5q0 145 -96.5 244.5t-248.5 99.5q-195 0 -328.5 -156.5 t-133.5 -371.5z" />
<glyph unicode="r" horiz-adv-x="864" d="M37 0l297 1112h166l-76 -291q215 310 496 310q16 0 32 -1l-47 -178h-10q-193 0 -351.5 -135t-224.5 -379l-116 -438h-166z" />
<glyph unicode="s" horiz-adv-x="1064" d="M-12 170l106 106q170 -162 387 -161q100 0 173 51t73 133q0 55 -46 99t-165 89q-164 66 -238.5 131.5t-74.5 174.5q0 147 115.5 244.5t304.5 97.5q117 0 226 -44t185 -108l-96 -115q-160 129 -330 129q-111 0 -175 -51t-64 -125q0 -55 46 -97t175 -91 q158 -66 230.5 -134.5t72.5 -170.5q0 -154 -123 -253.5t-303 -99.5q-286 0 -479 195z" />
<glyph unicode="t" horiz-adv-x="862" d="M164 201q0 55 14 114l174 650h-151l39 147h153l90 336h164l-90 -336h350l-39 -147h-350l-172 -639q-8 -53 -8 -82q0 -115 151 -115q74 0 162 35l-41 -152q-80 -31 -176 -30q-123 0 -196.5 56.5t-73.5 162.5z" />
<glyph unicode="u" horiz-adv-x="1316" d="M125 319q0 66 29 173l161 620h166l-170 -631q-14 -63 -14 -125q0 -109 65.5 -170t182.5 -61q131 0 245.5 102.5t155.5 257.5l168 627h166l-297 -1112h-166l49 180q-180 -205 -389 -205q-162 0 -257 94t-95 250z" />
<glyph unicode="v" horiz-adv-x="1216" d="M188 1112h174l125 -924l617 924h186l-776 -1120h-145z" />
<glyph unicode="w" horiz-adv-x="1822" d="M207 1112h168l57 -887l539 891h137l61 -891l537 887h172l-692 -1120h-148l-63 876l-537 -876h-143z" />
<glyph unicode="x" horiz-adv-x="1212" d="M-76 0l598 575l-278 537h182l211 -424l424 424h209l-568 -551l291 -561h-182l-221 451l-457 -451h-209z" />
<glyph unicode="y" horiz-adv-x="1232" d="M-162 -272l90 125q72 -57 170 -58q145 0 291 207l-203 1110h172l156 -928l598 928h186l-761 -1149q-115 -170 -221.5 -241.5t-233.5 -71.5q-131 0 -244 78z" />
<glyph unicode="z" horiz-adv-x="1179" d="M-43 0l31 104l948 869h-690l39 139h927l-28 -106l-953 -867h727l-38 -139h-963z" />
<glyph unicode="{" horiz-adv-x="1038" d="M127 553l35 129h59q162 0 234.5 81t111.5 296q41 233 172 349t418 130l2 -119q-219 -12 -314 -105t-124 -284q-39 -221 -114 -310t-222 -114q158 -39 158 -180q0 -66 -25 -135q-45 -135 -45 -221q0 -100 56.5 -166t191.5 -105l-51 -102q-186 39 -272.5 131t-86.5 219 q0 80 49 240q23 66 23 127q0 70 -43 104.5t-154 34.5h-59z" />
<glyph unicode="|" horiz-adv-x="651" d="M299 -274v1990h137v-1990h-137z" />
<glyph unicode="}" horiz-adv-x="1038" d="M-88 -184q217 12 311 104t127 285q39 221 113 310t223 114q-160 39 -160 180q0 57 27 135q45 150 45 221q0 98 -56.5 164t-191.5 105l51 104q356 -74 357 -350q0 -76 -49 -240q-23 -76 -23 -127q0 -72 44 -105.5t155 -33.5h57l-33 -129h-59q-162 0 -234.5 -81 t-113.5 -296q-41 -233 -171 -350t-417 -129z" />
<glyph unicode="~" horiz-adv-x="1015" d="M168 559q109 227 254 227q74 0 149 -69q41 -39 60.5 -51.5t46.5 -12.5q37 0 65.5 31t67.5 96l104 -45q-104 -227 -251 -227q-31 0 -58.5 9t-44 22.5t-47.5 38.5q-70 63 -105.5 63t-65.5 -29.5t-69 -99.5z" />
<glyph unicode="&#xa1;" horiz-adv-x="581" d="M45 0l33 123l307 956h92l-205 -956l-32 -123h-195zM387 1280l59 225h199l-61 -225h-197z" />
<glyph unicode="&#xa2;" horiz-adv-x="1216" d="M158 664q0 281 193.5 480t467.5 199q39 0 55 -2l72 177h137l-79 -199q190 -63 278 -238l-131 -84q-82 139 -209 181l-332 -844q35 -4 54 -4q195 0 358 141l96 -111q-197 -180 -456 -180q-57 0 -101 8l-80 -200h-137l94 237q-131 57 -205.5 173t-74.5 266zM326 668 q0 -102 46 -180t128 -123l323 831h-10q-203 0 -345 -157.5t-142 -370.5z" />
<glyph unicode="&#xa3;" horiz-adv-x="1351" d="M-10 0l24 98l193 45l133 492h-180l41 147h178l70 260q59 221 172 332q145 147 364 148q281 0 418 -242l-141 -90q-53 88 -120 132t-167 44q-135 0 -232 -94q-88 -88 -133 -258l-61 -232h602l-41 -147h-602l-129 -483h766l-41 -152h-1114z" />
<glyph unicode="&#xa4;" horiz-adv-x="1490" d="M72 510l34 135h170q8 123 41 232h-149l37 135h155q98 233 281.5 376.5t421.5 143.5q190 0 313 -94.5t176 -249.5l-145 -68q-57 127 -139 191.5t-226 64.5q-156 0 -285.5 -100t-207.5 -264h584l-35 -135h-600q-37 -131 -43 -232h581l-37 -135h-544q10 -174 106 -277.5 t256 -103.5q221 0 397 195l115 -101q-217 -250 -516 -250q-225 0 -373.5 145.5t-165.5 391.5h-202z" />
<glyph unicode="&#xa5;" horiz-adv-x="1511" d="M145 250l35 133h436l52 188h-439l37 134h381l-340 800h191l303 -739l700 739h213l-774 -800h375l-37 -134h-444l-50 -188h445l-37 -133h-444l-64 -250h-168l68 250h-439z" />
<glyph unicode="&#xa7;" horiz-adv-x="1357" d="M133 162l109 106q68 -66 171 -108.5t220 -42.5q98 0 164.5 40t66.5 103q0 57 -62.5 99t-213.5 96q-211 70 -308.5 137t-97.5 174q0 119 107.5 193.5t281.5 82.5q-141 78 -141 201q0 127 120 207t296 80q145 0 275 -52.5t206 -131.5l-106 -107q-160 152 -394 152 q-98 0 -164.5 -40t-66.5 -104q0 -57 63.5 -100t212.5 -94q211 -70 308.5 -137.5t97.5 -174.5q0 -119 -107.5 -193.5t-281.5 -82.5q141 -76 141 -201q0 -127 -119.5 -205.5t-294.5 -78.5q-147 0 -277 51t-206 131zM346 786q0 -57 59.5 -100t198.5 -88q129 -45 244 -45 q111 0 188.5 49t77.5 119q0 57 -59.5 100t-198.5 88q-137 45 -244 45q-111 0 -188.5 -49t-77.5 -119z" />
<glyph unicode="&#xa8;" horiz-adv-x="1075" d="M426 1280l55 203h195l-58 -203h-192zM807 1280l55 203h191l-56 -203h-190z" />
<glyph unicode="&#xa9;" horiz-adv-x="1783" d="M166 750.5q0 320.5 227.5 551t553 230.5t550.5 -228.5t225 -549t-228 -551t-553 -230.5t-550 228.5t-225 549zM238 751q0 -296 202.5 -503t501.5 -207q301 0 505 209t204 505t-203 502.5t-502 206.5q-301 0 -504.5 -208.5t-203.5 -504.5zM553 764q0 172 114.5 292 t286.5 120q176 0 310 -129l-76 -86q-113 109 -234 108q-123 0 -201.5 -88t-78.5 -215t81 -216t199 -89q121 0 240 106l78 -75q-143 -141 -320 -142q-170 0 -284.5 121t-114.5 293z" />
<glyph unicode="&#xaa;" horiz-adv-x="837" d="M121 621l24 102h539l-27 -102h-536zM225 1038q0 106 79 169t202 63q80 0 199 -33l4 12q10 31 10 51q0 115 -156 115q-86 0 -172 -33l-18 93q100 39 213 38q115 0 178 -50t63 -140q0 -31 -12 -86l-92 -348h-111l27 98q-102 -113 -229 -113q-80 0 -132.5 45t-52.5 119z M340 1051q0 -39 28.5 -66t75.5 -27q76 0 145.5 53.5t90.5 125.5l8 28q-86 25 -174 25q-78 0 -126 -39t-48 -100z" />
<glyph unicode="&#xab;" horiz-adv-x="1181" d="M96 543l4 16l478 465l108 -90l-403 -404l176 -378l-135 -68zM573 543l5 16l479 465l106 -90l-403 -404l176 -378l-135 -68z" />
<glyph unicode="&#xad;" horiz-adv-x="880" d="M141 559l45 174h600l-45 -174h-600z" />
<glyph unicode="&#xae;" horiz-adv-x="1783" d="M166 750.5q0 320.5 227.5 551t553 230.5t550.5 -228.5t225 -549t-228 -551t-553 -230.5t-550 228.5t-225 549zM238 751q0 -296 202.5 -503t501.5 -207q301 0 505 209t204 505t-203 502.5t-502 206.5q-301 0 -504.5 -208.5t-203.5 -504.5zM639 377v797h356q133 0 216 -66 t83 -174q0 -190 -204 -238l245 -319h-143l-231 301h-203v-301h-119zM758 782h227q84 0 136.5 38t52.5 108q0 66 -48.5 102.5t-134.5 36.5h-233v-285z" />
<glyph unicode="&#xaf;" horiz-adv-x="1075" d="M391 1290l37 144h682l-39 -144h-680z" />
<glyph unicode="&#xb0;" horiz-adv-x="831" d="M188 1145q0 150 111 261.5t262 111.5q127 0 209 -81t82 -204q0 -152 -109.5 -264.5t-263.5 -112.5q-129 0 -210 82t-81 207zM311 1153q0 -84 50.5 -135t127.5 -51q98 0 169 77.5t71 176.5q0 84 -49 135t-129 51q-96 0 -168 -78t-72 -176z" />
<glyph unicode="&#xb1;" horiz-adv-x="1302" d="M4 250l135 92q147 -213 428 -213q172 0 281.5 86t109.5 209q0 131 -110.5 196.5t-292.5 65.5h-92l39 145h108q229 0 361.5 80t132.5 219q0 113 -87 178.5t-224 65.5q-205 0 -390 -151l-98 112q221 195 500 195q207 0 342 -104.5t135 -274.5q0 -158 -110.5 -259 t-311.5 -138q121 -39 198 -122t77 -208q0 -193 -165 -322t-413 -129q-197 0 -336 77t-217 200z" />
<glyph unicode="&#xb2;" horiz-adv-x="1277" d="M-47 0l35 133l862 653q131 100 191.5 181.5t60.5 175.5q0 102 -77 165.5t-210 63.5q-211 0 -414 -207l-110 109q238 254 530 254q203 0 330 -104.5t127 -270.5q0 -129 -78 -237.5t-246 -233.5l-694 -526h805l-41 -156h-1071z" />
<glyph unicode="&#xb3;" horiz-adv-x="1300" d="M6 266l133 86q127 -223 404 -223q178 0 295.5 94t117.5 240q0 127 -103 191.5t-286 64.5h-67l-23 96l608 537h-741l43 153h981l-35 -125l-612 -534q180 -16 296 -111.5t116 -259.5q0 -215 -175.5 -358.5t-425.5 -143.5q-190 0 -323 78t-203 215z" />
<glyph unicode="&#xb4;" horiz-adv-x="1075" d="M514 1280l289 311l172 -80l-305 -231h-156z" />
<glyph unicode="&#xb5;" d="M188 627q0 231 115 439t318.5 337t445.5 129q289 0 474 -187.5t185 -465.5q0 -188 -79.5 -364.5t-219.5 -307.5l152 -170l-133 -98l-141 176q-211 -143 -455 -144q-289 0 -475.5 187.5t-186.5 468.5zM369 631q0 -217 135 -359.5t356 -142.5q190 0 348 111l-233 274 l133 100l219 -276q221 225 221 534q0 217 -135 359.5t-356 142.5q-193 0 -352.5 -107.5t-247.5 -278.5t-88 -357z" />
<glyph unicode="&#xb6;" horiz-adv-x="1110" d="M211 946q0 258 189.5 408.5t527.5 150.5h225l-405 -1505h-173l144 535q-231 12 -369.5 111t-138.5 300z" />
<glyph unicode="&#xb7;" horiz-adv-x="546" d="M166 532l61 228h197l-62 -228h-196z" />
<glyph unicode="&#xb8;" horiz-adv-x="1075" d="M135 -260l268 280h132l-259 -354z" />
<glyph unicode="&#xb9;" horiz-adv-x="776" d="M203 0l354 1327l-305 -88l-4 147l403 130h127l-405 -1516h-170z" />
<glyph unicode="&#xba;" horiz-adv-x="843" d="M125 621l27 102h579l-26 -102h-580zM242 1153q0 145 106.5 254t253.5 109q127 0 207 -79t80 -202q0 -147 -106.5 -256t-256.5 -109q-127 0 -205.5 79t-78.5 204zM354 1157q0 -84 50.5 -135t127.5 -51q100 0 171 78.5t71 181.5q0 84 -49 135t-129 51q-98 0 -170 -79 t-72 -181z" />
<glyph unicode="&#xbb;" horiz-adv-x="1181" d="M16 172l404 401l-176 381l135 68l225 -459l-4 -16l-475 -465zM496 172l401 401l-176 381l135 68l225 -459l-4 -16l-477 -465z" />
<glyph unicode="&#xbc;" horiz-adv-x="3336" d="M1995 483l1116 1033h164l-272 -1016h233l-39 -144h-233l-94 -356h-166l96 356h-782zM2218 500h621l207 766zM565 -211l1499 1841h170l-1499 -1841h-170zM203 0l354 1327l-305 -88l-4 147l403 130h127l-405 -1516h-170z" />
<glyph unicode="&#xbd;" horiz-adv-x="3219" d="M1895 0l35 133l862 653q131 100 191.5 181.5t60.5 175.5q0 102 -77 165.5t-210 63.5q-211 0 -414 -207l-110 109q238 254 530 254q203 0 330 -104.5t127 -270.5q0 -129 -78 -237.5t-246 -233.5l-694 -526h805l-41 -156h-1071zM565 -211l1499 1841h170l-1499 -1841h-170z M203 0l354 1327l-305 -88l-4 147l403 130h127l-405 -1516h-170z" />
<glyph unicode="&#xbe;" horiz-adv-x="3860" d="M2519 483l1116 1033h164l-272 -1016h233l-39 -144h-233l-94 -356h-166l96 356h-782zM2742 500h621l207 766zM1089 -211l1499 1841h170l-1499 -1841h-170zM6 266l133 86q127 -223 404 -223q178 0 295.5 94t117.5 240q0 127 -103 191.5t-286 64.5h-67l-23 96l608 537h-741 l43 153h981l-35 -125l-612 -534q180 -16 296 -111.5t116 -259.5q0 -215 -175.5 -358.5t-425.5 -143.5q-190 0 -323 78t-203 215z" />
<glyph unicode="&#xbf;" horiz-adv-x="1153" d="M94 360q0 201 154.5 324t408.5 160l86 235h109l-59 -348l-15 -10q-231 -18 -369.5 -108.5t-138.5 -237.5q0 -113 80 -176.5t207 -63.5q211 0 391 172l96 -110q-215 -215 -503 -215q-203 0 -325 108t-122 270zM750 1280l61 225h197l-60 -225h-198z" />
<glyph unicode="&#xc0;" horiz-adv-x="1636" d="M-86 0l1092 1516h163l281 -1516h-174l-70 397h-821l-285 -397h-186zM492 551h686l-136 772zM901 1872l174 78l121 -312h-117z" />
<glyph unicode="&#xc1;" horiz-adv-x="1636" d="M-86 0l1092 1516h163l281 -1516h-174l-70 397h-821l-285 -397h-186zM492 551h686l-136 772zM1016 1638l287 312l172 -78l-306 -234h-153z" />
<glyph unicode="&#xc2;" horiz-adv-x="1636" d="M-86 0l1092 1516h163l281 -1516h-174l-70 397h-821l-285 -397h-186zM492 551h686l-136 772zM805 1638l303 283h145l154 -283h-133l-117 144l-207 -144h-145z" />
<glyph unicode="&#xc3;" horiz-adv-x="1636" d="M-86 0l1092 1516h163l281 -1516h-174l-70 397h-821l-285 -397h-186zM492 551h686l-136 772zM764 1677q109 227 252 228q47 0 76.5 -15.5t74.5 -54.5q66 -57 90 -61q6 -2 17 -2q35 0 64.5 30.5t68.5 98.5l104 -48q-109 -227 -251 -227q-68 0 -150 70q-70 63 -109 63 q-59 0 -133 -127z" />
<glyph unicode="&#xc4;" horiz-adv-x="1636" d="M-86 0l1092 1516h163l281 -1516h-174l-70 397h-821l-285 -397h-186zM492 551h686l-136 772zM840 1638l55 205h192l-55 -205h-192zM1219 1638l57 205h190l-55 -205h-192z" />
<glyph unicode="&#xc5;" horiz-adv-x="1665" d="M-72 0l1061 1470q-86 49 -86 154q0 98 70.5 168t173.5 70q94 0 154.5 -53.5t60.5 -135.5q0 -76 -46 -136t-118 -85l268 -1452h-176l-69 397h-820l-284 -397h-189zM508 551h688l-137 772zM995 1624q0 -47 33 -77.5t90 -30.5q61 0 104.5 45t43.5 110q0 47 -32 77t-87 30 q-66 0 -109 -45.5t-43 -108.5z" />
<glyph unicode="&#xc6;" horiz-adv-x="2289" d="M-86 0l1288 1505h1204l-43 -155h-880l-137 -514h784l-41 -154h-784l-142 -526h891l-41 -156h-1061l109 397h-612l-338 -397h-197zM575 551h525l215 805h-55z" />
<glyph unicode="&#xc7;" horiz-adv-x="1579" d="M182 596q0 240 121 455t331 348t451 133q201 0 345.5 -87t222.5 -237l-146 -90q-76 127 -177 191.5t-259 64.5q-289 0 -500 -234.5t-211 -537.5q0 -215 131.5 -343t339.5 -128q256 0 467 205l115 -113q-252 -252 -590 -252h-10l-225 -305l-142 74l238 248 q-221 41 -361.5 202.5t-140.5 405.5z" />
<glyph unicode="&#xc8;" horiz-adv-x="1402" d="M66 0l403 1505h1077l-43 -155h-907l-137 -514h811l-45 -154h-807l-144 -526h920l-41 -156h-1087zM823 1872l174 78l121 -312h-117z" />
<glyph unicode="&#xc9;" horiz-adv-x="1402" d="M66 0l403 1505h1077l-43 -155h-907l-137 -514h811l-45 -154h-807l-144 -526h920l-41 -156h-1087zM870 1638l289 312l172 -78l-305 -234h-156z" />
<glyph unicode="&#xca;" horiz-adv-x="1402" d="M66 0l403 1505h1077l-43 -155h-907l-137 -514h811l-45 -154h-807l-144 -526h920l-41 -156h-1087zM721 1638l303 283h145l154 -283h-133l-117 144l-207 -144h-145z" />
<glyph unicode="&#xcb;" horiz-adv-x="1402" d="M66 0l403 1505h1077l-43 -155h-907l-137 -514h811l-45 -154h-807l-144 -526h920l-41 -156h-1087zM743 1638l58 205h192l-55 -205h-195zM1124 1638l56 205h192l-55 -205h-193z" />
<glyph unicode="&#xcc;" horiz-adv-x="624" d="M80 0l403 1505h170l-403 -1505h-170zM385 1872l174 78l121 -312h-117z" />
<glyph unicode="&#xcd;" horiz-adv-x="624" d="M80 0l403 1505h170l-403 -1505h-170zM485 1638l289 312l172 -78l-305 -234h-156z" />
<glyph unicode="&#xce;" horiz-adv-x="624" d="M80 0l403 1505h170l-403 -1505h-170zM287 1638l303 283h145l154 -283h-133l-117 144l-207 -144h-145z" />
<glyph unicode="&#xcf;" horiz-adv-x="624" d="M80 0l403 1505h170l-403 -1505h-170zM317 1638l58 205h192l-55 -205h-195zM698 1638l58 205h190l-55 -205h-193z" />
<glyph unicode="&#xd0;" horiz-adv-x="1720" d="M123 0l182 680h-168l43 154h166l180 671h367q385 0 584 -200q166 -166 165 -433q0 -348 -237 -585q-287 -287 -772 -287h-510zM336 158h317q383 0 625 235q186 188 186 469q0 209 -125 334q-156 152 -460 152h-224l-137 -514h445l-41 -154h-447z" />
<glyph unicode="&#xd1;" horiz-adv-x="1689" d="M66 0l403 1505h158l612 -1220l328 1220h166l-404 -1505h-135l-629 1249l-336 -1249h-163zM758 1677q109 227 250 228q49 0 78.5 -15.5t74.5 -54.5q63 -57 90 -61q6 -2 15 -2q37 0 66.5 30.5t68.5 98.5l104 -48q-111 -227 -252 -227q-68 0 -149 70q-70 63 -109 63 q-59 0 -133 -127z" />
<glyph unicode="&#xd2;" d="M188 627q0 231 115 439t318.5 337t445.5 129q289 0 474 -187.5t185 -465.5q0 -231 -113.5 -440.5t-318 -338.5t-444.5 -129q-289 0 -475.5 187.5t-186.5 468.5zM369 631q0 -217 135 -359.5t356 -142.5q190 0 351 107.5t249 278.5t88 357q0 217 -135 359.5t-356 142.5 q-193 0 -352.5 -107.5t-247.5 -278.5t-88 -357zM952 1872l174 78l121 -312h-117z" />
<glyph unicode="&#xd3;" d="M188 627q0 231 115 439t318.5 337t445.5 129q289 0 474 -187.5t185 -465.5q0 -231 -113.5 -440.5t-318 -338.5t-444.5 -129q-289 0 -475.5 187.5t-186.5 468.5zM369 631q0 -217 135 -359.5t356 -142.5q190 0 351 107.5t249 278.5t88 357q0 217 -135 359.5t-356 142.5 q-193 0 -352.5 -107.5t-247.5 -278.5t-88 -357zM977 1638l287 312l172 -78l-306 -234h-153z" />
<glyph unicode="&#xd4;" d="M188 627q0 231 115 439t318.5 337t445.5 129q289 0 474 -187.5t185 -465.5q0 -231 -113.5 -440.5t-318 -338.5t-444.5 -129q-289 0 -475.5 187.5t-186.5 468.5zM369 631q0 -217 135 -359.5t356 -142.5q190 0 351 107.5t249 278.5t88 357q0 217 -135 359.5t-356 142.5 q-193 0 -352.5 -107.5t-247.5 -278.5t-88 -357zM846 1638l303 283h145l154 -283h-133l-117 144l-207 -144h-145z" />
<glyph unicode="&#xd5;" d="M188 627q0 231 115 439t318.5 337t445.5 129q289 0 474 -187.5t185 -465.5q0 -231 -113.5 -440.5t-318 -338.5t-444.5 -129q-289 0 -475.5 187.5t-186.5 468.5zM369 631q0 -217 135 -359.5t356 -142.5q190 0 351 107.5t249 278.5t88 357q0 217 -135 359.5t-356 142.5 q-193 0 -352.5 -107.5t-247.5 -278.5t-88 -357zM784 1677q111 227 252 228q47 0 78 -15.5t76 -54.5q63 -57 90 -61q6 -2 14 -2q37 0 66 30.5t67 98.5l107 -48q-111 -227 -252 -227q-70 0 -152 70q-68 63 -106 63q-61 0 -133 -127z" />
<glyph unicode="&#xd6;" d="M188 627q0 231 115 439t318.5 337t445.5 129q289 0 474 -187.5t185 -465.5q0 -231 -113.5 -440.5t-318 -338.5t-444.5 -129q-289 0 -475.5 187.5t-186.5 468.5zM369 631q0 -217 135 -359.5t356 -142.5q190 0 351 107.5t249 278.5t88 357q0 217 -135 359.5t-356 142.5 q-193 0 -352.5 -107.5t-247.5 -278.5t-88 -357zM860 1638l55 205h195l-57 -205h-193zM1241 1638l55 205h193l-57 -205h-191z" />
<glyph unicode="&#xd8;" d="M-41 -10l330 280q-100 156 -101 357q0 231 115 439t318.5 337t445.5 129q293 0 479 -195l207 179h193l-320 -277q100 -160 100 -360q0 -231 -113.5 -440.5t-318 -338.5t-444.5 -129q-297 0 -481 201l-215 -182h-195zM362 631q0 -139 58 -250l999 852q-135 145 -362 145 q-289 0 -492 -229t-203 -518zM496 276q135 -152 364 -151q289 0 490.5 229.5t201.5 517.5q0 141 -59 256z" />
<glyph unicode="&#xd9;" horiz-adv-x="1628" d="M199 459q0 117 30 233l215 813h172l-227 -858q-20 -76 -20 -170q0 -154 99 -249t294 -95t336 137q131 135 190 369l234 866h170l-240 -897q-78 -285 -238 -444q-186 -188 -469 -189q-262 0 -404 133.5t-142 350.5zM885 1872l174 78l119 -312h-115z" />
<glyph unicode="&#xda;" horiz-adv-x="1628" d="M199 459q0 117 30 233l215 813h172l-227 -858q-20 -76 -20 -170q0 -154 99 -249t294 -95t336 137q131 135 190 369l234 866h170l-240 -897q-78 -285 -238 -444q-186 -188 -469 -189q-262 0 -404 133.5t-142 350.5zM932 1638l287 312l172 -78l-306 -234h-153z" />
<glyph unicode="&#xdb;" horiz-adv-x="1628" d="M199 459q0 117 30 233l215 813h172l-227 -858q-20 -76 -20 -170q0 -154 99 -249t294 -95t336 137q131 135 190 369l234 866h170l-240 -897q-78 -285 -238 -444q-186 -188 -469 -189q-262 0 -404 133.5t-142 350.5zM784 1638l303 283h148l151 -283h-133l-116 144 l-205 -144h-148z" />
<glyph unicode="&#xdc;" horiz-adv-x="1628" d="M199 459q0 117 30 233l215 813h172l-227 -858q-20 -76 -20 -170q0 -154 99 -249t294 -95t336 137q131 135 190 369l234 866h170l-240 -897q-78 -285 -238 -444q-186 -188 -469 -189q-262 0 -404 133.5t-142 350.5zM809 1638l55 205h195l-58 -205h-192zM1190 1638l55 205 h191l-56 -205h-190z" />
<glyph unicode="&#xdd;" horiz-adv-x="1425" d="M256 1505h188l301 -760l711 760h217l-882 -927l-154 -578h-172l164 606zM827 1638l289 312l172 -78l-305 -234h-156z" />
<glyph unicode="&#xde;" horiz-adv-x="1447" d="M66 0l403 1505h168l-68 -258h299q291 0 432 -139q106 -111 107 -283q0 -260 -201.5 -405.5t-537.5 -145.5h-359l-76 -274h-167zM350 428h326q264 0 410.5 102.5t146.5 284.5q0 113 -72 180q-94 94 -297 95h-338z" />
<glyph unicode="&#xdf;" horiz-adv-x="1339" d="M37 0l291 1077q59 233 186 357q145 152 365 151q186 0 302.5 -103.5t116.5 -260.5q0 -319 -421 -441q311 -90 311 -338q0 -199 -187.5 -324.5t-523.5 -121.5l37 137q254 0 380 89t126 222q0 213 -350 271l32 129q430 100 431 366q0 100 -72 164t-193 64 q-137 0 -236.5 -101.5t-148.5 -287.5l-280 -1049h-166z" />
<glyph unicode="&#xe0;" horiz-adv-x="1236" d="M41 285q0 184 137 292.5t357 108.5q182 0 397 -59l6 24q14 55 14 105q0 225 -301 225q-145 0 -313 -59l-29 139q178 66 369 65q209 0 322.5 -91t113.5 -253q0 -70 -24 -151l-168 -631h-160l47 174q-172 -199 -416 -199q-147 0 -249.5 83.5t-102.5 226.5zM209 303 q0 -88 64.5 -143.5t170.5 -55.5q145 0 272.5 94.5t164.5 237.5l22 78q-172 49 -360 49q-150 0 -242 -72.5t-92 -187.5zM586 1511l174 80l119 -311h-115z" />
<glyph unicode="&#xe1;" horiz-adv-x="1236" d="M41 285q0 184 137 292.5t357 108.5q182 0 397 -59l6 24q14 55 14 105q0 225 -301 225q-145 0 -313 -59l-29 139q178 66 369 65q209 0 322.5 -91t113.5 -253q0 -70 -24 -151l-168 -631h-160l47 174q-172 -199 -416 -199q-147 0 -249.5 83.5t-102.5 226.5zM209 303 q0 -88 64.5 -143.5t170.5 -55.5q145 0 272.5 94.5t164.5 237.5l22 78q-172 49 -360 49q-150 0 -242 -72.5t-92 -187.5zM637 1280l289 311l172 -80l-307 -231h-154z" />
<glyph unicode="&#xe2;" horiz-adv-x="1236" d="M41 285q0 184 137 292.5t357 108.5q182 0 397 -59l6 24q14 55 14 105q0 225 -301 225q-145 0 -313 -59l-29 139q178 66 369 65q209 0 322.5 -91t113.5 -253q0 -70 -24 -151l-168 -631h-160l47 174q-172 -199 -416 -199q-147 0 -249.5 83.5t-102.5 226.5zM209 303 q0 -88 64.5 -143.5t170.5 -55.5q145 0 272.5 94.5t164.5 237.5l22 78q-172 49 -360 49q-150 0 -242 -72.5t-92 -187.5zM489 1280l304 281h147l152 -281h-134l-114 143l-207 -143h-148z" />
<glyph unicode="&#xe3;" horiz-adv-x="1236" d="M41 285q0 184 137 292.5t357 108.5q182 0 397 -59l6 24q14 55 14 105q0 225 -301 225q-145 0 -313 -59l-29 139q178 66 369 65q209 0 322.5 -91t113.5 -253q0 -70 -24 -151l-168 -631h-160l47 174q-172 -199 -416 -199q-147 0 -249.5 83.5t-102.5 226.5zM209 303 q0 -88 64.5 -143.5t170.5 -55.5q145 0 272.5 94.5t164.5 237.5l22 78q-172 49 -360 49q-150 0 -242 -72.5t-92 -187.5zM440 1319q111 227 252 227q47 0 78 -16.5t76 -54.5q63 -55 90 -60q6 -2 14 -2q37 0 65.5 30t67.5 99l107 -47q-111 -229 -252 -229q-70 0 -152 71 q-68 63 -106 64q-61 0 -133 -127z" />
<glyph unicode="&#xe4;" horiz-adv-x="1236" d="M41 285q0 184 137 292.5t357 108.5q182 0 397 -59l6 24q14 55 14 105q0 225 -301 225q-145 0 -313 -59l-29 139q178 66 369 65q209 0 322.5 -91t113.5 -253q0 -70 -24 -151l-168 -631h-160l47 174q-172 -199 -416 -199q-147 0 -249.5 83.5t-102.5 226.5zM209 303 q0 -88 64.5 -143.5t170.5 -55.5q145 0 272.5 94.5t164.5 237.5l22 78q-172 49 -360 49q-150 0 -242 -72.5t-92 -187.5zM504 1280l55 203h195l-58 -203h-192zM885 1280l55 203h190l-55 -203h-190z" />
<glyph unicode="&#xe5;" horiz-adv-x="1236" d="M41 285q0 184 137 292.5t357 108.5q182 0 397 -59l6 24q14 55 14 105q0 225 -301 225q-145 0 -313 -59l-29 139q178 66 369 65q209 0 322.5 -91t113.5 -253q0 -70 -24 -151l-168 -631h-160l47 174q-172 -199 -416 -199q-147 0 -249.5 83.5t-102.5 226.5zM209 303 q0 -88 64.5 -143.5t170.5 -55.5q145 0 272.5 94.5t164.5 237.5l22 78q-172 49 -360 49q-150 0 -242 -72.5t-92 -187.5zM614 1466q0 98 72 169t172 71q94 0 154.5 -54.5t60.5 -135.5q0 -98 -71.5 -168t-174.5 -70q-94 0 -153.5 53t-59.5 135zM707 1468q0 -47 32.5 -76.5 t89.5 -29.5q66 0 108 45t42 109q0 47 -33 77.5t-88 30.5q-66 0 -108.5 -45t-42.5 -111z" />
<glyph unicode="&#xe6;" horiz-adv-x="2058" d="M41 291q0 182 141.5 288.5t360.5 106.5q195 0 389 -59l6 24q14 55 14 105q0 225 -301 225q-145 0 -313 -59l-29 139q178 66 369 65q334 0 407 -229q193 238 463 238q203 0 315.5 -121t112.5 -305q0 -111 -37 -209h-872q-2 -16 -2 -45q0 -154 90 -245t246 -91 q178 0 344 131l86 -111q-197 -166 -436 -166q-156 0 -269.5 69t-169.5 187q-248 -254 -538 -254q-168 0 -272.5 83t-104.5 233zM209 309q0 -92 65.5 -148.5t184.5 -56.5q240 0 463 238q-10 63 -11 117q0 20 7 53q-176 51 -369 51q-150 0 -245 -70.5t-95 -183.5zM1090 623 h716q8 39 9 86q0 123 -71 204.5t-206 81.5q-160 0 -280.5 -106t-167.5 -266z" />
<glyph unicode="&#xe7;" horiz-adv-x="1200" d="M102 461q0 272 195 473t461 201q162 0 271.5 -73t170.5 -188l-133 -83q-119 199 -322 198q-188 0 -330.5 -157.5t-142.5 -366.5q0 -158 97.5 -251t234.5 -93q168 0 330 145l96 -106q-197 -186 -432 -187h-4l-223 -307l-144 74l240 250q-158 39 -261.5 163t-103.5 308z " />
<glyph unicode="&#xe8;" horiz-adv-x="1265" d="M102 446q0 266 188.5 477.5t459.5 211.5q203 0 316.5 -121t113.5 -305q0 -104 -37 -209h-873q-2 -16 -2 -45q0 -154 90.5 -245t245.5 -91q180 0 342 131l86 -111q-197 -166 -436 -166q-221 0 -357.5 132t-136.5 341zM295 623h713q12 33 12 86q0 123 -71.5 204.5 t-207.5 81.5q-158 0 -278.5 -106t-167.5 -266zM594 1511l174 80l121 -311h-117z" />
<glyph unicode="&#xe9;" horiz-adv-x="1265" d="M102 446q0 266 188.5 477.5t459.5 211.5q203 0 316.5 -121t113.5 -305q0 -104 -37 -209h-873q-2 -16 -2 -45q0 -154 90.5 -245t245.5 -91q180 0 342 131l86 -111q-197 -166 -436 -166q-221 0 -357.5 132t-136.5 341zM295 623h713q12 33 12 86q0 123 -71.5 204.5 t-207.5 81.5q-158 0 -278.5 -106t-167.5 -266zM651 1280l289 311l172 -80l-305 -231h-156z" />
<glyph unicode="&#xea;" horiz-adv-x="1265" d="M102 446q0 266 188.5 477.5t459.5 211.5q203 0 316.5 -121t113.5 -305q0 -104 -37 -209h-873q-2 -16 -2 -45q0 -154 90.5 -245t245.5 -91q180 0 342 131l86 -111q-197 -166 -436 -166q-221 0 -357.5 132t-136.5 341zM295 623h713q12 33 12 86q0 123 -71.5 204.5 t-207.5 81.5q-158 0 -278.5 -106t-167.5 -266zM489 1280l304 281h147l152 -281h-134l-114 143l-207 -143h-148z" />
<glyph unicode="&#xeb;" horiz-adv-x="1265" d="M102 446q0 266 188.5 477.5t459.5 211.5q203 0 316.5 -121t113.5 -305q0 -104 -37 -209h-873q-2 -16 -2 -45q0 -154 90.5 -245t245.5 -91q180 0 342 131l86 -111q-197 -166 -436 -166q-221 0 -357.5 132t-136.5 341zM295 623h713q12 33 12 86q0 123 -71.5 204.5 t-207.5 81.5q-158 0 -278.5 -106t-167.5 -266zM514 1280l55 203h195l-57 -203h-193zM895 1280l55 203h193l-58 -203h-190z" />
<glyph unicode="&#xec;" horiz-adv-x="565" d="M51 0l299 1112h166l-299 -1112h-166zM223 1511l174 80l121 -311h-117z" />
<glyph unicode="&#xed;" horiz-adv-x="565" d="M51 0l299 1112h166l-299 -1112h-166zM371 1280l286 311l172 -80l-305 -231h-153z" />
<glyph unicode="&#xee;" horiz-adv-x="565" d="M51 0l299 1112h166l-299 -1112h-166zM160 1280l303 281h145l154 -281h-133l-117 143l-207 -143h-145z" />
<glyph unicode="&#xef;" horiz-adv-x="565" d="M51 0l299 1112h166l-299 -1112h-166zM182 1280l58 203h192l-55 -203h-195zM563 1280l55 203h193l-55 -203h-193z" />
<glyph unicode="&#xf0;" horiz-adv-x="1337" d="M96 446q0 246 177.5 421t414.5 175q193 0 330 -114l-168 389l-322 -137l-55 108l330 137l-66 144h181l34 -82l244 102l53 -108l-252 -105l138 -338q100 -246 100 -417q0 -260 -182.5 -453t-460.5 -193q-215 0 -355.5 134t-140.5 337zM262 457q0 -154 96.5 -244t245.5 -90 q188 0 323.5 135t135.5 324q0 141 -97.5 235t-263.5 94q-180 0 -310 -135t-130 -319z" />
<glyph unicode="&#xf1;" horiz-adv-x="1316" d="M37 0l297 1112h166l-49 -180q182 203 389 203q160 0 257 -93.5t97 -250.5q0 -63 -29 -173l-164 -618h-165l168 631q18 57 18 125q0 109 -66.5 170t-183.5 61q-129 0 -243.5 -101.5t-157.5 -256.5l-168 -629h-166zM481 1319q111 227 252 227q47 0 78 -16.5t76 -54.5 q63 -55 90 -60q6 -2 14 -2q37 0 65.5 30t67.5 99l107 -47q-111 -229 -252 -229q-70 0 -152 71q-68 63 -106 64q-61 0 -133 -127z" />
<glyph unicode="&#xf2;" horiz-adv-x="1370" d="M104 473q0 262 196 462t460 200q227 0 366.5 -139.5t139.5 -356.5q0 -266 -197 -466t-459 -200q-225 0 -365.5 140.5t-140.5 359.5zM272 477q0 -166 96.5 -260t252.5 -94q188 0 332.5 155.5t144.5 354.5q0 168 -96.5 262t-253.5 94q-188 0 -332 -157.5t-144 -354.5z M616 1511l175 80l120 -311h-116z" />
<glyph unicode="&#xf3;" horiz-adv-x="1370" d="M104 473q0 262 196 462t460 200q227 0 366.5 -139.5t139.5 -356.5q0 -266 -197 -466t-459 -200q-225 0 -365.5 140.5t-140.5 359.5zM272 477q0 -166 96.5 -260t252.5 -94q188 0 332.5 155.5t144.5 354.5q0 168 -96.5 262t-253.5 94q-188 0 -332 -157.5t-144 -354.5z M672 1280l286 311l172 -80l-305 -231h-153z" />
<glyph unicode="&#xf4;" horiz-adv-x="1370" d="M104 473q0 262 196 462t460 200q227 0 366.5 -139.5t139.5 -356.5q0 -266 -197 -466t-459 -200q-225 0 -365.5 140.5t-140.5 359.5zM272 477q0 -166 96.5 -260t252.5 -94q188 0 332.5 155.5t144.5 354.5q0 168 -96.5 262t-253.5 94q-188 0 -332 -157.5t-144 -354.5z M547 1280l303 281h145l154 -281h-133l-117 143l-207 -143h-145z" />
<glyph unicode="&#xf5;" horiz-adv-x="1370" d="M104 473q0 262 196 462t460 200q227 0 366.5 -139.5t139.5 -356.5q0 -266 -197 -466t-459 -200q-225 0 -365.5 140.5t-140.5 359.5zM272 477q0 -166 96.5 -260t252.5 -94q188 0 332.5 155.5t144.5 354.5q0 168 -96.5 262t-253.5 94q-188 0 -332 -157.5t-144 -354.5z M483 1319q111 227 252 227q47 0 78 -16.5t76 -54.5q63 -55 90 -60q6 -2 14 -2q37 0 65.5 30t67.5 99l107 -47q-111 -229 -252 -229q-70 0 -152 71q-68 63 -106 64q-61 0 -133 -127z" />
<glyph unicode="&#xf6;" horiz-adv-x="1370" d="M104 473q0 262 196 462t460 200q227 0 366.5 -139.5t139.5 -356.5q0 -266 -197 -466t-459 -200q-225 0 -365.5 140.5t-140.5 359.5zM272 477q0 -166 96.5 -260t252.5 -94q188 0 332.5 155.5t144.5 354.5q0 168 -96.5 262t-253.5 94q-188 0 -332 -157.5t-144 -354.5z M543 1280l55 203h193l-56 -203h-192zM922 1280l57 203h190l-55 -203h-192z" />
<glyph unicode="&#xf8;" horiz-adv-x="1370" d="M-86 -10l258 217q-68 117 -68 266q0 262 196 462t460 200q225 0 360 -136l154 125h182l-260 -217q70 -117 70 -268q0 -266 -197 -466t-459 -200q-219 0 -362 142l-152 -125h-182zM270 477q0 -84 33 -164l698 586q-92 92 -251 92q-190 0 -335 -157.5t-145 -356.5zM365 213 q96 -94 253 -94q190 0 336 156.5t146 357.5q0 94 -33 170z" />
<glyph unicode="&#xf9;" horiz-adv-x="1316" d="M125 319q0 66 29 173l161 620h166l-170 -631q-14 -63 -14 -125q0 -109 65.5 -170t182.5 -61q131 0 245.5 102.5t155.5 257.5l168 627h166l-297 -1112h-166l49 180q-180 -205 -389 -205q-162 0 -257 94t-95 250zM614 1511l174 80l121 -311h-116z" />
<glyph unicode="&#xfa;" horiz-adv-x="1316" d="M125 319q0 66 29 173l161 620h166l-170 -631q-14 -63 -14 -125q0 -109 65.5 -170t182.5 -61q131 0 245.5 102.5t155.5 257.5l168 627h166l-297 -1112h-166l49 180q-180 -205 -389 -205q-162 0 -257 94t-95 250zM690 1280l289 311l172 -80l-305 -231h-156z" />
<glyph unicode="&#xfb;" horiz-adv-x="1316" d="M125 319q0 66 29 173l161 620h166l-170 -631q-14 -63 -14 -125q0 -109 65.5 -170t182.5 -61q131 0 245.5 102.5t155.5 257.5l168 627h166l-297 -1112h-166l49 180q-180 -205 -389 -205q-162 0 -257 94t-95 250zM526 1280l303 281h148l151 -281h-133l-116 143l-205 -143 h-148z" />
<glyph unicode="&#xfc;" horiz-adv-x="1316" d="M125 319q0 66 29 173l161 620h166l-170 -631q-14 -63 -14 -125q0 -109 65.5 -170t182.5 -61q131 0 245.5 102.5t155.5 257.5l168 627h166l-297 -1112h-166l49 180q-180 -205 -389 -205q-162 0 -257 94t-95 250zM547 1280l55 203h193l-56 -203h-192zM928 1280l55 203h191 l-56 -203h-190z" />
<glyph unicode="&#xfd;" horiz-adv-x="1232" d="M-162 -272l90 125q72 -57 170 -58q145 0 291 207l-203 1110h172l156 -928l598 928h186l-761 -1149q-115 -170 -221.5 -241.5t-233.5 -71.5q-131 0 -244 78zM635 1280l287 311l172 -80l-306 -231h-153z" />
<glyph unicode="&#xfe;" horiz-adv-x="1415" d="M-55 -344l514 1913h164l-177 -649q193 215 422 215q193 0 317 -130.5t124 -340.5q0 -289 -186.5 -490t-436.5 -201q-299 0 -418 277l-157 -594h-166zM328 467q0 -147 96 -246.5t248 -99.5q195 0 329 156.5t134 371.5q0 156 -86 248t-228 92q-186 0 -339.5 -159.5 t-153.5 -362.5z" />
<glyph unicode="&#xff;" horiz-adv-x="1232" d="M-162 -272l90 125q72 -57 170 -58q145 0 291 207l-203 1110h172l156 -928l598 928h186l-761 -1149q-115 -170 -221.5 -241.5t-233.5 -71.5q-131 0 -244 78zM489 1280l58 203h192l-55 -203h-195zM870 1280l58 203h190l-55 -203h-193z" />
<glyph unicode="&#x152;" horiz-adv-x="2433" d="M182 633q0 344 240 586q285 287 772 286h1354l-41 -155h-879l-137 -514h780l-41 -154h-780l-143 -526h891l-44 -156h-1218q-387 0 -590 203q-164 162 -164 430zM360 643q0 -209 125 -334q158 -152 461 -151h191l321 1190h-287q-383 0 -622 -236q-189 -186 -189 -469z" />
<glyph unicode="&#x153;" horiz-adv-x="2238" d="M104 473q0 262 196 462t460 200q174 0 290.5 -88.5t157.5 -227.5q193 315 516 316q203 0 316.5 -121t113.5 -305q0 -113 -38 -209h-871q-2 -16 -2 -45q0 -154 90 -245t246 -91q180 0 342 131l88 -111q-197 -166 -434 -166q-168 0 -288 82t-161 219q-88 -135 -220 -218 t-300 -83q-221 0 -361.5 141.5t-140.5 358.5zM272 479q0 -166 96.5 -261t252.5 -95q188 0 332.5 151.5t144.5 348.5q0 170 -96.5 268t-253.5 98q-190 0 -333 -155.5t-143 -354.5zM1270 623h715q8 39 8 86q0 123 -71 204.5t-206 81.5q-160 0 -279.5 -106t-166.5 -266z" />
<glyph unicode="&#x178;" horiz-adv-x="1425" d="M256 1505h188l301 -760l711 760h217l-882 -927l-154 -578h-172l164 606zM688 1638l55 205h195l-57 -205h-193zM1069 1638l55 205h193l-57 -205h-191z" />
<glyph unicode="&#x2c6;" horiz-adv-x="1075" d="M432 1280l303 281h146l153 -281h-133l-117 143l-206 -143h-146z" />
<glyph unicode="&#x2dc;" horiz-adv-x="1075" d="M387 1319q111 227 252 227q47 0 76.5 -16.5t75.5 -54.5q66 -55 90 -60q8 -2 16 -2q37 0 65.5 30t67.5 99l105 -47q-109 -229 -250 -229q-70 0 -152 71q-70 63 -106 64q-61 0 -135 -127z" />
<glyph unicode="&#x2000;" horiz-adv-x="974" />
<glyph unicode="&#x2001;" horiz-adv-x="1949" />
<glyph unicode="&#x2002;" horiz-adv-x="974" />
<glyph unicode="&#x2003;" horiz-adv-x="1949" />
<glyph unicode="&#x2004;" horiz-adv-x="649" />
<glyph unicode="&#x2005;" horiz-adv-x="487" />
<glyph unicode="&#x2006;" horiz-adv-x="323" />
<glyph unicode="&#x2007;" horiz-adv-x="323" />
<glyph unicode="&#x2008;" horiz-adv-x="243" />
<glyph unicode="&#x2009;" horiz-adv-x="389" />
<glyph unicode="&#x200a;" horiz-adv-x="106" />
<glyph unicode="&#x2010;" horiz-adv-x="880" d="M141 559l45 174h600l-45 -174h-600z" />
<glyph unicode="&#x2011;" horiz-adv-x="880" d="M141 559l45 174h600l-45 -174h-600z" />
<glyph unicode="&#x2012;" horiz-adv-x="880" d="M141 559l45 174h600l-45 -174h-600z" />
<glyph unicode="&#x2013;" horiz-adv-x="1136" d="M141 563l43 166h858l-43 -166h-858z" />
<glyph unicode="&#x2014;" horiz-adv-x="1931" d="M141 563l43 166h1655l-43 -166h-1655z" />
<glyph unicode="&#x2018;" horiz-adv-x="546" d="M285 1028l53 195q37 137 108.5 203.5t202.5 89.5l19 -74q-178 -45 -203 -189h80l-64 -225h-196z" />
<glyph unicode="&#x2019;" horiz-adv-x="546" d="M250 1092q174 43 201 188h-78l61 225h199l-55 -194q-37 -139 -109 -204t-203 -87z" />
<glyph unicode="&#x201a;" horiz-adv-x="546" d="M-96 -186q176 45 200 186h-77l61 225h197l-54 -192q-39 -137 -109.5 -204t-201.5 -89z" />
<glyph unicode="&#x201c;" horiz-adv-x="976" d="M285 1028l51 193q39 139 109.5 204.5t203.5 87.5l15 -71q-174 -47 -199 -189h78l-62 -225h-196zM715 1028l51 193q39 139 109.5 204.5t201.5 87.5l17 -71q-174 -47 -199 -189h78l-62 -225h-196z" />
<glyph unicode="&#x201d;" horiz-adv-x="976" d="M233 1092q172 41 201 188h-78l62 225h196l-51 -194q-39 -137 -109.5 -203t-203.5 -88zM664 1092q172 41 200 188h-78l62 225h196l-51 -194q-39 -137 -109.5 -203t-203.5 -88z" />
<glyph unicode="&#x201e;" horiz-adv-x="976" d="M-96 -186q176 45 200 186h-77l61 225h197l-54 -192q-39 -137 -109.5 -204t-201.5 -89zM336 -186q174 45 199 186h-76l59 225h199l-53 -192q-37 -137 -109 -204t-203 -89z" />
<glyph unicode="&#x2022;" horiz-adv-x="1026" d="M274 702q0 139 95.5 243t228.5 104q102 0 166.5 -64.5t64.5 -171.5q0 -137 -95 -242.5t-226 -105.5q-104 0 -169 64t-65 173z" />
<glyph unicode="&#x2026;" horiz-adv-x="1576" d="M27 0l59 223h197l-62 -223h-194zM543 0l61 223h195l-62 -223h-194zM1061 0l59 223h197l-62 -223h-194z" />
<glyph unicode="&#x202f;" horiz-adv-x="389" />
<glyph unicode="&#x2039;" horiz-adv-x="704" d="M96 543l4 16l478 465l108 -90l-403 -404l176 -378l-135 -68z" />
<glyph unicode="&#x203a;" horiz-adv-x="704" d="M16 172l404 401l-176 381l135 68l225 -459l-4 -16l-475 -465z" />
<glyph unicode="&#x2044;" horiz-adv-x="1165" d="M-211 -211l1499 1841h170l-1499 -1841h-170z" />
<glyph unicode="&#x205f;" horiz-adv-x="487" />
<glyph unicode="&#x2122;" horiz-adv-x="1488" d="M270 1415l27 90h518l-27 -90h-210l-160 -571h-94l157 571h-211zM776 844l187 661h90l141 -362l330 362h110l-186 -661h-92l143 506l-334 -359h-10l-139 359l-146 -506h-94z" />
<glyph unicode="&#xe000;" horiz-adv-x="1110" d="M0 1110h1110v-1110h-1110v1110z" />
<glyph unicode="&#xfb01;" horiz-adv-x="1372" d="M98 0l260 965h-151l39 147h151l37 133q86 330 381 330q131 0 221 -47l-39 -144q-96 45 -182 46q-168 0 -223 -211l-29 -107h365l-41 -147h-363l-260 -965h-166zM858 0l299 1112h166l-299 -1112h-166zM1210 1356l52 182h188l-49 -182h-191z" />
<glyph unicode="&#xfb02;" horiz-adv-x="1372" d="M98 0l260 965h-151l39 147h151l37 133q86 330 381 330q131 0 221 -47l-39 -144q-96 45 -182 46q-168 0 -223 -211l-29 -107h365l-41 -147h-363l-260 -965h-166zM858 0l422 1569h166l-422 -1569h-166z" />
<glyph unicode="&#xfb03;" horiz-adv-x="2179" d="M1665 0l299 1112h166l-299 -1112h-166zM2017 1356l52 182h188l-49 -182h-191zM905 0l260 965h-151l39 147h151l37 133q86 330 381 330q131 0 221 -47l-39 -144q-96 45 -182 46q-168 0 -223 -211l-29 -107h365l-41 -147h-363l-260 -965h-166zM98 0l260 965h-151l39 147 h151l37 133q86 330 381 330q131 0 221 -47l-39 -144q-96 45 -182 46q-168 0 -223 -211l-29 -107h365l-41 -147h-363l-260 -965h-166z" />
<glyph unicode="&#xfb04;" horiz-adv-x="2179" d="M1665 0l422 1569h166l-422 -1569h-166zM905 0l260 965h-151l39 147h151l37 133q86 330 381 330q131 0 221 -47l-39 -144q-96 45 -182 46q-168 0 -223 -211l-29 -107h365l-41 -147h-363l-260 -965h-166zM98 0l260 965h-151l39 147h151l37 133q86 330 381 330 q131 0 221 -47l-39 -144q-96 45 -182 46q-168 0 -223 -211l-29 -107h365l-41 -147h-363l-260 -965h-166z" />
</font>
</defs>
</svg>
