<?xml version="1.0" standalone="no"?>
<!DOCTYPE svg PUBLIC "-//W3C//DTD SVG 1.1//EN" "http://www.w3.org/Graphics/SVG/1.1/DTD/svg11.dtd" >
<svg xmlns="http://www.w3.org/2000/svg">
<metadata>
This is a custom SVG webfont generated by Font Squirrel.
Copyright   : HTF Gotham Copr 2003 The Hoefler Type Foundry Inc Info wwwtypographycom
</metadata>
<defs>
<font id="GothamHTFThin" horiz-adv-x="1878" >
<font-face units-per-em="2048" ascent="1638" descent="-410" />
<missing-glyph horiz-adv-x="624" />
<glyph unicode=" "  horiz-adv-x="624" />
<glyph unicode="&#x09;" horiz-adv-x="624" />
<glyph unicode="&#xa0;" horiz-adv-x="624" />
<glyph unicode="!" horiz-adv-x="432" d="M176 0v117h80v-117h-80zM193 1321v242h49v-242l-15 -913h-22z" />
<glyph unicode="&#x22;" horiz-adv-x="677" d="M133 995l80 568h55v-4l-108 -564h-27zM420 995l78 568h55v-4l-107 -564h-26z" />
<glyph unicode="#" horiz-adv-x="1472" d="M109 449v43h264l102 593h-276v41h282l76 437h45l-76 -437h535l76 437h45l-76 -437h256v-41h-264l-101 -593h275v-43h-283l-76 -449h-45l76 449h-532l-76 -449h-45l76 449h-258zM418 489h532l103 598h-531z" />
<glyph unicode="$" horiz-adv-x="1386" d="M150 242l32 32q213 -207 492 -231v735q-242 55 -355.5 144.5t-113.5 246.5v5q0 164 131 275.5t338 111.5v131h43v-131q260 -14 454 -183l-30 -37q-193 168 -424 179v-707q260 -59 382 -150.5t122 -254.5v-5q0 -176 -132.5 -289.5t-351.5 -113.5h-20v-219h-43v221 q-301 25 -524 240zM254 1171q0 -139 97.5 -215.5t322.5 -130.5v695q-186 0 -303 -99.5t-117 -244.5v-5zM717 41h22q195 0 313.5 102.5t118.5 257.5v5q0 150 -105 226.5t-349 135.5v-727z" />
<glyph unicode="%" horiz-adv-x="1771" d="M121 1176v6q0 162 97 280.5t248.5 118.5t249 -119t97.5 -280v-6q0 -164 -96 -282t-250 -118q-152 0 -249 119t-97 281zM170 1180q0 -145 84 -253t215 -108t213 103.5t82 251.5v6q0 143 -84 250.5t-216 107.5t-213 -104.5t-81 -249.5v-4zM289 0l1147 1563h49l-1147 -1563 h-49zM961 381v6q0 162 97 280.5t248.5 118.5t249 -118.5t97.5 -280.5v-6q0 -164 -96.5 -281.5t-249.5 -117.5q-152 0 -249 118.5t-97 280.5zM1010 383q0 -143 83 -250.5t215 -107.5t214 103t82 251v4q0 145 -84 252.5t-216.5 107.5t-213 -104t-80.5 -250v-6z" />
<glyph unicode="&#x26;" horiz-adv-x="1484" d="M117 381v6q0 92 32.5 168t102.5 134.5t133.5 94t161.5 82.5q-209 219 -209 396v4q0 125 95 224t259 99q152 0 249 -95t97 -220v-4q0 -125 -93 -219.5t-322 -198.5l483 -520q119 170 217 438l43 -12q-102 -279 -231 -457l272 -295l-35 -29l-264 289q-231 -289 -530 -289 q-201 0 -331 119t-130 285zM166 381q0 -147 114.5 -252.5t297.5 -105.5q285 0 499 274l-497 537q-98 -45 -155.5 -78t-126.5 -87.5t-100.5 -124t-31.5 -157.5v-6zM383 1264q0 -170 209 -379q225 98 312 185t87 200v4q0 109 -84 190.5t-215 81.5q-139 0 -224 -86t-85 -192v-4 z" />
<glyph unicode="'" horiz-adv-x="391" d="M133 995l80 568h55v-4l-108 -564h-27z" />
<glyph unicode="(" horiz-adv-x="870" d="M150 641q0 299 148 544t437 408l23 -34q-272 -154 -414.5 -392.5t-142.5 -526.5t142 -525.5t415 -390.5l-23 -37q-289 166 -437 410.5t-148 543.5z" />
<glyph unicode=")" horiz-adv-x="870" d="M115 -276q272 154 413.5 391t141.5 525t-141.5 526.5t-413.5 392.5l20 34q289 -164 437.5 -408.5t148.5 -543.5t-148.5 -543.5t-437.5 -410.5z" />
<glyph unicode="*" horiz-adv-x="958" d="M178 1092l283 145l-283 145l27 41l264 -168l-14 312h49l-12 -312l262 168l28 -41l-282 -145l282 -145l-28 -43l-262 170l12 -312h-49l14 312l-264 -170z" />
<glyph unicode="+" horiz-adv-x="1230" d="M150 766v39h444v469h45v-469h444v-39h-444v-469h-45v469h-444z" />
<glyph unicode="," horiz-adv-x="364" d="M125 -152q63 29 57 152h-39v117h80v-103q0 -92 -19.5 -133t-62.5 -61z" />
<glyph unicode="-" horiz-adv-x="864" d="M156 641v47h555v-47h-555z" />
<glyph unicode="." horiz-adv-x="364" d="M143 0v117h80v-117h-80z" />
<glyph unicode="/" horiz-adv-x="1050" d="M-41 -287l1051 2069h51l-1051 -2069h-51z" />
<glyph unicode="0" horiz-adv-x="1583" d="M154 778v6q0 334 173 569.5t465.5 235.5t466 -234.5t173.5 -570.5v-6q0 -334 -173.5 -569.5t-466 -235.5t-465.5 234.5t-173 570.5zM203 782q0 -315 160.5 -539.5t431.5 -224.5q180 0 316 106.5t203.5 277.5t67.5 374v6q0 313 -160.5 537.5t-430.5 224.5 q-180 0 -316.5 -106.5t-204 -277.5t-67.5 -374v-4z" />
<glyph unicode="1" horiz-adv-x="702" d="M74 1430l319 143h39v-1573h-45v1518l-293 -132z" />
<glyph unicode="2" horiz-adv-x="1265" d="M90 0v29l707 686q166 160 222 267.5t56 205.5q0 145 -116.5 248.5t-294.5 103.5q-315 0 -488 -315l-43 24q182 336 533 336q201 0 329.5 -113.5t128.5 -279.5v-4q0 -115 -58 -225.5t-241 -284.5l-655 -633h977v-45h-1057z" />
<glyph unicode="3" horiz-adv-x="1198" d="M23 252l40 31q88 -119 223.5 -192t299.5 -73q188 0 321 110t133 273v5q0 199 -153.5 294t-425.5 95h-55l-15 30l606 693h-891v45h957v-35l-602 -688q299 -2 464 -109.5t165 -322.5v-5q0 -184 -148.5 -307t-359.5 -123q-176 0 -319.5 76t-239.5 203z" />
<glyph unicode="4" horiz-adv-x="1382" d="M78 438l940 1135h41v-1120h256v-45h-256v-408h-47v408h-920zM147 453h865v1044z" />
<glyph unicode="5" horiz-adv-x="1318" d="M123 223l37 33q88 -104 220 -171t279 -67q213 0 349.5 124t136.5 319v4q0 184 -137.5 301t-339.5 117q-221 0 -416 -107l-29 17l47 770h832v-45h-787l-41 -678q180 86 398 86q225 0 373.5 -128t148.5 -331v-4q0 -215 -150.5 -352.5t-388.5 -137.5q-154 0 -300 72 t-232 178z" />
<glyph unicode="6" horiz-adv-x="1396" d="M156 733v4q0 375 164.5 613.5t449.5 238.5q244 0 438 -180l-32 -37q-184 172 -408 172q-262 0 -412.5 -228.5t-150.5 -578.5v-4q0 -63 4 -196q18 172 167.5 296.5t346.5 124.5q236 0 390.5 -136t154.5 -345v-4q0 -203 -155 -351.5t-380 -148.5q-233 0 -391 158 q-186 186 -186 602zM244 475q0 -184 143 -320.5t348 -136.5q201 0 342.5 136.5t141.5 316.5v4q0 190 -141.5 314t-356.5 124q-195 0 -336 -130t-141 -304v-4z" />
<glyph unicode="7" horiz-adv-x="1187" d="M117 1518v45h1016v-29l-771 -1534h-55l768 1518h-958z" />
<glyph unicode="8" horiz-adv-x="1396" d="M127 397v4q0 150 115.5 260.5t294.5 143.5q-162 41 -254.5 139t-92.5 238v4q0 170 145.5 284.5t362.5 114.5t363.5 -114.5t146.5 -284.5v-4q0 -139 -93 -237.5t-253 -139.5q176 -37 292 -147.5t116 -256.5v-4q0 -176 -154.5 -298t-416 -122t-417 122t-155.5 298zM176 399 q0 -158 144.5 -267t381 -109t378 107.5t141.5 264.5v4q0 166 -153 275.5t-372 109.5t-369.5 -107.5t-150.5 -273.5v-4zM240 1184q0 -158 133 -257.5t327.5 -99.5t326.5 97.5t132 255.5v4q0 152 -134 254t-328.5 102t-325.5 -100.5t-131 -251.5v-4z" />
<glyph unicode="9" horiz-adv-x="1396" d="M129 1077v6q0 211 156.5 358.5t380.5 147.5q231 0 391 -157q184 -186 184 -603v-4q0 -375 -164 -613.5t-450 -238.5q-256 0 -451 195l33 35q190 -184 420 -185q262 0 412.5 228.5t150.5 578.5v4q0 84 -4 191q-18 -178 -167 -303t-347 -125q-233 0 -389 136t-156 349z M178 1081q0 -197 142.5 -320.5t355.5 -123.5q195 0 337 129t142 309v6q0 193 -143.5 328t-347.5 135q-199 0 -342.5 -136t-143.5 -323v-4z" />
<glyph unicode=":" horiz-adv-x="374" d="M147 0v117h80v-117h-80zM147 999v117h80v-117h-80z" />
<glyph unicode=";" horiz-adv-x="374" d="M129 -152q63 29 59 152h-41v117h80v-103q0 -92 -18.5 -133t-63.5 -61zM147 999v117h80v-117h-80z" />
<glyph unicode="&#x3c;" horiz-adv-x="1339" d="M127 774v23l1028 524v-51l-956 -484l956 -485v-51z" />
<glyph unicode="=" horiz-adv-x="1339" d="M207 502v45h926v-45h-926zM207 1026v45h926v-45h-926z" />
<glyph unicode="&#x3e;" horiz-adv-x="1339" d="M184 250v51l957 485l-957 484v51l1028 -524v-23z" />
<glyph unicode="?" horiz-adv-x="1112" d="M53 1305q174 279 475 278q209 0 339 -121t130 -297v-4q0 -190 -141 -303t-342 -133l-16 -317h-23l-18 352l8 6q213 16 348 119.5t135 273.5v4q0 158 -117.5 266.5t-304.5 108.5q-133 0 -246.5 -71.5t-185.5 -190.5zM446 0v117h80v-117h-80z" />
<glyph unicode="@" horiz-adv-x="2117" d="M143 586q0 197 70 379t191.5 319t297 221t371.5 84q383 0 643 -256t260 -608q0 -264 -115.5 -404.5t-252.5 -140.5q-123 0 -182.5 80t-55.5 191q-57 -121 -163.5 -196t-225.5 -75q-162 0 -265.5 99.5t-103.5 269.5q0 219 139.5 370.5t323.5 151.5q131 0 225.5 -74.5 t116.5 -197.5l41 221l45 -8l-80 -426q-10 -57 -10 -125q0 -240 195 -240q123 0 223 128t100 374q0 340 -247.5 582.5t-612.5 242.5q-250 0 -454.5 -134t-316.5 -354t-112 -472q0 -406 260.5 -659t645.5 -253q295 0 518 150l24 -35q-229 -156 -544 -156q-403 0 -676 265.5 t-273 685.5zM662 551q0 -152 88 -239t231 -87q168 0 290 144.5t122 326.5q0 141 -90.5 235.5t-227.5 94.5q-166 0 -289.5 -138t-123.5 -337z" />
<glyph unicode="A" horiz-adv-x="1712" d="M82 0l754 1573h41l753 -1573h-53l-223 469h-998l-223 -469h-51zM379 514h952l-477 995z" />
<glyph unicode="B" horiz-adv-x="1617" d="M231 0v1563h641q276 0 412 -133q100 -100 100 -261v-4q0 -141 -82.5 -239.5t-218.5 -128.5q164 -25 273.5 -129.5t109.5 -259.5v-5q0 -190 -146 -296.5t-411 -106.5h-678zM281 45h628q240 0 374 93t134 263v5q0 170 -134 266t-337 96h-665v-723zM281 813h628 q184 0 305 89t121 261v4q0 162 -124 256.5t-341 94.5h-589v-705z" />
<glyph unicode="C" horiz-adv-x="1619" d="M164 776v6q0 334 218 570.5t550 236.5q203 0 334 -62.5t258 -185.5l-33 -32q-113 109 -243 172t-320 63q-305 0 -510 -224t-205 -536v-6q0 -313 206 -536.5t509 -223.5q334 0 569 254l37 -32q-252 -266 -608 -267q-326 0 -544 234.5t-218 568.5z" />
<glyph unicode="D" horiz-adv-x="1726" d="M231 0v1563h504q362 0 596 -223.5t234 -555.5v-6q0 -332 -233.5 -555t-596.5 -223h-504zM281 45h456q340 0 559.5 211t219.5 520v6q0 311 -221.5 523.5t-561.5 212.5h-452v-1473z" />
<glyph unicode="E" horiz-adv-x="1474" d="M231 0v1563h1092v-45h-1042v-709h948v-45h-948v-719h1054v-45h-1104z" />
<glyph unicode="F" horiz-adv-x="1392" d="M231 0v1563h1082v-45h-1032v-725h936v-45h-936v-748h-50z" />
<glyph unicode="G" horiz-adv-x="1738" d="M164 776v6q0 211 91 393.5t270.5 298t410.5 115.5q170 0 294 -49t249 -151l-33 -39q-117 96 -235.5 145t-276.5 49q-317 0 -519 -228.5t-202 -531.5v-6q0 -315 195.5 -537.5t527.5 -222.5q303 0 555 213v504h-576v49h625v-569q-266 -242 -606 -242q-356 0 -563 232.5 t-207 570.5z" />
<glyph unicode="H" horiz-adv-x="1677" d="M231 0v1563h50v-752h1116v752h49v-1563h-49v766h-1116v-766h-50z" />
<glyph unicode="I" horiz-adv-x="542" d="M248 0v1563h49v-1563h-49z" />
<glyph unicode="J" horiz-adv-x="1191" d="M68 289l43 18q55 -135 161.5 -211t245.5 -76q180 0 297 129.5t117 380.5v1033h49v-1024q0 -291 -147 -439q-125 -125 -320 -125q-147 0 -268 83.5t-178 230.5z" />
<glyph unicode="K" horiz-adv-x="1572" d="M231 0v1563h50v-1057l1081 1057h70l-680 -660l704 -903h-61l-676 870l-438 -426v-444h-50z" />
<glyph unicode="L" horiz-adv-x="1302" d="M231 0v1563h50v-1518h960v-45h-1010z" />
<glyph unicode="M" horiz-adv-x="1916" d="M231 0v1563h48l682 -969l679 969h46v-1563h-50v1481l-675 -965h-3l-677 965v-1481h-50z" />
<glyph unicode="N" horiz-adv-x="1740" d="M231 0v1563h43l1188 -1483v1483h47v-1563h-43l-1187 1483v-1483h-48z" />
<glyph unicode="O" d="M164 778v6q0 330 216 567.5t560 237.5t560 -237.5t216 -567.5v-6q0 -330 -216 -567.5t-560 -237.5t-560 237.5t-216 567.5zM213 782q0 -311 206 -537.5t523 -226.5q319 0 522 224.5t203 533.5v6q0 309 -206 535.5t-523 226.5q-319 0 -522 -224t-203 -534v-4z" />
<glyph unicode="P" horiz-adv-x="1490" d="M229 0v1563h549q287 0 444.5 -124t157.5 -345v-4q0 -225 -161.5 -350.5t-448.5 -125.5h-491v-614h-50zM279 659h491q264 0 412.5 112t148.5 316v5q0 201 -147.5 313.5t-409.5 112.5h-495v-859z" />
<glyph unicode="Q" d="M164 778v6q0 330 216 567.5t560 237.5t560 -237.5t216 -567.5v-6q0 -332 -213 -565l226 -197l-33 -36l-228 198q-221 -205 -528 -205q-344 0 -560 237.5t-216 567.5zM213 782q0 -311 206 -537.5t523 -226.5q289 0 492 191l-347 303l31 35l348 -303q201 219 201 532v6 q0 309 -206 535.5t-523 226.5q-319 0 -522 -224t-203 -534v-4z" />
<glyph unicode="R" horiz-adv-x="1615" d="M231 0v1563h639q301 0 449 -148q113 -111 113 -291v-4q0 -195 -140.5 -309.5t-371.5 -126.5l520 -684h-60l-518 680h-8h-573v-680h-50zM281 725h565q262 0 399 109.5t137 283.5v4q0 186 -136 291t-380 105h-585v-793z" />
<glyph unicode="S" horiz-adv-x="1431" d="M131 227l37 37q248 -242 586 -241q217 0 349 103t132 265v4q0 147 -110.5 232.5t-401.5 142.5t-412 151.5t-121 260.5v4q0 164 144.5 281.5t363.5 117.5q299 0 533 -178l-33 -41q-229 174 -504 174q-199 0 -326.5 -104.5t-127.5 -247.5v-4q0 -145 110.5 -228.5 t392.5 -140.5q299 -61 420 -157.5t121 -260.5v-4q0 -178 -145.5 -297t-388.5 -119q-355 0 -619 250z" />
<glyph unicode="T" horiz-adv-x="1298" d="M59 1518v45h1180v-45h-565v-1518h-49v1518h-566z" />
<glyph unicode="U" horiz-adv-x="1677" d="M207 692v871h49v-871q0 -328 158.5 -500t427.5 -172q270 0 424.5 171t154.5 499v873h49v-871q0 -350 -170 -533.5t-460 -183.5q-289 0 -461 183.5t-172 533.5z" />
<glyph unicode="V" horiz-adv-x="1622" d="M82 1563h53l678 -1506l676 1506h51l-711 -1573h-36z" />
<glyph unicode="W" horiz-adv-x="2269" d="M98 1563h52l491 -1495l475 1499h39l477 -1501l492 1497h49l-520 -1573h-43l-475 1485l-473 -1485h-44z" />
<glyph unicode="X" horiz-adv-x="1499" d="M82 0l639 795l-617 768h60l586 -736l585 736h60l-617 -768l639 -795h-57l-610 764l-607 -764h-61z" />
<glyph unicode="Y" horiz-adv-x="1466" d="M49 1563h57l631 -867l623 867h57l-657 -910v-653h-49v653z" />
<glyph unicode="Z" horiz-adv-x="1513" d="M147 0v29l1133 1489h-1096v45h1164v-29l-1131 -1489h1124v-45h-1194z" />
<glyph unicode="[" horiz-adv-x="913" d="M219 -291v1854h586v-39h-537v-1776h537v-39h-586z" />
<glyph unicode="\" horiz-adv-x="1050" d="M-8 1782h51l1049 -2069h-52z" />
<glyph unicode="]" horiz-adv-x="913" d="M109 -252h538v1776h-538v39h587v-1854h-587v39z" />
<glyph unicode="^" horiz-adv-x="1116" d="M197 1102l348 467h26l349 -467h-37l-326 409l-324 -409h-36z" />
<glyph unicode="_" horiz-adv-x="1226" d="M-4 -289h1237v-43h-1237v43z" />
<glyph unicode="`" horiz-adv-x="1116" d="M383 1579l57 27l213 -277h-30z" />
<glyph unicode="a" horiz-adv-x="1261" d="M115 307v6q0 168 139 261.5t358 93.5q227 0 420 -70v94q0 199 -110.5 298.5t-311.5 99.5q-178 0 -370 -95l-19 41q201 98 391 99q233 0 357 -123q109 -111 108 -318v-694h-45v264q-41 -115 -173 -203t-329 -88q-174 0 -294.5 88t-120.5 246zM164 311q0 -141 106.5 -217 t264.5 -76q215 0 356 117t141 273v143q-190 72 -418 72q-199 0 -324.5 -80t-125.5 -228v-4z" />
<glyph unicode="b" horiz-adv-x="1460" d="M207 0v1630h47v-860q49 166 187.5 269.5t328.5 103.5q242 0 400.5 -169t158.5 -413v-6q0 -244 -158.5 -413t-400.5 -169q-190 0 -328.5 103.5t-187.5 269.5v-346h-47zM252 555q0 -219 147.5 -378t368.5 -159q225 0 368.5 154t143.5 381v4q0 229 -143.5 385t-368.5 156 q-223 0 -369.5 -157t-146.5 -380v-6z" />
<glyph unicode="c" horiz-adv-x="1251" d="M129 555v6q0 240 166 411t405 171q250 0 447 -207l-33 -33q-182 195 -416 195q-221 0 -370.5 -157t-149.5 -378v-6q0 -217 153.5 -378t368.5 -161q238 0 420 207l35 -30q-190 -221 -457 -222q-238 0 -403.5 172t-165.5 410z" />
<glyph unicode="d" horiz-adv-x="1460" d="M133 555v6q0 244 159 413t400 169q190 0 328.5 -103.5t187.5 -269.5v860h47v-1630h-47v346q-49 -166 -187 -269.5t-329 -103.5q-242 0 -400.5 169t-158.5 413zM182 557q0 -227 143.5 -383t368.5 -156q223 0 369.5 157t146.5 380v6q0 221 -147.5 379t-368.5 158 q-225 0 -368.5 -153.5t-143.5 -381.5v-6z" />
<glyph unicode="e" horiz-adv-x="1300" d="M129 557v6q0 248 151.5 414t385.5 166q246 0 380 -178.5t134 -411.5v-8h-1000q8 -238 153.5 -382.5t356.5 -144.5q123 0 232.5 63.5t179.5 162.5l39 -27q-76 -111 -195 -177.5t-258 -66.5q-238 0 -398.5 161t-160.5 423zM180 588h946q-6 205 -130 357.5t-332 152.5 q-207 0 -340.5 -144.5t-143.5 -365.5z" />
<glyph unicode="f" horiz-adv-x="724" d="M109 1073v43h178v160q0 190 90 283q78 78 213 77q86 0 155 -30v-47q-68 31 -155 30q-258 0 -258 -321v-152h409v-43h-409v-1073h-45v1073h-178z" />
<glyph unicode="g" horiz-adv-x="1441" d="M133 610v4q0 219 162 374t391 155q166 0 302 -89t200 -235v297h47v-946q0 -248 -143.5 -391.5t-399.5 -143.5q-274 0 -508 172l31 39q215 -166 477 -165q227 0 361.5 128t134.5 369v228q-63 -143 -199.5 -233.5t-302.5 -90.5q-229 0 -391 155.5t-162 372.5zM184 612 q0 -201 147.5 -343t355.5 -142t356.5 142.5t148.5 336.5v6q0 197 -148.5 341.5t-355.5 144.5q-211 0 -357.5 -141.5t-146.5 -340.5v-4z" />
<glyph unicode="h" horiz-adv-x="1355" d="M207 0v1630h47v-819q35 123 151.5 227.5t296.5 104.5q223 0 346 -138.5t123 -373.5v-631h-47v627q0 215 -110.5 343t-315.5 128q-184 0 -314 -139.5t-130 -340.5v-618h-47z" />
<glyph unicode="i" horiz-adv-x="487" d="M209 1436v127h70v-127h-70zM221 0v1116h47v-1116h-47z" />
<glyph unicode="j" horiz-adv-x="491" d="M-29 -319q29 -8 80 -9q78 0 126 56.5t48 160.5v1227h47v-1222q0 -131 -59 -199t-162 -68q-45 0 -80 8v46zM215 1436v127h68v-127h-68z" />
<glyph unicode="k" horiz-adv-x="1210" d="M207 0v1630h47v-1239l774 725h64l-531 -493l565 -623h-57l-539 594l-276 -256v-338h-47z" />
<glyph unicode="l" horiz-adv-x="487" d="M221 0v1630h47v-1630h-47z" />
<glyph unicode="m" horiz-adv-x="2060" d="M207 0v1116h47v-287q27 119 136.5 216.5t250.5 97.5q172 0 272.5 -92.5t133.5 -239.5q35 129 146.5 230.5t252.5 101.5q193 0 306.5 -125t113.5 -356v-662h-47v655q0 213 -102.5 328t-272.5 115q-150 0 -266.5 -130t-116.5 -317v-651h-47v655q0 213 -102.5 328 t-272.5 115q-150 0 -267.5 -130t-117.5 -317v-651h-47z" />
<glyph unicode="n" horiz-adv-x="1355" d="M207 0v1116h47v-305q35 123 151.5 227.5t296.5 104.5q223 0 346 -138.5t123 -373.5v-631h-47v627q0 215 -110.5 343t-315.5 128q-184 0 -314 -139.5t-130 -340.5v-618h-47z" />
<glyph unicode="o" horiz-adv-x="1415" d="M127 553v4q0 242 162 414t420 172q254 0 416.5 -170t162.5 -410v-6q0 -240 -161.5 -412t-417.5 -172t-419 170t-163 410zM176 555q0 -223 151.5 -380t383.5 -157q231 0 379.5 157t148.5 380v6q0 223 -151.5 380t-382.5 157t-380 -157t-149 -380v-6z" />
<glyph unicode="p" horiz-adv-x="1460" d="M207 -356v1472h47v-346q49 166 187.5 269.5t328.5 103.5q242 0 400.5 -169t158.5 -413v-6q0 -244 -158.5 -413t-400.5 -169q-190 0 -328.5 103.5t-187.5 269.5v-702h-47zM252 555q0 -219 147.5 -378t368.5 -159q225 0 368.5 154t143.5 381v4q0 229 -143.5 385t-368.5 156 q-223 0 -369.5 -157t-146.5 -380v-6z" />
<glyph unicode="q" horiz-adv-x="1460" d="M133 555v6q0 244 159 413t400 169q190 0 328.5 -103.5t187.5 -269.5v346h47v-1472h-47v702q-49 -166 -187 -269.5t-329 -103.5q-242 0 -400.5 169t-158.5 413zM182 557q0 -227 143.5 -383t368.5 -156q223 0 369.5 157t146.5 380v6q0 221 -147.5 379t-368.5 158 q-225 0 -368.5 -153.5t-143.5 -381.5v-6z" />
<glyph unicode="r" horiz-adv-x="747" d="M207 0v1116h47v-356q43 156 166 270q121 113 289 113h6v-45h-13q-193 0 -320.5 -169t-127.5 -351v-578h-47z" />
<glyph unicode="s" horiz-adv-x="1093" d="M98 145l29 37q190 -158 424 -157q152 0 252 70.5t100 176.5v4q0 49 -22.5 89.5t-50 65t-89 50t-94.5 35.5t-108 33q-203 57 -297.5 117.5t-94.5 181.5v4q0 121 109 203t281 82q209 0 387 -125l-27 -41q-170 121 -360 121q-150 0 -245 -68t-95 -170v-4q0 -100 89 -153.5 t265 -102.5q78 -23 128 -38t107.5 -43t90 -58.5t54 -74.5t21.5 -101v-5q0 -129 -113.5 -211.5t-289.5 -82.5q-254 -1 -451 165z" />
<glyph unicode="t" horiz-adv-x="831" d="M92 1073v43h176v387h47v-387h412v-43h-412v-782q0 -127 60.5 -196.5t177.5 -69.5q90 0 170 41v-50q-78 -37 -170 -36q-137 0 -211 79.5t-74 227.5v786h-176z" />
<glyph unicode="u" horiz-adv-x="1355" d="M184 485v631h47v-627q0 -215 111 -343t317 -128q184 0 313.5 139.5t129.5 340.5v618h47v-1116h-47v305q-33 -123 -149.5 -227.5t-299.5 -104.5q-223 0 -346 138t-123 374z" />
<glyph unicode="v" horiz-adv-x="1249" d="M92 1116h51l484 -1067l483 1067h49l-514 -1124h-35z" />
<glyph unicode="w" horiz-adv-x="1794" d="M106 1116h50l360 -1053l363 1059h39l362 -1059l360 1053h48l-392 -1124h-36l-363 1061l-360 -1061h-39z" />
<glyph unicode="x" horiz-adv-x="1181" d="M76 0l489 567l-471 549h56l442 -520l444 520h54l-472 -549l490 -567h-57l-459 539l-463 -539h-53z" />
<glyph unicode="y" horiz-adv-x="1269" d="M94 1116h51l508 -1067l482 1067h49l-518 -1139q-94 -205 -169 -273.5t-190 -68.5q-111 0 -209 62l23 37q94 -55 186 -56q100 0 168 63.5t156 258.5z" />
<glyph unicode="z" horiz-adv-x="1085" d="M80 0v27l852 1046h-826v43h893v-26l-849 -1047h854v-43h-924z" />
<glyph unicode="{" horiz-adv-x="980" d="M98 618v46h45q143 0 211 82.5t68 211.5v179q0 70 3 110.5t15.5 94t38 86t70.5 67.5t114.5 59.5t163.5 40.5l11 -41q-127 -25 -205 -61.5t-111 -96t-42 -111.5t-9 -148v-179q0 -133 -62.5 -219t-185.5 -98q123 -14 185.5 -100t62.5 -217v-179q0 -96 9 -148t42 -111.5 t111 -96.5t205 -61l-11 -43q-94 18 -163.5 42.5t-114.5 59.5t-70.5 66.5t-38 86t-15.5 95.5t-3 110v179q0 127 -67.5 210.5t-211.5 83.5h-45z" />
<glyph unicode="|" horiz-adv-x="573" d="M266 -287v2069h41v-2069h-41z" />
<glyph unicode="}" horiz-adv-x="980" d="M145 -272q127 25 204 61.5t111 96t43 111.5t9 148v179q0 131 62.5 217t185.5 100q-123 12 -185.5 98t-62.5 219v179q0 96 -9 148t-43 111.5t-111 96.5t-204 61l9 41q96 -16 165.5 -40.5t113.5 -59.5t69.5 -67.5t38 -86t16.5 -94.5t4 -110v-179q0 -129 67.5 -211.5 t211.5 -82.5h45v-46h-45q-143 0 -211 -83.5t-68 -210.5v-179q0 -70 -4 -110.5t-16.5 -95t-38 -86t-69.5 -66.5t-113.5 -59.5t-165.5 -42.5z" />
<glyph unicode="~" horiz-adv-x="980" d="M188 571q37 178 160 179q47 0 150.5 -64.5t140.5 -64.5q84 0 127 141l29 -8q-37 -178 -160 -179q-47 0 -151.5 65t-139.5 65q-86 0 -127 -140z" />
<glyph unicode="&#xa1;" horiz-adv-x="432" d="M176 1446v117h80v-117h-80zM193 0v242l12 913h22l15 -913v-242h-49z" />
<glyph unicode="&#xa2;" horiz-adv-x="1251" d="M152 791v4q0 238 167.5 410.5t403.5 172.5q41 0 65 -4l39 203h45l-38 -209q180 -35 335 -199l-30 -30q-152 156 -316 186l-209 -1067q66 -8 101 -8q252 0 430 205l31 -27q-186 -221 -463 -221q-47 0 -109 12l-43 -233h-43l47 241q-184 49 -298.5 207t-114.5 357zM199 793 q0 -178 104.5 -326t269.5 -197l209 1063q-20 2 -61 2q-219 0 -370.5 -159.5t-151.5 -378.5v-4z" />
<glyph unicode="&#xa3;" horiz-adv-x="1335" d="M145 0v29l203 18v666h-203v45h203v260q0 289 150 438q129 129 325 129q264 0 426 -248l-39 -26q-152 229 -389 229q-174 0 -291 -117q-133 -133 -133 -399v-266h674v-45h-674v-668h838v-45h-1090z" />
<glyph unicode="&#xa4;" horiz-adv-x="1605" d="M109 580v45h202q-10 98 -10 151v6q0 96 16 179h-208v43h215q55 260 221 422.5t387 162.5q338 0 532 -317l-43 -25q-180 297 -489 297q-207 0 -357.5 -150.5t-203.5 -389.5h696v-43h-705q-16 -102 -16 -179v-6q0 -53 8 -151h713v-45h-702q49 -254 204.5 -408t376.5 -154 q293 0 484 314l38 -21q-203 -338 -522 -338q-242 0 -410.5 166t-218.5 441h-208z" />
<glyph unicode="&#xa5;" horiz-adv-x="1376" d="M49 1563h62l581 -867l578 867h59l-590 -871h432v-45h-456v-334h456v-45h-456v-268h-49v268h-461v45h461v334h-461v45h434l-147 219q-147 215 -295 432z" />
<glyph unicode="&#xa7;" horiz-adv-x="1409" d="M164 809v4q0 109 115.5 181.5t314.5 62.5q-291 74 -291 260v4q0 113 110.5 188.5t297.5 75.5q127 0 251.5 -45t198.5 -106l-31 -39q-70 59 -188.5 102t-230.5 43q-164 0 -261.5 -61.5t-97.5 -157.5v-4q0 -104 115 -168t354 -109q428 -78 428 -286v-4 q0 -109 -115.5 -181.5t-314.5 -62.5q291 -74 291 -260v-4q0 -113 -110.5 -189t-297.5 -76q-127 0 -251.5 45.5t-198.5 106.5l31 39q70 -59 188.5 -102t230.5 -43q164 0 261.5 61t97.5 158v4q0 104 -116 167.5t-353 108.5q-428 78 -428 287zM213 813q0 -90 93 -148.5 t294 -95.5q137 -27 262 -26q139 0 238.5 58t99.5 144v5q0 90 -93 148t-294 95q-137 27 -262 27q-139 0 -238.5 -58.5t-99.5 -144.5v-4z" />
<glyph unicode="&#xa8;" horiz-adv-x="1116" d="M365 1370v117h79v-117h-79zM672 1370v117h80v-117h-80z" />
<glyph unicode="&#xa9;" horiz-adv-x="1851" d="M119 778v6q0 332 236.5 568.5t571.5 236.5t571.5 -236.5t236.5 -568.5v-6q0 -332 -236.5 -568.5t-571.5 -236.5t-571.5 236.5t-236.5 568.5zM158 778q0 -315 226 -541.5t542.5 -226.5t542 226.5t225.5 541.5v6q0 315 -225.5 541.5t-542 226.5t-542.5 -226t-226 -542v-6z M539 788v5q0 176 115.5 300t289.5 124q178 0 316 -132l-31 -32q-123 123 -287 123q-154 0 -257 -113t-103 -268q-2 -2 0 -4q0 -156 104.5 -270.5t257.5 -114.5q166 0 289 133l31 -29q-133 -143 -322 -143q-172 0 -287.5 123.5t-115.5 297.5z" />
<glyph unicode="&#xaa;" horiz-adv-x="935" d="M182 711v32h553v-32h-553zM188 1112v4q0 94 76 145.5t199 51.5q115 0 221 -33v41q0 209 -223 209q-92 0 -199 -51l-16 34q111 53 217 54q131 0 201 -70q59 -59 59 -174v-385h-39v127q-78 -141 -262 -141q-96 0 -165 49t-69 139zM231 1114q0 -72 56.5 -111.5t136.5 -39.5 q113 0 186.5 60t73.5 144v76q-115 33 -223 33q-104 0 -167 -42t-63 -116v-4z" />
<glyph unicode="&#xab;" horiz-adv-x="1030" d="M98 563v12l394 459l26 -22l-366 -443l366 -442l-26 -23zM477 563v12l393 459l27 -22l-367 -443l367 -442l-27 -23z" />
<glyph unicode="&#xad;" horiz-adv-x="864" d="M156 641v47h555v-47h-555z" />
<glyph unicode="&#xae;" horiz-adv-x="1851" d="M119 778v6q0 332 236.5 568.5t571.5 236.5t571.5 -236.5t236.5 -568.5v-6q0 -332 -236.5 -568.5t-571.5 -236.5t-571.5 236.5t-236.5 568.5zM158 778q0 -315 226 -541.5t542.5 -226.5t542 226.5t225.5 541.5v6q0 315 -225.5 541.5t-542 226.5t-542.5 -226t-226 -542v-6z M637 395v817h338q156 0 233 -77q59 -61 60 -150v-4q0 -102 -66.5 -161.5t-183.5 -74.5l270 -350h-53l-266 346h-8h-281v-346h-43zM680 782h289q121 0 188.5 52.5t67.5 142.5v6q0 88 -67.5 138t-186.5 50h-291v-389z" />
<glyph unicode="&#xaf;" horiz-adv-x="1116" d="M256 1386v44h604v-44h-604z" />
<glyph unicode="&#xb0;" horiz-adv-x="958" d="M160 1262v4q0 127 95 219t225 92t224.5 -92t94.5 -219v-4q0 -127 -94.5 -219.5t-224.5 -92.5t-225 92.5t-95 219.5zM205 1262q0 -111 82 -191t193.5 -80t192.5 80t81 191v4q0 109 -81 189.5t-192.5 80.5t-193.5 -81t-82 -189v-4z" />
<glyph unicode="&#xb1;" horiz-adv-x="1249" d="M63 258l41 31q90 -123 226.5 -197t298.5 -74q197 0 333 106.5t136 283.5v6q0 180 -138.5 267t-369.5 87h-174v45h176q205 0 336 100.5t131 266.5v4q0 150 -128 255t-319 105q-295 0 -479 -274l-39 26q88 133 222.5 213t297.5 80q213 0 353.5 -117.5t140.5 -285.5v-4 q0 -158 -104.5 -261.5t-255.5 -125.5q176 -25 287.5 -117t111.5 -262v-4q0 -190 -152.5 -314.5t-367.5 -124.5q-351 0 -564 285z" />
<glyph unicode="&#xb2;" horiz-adv-x="1265" d="M90 0v29l707 686q166 160 222 267.5t56 205.5q0 145 -116.5 248.5t-294.5 103.5q-315 0 -488 -315l-43 24q182 336 533 336q201 0 329.5 -113.5t128.5 -279.5v-4q0 -115 -58 -225.5t-241 -284.5l-655 -633h977v-45h-1057z" />
<glyph unicode="&#xb3;" horiz-adv-x="1198" d="M23 252l40 31q88 -119 223.5 -192t299.5 -73q188 0 321 110t133 273v5q0 199 -153.5 294t-425.5 95h-55l-15 30l606 693h-891v45h957v-35l-602 -688q299 -2 464 -109.5t165 -322.5v-5q0 -184 -148.5 -307t-359.5 -123q-176 0 -319.5 76t-239.5 203z" />
<glyph unicode="&#xb4;" horiz-adv-x="1116" d="M463 1329l213 277l57 -27l-239 -250h-31z" />
<glyph unicode="&#xb5;" d="M164 778v6q0 330 216 567.5t560 237.5t560 -237.5t216 -567.5v-6q0 -199 -84 -373t-233 -284l362 -340v-6h-49l-348 321q-184 -123 -424 -123q-344 0 -560 237.5t-216 567.5zM213 782q0 -311 206 -537.5t523 -226.5q319 0 522 224.5t203 533.5v6q0 309 -206 535.5 t-523 226.5q-319 0 -522 -224t-203 -534v-4z" />
<glyph unicode="&#xb6;" horiz-adv-x="1021" d="M117 1090v4q0 217 157.5 343t409.5 126h107v-1563h-50v618h-24q-260 0 -430 126.5t-170 345.5z" />
<glyph unicode="&#xb7;" horiz-adv-x="364" d="M143 594v117h80v-117h-80z" />
<glyph unicode="&#xb8;" horiz-adv-x="1116" d="M391 -291l195 301h30l-176 -325z" />
<glyph unicode="&#xb9;" horiz-adv-x="702" d="M74 1430l319 143h39v-1573h-45v1518l-293 -132z" />
<glyph unicode="&#xba;" horiz-adv-x="937" d="M150 1245v4q0 135 91 229.5t230 94.5t229.5 -93.5t90.5 -228.5v-4q0 -131 -92.5 -227t-230.5 -96t-228 95t-90 226zM160 711v32h618v-32h-618zM195 1247q0 -117 79.5 -199.5t198.5 -82.5t195.5 80.5t76.5 199.5v4q0 119 -78.5 202t-197.5 83t-196.5 -82t-77.5 -201v-4z " />
<glyph unicode="&#xbb;" horiz-adv-x="1030" d="M133 127l367 442l-367 443l27 22l393 -459v-12l-393 -459zM514 127l365 442l-365 443l27 22l393 -459v-12l-393 -459z" />
<glyph unicode="&#xbc;" horiz-adv-x="2985" d="M1682 438l940 1135h41v-1120h256v-45h-256v-408h-47v408h-920zM1751 453h865v1044zM602 -219l1048 1913h51l-1048 -1913h-51zM74 1430l319 143h39v-1573h-45v1518l-293 -132z" />
<glyph unicode="&#xbd;" horiz-adv-x="2867" d="M1694 0v29l707 686q166 160 222 267.5t56 205.5q0 145 -116.5 248.5t-294.5 103.5q-315 0 -488 -315l-43 24q182 336 533 336q201 0 329.5 -113.5t128.5 -279.5v-4q0 -115 -58 -225.5t-241 -284.5l-655 -633h977v-45h-1057zM602 -219l1048 1913h51l-1048 -1913h-51z M74 1430l319 143h39v-1573h-45v1518l-293 -132z" />
<glyph unicode="&#xbe;" horiz-adv-x="3481" d="M2177 438l940 1135h41v-1120h256v-45h-256v-408h-47v408h-920zM2246 453h865v1044zM1098 -219l1048 1913h51l-1048 -1913h-51zM23 252l40 31q88 -119 223.5 -192t299.5 -73q188 0 321 110t133 273v5q0 199 -153.5 294t-425.5 95h-55l-15 30l606 693h-891v45h957v-35 l-602 -688q299 -2 464 -109.5t165 -322.5v-5q0 -184 -148.5 -307t-359.5 -123q-176 0 -319.5 76t-239.5 203z" />
<glyph unicode="&#xbf;" horiz-adv-x="1112" d="M117 397v4q0 190 141 303t342 134l16 317h23l16 -352l-6 -6q-213 -14 -348 -119t-135 -275v-4q0 -158 117.5 -266t304.5 -108q133 0 246.5 71.5t185.5 190.5l41 -29q-174 -279 -475 -278q-209 0 -339 120.5t-130 296.5zM588 1446v117h80v-117h-80z" />
<glyph unicode="&#xc0;" horiz-adv-x="1712" d="M82 0l754 1573h41l753 -1573h-53l-223 469h-998l-223 -469h-51zM379 514h952l-477 995zM618 1958l56 27l215 -277h-31z" />
<glyph unicode="&#xc1;" horiz-adv-x="1712" d="M82 0l754 1573h41l753 -1573h-53l-223 469h-998l-223 -469h-51zM379 514h952l-477 995zM829 1708l215 277l56 -27l-238 -250h-33z" />
<glyph unicode="&#xc2;" horiz-adv-x="1712" d="M82 0l754 1573h41l753 -1573h-53l-223 469h-998l-223 -469h-51zM379 514h952l-477 995zM604 1708l238 272h26l238 -272h-39l-213 213l-211 -213h-39z" />
<glyph unicode="&#xc3;" horiz-adv-x="1712" d="M82 0l754 1573h41l753 -1573h-53l-223 469h-998l-223 -469h-51zM379 514h952l-477 995zM551 1729q39 178 162 178q47 0 150.5 -64.5t137.5 -64.5q86 0 129 139l29 -6q-39 -178 -162 -178q-47 0 -150.5 64.5t-137.5 64.5q-86 0 -129 -142z" />
<glyph unicode="&#xc4;" horiz-adv-x="1712" d="M82 0l754 1573h41l753 -1573h-53l-223 469h-998l-223 -469h-51zM379 514h952l-477 995zM664 1751v115h79v-115h-79zM971 1751v115h80v-115h-80z" />
<glyph unicode="&#xc5;" horiz-adv-x="1712" d="M82 0l719 1505q-68 18 -115 73.5t-47 125.5v4q0 82 64.5 143.5t151.5 61.5t151.5 -61.5t64.5 -143.5v-4q0 -70 -45 -125t-115 -72l719 -1507h-53l-223 469h-998l-223 -469h-51zM379 514h952l-477 995zM678 1704q0 -70 53 -120t124 -50t124 50t53 120v4q0 70 -53 120 t-124 50t-124 -50t-53 -120v-4z" />
<glyph unicode="&#xc6;" horiz-adv-x="2263" d="M0 0l1001 1563h1110v-45h-1009v-709h913v-45h-913v-719h1022v-45h-1071v469h-701l-299 -469h-53zM381 514h672v1004h-27z" />
<glyph unicode="&#xc7;" horiz-adv-x="1619" d="M164 776v6q0 334 218 570.5t550 236.5q203 0 334 -62.5t258 -185.5l-33 -32q-113 109 -243 172t-320 63q-305 0 -510 -224t-205 -536v-6q0 -313 206 -536.5t509 -223.5q334 0 569 254l37 -32q-248 -260 -594 -267l-156 -288l-49 24l168 264q-317 8 -528 240.5t-211 562.5 z" />
<glyph unicode="&#xc8;" horiz-adv-x="1474" d="M231 0v1563h1092v-45h-1042v-709h948v-45h-948v-719h1054v-45h-1104zM580 1958l57 27l213 -277h-31z" />
<glyph unicode="&#xc9;" horiz-adv-x="1474" d="M231 0v1563h1092v-45h-1042v-709h948v-45h-948v-719h1054v-45h-1104zM709 1708l213 277l55 -27l-238 -250h-30z" />
<glyph unicode="&#xca;" horiz-adv-x="1474" d="M231 0v1563h1092v-45h-1042v-709h948v-45h-948v-719h1054v-45h-1104zM528 1708l238 272h27l235 -272h-37l-213 213l-211 -213h-39z" />
<glyph unicode="&#xcb;" horiz-adv-x="1474" d="M231 0v1563h1092v-45h-1042v-709h948v-45h-948v-719h1054v-45h-1104zM586 1751v115h80v-115h-80zM893 1751v115h80v-115h-80z" />
<glyph unicode="&#xcc;" horiz-adv-x="542" d="M39 1958l55 27l213 -277h-31zM248 0v1563h49v-1563h-49z" />
<glyph unicode="&#xcd;" horiz-adv-x="542" d="M242 1708l213 277l57 -27l-240 -250h-30zM248 0v1563h49v-1563h-49z" />
<glyph unicode="&#xce;" horiz-adv-x="542" d="M23 1708l235 272h29l235 -272h-37l-213 213l-213 -213h-36zM248 0v1563h49v-1563h-49z" />
<glyph unicode="&#xcf;" horiz-adv-x="542" d="M78 1751v115h80v-115h-80zM248 0v1563h49v-1563h-49zM387 1751v115h80v-115h-80z" />
<glyph unicode="&#xd0;" horiz-adv-x="1794" d="M131 764v45h168v754h502q365 0 598 -223.5t233 -555.5v-6q0 -332 -233.5 -555t-597.5 -223h-502v764h-168zM348 45h455q342 0 561 211t219 520v6q0 311 -221 523.5t-563 212.5h-451v-709h563v-45h-563v-719z" />
<glyph unicode="&#xd1;" horiz-adv-x="1740" d="M231 0v1563h43l1188 -1483v1483h47v-1563h-43l-1187 1483v-1483h-48zM567 1729q37 178 160 178q47 0 151.5 -64.5t139.5 -64.5q84 0 127 139l29 -6q-37 -178 -160 -178q-47 0 -150.5 64.5t-140.5 64.5q-84 0 -127 -142z" />
<glyph unicode="&#xd2;" d="M164 778v6q0 330 216 567.5t560 237.5t560 -237.5t216 -567.5v-6q0 -330 -216 -567.5t-560 -237.5t-560 237.5t-216 567.5zM213 782q0 -311 206 -537.5t523 -226.5q319 0 522 224.5t203 533.5v6q0 309 -206 535.5t-523 226.5q-319 0 -522 -224t-203 -534v-4zM688 1958 l55 27l215 -277h-32z" />
<glyph unicode="&#xd3;" d="M164 778v6q0 330 216 567.5t560 237.5t560 -237.5t216 -567.5v-6q0 -330 -216 -567.5t-560 -237.5t-560 237.5t-216 567.5zM213 782q0 -311 206 -537.5t523 -226.5q319 0 522 224.5t203 533.5v6q0 309 -206 535.5t-523 226.5q-319 0 -522 -224t-203 -534v-4zM924 1708 l215 277l55 -27l-238 -250h-32z" />
<glyph unicode="&#xd4;" d="M164 778v6q0 330 216 567.5t560 237.5t560 -237.5t216 -567.5v-6q0 -330 -216 -567.5t-560 -237.5t-560 237.5t-216 567.5zM213 782q0 -311 206 -537.5t523 -226.5q319 0 522 224.5t203 533.5v6q0 309 -206 535.5t-523 226.5q-319 0 -522 -224t-203 -534v-4zM690 1708 l236 272h26l238 -272h-39l-211 213l-213 -213h-37z" />
<glyph unicode="&#xd5;" d="M164 778v6q0 330 216 567.5t560 237.5t560 -237.5t216 -567.5v-6q0 -330 -216 -567.5t-560 -237.5t-560 237.5t-216 567.5zM213 782q0 -311 206 -537.5t523 -226.5q319 0 522 224.5t203 533.5v6q0 309 -206 535.5t-523 226.5q-319 0 -522 -224t-203 -534v-4zM637 1729 q37 178 160 178q47 0 150.5 -64.5t139.5 -64.5q84 0 127 139l29 -6q-37 -178 -160 -178q-47 0 -151.5 64.5t-138.5 64.5q-84 0 -127 -142z" />
<glyph unicode="&#xd6;" d="M164 778v6q0 330 216 567.5t560 237.5t560 -237.5t216 -567.5v-6q0 -330 -216 -567.5t-560 -237.5t-560 237.5t-216 567.5zM213 782q0 -311 206 -537.5t523 -226.5q319 0 522 224.5t203 533.5v6q0 309 -206 535.5t-523 226.5q-319 0 -522 -224t-203 -534v-4zM748 1751 v115h79v-115h-79zM1057 1751v115h80v-115h-80z" />
<glyph unicode="&#xd8;" d="M164 778v6q0 330 216 567.5t560 237.5q311 0 530 -207l181 191h57l-209 -223q217 -233 217 -566v-6q0 -330 -216 -567.5t-560 -237.5q-313 0 -532 207l-179 -190h-57l207 223q-215 233 -215 565zM213 782q0 -319 199 -536l1028 1102q-201 197 -502 196q-319 0 -522 -224 t-203 -534v-4zM440 215q201 -197 502 -197q319 0 522 224.5t203 533.5v6q0 317 -199 535z" />
<glyph unicode="&#xd9;" horiz-adv-x="1677" d="M207 692v871h49v-871q0 -328 158.5 -500t427.5 -172q270 0 424.5 171t154.5 499v873h49v-871q0 -350 -170 -533.5t-460 -183.5q-289 0 -461 183.5t-172 533.5zM621 1958l55 27l215 -277h-31z" />
<glyph unicode="&#xda;" horiz-adv-x="1677" d="M207 692v871h49v-871q0 -328 158.5 -500t427.5 -172q270 0 424.5 171t154.5 499v873h49v-871q0 -350 -170 -533.5t-460 -183.5q-289 0 -461 183.5t-172 533.5zM788 1708l213 277l58 -27l-240 -250h-31z" />
<glyph unicode="&#xdb;" horiz-adv-x="1677" d="M207 692v871h49v-871q0 -328 158.5 -500t427.5 -172q270 0 424.5 171t154.5 499v873h49v-871q0 -350 -170 -533.5t-460 -183.5q-289 0 -461 183.5t-172 533.5zM590 1708l235 272h27l238 -272h-39l-211 213l-213 -213h-37z" />
<glyph unicode="&#xdc;" horiz-adv-x="1677" d="M207 692v871h49v-871q0 -328 158.5 -500t427.5 -172q270 0 424.5 171t154.5 499v873h49v-871q0 -350 -170 -533.5t-460 -183.5q-289 0 -461 183.5t-172 533.5zM645 1729v114h80v-114h-80zM952 1729v114h82v-114h-82z" />
<glyph unicode="&#xdd;" horiz-adv-x="1466" d="M49 1563h57l631 -867l623 867h57l-657 -910v-653h-49v653zM725 1708l215 277l55 -27l-237 -250h-33z" />
<glyph unicode="&#xde;" horiz-adv-x="1490" d="M229 0v1563h50v-301h499q287 0 444.5 -124t157.5 -345v-5q0 -225 -161.5 -350t-448.5 -125h-491v-313h-50zM279 356h491q264 0 412.5 112t148.5 318v5q0 201 -147.5 313.5t-409.5 112.5h-495v-861z" />
<glyph unicode="&#xdf;" horiz-adv-x="1273" d="M207 0v1133q0 231 111.5 370t322.5 139q176 0 292 -112.5t116 -267.5v-5q0 -152 -98.5 -259t-270.5 -164q211 -29 339 -132.5t128 -265.5v-6q0 -201 -156.5 -318.5t-402.5 -117.5v45q227 4 368.5 106.5t141.5 282.5v4q0 166 -137.5 261t-372.5 108v43q184 47 297.5 149.5 t113.5 261.5v5q0 135 -103 236t-257 101q-188 0 -286.5 -129t-98.5 -342v-1126h-47z" />
<glyph unicode="&#xe0;" horiz-adv-x="1261" d="M115 307v6q0 168 139 261.5t358 93.5q227 0 420 -70v94q0 199 -110.5 298.5t-311.5 99.5q-178 0 -370 -95l-19 41q201 98 391 99q233 0 357 -123q109 -111 108 -318v-694h-45v264q-41 -115 -173 -203t-329 -88q-174 0 -294.5 88t-120.5 246zM164 311q0 -141 106.5 -217 t264.5 -76q215 0 356 117t141 273v143q-190 72 -418 72q-199 0 -324.5 -80t-125.5 -228v-4zM383 1579l57 27l213 -277h-30z" />
<glyph unicode="&#xe1;" horiz-adv-x="1261" d="M115 307v6q0 168 139 261.5t358 93.5q227 0 420 -70v94q0 199 -110.5 298.5t-311.5 99.5q-178 0 -370 -95l-19 41q201 98 391 99q233 0 357 -123q109 -111 108 -318v-694h-45v264q-41 -115 -173 -203t-329 -88q-174 0 -294.5 88t-120.5 246zM164 311q0 -141 106.5 -217 t264.5 -76q215 0 356 117t141 273v143q-190 72 -418 72q-199 0 -324.5 -80t-125.5 -228v-4zM580 1329l215 277l55 -27l-238 -250h-32z" />
<glyph unicode="&#xe2;" horiz-adv-x="1261" d="M115 307v6q0 168 139 261.5t358 93.5q227 0 420 -70v94q0 199 -110.5 298.5t-311.5 99.5q-178 0 -370 -95l-19 41q201 98 391 99q233 0 357 -123q109 -111 108 -318v-694h-45v264q-41 -115 -173 -203t-329 -88q-174 0 -294.5 88t-120.5 246zM164 311q0 -141 106.5 -217 t264.5 -76q215 0 356 117t141 273v143q-190 72 -418 72q-199 0 -324.5 -80t-125.5 -228v-4zM395 1329l236 273h28l236 -273h-37l-213 213l-213 -213h-37z" />
<glyph unicode="&#xe3;" horiz-adv-x="1261" d="M115 307v6q0 168 139 261.5t358 93.5q227 0 420 -70v94q0 199 -110.5 298.5t-311.5 99.5q-178 0 -370 -95l-19 41q201 98 391 99q233 0 357 -123q109 -111 108 -318v-694h-45v264q-41 -115 -173 -203t-329 -88q-174 0 -294.5 88t-120.5 246zM164 311q0 -141 106.5 -217 t264.5 -76q215 0 356 117t141 273v143q-190 72 -418 72q-199 0 -324.5 -80t-125.5 -228v-4zM340 1348q37 180 160 180q47 0 150.5 -65.5t140.5 -65.5q84 0 127 141l28 -6q-37 -178 -160 -178q-47 0 -151.5 64.5t-138.5 64.5q-84 0 -127 -142z" />
<glyph unicode="&#xe4;" horiz-adv-x="1261" d="M115 307v6q0 168 139 261.5t358 93.5q227 0 420 -70v94q0 199 -110.5 298.5t-311.5 99.5q-178 0 -370 -95l-19 41q201 98 391 99q233 0 357 -123q109 -111 108 -318v-694h-45v264q-41 -115 -173 -203t-329 -88q-174 0 -294.5 88t-120.5 246zM164 311q0 -141 106.5 -217 t264.5 -76q215 0 356 117t141 273v143q-190 72 -418 72q-199 0 -324.5 -80t-125.5 -228v-4zM449 1370v117h79v-117h-79zM758 1370v117h80v-117h-80z" />
<glyph unicode="&#xe5;" horiz-adv-x="1261" d="M115 307v6q0 168 139 261.5t358 93.5q227 0 420 -70v94q0 199 -110.5 298.5t-311.5 99.5q-178 0 -370 -95l-19 41q201 98 391 99q233 0 357 -123q109 -111 108 -318v-694h-45v264q-41 -115 -173 -203t-329 -88q-174 0 -294.5 88t-120.5 246zM164 311q0 -141 106.5 -217 t264.5 -76q215 0 356 117t141 273v143q-190 72 -418 72q-199 0 -324.5 -80t-125.5 -228v-4zM420 1532v4q0 82 64.5 143.5t151.5 61.5t151.5 -61.5t64.5 -143.5v-4q0 -84 -64.5 -145.5t-151.5 -61.5t-151.5 61.5t-64.5 145.5zM461 1532q0 -70 52 -120t124 -50t124 50t52 120 v4q0 70 -52 120t-124 50t-124 -50t-52 -120v-4z" />
<glyph unicode="&#xe6;" horiz-adv-x="2187" d="M115 307v6q0 168 139 261.5t358 93.5q225 0 408 -68q12 90 14 96q-6 199 -115.5 296.5t-308.5 97.5q-178 0 -370 -95l-19 41q201 98 391 99q395 0 451 -334q59 158 189 250t300 92q244 0 378 -178.5t134 -411.5v-8h-997q6 -233 151.5 -380t352.5 -147q266 0 420 205 l37 -26q-164 -223 -459 -224q-152 0 -279 75t-198 206q-68 -111 -210.5 -196t-324.5 -85q-195 0 -318.5 87t-123.5 247zM164 311q0 -143 108.5 -218t288.5 -75q164 0 306.5 82t203.5 199q-51 115 -51 256q-182 68 -406 68q-199 0 -324.5 -80t-125.5 -228v-4zM1067 588h946 q-6 205 -130 357.5t-335 152.5q-205 0 -339 -144.5t-142 -365.5z" />
<glyph unicode="&#xe7;" horiz-adv-x="1251" d="M129 555v6q0 240 166 411t405 171q250 0 447 -207l-33 -33q-182 195 -416 195q-221 0 -370.5 -157t-149.5 -378v-6q0 -217 153.5 -378t368.5 -161q238 0 420 207l35 -30q-186 -213 -436 -222l-156 -288l-49 24l170 264q-233 6 -394 176t-161 406z" />
<glyph unicode="&#xe8;" horiz-adv-x="1300" d="M129 557v6q0 248 151.5 414t385.5 166q246 0 380 -178.5t134 -411.5v-8h-1000q8 -238 153.5 -382.5t356.5 -144.5q123 0 232.5 63.5t179.5 162.5l39 -27q-76 -111 -195 -177.5t-258 -66.5q-238 0 -398.5 161t-160.5 423zM180 588h946q-6 205 -130 357.5t-332 152.5 q-207 0 -340.5 -144.5t-143.5 -365.5zM428 1579l57 27l213 -277h-30z" />
<glyph unicode="&#xe9;" horiz-adv-x="1300" d="M129 557v6q0 248 151.5 414t385.5 166q246 0 380 -178.5t134 -411.5v-8h-1000q8 -238 153.5 -382.5t356.5 -144.5q123 0 232.5 63.5t179.5 162.5l39 -27q-76 -111 -195 -177.5t-258 -66.5q-238 0 -398.5 161t-160.5 423zM180 588h946q-6 205 -130 357.5t-332 152.5 q-207 0 -340.5 -144.5t-143.5 -365.5zM592 1329l213 277l57 -27l-239 -250h-31z" />
<glyph unicode="&#xea;" horiz-adv-x="1300" d="M129 557v6q0 248 151.5 414t385.5 166q246 0 380 -178.5t134 -411.5v-8h-1000q8 -238 153.5 -382.5t356.5 -144.5q123 0 232.5 63.5t179.5 162.5l39 -27q-76 -111 -195 -177.5t-258 -66.5q-238 0 -398.5 161t-160.5 423zM180 588h946q-6 205 -130 357.5t-332 152.5 q-207 0 -340.5 -144.5t-143.5 -365.5zM412 1329l235 273h27l237 -273h-39l-210 213l-213 -213h-37z" />
<glyph unicode="&#xeb;" horiz-adv-x="1300" d="M129 557v6q0 248 151.5 414t385.5 166q246 0 380 -178.5t134 -411.5v-8h-1000q8 -238 153.5 -382.5t356.5 -144.5q123 0 232.5 63.5t179.5 162.5l39 -27q-76 -111 -195 -177.5t-258 -66.5q-238 0 -398.5 161t-160.5 423zM180 588h946q-6 205 -130 357.5t-332 152.5 q-207 0 -340.5 -144.5t-143.5 -365.5zM467 1370v117h80v-117h-80zM774 1370v117h80v-117h-80z" />
<glyph unicode="&#xec;" horiz-adv-x="487" d="M4 1579l55 27l215 -277h-30zM221 0v1116h47v-1116h-47z" />
<glyph unicode="&#xed;" horiz-adv-x="487" d="M217 1329l213 277l57 -27l-239 -250h-31zM221 0v1116h47v-1116h-47z" />
<glyph unicode="&#xee;" horiz-adv-x="487" d="M-6 1329l235 273h27l238 -273h-39l-211 213l-213 -213h-37zM221 0v1116h47v-1116h-47z" />
<glyph unicode="&#xef;" horiz-adv-x="487" d="M49 1370v117h80v-117h-80zM221 0v1116h47v-1116h-47zM356 1370v117h82v-117h-82z" />
<glyph unicode="&#xf0;" horiz-adv-x="1351" d="M125 518v4q0 225 160.5 386t388.5 161q205 0 350 -125l-344 504l-326 -174l-26 39l325 174l-96 143h59l80 -121l240 129l27 -36l-240 -132l375 -550q47 -70 86 -172.5t39 -192.5v-4q0 -252 -150.5 -415t-385 -163t-398.5 159t-164 386zM174 518q0 -207 149.5 -353.5 t364.5 -146.5q207 0 346.5 149.5t139.5 373.5v4q0 205 -144.5 342t-355.5 137q-207 0 -353.5 -147.5t-146.5 -354.5v-4z" />
<glyph unicode="&#xf1;" horiz-adv-x="1355" d="M207 0v1116h47v-305q35 123 151.5 227.5t296.5 104.5q223 0 346 -138.5t123 -373.5v-631h-47v627q0 215 -110.5 343t-315.5 128q-184 0 -314 -139.5t-130 -340.5v-618h-47zM389 1348q37 180 160 180q47 0 150.5 -65.5t140.5 -65.5q84 0 127 141l28 -6q-37 -178 -159 -178 q-47 0 -151.5 64.5t-139.5 64.5q-84 0 -127 -142z" />
<glyph unicode="&#xf2;" horiz-adv-x="1415" d="M127 553v4q0 242 162 414t420 172q254 0 416.5 -170t162.5 -410v-6q0 -240 -161.5 -412t-417.5 -172t-419 170t-163 410zM176 555q0 -223 151.5 -380t383.5 -157q231 0 379.5 157t148.5 380v6q0 223 -151.5 380t-382.5 157t-380 -157t-149 -380v-6zM467 1579l55 27 l215 -277h-32z" />
<glyph unicode="&#xf3;" horiz-adv-x="1415" d="M127 553v4q0 242 162 414t420 172q254 0 416.5 -170t162.5 -410v-6q0 -240 -161.5 -412t-417.5 -172t-419 170t-163 410zM176 555q0 -223 151.5 -380t383.5 -157q231 0 379.5 157t148.5 380v6q0 223 -151.5 380t-382.5 157t-380 -157t-149 -380v-6zM678 1329l215 277 l55 -27l-237 -250h-33z" />
<glyph unicode="&#xf4;" horiz-adv-x="1415" d="M127 553v4q0 242 162 414t420 172q254 0 416.5 -170t162.5 -410v-6q0 -240 -161.5 -412t-417.5 -172t-419 170t-163 410zM176 555q0 -223 151.5 -380t383.5 -157q231 0 379.5 157t148.5 380v6q0 223 -151.5 380t-382.5 157t-380 -157t-149 -380v-6zM457 1329l237 273h27 l237 -273h-38l-211 213l-213 -213h-39z" />
<glyph unicode="&#xf5;" horiz-adv-x="1415" d="M127 553v4q0 242 162 414t420 172q254 0 416.5 -170t162.5 -410v-6q0 -240 -161.5 -412t-417.5 -172t-419 170t-163 410zM176 555q0 -223 151.5 -380t383.5 -157q231 0 379.5 157t148.5 380v6q0 223 -151.5 380t-382.5 157t-380 -157t-149 -380v-6zM403 1348 q39 180 162 180q47 0 150.5 -65.5t138.5 -65.5q86 0 129 141l29 -6q-39 -178 -162 -178q-47 0 -150.5 64.5t-138.5 64.5q-86 0 -129 -142z" />
<glyph unicode="&#xf6;" horiz-adv-x="1415" d="M127 553v4q0 242 162 414t420 172q254 0 416.5 -170t162.5 -410v-6q0 -240 -161.5 -412t-417.5 -172t-419 170t-163 410zM176 555q0 -223 151.5 -380t383.5 -157q231 0 379.5 157t148.5 380v6q0 223 -151.5 380t-382.5 157t-380 -157t-149 -380v-6zM514 1370v117h80v-117 h-80zM821 1370v117h80v-117h-80z" />
<glyph unicode="&#xf8;" horiz-adv-x="1415" d="M127 553v4q0 242 162 414t420 172q231 0 391 -148l149 160h58l-177 -186q158 -170 158 -406v-6q0 -240 -161.5 -412t-417.5 -172q-231 0 -392 146l-124 -129h-58l152 157q-160 166 -160 406zM176 555q0 -217 143 -375l748 783q-147 135 -362 135q-231 0 -380 -157 t-149 -380v-6zM348 152q152 -133 363 -134q231 0 379.5 157t148.5 380v6q0 217 -143 373z" />
<glyph unicode="&#xf9;" horiz-adv-x="1355" d="M184 485v631h47v-627q0 -215 111 -343t317 -128q184 0 313.5 139.5t129.5 340.5v618h47v-1116h-47v305q-33 -123 -149.5 -227.5t-299.5 -104.5q-223 0 -346 138t-123 374zM494 1579l55 27l215 -277h-31z" />
<glyph unicode="&#xfa;" horiz-adv-x="1355" d="M184 485v631h47v-627q0 -215 111 -343t317 -128q184 0 313.5 139.5t129.5 340.5v618h47v-1116h-47v305q-33 -123 -149.5 -227.5t-299.5 -104.5q-223 0 -346 138t-123 374zM582 1329l215 277l55 -27l-238 -250h-32z" />
<glyph unicode="&#xfb;" horiz-adv-x="1355" d="M184 485v631h47v-627q0 -215 111 -343t317 -128q184 0 313.5 139.5t129.5 340.5v618h47v-1116h-47v305q-33 -123 -149.5 -227.5t-299.5 -104.5q-223 0 -346 138t-123 374zM418 1329l235 273h27l238 -273h-39l-211 213l-213 -213h-37z" />
<glyph unicode="&#xfc;" horiz-adv-x="1355" d="M184 485v631h47v-627q0 -215 111 -343t317 -128q184 0 313.5 139.5t129.5 340.5v618h47v-1116h-47v305q-33 -123 -149.5 -227.5t-299.5 -104.5q-223 0 -346 138t-123 374zM473 1360v115h80v-115h-80zM782 1360v115h80v-115h-80z" />
<glyph unicode="&#xfd;" horiz-adv-x="1269" d="M94 1116h51l508 -1067l482 1067h49l-518 -1139q-94 -205 -169 -273.5t-190 -68.5q-111 0 -209 62l23 37q94 -55 186 -56q100 0 168 63.5t156 258.5zM655 1329l215 277l56 -27l-238 -250h-33z" />
<glyph unicode="&#xfe;" horiz-adv-x="1460" d="M207 -356v1986h47v-860q49 166 187.5 269.5t328.5 103.5q242 0 400.5 -169t158.5 -413v-6q0 -244 -158.5 -413t-400.5 -169q-190 0 -328.5 103.5t-187.5 269.5v-702h-47zM252 555q0 -219 147.5 -378t368.5 -159q225 0 368.5 154t143.5 381v4q0 229 -143.5 385t-368.5 156 q-223 0 -369.5 -157t-146.5 -380v-6z" />
<glyph unicode="&#xff;" horiz-adv-x="1269" d="M94 1116h51l508 -1067l482 1067h49l-518 -1139q-94 -205 -169 -273.5t-190 -68.5q-111 0 -209 62l23 37q94 -55 186 -56q100 0 168 63.5t156 258.5zM455 1360v115h82v-115h-82zM764 1360v115h80v-115h-80z" />
<glyph unicode="&#x152;" horiz-adv-x="2598" d="M164 778v6q0 332 232.5 555.5t596.5 223.5h1456v-45h-1009v-709h913v-45h-913v-719h1020v-45h-1467q-365 0 -597 223t-232 555zM213 782q0 -313 220 -525t562 -212h396v1473h-400q-342 0 -560 -211t-218 -521v-4z" />
<glyph unicode="&#x153;" horiz-adv-x="2402" d="M127 553v4q0 242 162 414t420 172q207 0 356 -116t195 -306q39 193 179 307.5t328 114.5q246 0 380 -178.5t134 -411.5v-8h-997q6 -233 151.5 -380t352.5 -147q266 0 420 205l35 -26q-162 -223 -457 -224q-193 0 -340.5 114t-185.5 314q-43 -193 -192.5 -310.5 t-358.5 -117.5q-256 0 -419 170t-163 410zM176 555q0 -223 151.5 -380t383.5 -157q231 0 379.5 157t148.5 380v6q0 223 -151.5 380t-382.5 157t-380 -157t-149 -380v-6zM1284 588h946q-6 205 -130 357.5t-335 152.5q-205 0 -339 -144.5t-142 -365.5z" />
<glyph unicode="&#x178;" horiz-adv-x="1466" d="M49 1563h57l631 -867l623 867h57l-657 -910v-653h-49v653zM539 1729v114h79v-114h-79zM846 1729v114h80v-114h-80z" />
<glyph unicode="&#x2c6;" horiz-adv-x="1116" d="M307 1329l238 273h26l238 -273h-39l-213 213l-211 -213h-39z" />
<glyph unicode="&#x2dc;" horiz-adv-x="1116" d="M254 1348q39 180 162 180q47 0 150.5 -65.5t138.5 -65.5q86 0 129 141l28 -6q-39 -178 -162 -178q-47 0 -150.5 64.5t-137.5 64.5q-86 0 -129 -142z" />
<glyph unicode="&#x2000;" horiz-adv-x="991" />
<glyph unicode="&#x2001;" horiz-adv-x="1984" />
<glyph unicode="&#x2002;" horiz-adv-x="991" />
<glyph unicode="&#x2003;" horiz-adv-x="1984" />
<glyph unicode="&#x2004;" horiz-adv-x="661" />
<glyph unicode="&#x2005;" horiz-adv-x="495" />
<glyph unicode="&#x2006;" horiz-adv-x="329" />
<glyph unicode="&#x2007;" horiz-adv-x="329" />
<glyph unicode="&#x2008;" horiz-adv-x="247" />
<glyph unicode="&#x2009;" horiz-adv-x="395" />
<glyph unicode="&#x200a;" horiz-adv-x="108" />
<glyph unicode="&#x2010;" horiz-adv-x="864" d="M156 641v47h555v-47h-555z" />
<glyph unicode="&#x2011;" horiz-adv-x="864" d="M156 641v47h555v-47h-555z" />
<glyph unicode="&#x2012;" horiz-adv-x="864" d="M156 641v47h555v-47h-555z" />
<glyph unicode="&#x2013;" horiz-adv-x="1200" d="M156 641v45h888v-45h-888z" />
<glyph unicode="&#x2014;" horiz-adv-x="1994" d="M156 641v45h1683v-45h-1683z" />
<glyph unicode="&#x2018;" horiz-adv-x="364" d="M143 1272v102q0 92 18.5 133t63.5 62l17 -29q-63 -29 -60 -151h41v-117h-80z" />
<glyph unicode="&#x2019;" horiz-adv-x="364" d="M125 1294q63 29 57 152h-39v117h80v-103q0 -92 -19.5 -133t-62.5 -61z" />
<glyph unicode="&#x201a;" horiz-adv-x="364" d="M125 -152q63 29 57 152h-39v117h80v-103q0 -92 -19.5 -133t-62.5 -61z" />
<glyph unicode="&#x201c;" horiz-adv-x="565" d="M143 1272v102q0 92 18.5 133t63.5 62l17 -29q-63 -29 -60 -151h41v-117h-80zM344 1272v102q0 92 18.5 133t63.5 62l16 -29q-63 -29 -59 -151h41v-117h-80z" />
<glyph unicode="&#x201d;" horiz-adv-x="565" d="M125 1294q63 29 57 152h-39v117h80v-103q0 -92 -19.5 -133t-62.5 -61zM326 1294q63 29 57 152h-39v117h80v-103q0 -92 -18.5 -133t-63.5 -61z" />
<glyph unicode="&#x201e;" horiz-adv-x="565" d="M125 -152q63 29 57 152h-39v117h80v-103q0 -92 -19.5 -133t-62.5 -61zM326 -152q63 29 57 152h-39v117h80v-103q0 -92 -18.5 -133t-63.5 -61z" />
<glyph unicode="&#x2022;" horiz-adv-x="958" d="M246 786v5q0 96 68.5 163.5t167 67.5t168 -67.5t69.5 -163.5v-5q0 -96 -69.5 -164.5t-168 -68.5t-167 68.5t-68.5 164.5z" />
<glyph unicode="&#x2026;" horiz-adv-x="1079" d="M143 0v117h80v-117h-80zM500 0v117h80v-117h-80zM858 0v117h80v-117h-80z" />
<glyph unicode="&#x202f;" horiz-adv-x="395" />
<glyph unicode="&#x2039;" horiz-adv-x="651" d="M98 563v12l394 459l26 -22l-366 -443l366 -442l-26 -23z" />
<glyph unicode="&#x203a;" horiz-adv-x="651" d="M133 127l367 442l-367 443l27 22l393 -459v-12l-393 -459z" />
<glyph unicode="&#x2044;" horiz-adv-x="899" d="M-100 -219l1048 1913h51l-1048 -1913h-51z" />
<glyph unicode="&#x205f;" horiz-adv-x="495" />
<glyph unicode="&#x2122;" horiz-adv-x="1464" d="M39 1530v33h524v-33h-246v-656h-34v656h-244zM715 874v689h30l289 -416l289 416h33v-689h-35v623l-287 -407h-2l-284 407v-623h-33z" />
<glyph unicode="&#xe000;" horiz-adv-x="1115" d="M0 1115h1115v-1115h-1115v1115z" />
<glyph unicode="&#xfb01;" horiz-adv-x="1212" d="M109 1073v43h178v160q0 190 90 283q78 78 213 77q86 0 155 -30v-47q-68 31 -155 30q-258 0 -258 -321v-152h409v-43h-409v-1073h-45v1073h-178zM936 1436v127h68v-127h-68zM946 0v1116h47v-1116h-47z" />
<glyph unicode="&#xfb02;" horiz-adv-x="1212" d="M109 1073v43h178v160q0 190 90 283q78 78 213 77q86 0 155 -30v-47q-68 31 -155 30q-258 0 -258 -321v-152h409v-43h-409v-1073h-45v1073h-178zM946 0v1630h47v-1630h-47z" />
<glyph unicode="&#xfb03;" horiz-adv-x="1939" d="M1659 1436v127h70v-127h-70zM1671 0v1116h47v-1116h-47zM834 1073v43h178v160q0 190 90 283q78 78 213 77q86 0 155 -30v-47q-68 31 -155 30q-258 0 -258 -321v-152h409v-43h-409v-1073h-45v1073h-178zM109 1073v43h178v160q0 190 90 283q78 78 213 77q86 0 155 -30v-47 q-68 31 -155 30q-258 0 -258 -321v-152h409v-43h-409v-1073h-45v1073h-178z" />
<glyph unicode="&#xfb04;" horiz-adv-x="1939" d="M1671 0v1630h47v-1630h-47zM834 1073v43h178v160q0 190 90 283q78 78 213 77q86 0 155 -30v-47q-68 31 -155 30q-258 0 -258 -321v-152h409v-43h-409v-1073h-45v1073h-178zM109 1073v43h178v160q0 190 90 283q78 78 213 77q86 0 155 -30v-47q-68 31 -155 30 q-258 0 -258 -321v-152h409v-43h-409v-1073h-45v1073h-178z" />
</font>
</defs>
</svg>
