<?xml version="1.0" standalone="no"?>
<!DOCTYPE svg PUBLIC "-//W3C//DTD SVG 1.1//EN" "http://www.w3.org/Graphics/SVG/1.1/DTD/svg11.dtd" >
<svg xmlns="http://www.w3.org/2000/svg">
<metadata>
This is a custom SVG webfont generated by Font Squirrel.
Copyright   : HTF Gotham Copr 2000 The Hoefler Type Foundry Inc Info wwwtypographycom
</metadata>
<defs>
<font id="GothamHTFBold" horiz-adv-x="1288" >
<font-face units-per-em="2048" ascent="1638" descent="-410" />
<missing-glyph horiz-adv-x="620" />
<glyph unicode=" "  horiz-adv-x="620" />
<glyph unicode="&#x09;" horiz-adv-x="620" />
<glyph unicode="&#xa0;" horiz-adv-x="620" />
<glyph unicode="!" horiz-adv-x="669" d="M152 1407v41h368v-41l-98 -915h-174zM168 0v332h334v-332h-334z" />
<glyph unicode="&#x22;" horiz-adv-x="1075" d="M119 788l37 660h346v-10l-226 -650h-157zM606 788l37 660h348v-10l-225 -650h-160z" />
<glyph unicode="#" horiz-adv-x="1447" d="M72 311v264h202l54 306h-183v266h228l51 301h272l-51 -301h301l51 301h273l-51 -301h157v-266h-202l-54 -306h183v-264h-228l-53 -311h-272l53 311h-301l-53 -311h-273l53 311h-157zM549 575h299l51 306h-299z" />
<glyph unicode="$" horiz-adv-x="1335" d="M90 203l162 235q178 -135 338 -168v330q-231 61 -338 161.5t-107 278.5q0 170 118 278.5t317 129.5v121h215v-125q209 -29 385 -154l-140 -241q-133 90 -256 122v-313q236 -63 342.5 -167.5t106.5 -278.5q0 -170 -119 -278.5t-319 -131.5v-205h-215v209q-277 35 -490 197 zM446 1059q0 -51 31 -85t113 -65v281q-144 -20 -144 -131zM784 260q145 23 146 135q0 53 -32 89t-114 67v-291z" />
<glyph unicode="%" horiz-adv-x="1777" d="M92 1092.5q0 156.5 99.5 264t255 107.5t253 -105.5t97.5 -262t-99.5 -264t-255 -107.5t-253 105.5t-97.5 262zM238 0l1056 1448h246l-1057 -1448h-245zM311 1097q0 -77 38 -131.5t97 -54.5q61 0 97.5 52.5t36.5 129t-39 130t-99 53.5q-61 0 -96 -51t-35 -128zM983 351.5 q0 156.5 99.5 265t254 108.5t252 -106.5t97.5 -263t-99.5 -264t-254 -107.5t-252 105.5t-97.5 262zM1200 355.5q0 -76.5 38 -130t97 -53.5q63 0 98 51t35 128t-37.5 131.5t-99.5 54.5q-61 0 -96 -52.5t-35 -129z" />
<glyph unicode="&#x26;" horiz-adv-x="1437" d="M70 399q0 270 282 400q-102 147 -102 291q0 160 118.5 271.5t319.5 111.5q182 0 295 -104.5t113 -262.5q0 -262 -303 -379l192 -192q68 106 139 247l236 -129q-109 -195 -191 -305l213 -213l-233 -164l-168 170q-197 -162 -424 -161q-211 0 -349 114.5t-138 304.5z M391 412q0 -76 56.5 -124t146.5 -48q102 0 209 84l-277 280q-135 -69 -135 -192zM543 1075q0 -84 84 -182q100 37 146 82t46 112q0 66 -37 102t-100 36t-101 -41t-38 -109z" />
<glyph unicode="'" horiz-adv-x="589" d="M119 788l37 660h350v-10l-225 -650h-162z" />
<glyph unicode="(" horiz-adv-x="919" d="M123 593q0 296 142.5 512t428.5 374l140 -209q-211 -147 -305.5 -303t-94.5 -373t94.5 -374t305.5 -302l-140 -209q-287 156 -429 372t-142 512z" />
<glyph unicode=")" horiz-adv-x="919" d="M86 -82q211 145 305 302t94 374t-94 372.5t-305 303.5l139 209q287 -158 430.5 -374t143.5 -512t-143.5 -512t-430.5 -372z" />
<glyph unicode="*" horiz-adv-x="888" d="M106 1014l232 96l-232 98l87 150l200 -154l-33 248h170l-34 -248l200 154l88 -150l-231 -98l231 -96l-88 -150l-200 154l34 -248h-170l33 248l-200 -154z" />
<glyph unicode="+" horiz-adv-x="1323" d="M141 586v284h373v373h295v-373h375v-284h-375v-373h-295v373h-373z" />
<glyph unicode="," horiz-adv-x="589" d="M53 -205q219 23 203 205h-127v332h334v-281q0 -199 -96.5 -291t-286.5 -96z" />
<glyph unicode="-" horiz-adv-x="843" d="M102 489v304h639v-304h-639z" />
<glyph unicode="." horiz-adv-x="589" d="M129 0v332h334v-332h-334z" />
<glyph unicode="/" horiz-adv-x="1095" d="M-57 -264l915 1915h266l-915 -1915h-266z" />
<glyph unicode="0" horiz-adv-x="1509" d="M113 721.5q0 320.5 179 536t464.5 215.5t464 -213t178.5 -533.5t-180.5 -536t-466 -215.5t-462.5 213t-177 533.5zM438 726q0 -202 88 -333t230.5 -131t228.5 130t86 330t-88 332t-230.5 132t-228.5 -129t-86 -331z" />
<glyph unicode="1" horiz-adv-x="872" d="M49 1333l416 125h217v-1458h-313v1135l-252 -62z" />
<glyph unicode="2" d="M100 0v252l484 395q143 119 196.5 189.5t53.5 158.5t-53.5 138.5t-141.5 50.5q-80 0 -145.5 -45t-149.5 -150l-223 180q113 154 233.5 226.5t304.5 72.5q229 0 364.5 -121.5t135.5 -326.5q0 -170 -84 -284.5t-297 -278.5l-235 -183h631v-274h-1074z" />
<glyph unicode="3" horiz-adv-x="1284" d="M78 225l219 209q156 -174 350 -174q92 0 148.5 49t56.5 129q0 90 -73.5 138.5t-209.5 48.5h-133l-49 202l346 349h-569v272h979v-240l-367 -350q389 -63 389 -407q0 -209 -142 -342.5t-380 -133.5q-354 0 -565 250z" />
<glyph unicode="4" horiz-adv-x="1423" d="M63 539l795 919h268v-887h195v-258h-195v-313h-303v313h-706zM438 571h385v451z" />
<glyph unicode="5" horiz-adv-x="1302" d="M88 193l193 229q174 -158 346 -158q115 0 178 53.5t63 149.5q0 94 -68.5 146.5t-187.5 52.5q-117 0 -241 -54l-185 123l41 713h889v-279h-616l-17 -251q100 27 191 26q227 0 367.5 -115.5t140.5 -351.5q0 -229 -150.5 -365.5t-400.5 -136.5q-314 1 -543 218z" />
<glyph unicode="6" horiz-adv-x="1368" d="M113 680q0 354 160.5 573.5t474.5 219.5q252 0 452 -160l-168 -246q-78 59 -143.5 88t-151.5 29q-129 0 -202.5 -92.5t-90.5 -243.5q141 94 301 94q223 0 365.5 -122t142.5 -343t-156.5 -361.5t-396.5 -140.5q-262 0 -417 156q-170 170 -170 549zM436 465 q0 -96 68.5 -156.5t184.5 -60.5t182.5 59.5t66.5 155.5t-68.5 154.5t-184.5 58.5t-182.5 -57.5t-66.5 -153.5z" />
<glyph unicode="7" horiz-adv-x="1280" d="M141 1174v274h1043v-240l-649 -1208h-361l647 1174h-680z" />
<glyph unicode="8" horiz-adv-x="1302" d="M92 399q0 131 58.5 214t177.5 139q-184 111 -185 317q0 170 141.5 284.5t367 114.5t367.5 -114.5t142 -284.5q0 -207 -184 -317q117 -63 175 -141.5t58 -202.5q0 -199 -156.5 -313.5t-402.5 -114.5q-244 0 -401.5 115.5t-157.5 303.5zM401 424q0 -78 68 -130t183.5 -52 t182 52t66.5 130q0 82 -68.5 131t-180 49t-181.5 -49t-70 -131zM444 1036q0 -78 57.5 -129t150.5 -51t149.5 50t56.5 128q0 72 -55 122t-150.5 50t-152 -50t-56.5 -120z" />
<glyph unicode="9" horiz-adv-x="1368" d="M117 965q0 221 153.5 364.5t397.5 143.5q143 0 239.5 -37t177.5 -121q172 -170 172 -547q0 -362 -165.5 -577.5t-466.5 -215.5q-268 0 -475 172l167 242q154 -125 316 -125q129 0 202.5 89t90.5 241q-115 -100 -293 -100q-238 0 -377 126t-139 345zM432 978 q0 -99 68.5 -158.5t184.5 -59.5t182.5 59.5t66.5 157.5t-68.5 160.5t-187.5 62.5q-115 0 -180.5 -61.5t-65.5 -160.5z" />
<glyph unicode=":" horiz-adv-x="610" d="M139 0v332h334v-332h-334zM139 778v330h334v-330h-334z" />
<glyph unicode=";" horiz-adv-x="610" d="M63 -205q219 23 203 205h-127v332h334v-281q0 -199 -96 -291t-287 -96zM139 778v330h334v-330h-334z" />
<glyph unicode="&#x3c;" horiz-adv-x="1323" d="M141 586v284l1002 439v-291l-701 -287l701 -289v-295z" />
<glyph unicode="=" horiz-adv-x="1323" d="M172 317v285h981v-285h-981zM172 854v287h981v-287h-981z" />
<glyph unicode="&#x3e;" horiz-adv-x="1323" d="M182 147v291l699 289l-699 287v295l1002 -439v-284z" />
<glyph unicode="?" horiz-adv-x="1124" d="M41 1243q203 223 508 223q227 0 363.5 -112.5t136.5 -317.5q0 -336 -408 -418l-23 -126h-210l-48 335l11 11q362 14 362 190q0 70 -50 110t-140 40q-168 0 -312 -144zM340 0v332h334v-332h-334z" />
<glyph unicode="@" horiz-adv-x="2025" d="M111 567q0 373 263 639.5t642 266.5q373 0 637 -247t264 -573q0 -248 -115.5 -383t-296.5 -135q-209 0 -315 123q-137 -123 -307 -123q-162 0 -270.5 109.5t-108.5 290.5q0 215 140 366.5t325 151.5q182 0 284 -142l23 111l244 -39l-97 -557q-6 -31 -6 -64q0 -59 40 -95 t112 -36q113 0 187.5 112t74.5 310q0 295 -236.5 516.5t-578.5 221.5q-348 0 -583.5 -241t-235.5 -583q0 -346 236.5 -582.5t598.5 -236.5q270 0 506 137l43 -65q-256 -156 -549 -156q-393 0 -657 264t-264 639zM762 549q0 -96 53 -148.5t141 -52.5q98 0 172 86t74 211 q0 88 -54 141.5t-138 53.5q-102 0 -175 -85t-73 -206z" />
<glyph unicode="A" horiz-adv-x="1632" d="M49 0l621 1458h295l620 -1458h-334l-133 326h-612l-131 -326h-326zM621 606h385l-193 469z" />
<glyph unicode="B" horiz-adv-x="1492" d="M174 0v1448h672q221 0 349 -101.5t128 -273.5v-4q0 -205 -190 -311q135 -53 203.5 -135t68.5 -222v-4q0 -195 -145.5 -296t-397.5 -101h-688zM483 279h379q225 0 225 157v4q0 158 -235 158h-369v-319zM483 862h295q229 0 230 154v4q0 72 -54.5 110.5t-154.5 38.5h-316 v-307z" />
<glyph unicode="C" horiz-adv-x="1525" d="M111 719v6q0 313 213 530.5t540 217.5q193 0 327 -56.5t245 -167.5l-203 -233q-180 164 -371 164q-180 0 -300 -132.5t-120 -318.5v-4q0 -190 119 -323.5t301 -133.5q117 0 202 42t179 128l203 -205q-121 -127 -258 -192.5t-336 -65.5q-317 0 -529 215.5t-212 528.5z" />
<glyph unicode="D" horiz-adv-x="1615" d="M174 0v1448h565q336 0 552 -206t216 -513v-4q0 -311 -216 -518t-552 -207h-565zM492 287h247q195 0 316 120.5t121 311.5v6q0 190 -121 313t-316 123h-247v-874z" />
<glyph unicode="E" horiz-adv-x="1384" d="M174 0v1448h1092v-283h-777v-295h685v-282h-685v-305h787v-283h-1102z" />
<glyph unicode="F" horiz-adv-x="1355" d="M174 0v1448h1102v-289h-784v-309h692v-289h-692v-561h-318z" />
<glyph unicode="G" horiz-adv-x="1619" d="M111 719v6q0 311 217 529.5t540 218.5q188 0 318.5 -48.5t251.5 -150.5l-201 -242q-90 76 -175 112t-204 36q-174 0 -295 -133.5t-121 -317.5v-4q0 -199 123 -330t316 -131q178 0 301 88v207h-322v275h629v-629q-270 -229 -619 -230q-334 0 -546.5 211t-212.5 533z" />
<glyph unicode="H" horiz-adv-x="1570" d="M174 0v1448h318v-574h587v574h320v-1448h-320v582h-587v-582h-318z" />
<glyph unicode="I" horiz-adv-x="694" d="M188 0v1448h318v-1448h-318z" />
<glyph unicode="J" horiz-adv-x="1165" d="M29 197l200 223q133 -145 265 -146q195 0 194 240v934h328v-948q0 -256 -137.5 -388t-376.5 -132q-291 0 -473 217z" />
<glyph unicode="K" horiz-adv-x="1509" d="M174 0v1448h318v-633l587 633h385l-590 -614l617 -834h-383l-449 616l-167 -174v-442h-318z" />
<glyph unicode="L" horiz-adv-x="1280" d="M174 0v1448h318v-1159h722v-289h-1040z" />
<glyph unicode="M" horiz-adv-x="1794" d="M174 0v1448h342l381 -612l381 612h344v-1448h-317v946l-408 -618h-8l-404 612v-940h-311z" />
<glyph unicode="N" horiz-adv-x="1632" d="M174 0v1448h293l680 -891v891h313v-1448h-270l-703 920v-920h-313z" />
<glyph unicode="O" horiz-adv-x="1757" d="M111 719v6q0 311 220 529.5t550.5 218.5t549 -216.5t218.5 -527.5v-4q0 -313 -220.5 -531.5t-551 -218.5t-548.5 216.5t-218 527.5zM442 725q0 -190 124 -323.5t314.5 -133.5t312.5 131t122 320v6q0 188 -124 321.5t-314.5 133.5t-312.5 -131t-122 -320v-4z" />
<glyph unicode="P" horiz-adv-x="1380" d="M174 0v1448h592q256 0 404.5 -137t148.5 -363v-4q0 -244 -165 -377t-419 -133h-243v-434h-318zM492 717h253q115 0 183.5 62.5t68.5 158.5v4q0 104 -68.5 161.5t-189.5 57.5h-247v-444z" />
<glyph unicode="Q" horiz-adv-x="1757" d="M111 719v6q0 311 220 529.5t550.5 218.5t549 -216.5t218.5 -527.5v-4q0 -231 -129 -418l149 -125l-203 -225l-159 141q-193 -123 -430 -123q-330 0 -548 216.5t-218 527.5zM442 725q0 -190 124 -323.5t315 -133.5q102 0 190 39l-235 201l202 229l238 -215q39 86 39 197v6 q0 188 -124 321.5t-314.5 133.5t-312.5 -131t-122 -320v-4z" />
<glyph unicode="R" horiz-adv-x="1495" d="M174 0v1448h662q256 0 401 -127t145 -350v-4q0 -334 -311 -451l354 -516h-372l-310 463h-251v-463h-318zM492 745h323q113 0 178.5 55.5t65.5 149.5v4q0 100 -66.5 153.5t-183.5 53.5h-317v-416z" />
<glyph unicode="S" horiz-adv-x="1323" d="M74 211l188 225q213 -176 432 -176q98 0 153.5 37t55.5 100v4q0 61 -57.5 100.5t-233.5 84.5q-125 31 -200.5 60.5t-145 79.5t-101.5 123t-32 179v4q0 197 141.5 316.5t364.5 119.5q309 0 539 -184l-166 -240q-205 143 -377 144q-88 0 -137 -36t-49 -91v-4q0 -70 60 -106 t253 -85q236 -61 347.5 -157.5t111.5 -276.5v-4q0 -211 -146.5 -329.5t-386.5 -118.5q-354 0 -614 231z" />
<glyph unicode="T" horiz-adv-x="1339" d="M70 1155v293h1200v-293h-441v-1155h-319v1155h-440z" />
<glyph unicode="U" horiz-adv-x="1562" d="M152 621v827h317v-819q0 -174 82 -266.5t230.5 -92.5t230.5 89.5t82 258.5v830h319v-817q0 -324 -169 -489t-466 -165t-461.5 164.5t-164.5 479.5z" />
<glyph unicode="V" horiz-adv-x="1550" d="M49 1448h352l379 -1020l379 1020h342l-586 -1458h-280z" />
<glyph unicode="W" horiz-adv-x="2320" d="M61 1448h342l299 -981l326 985h272l326 -985l299 981h334l-494 -1458h-278l-326 948l-327 -948h-277z" />
<glyph unicode="X" horiz-adv-x="1513" d="M63 0l506 737l-485 711h373l305 -469l305 469h363l-484 -707l504 -741h-373l-323 496l-328 -496h-363z" />
<glyph unicode="Y" horiz-adv-x="1480" d="M25 1448h372l346 -582l351 582h362l-557 -870v-578h-317v571z" />
<glyph unicode="Z" horiz-adv-x="1464" d="M131 0v242l795 927h-770v279h1179v-242l-794 -927h794v-279h-1204z" />
<glyph unicode="[" horiz-adv-x="960" d="M172 -268v1716h668v-246h-367v-1225h367v-245h-668z" />
<glyph unicode="\" horiz-adv-x="1095" d="M-29 1651h267l917 -1915h-268z" />
<glyph unicode="]" horiz-adv-x="960" d="M123 -23h364v1225h-364v246h668v-1716h-668v245z" />
<glyph unicode="^" horiz-adv-x="1034" d="M102 1020l308 428h215l305 -428h-228l-188 242l-186 -242h-226z" />
<glyph unicode="_" horiz-adv-x="1241" d="M-4 -90h1249v-242h-1249v242z" />
<glyph unicode="`" horiz-adv-x="1034" d="M227 1479l271 118l235 -366h-241z" />
<glyph unicode="a" horiz-adv-x="1222" d="M74 319v5q0 174 121.5 263t326.5 89q137 0 271 -45v18q0 203 -238 203q-143 0 -307 -59l-78 239q203 88 430 88q494 0 494 -477v-643h-303v121q-127 -141 -336 -141q-164 0 -272.5 89.5t-108.5 249.5zM379 332q0 -63 47 -99t125 -36q109 0 177.5 54t68.5 140v55 q-90 41 -201 41q-102 0 -159.5 -38.5t-57.5 -112.5v-4z" />
<glyph unicode="b" horiz-adv-x="1394" d="M141 0v1509h314v-559q133 178 346 178q207 0 355.5 -153.5t148.5 -417.5v-4q0 -266 -147.5 -419.5t-356.5 -153.5q-207 0 -346 165v-145h-314zM451 553q0 -135 77.5 -221t191.5 -86t192.5 85t78.5 222v4q0 133 -78.5 219t-192.5 86t-191.5 -86t-77.5 -219v-4z" />
<glyph unicode="c" horiz-adv-x="1179" d="M86 549v4q0 240 166 407.5t416 167.5q279 0 442 -184l-192 -207q-115 121 -252 121q-115 0 -192 -89t-77 -212v-4q0 -131 78 -219t203 -88q131 0 256 119l182 -187q-90 -100 -193.5 -151.5t-258.5 -51.5q-248 0 -413 166t-165 408z" />
<glyph unicode="d" horiz-adv-x="1394" d="M90 553v4q0 264 148.5 417.5t357.5 153.5q207 0 346 -163v544h313v-1509h-313v160q-133 -180 -346 -180q-207 0 -356.5 153.5t-149.5 419.5zM406 553q0 -135 78.5 -221t192.5 -86t191.5 86t77.5 221v4q0 133 -77.5 219t-191.5 86t-192.5 -85t-78.5 -220v-4z" />
<glyph unicode="e" horiz-adv-x="1267" d="M86 549v4q0 242 155.5 408.5t393.5 166.5q262 0 401.5 -173t139.5 -427v-4q0 -23 -5 -80h-772q23 -104 93.5 -160.5t177.5 -56.5q147 0 270 115l178 -160q-166 -207 -452 -207q-252 0 -416 160t-164 414zM395 641h473q-14 109 -74.5 172.5t-158.5 63.5q-94 0 -158 -62.5 t-82 -173.5z" />
<glyph unicode="f" horiz-adv-x="788" d="M63 840v258h132v71q0 354 344 355q125 0 223 -31v-260q-76 27 -144 27q-115 0 -114 -119v-45h256v-256h-252v-840h-313v840h-132z" />
<glyph unicode="g" horiz-adv-x="1394" d="M90 608v4q0 238 145.5 377t348.5 139q207 0 358 -163v143h313v-858q0 -307 -151.5 -446.5t-466.5 -139.5q-270 0 -490 117l107 235q180 -100 375 -100q317 0 317 301v53q-76 -90 -160 -135t-202 -45q-205 0 -349.5 140t-144.5 378zM406 608q0 -115 76.5 -185.5 t192.5 -70.5t193.5 72t77.5 184v4q0 113 -77.5 184.5t-193.5 71.5t-192.5 -71.5t-76.5 -184.5v-4z" />
<glyph unicode="h" d="M141 0v1509h314v-557q139 176 325 176q178 0 277.5 -109.5t99.5 -301.5v-717h-315v618q0 111 -49.5 168.5t-140.5 57.5t-144 -57.5t-53 -168.5v-618h-314z" />
<glyph unicode="i" horiz-adv-x="624" d="M147 1231v278h330v-278h-330zM156 0v1108h313v-1108h-313z" />
<glyph unicode="j" horiz-adv-x="624" d="M-23 -78q37 -6 66 -6q113 0 113 127v1065h313v-1090q0 -356 -354 -356q-74 0 -138 12v248zM147 1231v278h330v-278h-330z" />
<glyph unicode="k" horiz-adv-x="1222" d="M141 0v1509h314v-804l368 403h377l-422 -436l436 -672h-360l-289 453l-110 -115v-338h-314z" />
<glyph unicode="l" horiz-adv-x="624" d="M156 0v1509h313v-1509h-313z" />
<glyph unicode="m" horiz-adv-x="1964" d="M141 0v1108h314v-156q139 176 327 176q221 0 312 -174q152 174 364 174q178 0 276.5 -104t98.5 -303v-721h-315v618q0 225 -185 226q-88 0 -138 -57.5t-50 -168.5v-618h-316v618q0 225 -184 226q-88 0 -139 -57.5t-51 -168.5v-618h-314z" />
<glyph unicode="n" d="M141 0v1108h314v-156q139 176 325 176q178 0 277.5 -109.5t99.5 -301.5v-717h-315v618q0 111 -49.5 168.5t-140.5 57.5t-144 -57.5t-53 -168.5v-618h-314z" />
<glyph unicode="o" horiz-adv-x="1372" d="M86 549v4q0 242 173 408.5t430 166.5t427 -165.5t170 -405.5v-4q0 -242 -172 -410t-429 -168t-428 166t-171 408zM397 553q0 -127 82 -217t209 -90q131 0 210 87t79 216v4q0 125 -82 215t-211 90t-208 -87t-79 -214v-4z" />
<glyph unicode="p" horiz-adv-x="1394" d="M141 -332v1440h314v-158q133 178 346 178q207 0 355.5 -153.5t148.5 -417.5v-4q0 -266 -147.5 -419.5t-356.5 -153.5q-207 0 -346 165v-477h-314zM451 553q0 -135 77.5 -221t191.5 -86t192.5 85t78.5 222v4q0 133 -78.5 219t-192.5 86t-191.5 -86t-77.5 -219v-4z" />
<glyph unicode="q" horiz-adv-x="1394" d="M90 553v4q0 264 148.5 417.5t357.5 153.5q207 0 346 -163v143h313v-1440h-313v492q-133 -180 -346 -180q-207 0 -356.5 153.5t-149.5 419.5zM406 553q0 -135 78.5 -221t192.5 -86t191.5 86t77.5 221v4q0 133 -77.5 219t-191.5 86t-192.5 -85t-78.5 -220v-4z" />
<glyph unicode="r" horiz-adv-x="864" d="M141 0v1108h314v-223q104 244 332 244q11 0 22 -1v-327h-16q-162 0 -250 -98.5t-88 -292.5v-410h-314z" />
<glyph unicode="s" horiz-adv-x="1038" d="M53 147l135 207q182 -133 351 -133q131 0 131 82v4q0 12 -3 22.5t-11.5 18.5t-17.5 15.5t-24.5 14.5t-27 12t-31.5 12.5t-35.5 11.5t-40 11t-39.5 11q-70 20 -120 42t-102 59.5t-79.5 96t-27.5 136.5v4q0 164 115.5 257t287.5 93q225 0 414 -127l-119 -217 q-176 102 -301 103q-55 0 -85 -21.5t-30 -54.5v-4q0 -55 191 -121q23 -8 34 -12q72 -25 121 -46.5t103.5 -59.5t83 -94t28.5 -128v-4q0 -178 -117.5 -268t-306.5 -90q-264 -1 -477 167z" />
<glyph unicode="t" horiz-adv-x="858" d="M59 840v268h134v285h313v-285h262v-268h-262v-473q0 -109 102 -109q82 0 156 39v-252q-109 -63 -250 -63q-154 0 -237.5 75.5t-83.5 257.5v525h-134z" />
<glyph unicode="u" d="M133 391v717h313v-619q0 -109 50.5 -167t141.5 -58t143.5 58.5t52.5 166.5v619h315v-1108h-315v158q-139 -178 -326 -178q-176 0 -275.5 109t-99.5 302z" />
<glyph unicode="v" horiz-adv-x="1241" d="M41 1108h334l248 -741l249 741h328l-436 -1116h-287z" />
<glyph unicode="w" horiz-adv-x="1779" d="M49 1108h320l178 -672l209 676h270l211 -678l182 674h312l-345 -1116h-284l-213 680l-217 -680h-281z" />
<glyph unicode="x" horiz-adv-x="1206" d="M47 0l389 563l-375 545h338l207 -322l209 322h330l-375 -539l391 -569h-338l-223 346l-223 -346h-330z" />
<glyph unicode="y" horiz-adv-x="1241" d="M41 1108h334l252 -754l241 754h328l-426 -1135q-66 -172 -145.5 -241.5t-218.5 -69.5q-150 0 -279 78l104 227q72 -43 136 -43q74 0 108 72z" />
<glyph unicode="z" horiz-adv-x="1163" d="M102 0v221l574 633h-553v254h944v-221l-575 -633h575v-254h-965z" />
<glyph unicode="{" horiz-adv-x="1011" d="M100 473v240h56q123 0 175 47t52 166q0 20 -3 74.5t-3 68.5q0 168 105.5 265.5t377.5 144.5l55 -209q-156 -45 -203.5 -96.5t-47.5 -149.5q0 -20 3 -75.5t3 -78.5q0 -207 -215 -276q215 -70 215 -277q0 -25 -3 -79t-3 -74q0 -100 48 -150.5t203 -95.5l-55 -209 q-272 47 -377.5 144.5t-105.5 265.5q0 14 3 68.5t3 72.5q0 121 -52 167t-175 46h-56z" />
<glyph unicode="|" horiz-adv-x="722" d="M238 -264v1915h247v-1915h-247z" />
<glyph unicode="}" horiz-adv-x="1011" d="M96 -82q158 45 206 95t48 151q0 20 -3 74.5t-3 78.5q0 207 215 277q-215 70 -215 276q0 23 3 78.5t3 75.5q0 98 -48 149.5t-206 96.5l58 209q272 -47 377.5 -144.5t105.5 -265.5q0 -14 -3 -68.5t-3 -74.5q0 -119 52 -166t175 -47h53v-240h-53q-123 0 -175 -46t-52 -167 q0 -18 3 -72.5t3 -68.5q0 -168 -105.5 -265.5t-377.5 -144.5z" />
<glyph unicode="~" horiz-adv-x="1054" d="M100 514q41 143 98.5 215t159.5 72q70 0 174.5 -41t135.5 -41q45 0 69.5 24.5t48.5 77.5l168 -51q-41 -143 -98 -215t-160 -72q-70 0 -174 41t-135 41q-45 0 -69.5 -24.5t-49.5 -77.5z" />
<glyph unicode="&#xa1;" horiz-adv-x="669" d="M152 0v41l96 915h174l98 -915v-41h-368zM168 1116v332h334v-332h-334z" />
<glyph unicode="&#xa2;" horiz-adv-x="1200" d="M96 733q0 242 165 410t415 168h12l29 149h217l-37 -182q123 -41 223 -154l-184 -200q-53 53 -102 77l-115 -571q115 14 225 117l176 -180q-180 -203 -442 -209l-33 -170h-215l39 202q-166 61 -269.5 209t-103.5 334zM401 737q0 -184 134 -270l110 573q-106 -8 -175 -96 t-69 -207z" />
<glyph unicode="&#xa3;" horiz-adv-x="1331" d="M125 0v209l156 51v293h-156v262h156v168q0 229 129 357t362 128q289 0 465 -237l-242 -195q-55 72 -105 105t-114 33q-80 0 -126 -53.5t-46 -145.5v-160h471v-262h-471v-279h629v-274h-1108z" />
<glyph unicode="&#xa4;" horiz-adv-x="1488" d="M100 449v208h156q-2 20 -2 64q0 53 2 78h-156v209h195q68 211 223.5 338t378.5 127q180 0 299 -69t211 -196l-240 -182q-63 82 -125.5 123t-150.5 41q-182 0 -262 -182h381v-209h-430q-2 -23 -2 -72q0 -47 2 -70h430v-208h-385q80 -190 278 -191q86 0 145.5 40t135.5 130 l227 -168q-100 -137 -220 -211t-288 -74q-231 0 -390 127t-222 347h-191z" />
<glyph unicode="&#xa5;" horiz-adv-x="1417" d="M29 1448h366l318 -537l321 537h357l-447 -682h299v-223h-381v-129h381v-224h-381v-190h-305v190h-381v224h381v129h-381v223h295z" />
<glyph unicode="&#xa7;" horiz-adv-x="1306" d="M115 711q0 176 182 245q-86 68 -86 191q0 147 111.5 234t312.5 87q303 0 481 -196l-168 -170q-150 137 -305 137q-137 0 -137 -76q0 -39 44 -62.5t185 -53.5q250 -55 354.5 -124t104.5 -186q0 -176 -184 -245q86 -68 86 -191q0 -147 -112 -234t-312 -87q-301 0 -482 196 l170 170q147 -137 304 -137q137 0 137 76q0 39 -44 62.5t-184 53.5q-250 55 -354 124t-104 186zM389 758q0 -43 48 -69.5t161 -53.5q150 -37 207 -37q53 0 83 24.5t30 67.5t-48.5 69.5t-160.5 53.5q-147 37 -207 37q-53 0 -83 -24.5t-30 -67.5z" />
<glyph unicode="&#xa8;" horiz-adv-x="1034" d="M145 1231v278h301v-278h-301zM588 1231v278h301v-278h-301z" />
<glyph unicode="&#xa9;" horiz-adv-x="1716" d="M111 722q0 308 219 529.5t531.5 221.5t529.5 -219.5t217 -527.5t-219.5 -529.5t-531.5 -221.5t-529 219.5t-217 527.5zM197 721q0 -276 189 -470t471 -194t472.5 194.5t190.5 475.5q0 276 -188.5 470t-470 194t-473 -194.5t-191.5 -475.5zM459 732q0 173 116.5 294 t296.5 121q188 0 316 -123l-115 -133q-98 90 -201 90q-96 0 -161.5 -71.5t-65.5 -175t64.5 -175.5t162.5 -72q102 0 205 95l117 -117q-133 -141 -328 -141q-174 0 -290.5 117.5t-116.5 290.5z" />
<glyph unicode="&#xaa;" horiz-adv-x="804" d="M100 573v136h576v-136h-576zM109 1014q0 96 65.5 146t179.5 50q74 0 148 -24v10q0 111 -131 111q-80 0 -168 -33l-43 131q109 49 237 49q270 0 271 -262v-354h-168v65q-68 -78 -183 -78q-92 0 -150 49.5t-58 139.5zM274 1022q0 -76 95 -76q59 0 97 30t38 77v30 q-57 23 -111 23q-119 0 -119 -84z" />
<glyph unicode="&#xab;" horiz-adv-x="1333" d="M84 547v16l348 463l240 -117l-269 -352l269 -354l-240 -121zM647 547v16l348 463l240 -117l-268 -352l268 -354l-240 -121z" />
<glyph unicode="&#xad;" horiz-adv-x="843" d="M102 489v304h639v-304h-639z" />
<glyph unicode="&#xae;" horiz-adv-x="1716" d="M111 722q0 308 219 529.5t531.5 221.5t529.5 -219.5t217 -527.5t-219.5 -529.5t-531.5 -221.5t-529 219.5t-217 527.5zM197 721q0 -276 189 -470t471 -194t472.5 194.5t190.5 475.5q0 276 -188.5 470t-470 194t-473 -194.5t-191.5 -475.5zM551 348v797h352 q145 0 229.5 -69.5t84.5 -194.5q0 -186 -173 -248l195 -285h-205l-170 256h-137v-256h-176zM727 756h174q68 0 102.5 31.5t34.5 82.5q0 119 -141 119h-170v-233z" />
<glyph unicode="&#xaf;" horiz-adv-x="1034" d="M145 1241v217h744v-217h-744z" />
<glyph unicode="&#xb0;" horiz-adv-x="991" d="M139 1111q0 140 107.5 244.5t250 104.5t250 -104.5t107.5 -244.5t-107.5 -244.5t-250 -104.5t-250 104.5t-107.5 244.5zM305 1111q0 -79 55.5 -137.5t136.5 -58.5t135 58.5t54 137.5t-54 136.5t-135 57.5t-136.5 -57.5t-55.5 -136.5z" />
<glyph unicode="&#xb1;" horiz-adv-x="1269" d="M76 221l213 207q162 -168 364 -168q102 0 157.5 46t55.5 126q0 166 -272 166h-160v264h168q106 0 165.5 47t59.5 123q0 70 -56 113t-153 43q-84 0 -152.5 -43t-141.5 -125l-222 186q109 133 226.5 200t294.5 67q233 0 375.5 -109t142.5 -283q0 -231 -191 -336 q109 -49 169.5 -122.5t60.5 -194.5q0 -201 -141.5 -327t-389.5 -126q-348 0 -573 246z" />
<glyph unicode="&#xb2;" d="M100 0v252l484 395q143 119 196.5 189.5t53.5 158.5t-53.5 138.5t-141.5 50.5q-80 0 -145.5 -45t-149.5 -150l-223 180q113 154 233.5 226.5t304.5 72.5q229 0 364.5 -121.5t135.5 -326.5q0 -170 -84 -284.5t-297 -278.5l-235 -183h631v-274h-1074z" />
<glyph unicode="&#xb3;" horiz-adv-x="1284" d="M78 225l219 209q156 -174 350 -174q92 0 148.5 49t56.5 129q0 90 -73.5 138.5t-209.5 48.5h-133l-49 202l346 349h-569v272h979v-240l-367 -350q389 -63 389 -407q0 -209 -142 -342.5t-380 -133.5q-354 0 -565 250z" />
<glyph unicode="&#xb4;" horiz-adv-x="1034" d="M301 1231l236 366l270 -118l-264 -248h-242z" />
<glyph unicode="&#xb5;" horiz-adv-x="1757" d="M111 722q0 314 220 532.5t550.5 218.5t549 -216.5t218.5 -529.5q0 -324 -236 -543l369 -372v-21h-469l-217 213q-104 -29 -219 -29q-330 0 -548 216.5t-218 530.5zM442 726q0 -189 124 -323.5t314.5 -134.5t312.5 132t122 321.5t-124 324t-314.5 134.5t-312.5 -132.5 t-122 -321.5z" />
<glyph unicode="&#xb6;" horiz-adv-x="1218" d="M72 961q0 227 156.5 357t414.5 130h404v-1448h-318v475h-51q-270 0 -438 126.5t-168 359.5z" />
<glyph unicode="&#xb7;" horiz-adv-x="589" d="M129 475v332h334v-332h-334z" />
<glyph unicode="&#xb8;" horiz-adv-x="1034" d="M244 -248l184 268h231l-153 -378z" />
<glyph unicode="&#xb9;" horiz-adv-x="872" d="M49 1333l416 125h217v-1458h-313v1135l-252 -62z" />
<glyph unicode="&#xba;" horiz-adv-x="804" d="M84 1140q0 134 92 226t229.5 92t226.5 -91t89 -225t-91 -226.5t-228.5 -92.5t-227.5 91.5t-90 225.5zM106 573v136h594v-136h-594zM254 1141.5q0 -70.5 43 -119.5t108.5 -49t106.5 48t41 118.5t-43 120t-108.5 49.5t-106.5 -48.5t-41 -119z" />
<glyph unicode="&#xbb;" horiz-adv-x="1333" d="M98 199l271 354l-271 352l242 121l346 -463v-16l-346 -465zM662 199l268 354l-268 352l239 121l348 -463v-16l-348 -465z" />
<glyph unicode="&#xbc;" horiz-adv-x="3289" d="M1929 539l795 919h268v-887h195v-258h-195v-313h-303v313h-706zM2304 571h385v451zM725 -203l964 1772h277l-963 -1772h-278zM49 1333l416 125h217v-1458h-313v1135l-252 -62z" />
<glyph unicode="&#xbd;" horiz-adv-x="3153" d="M1966 0v252l484 395q143 119 196.5 189.5t53.5 158.5t-53.5 138.5t-141.5 50.5q-80 0 -145.5 -45t-149.5 -150l-223 180q113 154 233.5 226.5t304.5 72.5q229 0 364.5 -121.5t135.5 -326.5q0 -170 -84 -284.5t-297 -278.5l-235 -183h631v-274h-1074zM725 -203l964 1772 h277l-963 -1772h-278zM49 1333l416 125h217v-1458h-313v1135l-252 -62z" />
<glyph unicode="&#xbe;" horiz-adv-x="3700" d="M2340 539l795 919h268v-887h195v-258h-195v-313h-303v313h-706zM2715 571h385v451zM1137 -203l964 1772h277l-963 -1772h-278zM78 225l219 209q156 -174 350 -174q92 0 148.5 49t56.5 129q0 90 -73.5 138.5t-209.5 48.5h-133l-49 202l346 349h-569v272h979v-240 l-367 -350q389 -63 389 -407q0 -209 -142 -342.5t-380 -133.5q-354 0 -565 250z" />
<glyph unicode="&#xbf;" horiz-adv-x="1124" d="M76 412q0 336 407 417l23 127h211l49 -335l-10 -11q-362 -14 -363 -190q0 -70 49.5 -110t141.5 -40q168 0 309 144l190 -209q-203 -223 -505 -223q-227 0 -364.5 112.5t-137.5 317.5zM451 1116v332h335v-332h-335z" />
<glyph unicode="&#xc0;" horiz-adv-x="1632" d="M49 0l621 1458h295l620 -1458h-334l-133 326h-612l-131 -326h-326zM444 1810l271 117l235 -364h-241zM621 606h385l-193 469z" />
<glyph unicode="&#xc1;" horiz-adv-x="1632" d="M49 0l621 1458h295l620 -1458h-334l-133 326h-612l-131 -326h-326zM621 606h385l-193 469zM684 1563l234 364l272 -117l-266 -247h-240z" />
<glyph unicode="&#xc2;" horiz-adv-x="1632" d="M49 0l621 1458h295l620 -1458h-334l-133 326h-612l-131 -326h-326zM414 1563l254 323h299l254 -323h-242l-164 135l-164 -135h-237zM621 606h385l-193 469z" />
<glyph unicode="&#xc3;" horiz-adv-x="1632" d="M49 0l621 1458h295l620 -1458h-334l-133 326h-612l-131 -326h-326zM391 1593q39 141 97.5 213t158.5 72q70 0 174.5 -40t136.5 -40q45 0 69 23.5t48 76.5l168 -51q-39 -143 -97.5 -213.5t-158.5 -70.5q-72 0 -176 39.5t-135 39.5q-45 0 -68.5 -23.5t-48.5 -78.5zM621 606 h385l-193 469z" />
<glyph unicode="&#xc4;" horiz-adv-x="1632" d="M49 0l621 1458h295l620 -1458h-334l-133 326h-612l-131 -326h-326zM444 1563v278h304v-278h-304zM621 606h385l-193 469zM887 1563v278h303v-278h-303z" />
<glyph unicode="&#xc5;" horiz-adv-x="1632" d="M49 0l604 1421q-86 76 -86 183q0 98 75 169.5t174 71.5t175 -71.5t76 -169.5q0 -106 -86 -183l604 -1421h-334l-133 326h-612l-131 -326h-326zM621 606h385l-193 469zM688 1603.5q0 -51.5 39 -90t90 -38.5t90 38.5t39 90t-39 89.5t-90 38t-90 -38t-39 -89.5z" />
<glyph unicode="&#xc6;" horiz-adv-x="2160" d="M18 0l781 1448h1243v-283h-725v-295h631v-282h-631v-305h735v-283h-1051v326h-487l-170 -326h-326zM664 606h337v568h-36z" />
<glyph unicode="&#xc7;" horiz-adv-x="1525" d="M111 721q0 315 213 533.5t540 218.5q193 0 327 -56.5t245 -167.5l-203 -233q-180 164 -371 164q-180 0 -300 -132.5t-120 -321.5t119 -323.5t301 -134.5q117 0 202 42t179 128l203 -205q-113 -119 -239 -183t-302 -73l-133 -335l-264 110l166 244q-250 57 -406.5 258 t-156.5 467z" />
<glyph unicode="&#xc8;" horiz-adv-x="1384" d="M174 0v1448h1092v-283h-777v-295h685v-282h-685v-305h787v-283h-1102zM391 1810l271 117l233 -364h-240z" />
<glyph unicode="&#xc9;" horiz-adv-x="1384" d="M174 0v1448h1092v-283h-777v-295h685v-282h-685v-305h787v-283h-1102zM547 1563l233 364l271 -117l-265 -247h-239z" />
<glyph unicode="&#xca;" horiz-adv-x="1384" d="M174 0v1448h1092v-283h-777v-295h685v-282h-685v-305h787v-283h-1102zM313 1563l254 323h297l254 -323h-241l-164 135l-162 -135h-238z" />
<glyph unicode="&#xcb;" horiz-adv-x="1384" d="M174 0v1448h1092v-283h-777v-295h685v-282h-685v-305h787v-283h-1102zM344 1563v278h301v-278h-301zM786 1563v278h301v-278h-301z" />
<glyph unicode="&#xcc;" horiz-adv-x="694" d="M-25 1810l271 117l233 -364h-239zM188 0v1448h318v-1448h-318z" />
<glyph unicode="&#xcd;" horiz-adv-x="694" d="M188 0v1448h318v-1448h-318zM215 1563l234 364l270 -117l-264 -247h-240z" />
<glyph unicode="&#xce;" horiz-adv-x="694" d="M-55 1563l254 323h297l256 -323h-244l-162 135l-164 -135h-237zM188 0v1448h318v-1448h-318z" />
<glyph unicode="&#xcf;" horiz-adv-x="694" d="M-25 1563v278h301v-278h-301zM188 0v1448h318v-1448h-318zM418 1563v278h301v-278h-301z" />
<glyph unicode="&#xd0;" horiz-adv-x="1679" d="M80 588v280h156v580h565q338 0 554 -206t216 -516t-216 -518t-554 -208h-565v588h-156zM551 287h250q195 0 315.5 120.5t120.5 314t-121 316.5t-315 123h-250v-293h313v-280h-313v-301z" />
<glyph unicode="&#xd1;" horiz-adv-x="1632" d="M174 0v1448h293l680 -891v891h313v-1448h-270l-703 920v-920h-313zM391 1593q39 141 97.5 213t158.5 72q70 0 174.5 -40t136.5 -40q45 0 69 23.5t48 76.5l168 -51q-39 -143 -97.5 -213.5t-158.5 -70.5q-72 0 -176 39.5t-135 39.5q-45 0 -68.5 -23.5t-48.5 -78.5z" />
<glyph unicode="&#xd2;" horiz-adv-x="1757" d="M111 719v6q0 311 220 529.5t550.5 218.5t549 -216.5t218.5 -527.5v-4q0 -313 -220.5 -531.5t-551 -218.5t-548.5 216.5t-218 527.5zM442 725q0 -190 124 -323.5t314.5 -133.5t312.5 131t122 320v6q0 188 -124 321.5t-314.5 133.5t-312.5 -131t-122 -320v-4zM485 1810 l273 117l233 -364h-239z" />
<glyph unicode="&#xd3;" horiz-adv-x="1757" d="M111 719v6q0 311 220 529.5t550.5 218.5t549 -216.5t218.5 -527.5v-4q0 -313 -220.5 -531.5t-551 -218.5t-548.5 216.5t-218 527.5zM442 725q0 -190 124 -323.5t314.5 -133.5t312.5 131t122 320v6q0 188 -124 321.5t-314.5 133.5t-312.5 -131t-122 -320v-4zM768 1563 l233 364l271 -117l-264 -247h-240z" />
<glyph unicode="&#xd4;" horiz-adv-x="1757" d="M111 719v6q0 311 220 529.5t550.5 218.5t549 -216.5t218.5 -527.5v-4q0 -313 -220.5 -531.5t-551 -218.5t-548.5 216.5t-218 527.5zM442 725q0 -190 124 -323.5t314.5 -133.5t312.5 131t122 320v6q0 188 -124 321.5t-314.5 133.5t-312.5 -131t-122 -320v-4zM475 1563 l256 323h297l254 -323h-242l-163 135l-164 -135h-238z" />
<glyph unicode="&#xd5;" horiz-adv-x="1757" d="M111 719v6q0 311 220 529.5t550.5 218.5t549 -216.5t218.5 -527.5v-4q0 -313 -220.5 -531.5t-551 -218.5t-548.5 216.5t-218 527.5zM442 725q0 -190 124 -323.5t314.5 -133.5t312.5 131t122 320v6q0 188 -124 321.5t-314.5 133.5t-312.5 -131t-122 -320v-4zM453 1593 q39 141 97 213t159 72q72 0 176 -40t135 -40q45 0 68.5 23.5t50.5 76.5l166 -51q-39 -143 -96.5 -213.5t-159.5 -70.5q-70 0 -174.5 39.5t-135.5 39.5q-47 0 -70.5 -23.5t-47.5 -78.5z" />
<glyph unicode="&#xd6;" horiz-adv-x="1757" d="M111 719v6q0 311 220 529.5t550.5 218.5t549 -216.5t218.5 -527.5v-4q0 -313 -220.5 -531.5t-551 -218.5t-548.5 216.5t-218 527.5zM442 725q0 -190 124 -323.5t314.5 -133.5t312.5 131t122 320v6q0 188 -124 321.5t-314.5 133.5t-312.5 -131t-122 -320v-4zM506 1563v278 h303v-278h-303zM950 1563v278h301v-278h-301z" />
<glyph unicode="&#xd8;" horiz-adv-x="1757" d="M92 -10l203 235q-184 205 -184 496q0 315 220 533.5t550 218.5q221 0 399 -103l82 88h303l-203 -235q186 -205 187 -496q0 -315 -220.5 -533.5t-551.5 -218.5q-221 0 -400 103l-80 -88h-305zM436 727q0 -141 72 -256l573 664q-94 51 -204 51q-190 0 -315.5 -136.5 t-125.5 -322.5zM676 313q96 -51 205 -51q190 0 315 136.5t125 322.5q0 141 -72 256z" />
<glyph unicode="&#xd9;" horiz-adv-x="1562" d="M152 621v827h317v-819q0 -174 82 -266.5t230.5 -92.5t230.5 89.5t82 258.5v830h319v-817q0 -324 -169 -489t-466 -165t-461.5 164.5t-164.5 479.5zM420 1800l270 117l234 -365h-240z" />
<glyph unicode="&#xda;" horiz-adv-x="1562" d="M152 621v827h317v-819q0 -174 82 -266.5t230.5 -92.5t230.5 89.5t82 258.5v830h319v-817q0 -324 -169 -489t-466 -165t-461.5 164.5t-164.5 479.5zM639 1552l233 365l273 -117l-266 -248h-240z" />
<glyph unicode="&#xdb;" horiz-adv-x="1562" d="M152 621v827h317v-819q0 -174 82 -266.5t230.5 -92.5t230.5 89.5t82 258.5v830h319v-817q0 -324 -169 -489t-466 -165t-461.5 164.5t-164.5 479.5zM379 1563l254 323h297l256 -323h-242l-164 135l-164 -135h-237z" />
<glyph unicode="&#xdc;" horiz-adv-x="1562" d="M152 621v827h317v-819q0 -174 82 -266.5t230.5 -92.5t230.5 89.5t82 258.5v830h319v-817q0 -324 -169 -489t-466 -165t-461.5 164.5t-164.5 479.5zM410 1563v278h301v-278h-301zM852 1563v278h303v-278h-303z" />
<glyph unicode="&#xdd;" horiz-adv-x="1480" d="M25 1448h372l346 -582l351 582h362l-557 -870v-578h-317v571zM618 1552l234 365l270 -117l-264 -248h-240z" />
<glyph unicode="&#xde;" horiz-adv-x="1390" d="M174 0v1448h318v-211h274q256 0 404.5 -137t148.5 -365q0 -246 -165 -379t-419 -133h-243v-223h-318zM492 506h253q117 0 184.5 61.5t67.5 161.5q0 106 -68.5 163.5t-189.5 57.5h-247v-444z" />
<glyph unicode="&#xdf;" horiz-adv-x="1282" d="M141 0v1040q0 227 136.5 355.5t371.5 128.5q215 0 338 -114t123 -290q0 -123 -49 -199.5t-139 -138.5q272 -119 272 -368q0 -207 -155.5 -317.5t-420.5 -100.5v235q264 12 265 193q0 82 -72 134t-193 69v207q182 117 183 258q0 80 -45 124t-121 44q-80 0 -131 -56.5 t-51 -150.5v-1053h-312z" />
<glyph unicode="&#xe0;" horiz-adv-x="1222" d="M74 319v5q0 174 121.5 263t326.5 89q137 0 271 -45v18q0 203 -238 203q-143 0 -307 -59l-78 239q203 88 430 88q494 0 494 -477v-643h-303v121q-127 -141 -336 -141q-164 0 -272.5 89.5t-108.5 249.5zM260 1479l272 118l234 -366h-240zM379 332q0 -63 47 -99t125 -36 q109 0 177.5 54t68.5 140v55q-90 41 -201 41q-102 0 -159.5 -38.5t-57.5 -112.5v-4z" />
<glyph unicode="&#xe1;" horiz-adv-x="1222" d="M74 319v5q0 174 121.5 263t326.5 89q137 0 271 -45v18q0 203 -238 203q-143 0 -307 -59l-78 239q203 88 430 88q494 0 494 -477v-643h-303v121q-127 -141 -336 -141q-164 0 -272.5 89.5t-108.5 249.5zM379 332q0 -63 47 -99t125 -36q109 0 177.5 54t68.5 140v55 q-90 41 -201 41q-102 0 -159.5 -38.5t-57.5 -112.5v-4zM469 1231l233 366l273 -118l-266 -248h-240z" />
<glyph unicode="&#xe2;" horiz-adv-x="1222" d="M74 319v5q0 174 121.5 263t326.5 89q137 0 271 -45v18q0 203 -238 203q-143 0 -307 -59l-78 239q203 88 430 88q494 0 494 -477v-643h-303v121q-127 -141 -336 -141q-164 0 -272.5 89.5t-108.5 249.5zM205 1231l254 325h299l254 -325h-242l-164 137l-164 -137h-237z M379 332q0 -63 47 -99t125 -36q109 0 177.5 54t68.5 140v55q-90 41 -201 41q-102 0 -159.5 -38.5t-57.5 -112.5v-4z" />
<glyph unicode="&#xe3;" horiz-adv-x="1222" d="M74 319v5q0 174 121.5 263t326.5 89q137 0 271 -45v18q0 203 -238 203q-143 0 -307 -59l-78 239q203 88 430 88q494 0 494 -477v-643h-303v121q-127 -141 -336 -141q-164 0 -272.5 89.5t-108.5 249.5zM186 1262q39 143 97.5 213.5t158.5 70.5q70 0 174.5 -40t137.5 -40 q45 0 68.5 23.5t47.5 79.5l168 -53q-39 -141 -97 -213t-159 -72q-72 0 -176 40t-135 40q-45 0 -68.5 -23.5t-48.5 -77.5zM379 332q0 -63 47 -99t125 -36q109 0 177.5 54t68.5 140v55q-90 41 -201 41q-102 0 -159.5 -38.5t-57.5 -112.5v-4z" />
<glyph unicode="&#xe4;" horiz-adv-x="1222" d="M74 319v5q0 174 121.5 263t326.5 89q137 0 271 -45v18q0 203 -238 203q-143 0 -307 -59l-78 239q203 88 430 88q494 0 494 -477v-643h-303v121q-127 -141 -336 -141q-164 0 -272.5 89.5t-108.5 249.5zM236 1231v278h303v-278h-303zM379 332q0 -63 47 -99t125 -36 q109 0 177.5 54t68.5 140v55q-90 41 -201 41q-102 0 -159.5 -38.5t-57.5 -112.5v-4zM678 1231v278h303v-278h-303z" />
<glyph unicode="&#xe5;" horiz-adv-x="1222" d="M74 319v5q0 174 121.5 263t326.5 89q137 0 271 -45v18q0 203 -238 203q-143 0 -307 -59l-78 239q203 88 430 88q494 0 494 -477v-643h-303v121q-127 -141 -336 -141q-164 0 -272.5 89.5t-108.5 249.5zM358 1469.5q0 99.5 75 170t174.5 70.5t175 -70.5t75.5 -170 t-75.5 -171t-175 -71.5t-174.5 71.5t-75 171zM379 332q0 -63 47 -99t125 -36q109 0 177.5 54t68.5 140v55q-90 41 -201 41q-102 0 -159.5 -38.5t-57.5 -112.5v-4zM479 1468.5q0 -53.5 38 -91.5t91.5 -38t91 38t37.5 91.5t-37.5 91t-91 37.5t-91.5 -37.5t-38 -91z" />
<glyph unicode="&#xe6;" horiz-adv-x="1966" d="M74 326q0 172 121.5 261t326.5 89q137 0 271 -45v18q0 203 -238 203q-143 0 -307 -59l-78 239q203 88 430 88q260 0 377 -139q143 147 364 147q258 0 395.5 -174t137.5 -428q0 -25 -4 -82h-772q51 -217 272 -217q145 0 268 115l181 -160q-168 -207 -453 -207 q-260 0 -422 168q-223 -164 -452 -163q-188 0 -303 92t-115 254zM379 338q0 -66 47 -101.5t125 -35.5q145 0 283 104q-31 74 -39 144q-94 39 -199 38q-217 1 -217 -149zM1094 641h475q-14 109 -75.5 172.5t-160.5 63.5q-94 0 -157.5 -62.5t-81.5 -173.5z" />
<glyph unicode="&#xe7;" horiz-adv-x="1179" d="M86 551q0 242 166 409.5t416 167.5q279 0 442 -184l-192 -207q-115 121 -252 121q-115 0 -192 -89t-77 -214q0 -133 78 -221t203 -88q131 0 256 119l182 -187q-170 -186 -401 -201l-133 -335l-263 110l168 248q-180 53 -290.5 204.5t-110.5 346.5z" />
<glyph unicode="&#xe8;" horiz-adv-x="1267" d="M86 549v4q0 242 155.5 408.5t393.5 166.5q262 0 401.5 -173t139.5 -427v-4q0 -23 -5 -80h-772q23 -104 93.5 -160.5t177.5 -56.5q147 0 270 115l178 -160q-166 -207 -452 -207q-252 0 -416 160t-164 414zM252 1479l272 118l234 -366h-242zM395 641h473 q-14 109 -74.5 172.5t-158.5 63.5q-94 0 -158 -62.5t-82 -173.5z" />
<glyph unicode="&#xe9;" horiz-adv-x="1267" d="M86 549v4q0 242 155.5 408.5t393.5 166.5q262 0 401.5 -173t139.5 -427v-4q0 -23 -5 -80h-772q23 -104 93.5 -160.5t177.5 -56.5q147 0 270 115l178 -160q-166 -207 -452 -207q-252 0 -416 160t-164 414zM395 641h473q-14 109 -74.5 172.5t-158.5 63.5q-94 0 -158 -62.5 t-82 -173.5zM508 1231l235 366l271 -118l-264 -248h-242z" />
<glyph unicode="&#xea;" horiz-adv-x="1267" d="M86 549v4q0 242 155.5 408.5t393.5 166.5q262 0 401.5 -173t139.5 -427v-4q0 -23 -5 -80h-772q23 -104 93.5 -160.5t177.5 -56.5q147 0 270 115l178 -160q-166 -207 -452 -207q-252 0 -416 160t-164 414zM229 1231l254 325h299l254 -325h-241l-164 137l-164 -137h-238z M395 641h473q-14 109 -74.5 172.5t-158.5 63.5q-94 0 -158 -62.5t-82 -173.5z" />
<glyph unicode="&#xeb;" horiz-adv-x="1267" d="M86 549v4q0 242 155.5 408.5t393.5 166.5q262 0 401.5 -173t139.5 -427v-4q0 -23 -5 -80h-772q23 -104 93.5 -160.5t177.5 -56.5q147 0 270 115l178 -160q-166 -207 -452 -207q-252 0 -416 160t-164 414zM260 1231v278h303v-278h-303zM395 641h473q-14 109 -74.5 172.5 t-158.5 63.5q-94 0 -158 -62.5t-82 -173.5zM702 1231v278h304v-278h-304z" />
<glyph unicode="&#xec;" horiz-adv-x="624" d="M-55 1479l270 118l234 -366h-240zM156 0v1108h313v-1108h-313z" />
<glyph unicode="&#xed;" horiz-adv-x="624" d="M156 0v1108h313v-1108h-313zM176 1231l234 366l270 -118l-264 -248h-240z" />
<glyph unicode="&#xee;" horiz-adv-x="624" d="M-90 1231l254 325h297l254 -325h-242l-162 137l-164 -137h-237zM156 0v1108h313v-1108h-313z" />
<glyph unicode="&#xef;" horiz-adv-x="624" d="M-59 1231v278h301v-278h-301zM156 0v1108h313v-1108h-313zM383 1231v278h301v-278h-301z" />
<glyph unicode="&#xf0;" horiz-adv-x="1339" d="M86 520q0 215 133 350.5t342 135.5q129 0 254 -66l-180 240l-236 -99l-116 156l239 94l-133 178h354l48 -67l206 84l113 -154l-211 -86l168 -237q98 -139 140 -256t42 -248q0 -242 -159.5 -406t-430.5 -164q-246 0 -409.5 157t-163.5 388zM393 513q0 -116 78 -194.5 t199 -78.5q125 0 199.5 77.5t74.5 194.5q0 115 -76.5 192.5t-199.5 77.5t-199 -76.5t-76 -192.5z" />
<glyph unicode="&#xf1;" d="M141 0v1108h314v-156q139 176 325 176q178 0 277.5 -109.5t99.5 -301.5v-717h-315v618q0 111 -49.5 168.5t-140.5 57.5t-144 -57.5t-53 -168.5v-618h-314zM227 1262q39 143 97.5 213.5t158.5 70.5q72 0 176.5 -40t135.5 -40q45 0 68.5 23.5t47.5 79.5l168 -53 q-39 -141 -97 -213t-159 -72q-70 0 -174 40t-137 40q-45 0 -68.5 -23.5t-48.5 -77.5z" />
<glyph unicode="&#xf2;" horiz-adv-x="1372" d="M86 549v4q0 242 173 408.5t430 166.5t427 -165.5t170 -405.5v-4q0 -242 -172 -410t-429 -168t-428 166t-171 408zM301 1479l272 118l234 -366h-240zM397 553q0 -127 82 -217t209 -90q131 0 210 87t79 216v4q0 125 -82 215t-211 90t-208 -87t-79 -214v-4z" />
<glyph unicode="&#xf3;" horiz-adv-x="1372" d="M86 549v4q0 242 173 408.5t430 166.5t427 -165.5t170 -405.5v-4q0 -242 -172 -410t-429 -168t-428 166t-171 408zM397 553q0 -127 82 -217t209 -90q131 0 210 87t79 216v4q0 125 -82 215t-211 90t-208 -87t-79 -214v-4zM567 1231l234 366l270 -118l-264 -248h-240z" />
<glyph unicode="&#xf4;" horiz-adv-x="1372" d="M86 549v4q0 242 173 408.5t430 166.5t427 -165.5t170 -405.5v-4q0 -242 -172 -410t-429 -168t-428 166t-171 408zM283 1231l256 325h297l254 -325h-242l-164 137l-162 -137h-239zM397 553q0 -127 82 -217t209 -90q131 0 210 87t79 216v4q0 125 -82 215t-211 90t-208 -87 t-79 -214v-4z" />
<glyph unicode="&#xf5;" horiz-adv-x="1372" d="M86 549v4q0 242 173 408.5t430 166.5t427 -165.5t170 -405.5v-4q0 -242 -172 -410t-429 -168t-428 166t-171 408zM260 1262q39 143 97.5 213.5t158.5 70.5q72 0 176.5 -40t134.5 -40q45 0 69 23.5t50 79.5l166 -53q-39 -141 -96.5 -213t-159.5 -72q-70 0 -174 40t-135 40 q-47 0 -70.5 -23.5t-48.5 -77.5zM397 553q0 -127 82 -217t209 -90q131 0 210 87t79 216v4q0 125 -82 215t-211 90t-208 -87t-79 -214v-4z" />
<glyph unicode="&#xf6;" horiz-adv-x="1372" d="M86 549v4q0 242 173 408.5t430 166.5t427 -165.5t170 -405.5v-4q0 -242 -172 -410t-429 -168t-428 166t-171 408zM315 1231v278h301v-278h-301zM397 553q0 -127 82 -217t209 -90q131 0 210 87t79 216v4q0 125 -82 215t-211 90t-208 -87t-79 -214v-4zM758 1231v278h301 v-278h-301z" />
<glyph unicode="&#xf8;" horiz-adv-x="1372" d="M55 -10l166 190q-135 158 -135 371q0 242 173 409.5t429 167.5q162 0 297 -71l57 61h275l-166 -192q135 -158 135 -371q0 -242 -172 -411t-430 -169q-158 0 -297 72l-55 -57h-277zM389 555q0 -78 33 -147l381 434q-53 25 -119 24q-131 0 -213 -90t-82 -221zM573 260 q55 -23 115 -22q133 0 215 90t82 223q0 76 -33 145z" />
<glyph unicode="&#xf9;" d="M133 391v717h313v-619q0 -109 50.5 -167t141.5 -58t143.5 58.5t52.5 166.5v619h315v-1108h-315v158q-139 -178 -326 -178q-176 0 -275.5 109t-99.5 302zM291 1479l272 118l234 -366h-240z" />
<glyph unicode="&#xfa;" d="M133 391v717h313v-619q0 -109 50.5 -167t141.5 -58t143.5 58.5t52.5 166.5v619h315v-1108h-315v158q-139 -178 -326 -178q-176 0 -275.5 109t-99.5 302zM489 1231l236 366l270 -118l-264 -248h-242z" />
<glyph unicode="&#xfb;" d="M133 391v717h313v-619q0 -109 50.5 -167t141.5 -58t143.5 58.5t52.5 166.5v619h315v-1108h-315v158q-139 -178 -326 -178q-176 0 -275.5 109t-99.5 302zM240 1231l254 325h299l254 -325h-242l-164 137l-164 -137h-237z" />
<glyph unicode="&#xfc;" d="M133 391v717h313v-619q0 -109 50.5 -167t141.5 -58t143.5 58.5t52.5 166.5v619h315v-1108h-315v158q-139 -178 -326 -178q-176 0 -275.5 109t-99.5 302zM270 1231v278h303v-278h-303zM713 1231v278h303v-278h-303z" />
<glyph unicode="&#xfd;" horiz-adv-x="1241" d="M41 1108h334l252 -754l241 754h328l-426 -1135q-66 -172 -145.5 -241.5t-218.5 -69.5q-150 0 -279 78l104 227q72 -43 136 -43q74 0 108 72zM473 1231l234 366l272 -118l-266 -248h-240z" />
<glyph unicode="&#xfe;" horiz-adv-x="1394" d="M141 -332v1841h314v-559q133 178 346 178q207 0 355.5 -153.5t148.5 -420.5t-147.5 -420.5t-356.5 -153.5q-207 0 -346 165v-477h-314zM451 554q0 -138 77.5 -223t191.5 -85t192.5 86t78.5 222t-78.5 222t-192.5 86t-191.5 -85t-77.5 -223z" />
<glyph unicode="&#xff;" horiz-adv-x="1241" d="M41 1108h334l252 -754l241 754h328l-426 -1135q-66 -172 -145.5 -241.5t-218.5 -69.5q-150 0 -279 78l104 227q72 -43 136 -43q74 0 108 72zM248 1231v278h303v-278h-303zM690 1231v278h303v-278h-303z" />
<glyph unicode="&#x152;" horiz-adv-x="2222" d="M111 722q0 310 216 518t552 208h1224v-283h-723v-295h631v-282h-631v-305h734v-283h-1235q-336 0 -552 206t-216 516zM442 726q0 -194 121 -316.5t316 -122.5h184v874h-184q-195 0 -316 -120.5t-121 -314.5z" />
<glyph unicode="&#x153;" horiz-adv-x="2136" d="M86 551q0 240 173 408.5t419 168.5q266 0 428 -192q152 193 405 192q258 0 395.5 -174t137.5 -428q0 -25 -4 -82h-772q49 -217 270 -217q147 0 270 115l181 -160q-168 -207 -455 -207q-281 0 -434 197q-164 -197 -434 -197q-238 0 -409 168t-171 408zM397 554 q0 -128 79 -218t202 -90q127 0 202.5 88t75.5 216t-78.5 218t-203.5 90t-201 -88t-76 -216zM1264 641h473q-14 109 -74.5 172.5t-159.5 63.5q-94 0 -157.5 -62.5t-81.5 -173.5z" />
<glyph unicode="&#x178;" horiz-adv-x="1480" d="M25 1448h372l346 -582l351 582h362l-557 -870v-578h-317v571zM369 1563v278h301v-278h-301zM811 1563v278h301v-278h-301z" />
<glyph unicode="&#x2c6;" horiz-adv-x="1034" d="M115 1231l254 325h297l254 -325h-242l-164 137l-162 -137h-237z" />
<glyph unicode="&#x2dc;" horiz-adv-x="1034" d="M90 1262q41 143 98.5 213.5t159.5 70.5q70 0 174.5 -40t134.5 -40q45 0 70 23.5t49 79.5l168 -53q-41 -141 -98.5 -213t-159.5 -72q-70 0 -174 40t-135 40q-45 0 -69.5 -23.5t-49.5 -77.5z" />
<glyph unicode="&#x2000;" horiz-adv-x="962" />
<glyph unicode="&#x2001;" horiz-adv-x="1927" />
<glyph unicode="&#x2002;" horiz-adv-x="962" />
<glyph unicode="&#x2003;" horiz-adv-x="1927" />
<glyph unicode="&#x2004;" horiz-adv-x="641" />
<glyph unicode="&#x2005;" horiz-adv-x="481" />
<glyph unicode="&#x2006;" horiz-adv-x="319" />
<glyph unicode="&#x2007;" horiz-adv-x="319" />
<glyph unicode="&#x2008;" horiz-adv-x="239" />
<glyph unicode="&#x2009;" horiz-adv-x="385" />
<glyph unicode="&#x200a;" horiz-adv-x="106" />
<glyph unicode="&#x2010;" horiz-adv-x="843" d="M102 489v304h639v-304h-639z" />
<glyph unicode="&#x2011;" horiz-adv-x="843" d="M102 489v304h639v-304h-639z" />
<glyph unicode="&#x2012;" horiz-adv-x="843" d="M102 489v304h639v-304h-639z" />
<glyph unicode="&#x2013;" horiz-adv-x="1091" d="M102 494v294h887v-294h-887z" />
<glyph unicode="&#x2014;" horiz-adv-x="1855" d="M102 494v294h1651v-294h-1651z" />
<glyph unicode="&#x2018;" horiz-adv-x="589" d="M119 793v278q0 199 96 291t285 96l28 -131q-221 -23 -202 -205h127v-329h-334z" />
<glyph unicode="&#x2019;" horiz-adv-x="589" d="M63 911q219 25 203 205h-127v332h334v-279q0 -199 -96 -291t-287 -96z" />
<glyph unicode="&#x201a;" horiz-adv-x="589" d="M53 -205q219 23 203 205h-127v332h334v-281q0 -199 -96.5 -291t-286.5 -96z" />
<glyph unicode="&#x201c;" horiz-adv-x="1116" d="M119 793v278q0 199 96 291t285 96l28 -131q-221 -23 -202 -205h127v-329h-334zM643 793v278q0 199 96.5 291t286.5 96l27 -131q-219 -23 -203 -205h129v-329h-336z" />
<glyph unicode="&#x201d;" horiz-adv-x="1116" d="M63 911q219 25 203 205h-127v332h334v-279q0 -199 -96 -291t-287 -96zM590 911q219 25 203 205h-129v332h335v-279q0 -199 -96 -291t-287 -96z" />
<glyph unicode="&#x201e;" horiz-adv-x="1116" d="M53 -205q219 23 203 205h-127v332h334v-281q0 -199 -96.5 -291t-286.5 -96zM580 -205q219 23 202 205h-129v332h336v-281q0 -199 -96 -291t-287 -96z" />
<glyph unicode="&#x2022;" horiz-adv-x="1034" d="M209 728q0 128 90 218t218 90t218 -90t90 -218t-90 -218t-218 -90t-218 90t-90 218z" />
<glyph unicode="&#x2026;" horiz-adv-x="1736" d="M129 0v324h326v-324h-326zM705 0v324h327v-324h-327zM1282 0v324h328v-324h-328z" />
<glyph unicode="&#x202f;" horiz-adv-x="385" />
<glyph unicode="&#x2039;" horiz-adv-x="770" d="M84 547v16l348 463l240 -117l-269 -352l269 -354l-240 -121z" />
<glyph unicode="&#x203a;" horiz-adv-x="770" d="M98 199l271 354l-271 352l242 121l346 -463v-16l-346 -465z" />
<glyph unicode="&#x2044;" horiz-adv-x="991" d="M-147 -203l964 1772h277l-963 -1772h-278z" />
<glyph unicode="&#x205f;" horiz-adv-x="481" />
<glyph unicode="&#x2122;" horiz-adv-x="1425" d="M53 1319v129h527v-129h-191v-508h-145v508h-191zM713 811v637h153l168 -268l168 268h150v-637h-138v430l-176 -278h-12l-176 278v-430h-137z" />
<glyph unicode="&#xe000;" horiz-adv-x="1110" d="M0 1110h1110v-1110h-1110v1110z" />
<glyph unicode="&#xfb01;" horiz-adv-x="1413" d="M63 840v258h132v71q0 354 344 355q125 0 223 -31v-260q-76 27 -144 27q-115 0 -114 -119v-45h256v-256h-252v-840h-313v840h-132zM938 1231v278h330v-278h-330zM946 0v1108h314v-1108h-314z" />
<glyph unicode="&#xfb02;" horiz-adv-x="1413" d="M63 840v258h132v71q0 354 344 355q125 0 223 -31v-260q-76 27 -144 27q-115 0 -114 -119v-45h256v-256h-252v-840h-313v840h-132zM946 0v1509h314v-1509h-314z" />
<glyph unicode="&#xfb03;" horiz-adv-x="2203" d="M1728 1231v278h330v-278h-330zM1737 0v1108h313v-1108h-313zM854 840v258h132v71q0 354 344 355q125 0 223 -31v-260q-76 27 -144 27q-115 0 -114 -119v-45h256v-256h-252v-840h-313v840h-132zM63 840v258h132v71q0 354 344 355q125 0 223 -31v-260q-76 27 -144 27 q-115 0 -114 -119v-45h256v-256h-252v-840h-313v840h-132z" />
<glyph unicode="&#xfb04;" horiz-adv-x="2203" d="M1737 0v1509h313v-1509h-313zM854 840v258h132v71q0 354 344 355q125 0 223 -31v-260q-76 27 -144 27q-115 0 -114 -119v-45h256v-256h-252v-840h-313v840h-132zM63 840v258h132v71q0 354 344 355q125 0 223 -31v-260q-76 27 -144 27q-115 0 -114 -119v-45h256v-256h-252 v-840h-313v840h-132z" />
</font>
</defs>
</svg>
